<?xml version="1.0" encoding="utf-8" ?>
<svg baseProfile="full" height="117px" version="1.1" width="117px" xmlns="http://www.w3.org/2000/svg" xmlns:ev="http://www.w3.org/2001/xml-events" xmlns:xlink="http://www.w3.org/1999/xlink"><defs /><rect fill="rgb(0,0,0)" height="3px" opacity="0.992156862745" width="3px" x="63px" y="0px" /><rect fill="rgb(0,0,0)" height="3px" opacity="0.992156862745" width="3px" x="60px" y="3px" /><rect fill="rgb(0,0,0)" height="3px" opacity="0.992156862745" width="3px" x="69px" y="3px" /><rect fill="rgb(0,0,0)" height="3px" opacity="0.992156862745" width="3px" x="72px" y="3px" /><rect fill="rgb(0,0,0)" height="3px" opacity="0.992156862745" width="3px" x="99px" y="3px" /><rect fill="rgb(0,0,0)" height="3px" opacity="0.992156862745" width="3px" x="102px" y="3px" /><rect fill="rgb(0,0,0)" height="3px" opacity="0.992156862745" width="3px" x="105px" y="3px" /><rect fill="rgb(0,0,0)" height="3px" opacity="0.992156862745" width="3px" x="57px" y="6px" /><rect fill="rgb(0,0,0)" height="3px" opacity="0.992156862745" width="3px" x="63px" y="6px" /><rect fill="rgb(0,0,0)" height="3px" opacity="0.992156862745" width="3px" x="66px" y="6px" /><rect fill="rgb(0,0,0)" height="3px" opacity="0.992156862745" width="3px" x="69px" y="6px" /><rect fill="rgb(0,0,0)" height="3px" opacity="0.992156862745" width="3px" x="93px" y="6px" /><rect fill="rgb(0,0,0)" height="3px" opacity="0.992156862745" width="3px" x="96px" y="6px" /><rect fill="rgb(0,0,0)" height="3px" opacity="0.992156862745" width="3px" x="99px" y="6px" /><rect fill="rgb(0,0,0)" height="3px" opacity="0.992156862745" width="3px" x="102px" y="6px" /><rect fill="rgb(0,0,0)" height="3px" opacity="0.992156862745" width="3px" x="36px" y="9px" /><rect fill="rgb(0,0,0)" height="3px" opacity="0.992156862745" width="3px" x="39px" y="9px" /><rect fill="rgb(0,0,0)" height="3px" opacity="0.992156862745" width="3px" x="42px" y="9px" /><rect fill="rgb(0,0,0)" height="3px" opacity="0.992156862745" width="3px" x="45px" y="9px" /><rect fill="rgb(0,0,0)" height="3px" opacity="0.992156862745" width="3px" x="48px" y="9px" /><rect fill="rgb(0,0,0)" height="3px" opacity="0.992156862745" width="3px" x="51px" y="9px" /><rect fill="rgb(0,0,0)" height="3px" opacity="0.992156862745" width="3px" x="54px" y="9px" /><rect fill="rgb(0,0,0)" height="3px" opacity="0.992156862745" width="3px" x="57px" y="9px" /><rect fill="rgb(0,0,0)" height="3px" opacity="0.992156862745" width="3px" x="60px" y="9px" /><rect fill="rgb(0,0,0)" height="3px" opacity="1.0" width="3px" x="63px" y="9px" /><rect fill="rgb(0,0,0)" height="3px" opacity="1.0" width="3px" x="66px" y="9px" /><rect fill="rgb(0,0,0)" height="3px" opacity="0.992156862745" width="3px" x="69px" y="9px" /><rect fill="rgb(0,0,0)" height="3px" opacity="0.992156862745" width="3px" x="90px" y="9px" /><rect fill="rgb(0,0,0)" height="3px" opacity="1.0" width="3px" x="93px" y="9px" /><rect fill="rgb(0,0,0)" height="3px" opacity="0.992156862745" width="3px" x="96px" y="9px" /><rect fill="rgb(0,0,0)" height="3px" opacity="0.992156862745" width="3px" x="99px" y="9px" /><rect fill="rgb(0,0,0)" height="3px" opacity="0.992156862745" width="3px" x="15px" y="12px" /><rect fill="rgb(0,0,0)" height="3px" opacity="0.992156862745" width="3px" x="33px" y="12px" /><rect fill="rgb(0,0,0)" height="3px" opacity="0.992156862745" width="3px" x="36px" y="12px" /><rect fill="rgb(0,0,0)" height="3px" opacity="1.0" width="3px" x="39px" y="12px" /><rect fill="rgb(0,0,0)" height="3px" opacity="1.0" width="3px" x="42px" y="12px" /><rect fill="rgb(0,0,0)" height="3px" opacity="1.0" width="3px" x="45px" y="12px" /><rect fill="rgb(0,0,0)" height="3px" opacity="0.992156862745" width="3px" x="48px" y="12px" /><rect fill="rgb(0,0,0)" height="3px" opacity="0.992156862745" width="3px" x="54px" y="12px" /><rect fill="rgb(0,0,0)" height="3px" opacity="1.0" width="3px" x="57px" y="12px" /><rect fill="rgb(0,0,0)" height="3px" opacity="1.0" width="3px" x="60px" y="12px" /><rect fill="rgb(0,0,0)" height="3px" opacity="1.0" width="3px" x="63px" y="12px" /><rect fill="rgb(0,0,0)" height="3px" opacity="0.992156862745" width="3px" x="66px" y="12px" /><rect fill="rgb(0,0,0)" height="3px" opacity="0.992156862745" width="3px" x="84px" y="12px" /><rect fill="rgb(0,0,0)" height="3px" opacity="0.992156862745" width="3px" x="87px" y="12px" /><rect fill="rgb(0,0,0)" height="3px" opacity="1.0" width="3px" x="90px" y="12px" /><rect fill="rgb(0,0,0)" height="3px" opacity="1.0" width="3px" x="93px" y="12px" /><rect fill="rgb(0,0,0)" height="3px" opacity="0.992156862745" width="3px" x="96px" y="12px" /><rect fill="rgb(0,0,0)" height="3px" opacity="0.992156862745" width="3px" x="18px" y="15px" /><rect fill="rgb(0,0,0)" height="3px" opacity="0.992156862745" width="3px" x="33px" y="15px" /><rect fill="rgb(0,0,0)" height="3px" opacity="1.0" width="3px" x="36px" y="15px" /><rect fill="rgb(0,0,0)" height="3px" opacity="1.0" width="3px" x="39px" y="15px" /><rect fill="rgb(0,0,0)" height="3px" opacity="1.0" width="3px" x="42px" y="15px" /><rect fill="rgb(0,0,0)" height="3px" opacity="1.0" width="3px" x="45px" y="15px" /><rect fill="rgb(0,0,0)" height="3px" opacity="1.0" width="3px" x="48px" y="15px" /><rect fill="rgb(0,0,0)" height="3px" opacity="0.992156862745" width="3px" x="51px" y="15px" /><rect fill="rgb(0,0,0)" height="3px" opacity="1.0" width="3px" x="54px" y="15px" /><rect fill="rgb(0,0,0)" height="3px" opacity="1.0" width="3px" x="57px" y="15px" /><rect fill="rgb(0,0,0)" height="3px" opacity="1.0" width="3px" x="60px" y="15px" /><rect fill="rgb(0,0,0)" height="3px" opacity="0.992156862745" width="3px" x="63px" y="15px" /><rect fill="rgb(0,0,0)" height="3px" opacity="0.992156862745" width="3px" x="81px" y="15px" /><rect fill="rgb(0,0,0)" height="3px" opacity="1.0" width="3px" x="84px" y="15px" /><rect fill="rgb(0,0,0)" height="3px" opacity="1.0" width="3px" x="87px" y="15px" /><rect fill="rgb(0,0,0)" height="3px" opacity="1.0" width="3px" x="90px" y="15px" /><rect fill="rgb(0,0,0)" height="3px" opacity="0.992156862745" width="3px" x="93px" y="15px" /><rect fill="rgb(0,0,0)" height="3px" opacity="0.992156862745" width="3px" x="9px" y="18px" /><rect fill="rgb(0,0,0)" height="3px" opacity="0.992156862745" width="3px" x="12px" y="18px" /><rect fill="rgb(0,0,0)" height="3px" opacity="0.992156862745" width="3px" x="18px" y="18px" /><rect fill="rgb(0,0,0)" height="3px" opacity="0.992156862745" width="3px" x="30px" y="18px" /><rect fill="rgb(0,0,0)" height="3px" opacity="0.992156862745" width="3px" x="36px" y="18px" /><rect fill="rgb(0,0,0)" height="3px" opacity="0.992156862745" width="3px" x="39px" y="18px" /><rect fill="rgb(0,0,0)" height="3px" opacity="0.992156862745" width="3px" x="42px" y="18px" /><rect fill="rgb(0,0,0)" height="3px" opacity="0.992156862745" width="3px" x="45px" y="18px" /><rect fill="rgb(0,0,0)" height="3px" opacity="1.0" width="3px" x="48px" y="18px" /><rect fill="rgb(0,0,0)" height="3px" opacity="1.0" width="3px" x="51px" y="18px" /><rect fill="rgb(0,0,0)" height="3px" opacity="1.0" width="3px" x="54px" y="18px" /><rect fill="rgb(0,0,0)" height="3px" opacity="1.0" width="3px" x="57px" y="18px" /><rect fill="rgb(0,0,0)" height="3px" opacity="1.0" width="3px" x="60px" y="18px" /><rect fill="rgb(0,0,0)" height="3px" opacity="0.992156862745" width="3px" x="63px" y="18px" /><rect fill="rgb(0,0,0)" height="3px" opacity="0.992156862745" width="3px" x="78px" y="18px" /><rect fill="rgb(0,0,0)" height="3px" opacity="1.0" width="3px" x="81px" y="18px" /><rect fill="rgb(0,0,0)" height="3px" opacity="1.0" width="3px" x="84px" y="18px" /><rect fill="rgb(0,0,0)" height="3px" opacity="1.0" width="3px" x="87px" y="18px" /><rect fill="rgb(0,0,0)" height="3px" opacity="1.0" width="3px" x="90px" y="18px" /><rect fill="rgb(0,0,0)" height="3px" opacity="0.992156862745" width="3px" x="93px" y="18px" /><rect fill="rgb(0,0,0)" height="3px" opacity="0.992156862745" width="3px" x="15px" y="21px" /><rect fill="rgb(0,0,0)" height="3px" opacity="1.0" width="3px" x="18px" y="21px" /><rect fill="rgb(0,0,0)" height="3px" opacity="0.992156862745" width="3px" x="48px" y="21px" /><rect fill="rgb(0,0,0)" height="3px" opacity="1.0" width="3px" x="51px" y="21px" /><rect fill="rgb(0,0,0)" height="3px" opacity="1.0" width="3px" x="54px" y="21px" /><rect fill="rgb(0,0,0)" height="3px" opacity="1.0" width="3px" x="57px" y="21px" /><rect fill="rgb(0,0,0)" height="3px" opacity="1.0" width="3px" x="60px" y="21px" /><rect fill="rgb(0,0,0)" height="3px" opacity="0.992156862745" width="3px" x="63px" y="21px" /><rect fill="rgb(0,0,0)" height="3px" opacity="0.992156862745" width="3px" x="75px" y="21px" /><rect fill="rgb(0,0,0)" height="3px" opacity="1.0" width="3px" x="78px" y="21px" /><rect fill="rgb(0,0,0)" height="3px" opacity="1.0" width="3px" x="81px" y="21px" /><rect fill="rgb(0,0,0)" height="3px" opacity="1.0" width="3px" x="84px" y="21px" /><rect fill="rgb(0,0,0)" height="3px" opacity="1.0" width="3px" x="87px" y="21px" /><rect fill="rgb(0,0,0)" height="3px" opacity="1.0" width="3px" x="90px" y="21px" /><rect fill="rgb(0,0,0)" height="3px" opacity="1.0" width="3px" x="93px" y="21px" /><rect fill="rgb(0,0,0)" height="3px" opacity="0.992156862745" width="3px" x="96px" y="21px" /><rect fill="rgb(0,0,0)" height="3px" opacity="0.992156862745" width="3px" x="15px" y="24px" /><rect fill="rgb(0,0,0)" height="3px" opacity="0.992156862745" width="3px" x="18px" y="24px" /><rect fill="rgb(0,0,0)" height="3px" opacity="0.992156862745" width="3px" x="21px" y="24px" /><rect fill="rgb(0,0,0)" height="3px" opacity="0.992156862745" width="3px" x="45px" y="24px" /><rect fill="rgb(0,0,0)" height="3px" opacity="1.0" width="3px" x="48px" y="24px" /><rect fill="rgb(0,0,0)" height="3px" opacity="1.0" width="3px" x="51px" y="24px" /><rect fill="rgb(0,0,0)" height="3px" opacity="1.0" width="3px" x="54px" y="24px" /><rect fill="rgb(0,0,0)" height="3px" opacity="1.0" width="3px" x="57px" y="24px" /><rect fill="rgb(0,0,0)" height="3px" opacity="0.992156862745" width="3px" x="60px" y="24px" /><rect fill="rgb(0,0,0)" height="3px" opacity="0.992156862745" width="3px" x="72px" y="24px" /><rect fill="rgb(0,0,0)" height="3px" opacity="1.0" width="3px" x="75px" y="24px" /><rect fill="rgb(0,0,0)" height="3px" opacity="1.0" width="3px" x="78px" y="24px" /><rect fill="rgb(0,0,0)" height="3px" opacity="1.0" width="3px" x="81px" y="24px" /><rect fill="rgb(0,0,0)" height="3px" opacity="1.0" width="3px" x="84px" y="24px" /><rect fill="rgb(0,0,0)" height="3px" opacity="1.0" width="3px" x="87px" y="24px" /><rect fill="rgb(0,0,0)" height="3px" opacity="1.0" width="3px" x="90px" y="24px" /><rect fill="rgb(0,0,0)" height="3px" opacity="1.0" width="3px" x="93px" y="24px" /><rect fill="rgb(0,0,0)" height="3px" opacity="1.0" width="3px" x="96px" y="24px" /><rect fill="rgb(0,0,0)" height="3px" opacity="0.992156862745" width="3px" x="99px" y="24px" /><rect fill="rgb(0,0,0)" height="3px" opacity="0.992156862745" width="3px" x="18px" y="27px" /><rect fill="rgb(0,0,0)" height="3px" opacity="0.992156862745" width="3px" x="21px" y="27px" /><rect fill="rgb(0,0,0)" height="3px" opacity="0.992156862745" width="3px" x="24px" y="27px" /><rect fill="rgb(0,0,0)" height="3px" opacity="0.992156862745" width="3px" x="42px" y="27px" /><rect fill="rgb(0,0,0)" height="3px" opacity="1.0" width="3px" x="45px" y="27px" /><rect fill="rgb(0,0,0)" height="3px" opacity="1.0" width="3px" x="48px" y="27px" /><rect fill="rgb(0,0,0)" height="3px" opacity="1.0" width="3px" x="51px" y="27px" /><rect fill="rgb(0,0,0)" height="3px" opacity="1.0" width="3px" x="54px" y="27px" /><rect fill="rgb(0,0,0)" height="3px" opacity="1.0" width="3px" x="57px" y="27px" /><rect fill="rgb(0,0,0)" height="3px" opacity="0.992156862745" width="3px" x="60px" y="27px" /><rect fill="rgb(0,0,0)" height="3px" opacity="0.992156862745" width="3px" x="72px" y="27px" /><rect fill="rgb(0,0,0)" height="3px" opacity="1.0" width="3px" x="75px" y="27px" /><rect fill="rgb(0,0,0)" height="3px" opacity="1.0" width="3px" x="78px" y="27px" /><rect fill="rgb(0,0,0)" height="3px" opacity="1.0" width="3px" x="81px" y="27px" /><rect fill="rgb(0,0,0)" height="3px" opacity="1.0" width="3px" x="84px" y="27px" /><rect fill="rgb(0,0,0)" height="3px" opacity="1.0" width="3px" x="87px" y="27px" /><rect fill="rgb(0,0,0)" height="3px" opacity="1.0" width="3px" x="90px" y="27px" /><rect fill="rgb(0,0,0)" height="3px" opacity="1.0" width="3px" x="93px" y="27px" /><rect fill="rgb(0,0,0)" height="3px" opacity="0.992156862745" width="3px" x="96px" y="27px" /><rect fill="rgb(0,0,0)" height="3px" opacity="0.992156862745" width="3px" x="15px" y="30px" /><rect fill="rgb(0,0,0)" height="3px" opacity="0.992156862745" width="3px" x="21px" y="30px" /><rect fill="rgb(0,0,0)" height="3px" opacity="1.0" width="3px" x="24px" y="30px" /><rect fill="rgb(0,0,0)" height="3px" opacity="0.992156862745" width="3px" x="27px" y="30px" /><rect fill="rgb(0,0,0)" height="3px" opacity="0.992156862745" width="3px" x="39px" y="30px" /><rect fill="rgb(0,0,0)" height="3px" opacity="1.0" width="3px" x="42px" y="30px" /><rect fill="rgb(0,0,0)" height="3px" opacity="1.0" width="3px" x="45px" y="30px" /><rect fill="rgb(0,0,0)" height="3px" opacity="1.0" width="3px" x="48px" y="30px" /><rect fill="rgb(0,0,0)" height="3px" opacity="1.0" width="3px" x="51px" y="30px" /><rect fill="rgb(0,0,0)" height="3px" opacity="1.0" width="3px" x="54px" y="30px" /><rect fill="rgb(0,0,0)" height="3px" opacity="0.992156862745" width="3px" x="57px" y="30px" /><rect fill="rgb(0,0,0)" height="3px" opacity="0.992156862745" width="3px" x="72px" y="30px" /><rect fill="rgb(0,0,0)" height="3px" opacity="1.0" width="3px" x="75px" y="30px" /><rect fill="rgb(0,0,0)" height="3px" opacity="1.0" width="3px" x="78px" y="30px" /><rect fill="rgb(0,0,0)" height="3px" opacity="1.0" width="3px" x="81px" y="30px" /><rect fill="rgb(0,0,0)" height="3px" opacity="1.0" width="3px" x="84px" y="30px" /><rect fill="rgb(0,0,0)" height="3px" opacity="1.0" width="3px" x="87px" y="30px" /><rect fill="rgb(0,0,0)" height="3px" opacity="1.0" width="3px" x="90px" y="30px" /><rect fill="rgb(0,0,0)" height="3px" opacity="0.992156862745" width="3px" x="93px" y="30px" /><rect fill="rgb(0,0,0)" height="3px" opacity="0.992156862745" width="3px" x="21px" y="33px" /><rect fill="rgb(0,0,0)" height="3px" opacity="0.992156862745" width="3px" x="24px" y="33px" /><rect fill="rgb(0,0,0)" height="3px" opacity="0.992156862745" width="3px" x="27px" y="33px" /><rect fill="rgb(0,0,0)" height="3px" opacity="0.992156862745" width="3px" x="30px" y="33px" /><rect fill="rgb(0,0,0)" height="3px" opacity="0.992156862745" width="3px" x="39px" y="33px" /><rect fill="rgb(0,0,0)" height="3px" opacity="1.0" width="3px" x="42px" y="33px" /><rect fill="rgb(0,0,0)" height="3px" opacity="1.0" width="3px" x="45px" y="33px" /><rect fill="rgb(0,0,0)" height="3px" opacity="1.0" width="3px" x="48px" y="33px" /><rect fill="rgb(0,0,0)" height="3px" opacity="1.0" width="3px" x="51px" y="33px" /><rect fill="rgb(0,0,0)" height="3px" opacity="1.0" width="3px" x="54px" y="33px" /><rect fill="rgb(0,0,0)" height="3px" opacity="0.992156862745" width="3px" x="57px" y="33px" /><rect fill="rgb(0,0,0)" height="3px" opacity="0.992156862745" width="3px" x="69px" y="33px" /><rect fill="rgb(0,0,0)" height="3px" opacity="1.0" width="3px" x="72px" y="33px" /><rect fill="rgb(0,0,0)" height="3px" opacity="1.0" width="3px" x="75px" y="33px" /><rect fill="rgb(0,0,0)" height="3px" opacity="1.0" width="3px" x="78px" y="33px" /><rect fill="rgb(0,0,0)" height="3px" opacity="1.0" width="3px" x="81px" y="33px" /><rect fill="rgb(0,0,0)" height="3px" opacity="1.0" width="3px" x="84px" y="33px" /><rect fill="rgb(0,0,0)" height="3px" opacity="1.0" width="3px" x="87px" y="33px" /><rect fill="rgb(0,0,0)" height="3px" opacity="0.992156862745" width="3px" x="90px" y="33px" /><rect fill="rgb(0,0,0)" height="3px" opacity="0.992156862745" width="3px" x="21px" y="36px" /><rect fill="rgb(0,0,0)" height="3px" opacity="0.992156862745" width="3px" x="27px" y="36px" /><rect fill="rgb(0,0,0)" height="3px" opacity="0.992156862745" width="3px" x="30px" y="36px" /><rect fill="rgb(0,0,0)" height="3px" opacity="0.992156862745" width="3px" x="33px" y="36px" /><rect fill="rgb(0,0,0)" height="3px" opacity="0.992156862745" width="3px" x="36px" y="36px" /><rect fill="rgb(0,0,0)" height="3px" opacity="1.0" width="3px" x="39px" y="36px" /><rect fill="rgb(0,0,0)" height="3px" opacity="0.992156862745" width="3px" x="42px" y="36px" /><rect fill="rgb(0,0,0)" height="3px" opacity="0.992156862745" width="3px" x="45px" y="36px" /><rect fill="rgb(0,0,0)" height="3px" opacity="0.992156862745" width="3px" x="48px" y="36px" /><rect fill="rgb(0,0,0)" height="3px" opacity="1.0" width="3px" x="51px" y="36px" /><rect fill="rgb(0,0,0)" height="3px" opacity="1.0" width="3px" x="54px" y="36px" /><rect fill="rgb(0,0,0)" height="3px" opacity="0.992156862745" width="3px" x="57px" y="36px" /><rect fill="rgb(0,0,0)" height="3px" opacity="0.992156862745" width="3px" x="69px" y="36px" /><rect fill="rgb(0,0,0)" height="3px" opacity="1.0" width="3px" x="72px" y="36px" /><rect fill="rgb(0,0,0)" height="3px" opacity="1.0" width="3px" x="75px" y="36px" /><rect fill="rgb(0,0,0)" height="3px" opacity="1.0" width="3px" x="78px" y="36px" /><rect fill="rgb(0,0,0)" height="3px" opacity="1.0" width="3px" x="81px" y="36px" /><rect fill="rgb(0,0,0)" height="3px" opacity="1.0" width="3px" x="84px" y="36px" /><rect fill="rgb(0,0,0)" height="3px" opacity="1.0" width="3px" x="87px" y="36px" /><rect fill="rgb(0,0,0)" height="3px" opacity="0.992156862745" width="3px" x="90px" y="36px" /><rect fill="rgb(0,0,0)" height="3px" opacity="0.992156862745" width="3px" x="21px" y="39px" /><rect fill="rgb(0,0,0)" height="3px" opacity="0.992156862745" width="3px" x="30px" y="39px" /><rect fill="rgb(0,0,0)" height="3px" opacity="0.992156862745" width="3px" x="33px" y="39px" /><rect fill="rgb(0,0,0)" height="3px" opacity="0.992156862745" width="3px" x="36px" y="39px" /><rect fill="rgb(0,0,0)" height="3px" opacity="0.992156862745" width="3px" x="39px" y="39px" /><rect fill="rgb(0,0,0)" height="3px" opacity="0.992156862745" width="3px" x="51px" y="39px" /><rect fill="rgb(0,0,0)" height="3px" opacity="0.992156862745" width="3px" x="54px" y="39px" /><rect fill="rgb(0,0,0)" height="3px" opacity="0.992156862745" width="3px" x="60px" y="39px" /><rect fill="rgb(0,0,0)" height="3px" opacity="0.992156862745" width="3px" x="63px" y="39px" /><rect fill="rgb(0,0,0)" height="3px" opacity="0.992156862745" width="3px" x="66px" y="39px" /><rect fill="rgb(0,0,0)" height="3px" opacity="1.0" width="3px" x="69px" y="39px" /><rect fill="rgb(0,0,0)" height="3px" opacity="1.0" width="3px" x="72px" y="39px" /><rect fill="rgb(0,0,0)" height="3px" opacity="1.0" width="3px" x="75px" y="39px" /><rect fill="rgb(0,0,0)" height="3px" opacity="1.0" width="3px" x="78px" y="39px" /><rect fill="rgb(0,0,0)" height="3px" opacity="1.0" width="3px" x="81px" y="39px" /><rect fill="rgb(0,0,0)" height="3px" opacity="1.0" width="3px" x="84px" y="39px" /><rect fill="rgb(0,0,0)" height="3px" opacity="1.0" width="3px" x="87px" y="39px" /><rect fill="rgb(0,0,0)" height="3px" opacity="0.992156862745" width="3px" x="90px" y="39px" /><rect fill="rgb(0,0,0)" height="3px" opacity="0.992156862745" width="3px" x="33px" y="42px" /><rect fill="rgb(0,0,0)" height="3px" opacity="0.992156862745" width="3px" x="36px" y="42px" /><rect fill="rgb(0,0,0)" height="3px" opacity="0.992156862745" width="3px" x="42px" y="42px" /><rect fill="rgb(0,0,0)" height="3px" opacity="0.992156862745" width="3px" x="45px" y="42px" /><rect fill="rgb(0,0,0)" height="3px" opacity="0.992156862745" width="3px" x="48px" y="42px" /><rect fill="rgb(0,0,0)" height="3px" opacity="0.992156862745" width="3px" x="51px" y="42px" /><rect fill="rgb(0,0,0)" height="3px" opacity="0.992156862745" width="3px" x="57px" y="42px" /><rect fill="rgb(0,0,0)" height="3px" opacity="1.0" width="3px" x="60px" y="42px" /><rect fill="rgb(0,0,0)" height="3px" opacity="1.0" width="3px" x="63px" y="42px" /><rect fill="rgb(0,0,0)" height="3px" opacity="1.0" width="3px" x="66px" y="42px" /><rect fill="rgb(0,0,0)" height="3px" opacity="1.0" width="3px" x="69px" y="42px" /><rect fill="rgb(0,0,0)" height="3px" opacity="1.0" width="3px" x="72px" y="42px" /><rect fill="rgb(0,0,0)" height="3px" opacity="1.0" width="3px" x="75px" y="42px" /><rect fill="rgb(0,0,0)" height="3px" opacity="1.0" width="3px" x="78px" y="42px" /><rect fill="rgb(0,0,0)" height="3px" opacity="1.0" width="3px" x="81px" y="42px" /><rect fill="rgb(0,0,0)" height="3px" opacity="1.0" width="3px" x="84px" y="42px" /><rect fill="rgb(0,0,0)" height="3px" opacity="1.0" width="3px" x="87px" y="42px" /><rect fill="rgb(0,0,0)" height="3px" opacity="0.992156862745" width="3px" x="90px" y="42px" /><rect fill="rgb(0,0,0)" height="3px" opacity="0.992156862745" width="3px" x="39px" y="45px" /><rect fill="rgb(0,0,0)" height="3px" opacity="1.0" width="3px" x="42px" y="45px" /><rect fill="rgb(0,0,0)" height="3px" opacity="1.0" width="3px" x="45px" y="45px" /><rect fill="rgb(0,0,0)" height="3px" opacity="1.0" width="3px" x="48px" y="45px" /><rect fill="rgb(0,0,0)" height="3px" opacity="0.992156862745" width="3px" x="51px" y="45px" /><rect fill="rgb(0,0,0)" height="3px" opacity="0.992156862745" width="3px" x="57px" y="45px" /><rect fill="rgb(0,0,0)" height="3px" opacity="1.0" width="3px" x="60px" y="45px" /><rect fill="rgb(0,0,0)" height="3px" opacity="1.0" width="3px" x="63px" y="45px" /><rect fill="rgb(0,0,0)" height="3px" opacity="1.0" width="3px" x="66px" y="45px" /><rect fill="rgb(0,0,0)" height="3px" opacity="1.0" width="3px" x="69px" y="45px" /><rect fill="rgb(0,0,0)" height="3px" opacity="1.0" width="3px" x="72px" y="45px" /><rect fill="rgb(0,0,0)" height="3px" opacity="1.0" width="3px" x="75px" y="45px" /><rect fill="rgb(0,0,0)" height="3px" opacity="1.0" width="3px" x="78px" y="45px" /><rect fill="rgb(0,0,0)" height="3px" opacity="1.0" width="3px" x="81px" y="45px" /><rect fill="rgb(0,0,0)" height="3px" opacity="1.0" width="3px" x="84px" y="45px" /><rect fill="rgb(0,0,0)" height="3px" opacity="1.0" width="3px" x="87px" y="45px" /><rect fill="rgb(0,0,0)" height="3px" opacity="0.992156862745" width="3px" x="90px" y="45px" /><rect fill="rgb(0,0,0)" height="3px" opacity="0.992156862745" width="3px" x="93px" y="45px" /><rect fill="rgb(0,0,0)" height="3px" opacity="0.992156862745" width="3px" x="36px" y="48px" /><rect fill="rgb(0,0,0)" height="3px" opacity="0.992156862745" width="3px" x="39px" y="48px" /><rect fill="rgb(0,0,0)" height="3px" opacity="1.0" width="3px" x="42px" y="48px" /><rect fill="rgb(0,0,0)" height="3px" opacity="1.0" width="3px" x="45px" y="48px" /><rect fill="rgb(0,0,0)" height="3px" opacity="1.0" width="3px" x="48px" y="48px" /><rect fill="rgb(0,0,0)" height="3px" opacity="1.0" width="3px" x="51px" y="48px" /><rect fill="rgb(0,0,0)" height="3px" opacity="0.992156862745" width="3px" x="54px" y="48px" /><rect fill="rgb(0,0,0)" height="3px" opacity="0.992156862745" width="3px" x="60px" y="48px" /><rect fill="rgb(0,0,0)" height="3px" opacity="0.992156862745" width="3px" x="63px" y="48px" /><rect fill="rgb(0,0,0)" height="3px" opacity="1.0" width="3px" x="66px" y="48px" /><rect fill="rgb(0,0,0)" height="3px" opacity="1.0" width="3px" x="69px" y="48px" /><rect fill="rgb(0,0,0)" height="3px" opacity="1.0" width="3px" x="72px" y="48px" /><rect fill="rgb(0,0,0)" height="3px" opacity="1.0" width="3px" x="75px" y="48px" /><rect fill="rgb(0,0,0)" height="3px" opacity="1.0" width="3px" x="78px" y="48px" /><rect fill="rgb(0,0,0)" height="3px" opacity="1.0" width="3px" x="81px" y="48px" /><rect fill="rgb(0,0,0)" height="3px" opacity="1.0" width="3px" x="84px" y="48px" /><rect fill="rgb(0,0,0)" height="3px" opacity="0.992156862745" width="3px" x="87px" y="48px" /><rect fill="rgb(0,0,0)" height="3px" opacity="0.992156862745" width="3px" x="33px" y="51px" /><rect fill="rgb(0,0,0)" height="3px" opacity="0.992156862745" width="3px" x="36px" y="51px" /><rect fill="rgb(0,0,0)" height="3px" opacity="0.992156862745" width="3px" x="39px" y="51px" /><rect fill="rgb(0,0,0)" height="3px" opacity="0.992156862745" width="3px" x="42px" y="51px" /><rect fill="rgb(0,0,0)" height="3px" opacity="0.992156862745" width="3px" x="45px" y="51px" /><rect fill="rgb(0,0,0)" height="3px" opacity="0.992156862745" width="3px" x="48px" y="51px" /><rect fill="rgb(0,0,0)" height="3px" opacity="1.0" width="3px" x="51px" y="51px" /><rect fill="rgb(0,0,0)" height="3px" opacity="1.0" width="3px" x="54px" y="51px" /><rect fill="rgb(0,0,0)" height="3px" opacity="0.992156862745" width="3px" x="57px" y="51px" /><rect fill="rgb(0,0,0)" height="3px" opacity="0.992156862745" width="3px" x="66px" y="51px" /><rect fill="rgb(0,0,0)" height="3px" opacity="0.992156862745" width="3px" x="69px" y="51px" /><rect fill="rgb(0,0,0)" height="3px" opacity="0.992156862745" width="3px" x="72px" y="51px" /><rect fill="rgb(0,0,0)" height="3px" opacity="1.0" width="3px" x="75px" y="51px" /><rect fill="rgb(0,0,0)" height="3px" opacity="1.0" width="3px" x="78px" y="51px" /><rect fill="rgb(0,0,0)" height="3px" opacity="1.0" width="3px" x="81px" y="51px" /><rect fill="rgb(0,0,0)" height="3px" opacity="0.992156862745" width="3px" x="84px" y="51px" /><rect fill="rgb(0,0,0)" height="3px" opacity="0.992156862745" width="3px" x="30px" y="54px" /><rect fill="rgb(0,0,0)" height="3px" opacity="0.992156862745" width="3px" x="33px" y="54px" /><rect fill="rgb(0,0,0)" height="3px" opacity="0.992156862745" width="3px" x="36px" y="54px" /><rect fill="rgb(0,0,0)" height="3px" opacity="0.992156862745" width="3px" x="39px" y="54px" /><rect fill="rgb(0,0,0)" height="3px" opacity="0.992156862745" width="3px" x="51px" y="54px" /><rect fill="rgb(0,0,0)" height="3px" opacity="1.0" width="3px" x="54px" y="54px" /><rect fill="rgb(0,0,0)" height="3px" opacity="1.0" width="3px" x="57px" y="54px" /><rect fill="rgb(0,0,0)" height="3px" opacity="0.992156862745" width="3px" x="60px" y="54px" /><rect fill="rgb(0,0,0)" height="3px" opacity="0.992156862745" width="3px" x="63px" y="54px" /><rect fill="rgb(0,0,0)" height="3px" opacity="0.992156862745" width="3px" x="75px" y="54px" /><rect fill="rgb(0,0,0)" height="3px" opacity="1.0" width="3px" x="78px" y="54px" /><rect fill="rgb(0,0,0)" height="3px" opacity="1.0" width="3px" x="81px" y="54px" /><rect fill="rgb(0,0,0)" height="3px" opacity="0.992156862745" width="3px" x="84px" y="54px" /><rect fill="rgb(0,0,0)" height="3px" opacity="0.992156862745" width="3px" x="99px" y="54px" /><rect fill="rgb(0,0,0)" height="3px" opacity="0.992156862745" width="3px" x="18px" y="57px" /><rect fill="rgb(0,0,0)" height="3px" opacity="0.992156862745" width="3px" x="21px" y="57px" /><rect fill="rgb(0,0,0)" height="3px" opacity="0.992156862745" width="3px" x="27px" y="57px" /><rect fill="rgb(0,0,0)" height="3px" opacity="0.992156862745" width="3px" x="30px" y="57px" /><rect fill="rgb(0,0,0)" height="3px" opacity="0.992156862745" width="3px" x="54px" y="57px" /><rect fill="rgb(0,0,0)" height="3px" opacity="0.992156862745" width="3px" x="57px" y="57px" /><rect fill="rgb(0,0,0)" height="3px" opacity="1.0" width="3px" x="60px" y="57px" /><rect fill="rgb(0,0,0)" height="3px" opacity="1.0" width="3px" x="63px" y="57px" /><rect fill="rgb(0,0,0)" height="3px" opacity="0.992156862745" width="3px" x="66px" y="57px" /><rect fill="rgb(0,0,0)" height="3px" opacity="0.992156862745" width="3px" x="69px" y="57px" /><rect fill="rgb(0,0,0)" height="3px" opacity="0.992156862745" width="3px" x="72px" y="57px" /><rect fill="rgb(0,0,0)" height="3px" opacity="0.992156862745" width="3px" x="78px" y="57px" /><rect fill="rgb(0,0,0)" height="3px" opacity="0.992156862745" width="3px" x="81px" y="57px" /><rect fill="rgb(0,0,0)" height="3px" opacity="0.992156862745" width="3px" x="84px" y="57px" /><rect fill="rgb(0,0,0)" height="3px" opacity="0.992156862745" width="3px" x="96px" y="57px" /><rect fill="rgb(0,0,0)" height="3px" opacity="0.992156862745" width="3px" x="99px" y="57px" /><rect fill="rgb(0,0,0)" height="3px" opacity="0.992156862745" width="3px" x="15px" y="60px" /><rect fill="rgb(0,0,0)" height="3px" opacity="0.992156862745" width="3px" x="21px" y="60px" /><rect fill="rgb(0,0,0)" height="3px" opacity="0.992156862745" width="3px" x="24px" y="60px" /><rect fill="rgb(0,0,0)" height="3px" opacity="1.0" width="3px" x="27px" y="60px" /><rect fill="rgb(0,0,0)" height="3px" opacity="0.992156862745" width="3px" x="30px" y="60px" /><rect fill="rgb(0,0,0)" height="3px" opacity="0.992156862745" width="3px" x="33px" y="60px" /><rect fill="rgb(0,0,0)" height="3px" opacity="0.992156862745" width="3px" x="48px" y="60px" /><rect fill="rgb(0,0,0)" height="3px" opacity="0.992156862745" width="3px" x="51px" y="60px" /><rect fill="rgb(0,0,0)" height="3px" opacity="0.992156862745" width="3px" x="60px" y="60px" /><rect fill="rgb(0,0,0)" height="3px" opacity="1.0" width="3px" x="63px" y="60px" /><rect fill="rgb(0,0,0)" height="3px" opacity="1.0" width="3px" x="66px" y="60px" /><rect fill="rgb(0,0,0)" height="3px" opacity="1.0" width="3px" x="69px" y="60px" /><rect fill="rgb(0,0,0)" height="3px" opacity="1.0" width="3px" x="72px" y="60px" /><rect fill="rgb(0,0,0)" height="3px" opacity="0.992156862745" width="3px" x="75px" y="60px" /><rect fill="rgb(0,0,0)" height="3px" opacity="0.992156862745" width="3px" x="81px" y="60px" /><rect fill="rgb(0,0,0)" height="3px" opacity="0.992156862745" width="3px" x="93px" y="60px" /><rect fill="rgb(0,0,0)" height="3px" opacity="0.992156862745" width="3px" x="96px" y="60px" /><rect fill="rgb(0,0,0)" height="3px" opacity="0.992156862745" width="3px" x="21px" y="63px" /><rect fill="rgb(0,0,0)" height="3px" opacity="0.992156862745" width="3px" x="24px" y="63px" /><rect fill="rgb(0,0,0)" height="3px" opacity="0.992156862745" width="3px" x="27px" y="63px" /><rect fill="rgb(0,0,0)" height="3px" opacity="0.992156862745" width="3px" x="36px" y="63px" /><rect fill="rgb(0,0,0)" height="3px" opacity="0.992156862745" width="3px" x="45px" y="63px" /><rect fill="rgb(0,0,0)" height="3px" opacity="1.0" width="3px" x="48px" y="63px" /><rect fill="rgb(0,0,0)" height="3px" opacity="1.0" width="3px" x="51px" y="63px" /><rect fill="rgb(0,0,0)" height="3px" opacity="1.0" width="3px" x="54px" y="63px" /><rect fill="rgb(0,0,0)" height="3px" opacity="0.992156862745" width="3px" x="57px" y="63px" /><rect fill="rgb(0,0,0)" height="3px" opacity="0.992156862745" width="3px" x="63px" y="63px" /><rect fill="rgb(0,0,0)" height="3px" opacity="1.0" width="3px" x="66px" y="63px" /><rect fill="rgb(0,0,0)" height="3px" opacity="1.0" width="3px" x="69px" y="63px" /><rect fill="rgb(0,0,0)" height="3px" opacity="1.0" width="3px" x="72px" y="63px" /><rect fill="rgb(0,0,0)" height="3px" opacity="0.992156862745" width="3px" x="75px" y="63px" /><rect fill="rgb(0,0,0)" height="3px" opacity="0.992156862745" width="3px" x="81px" y="63px" /><rect fill="rgb(0,0,0)" height="3px" opacity="0.992156862745" width="3px" x="93px" y="63px" /><rect fill="rgb(0,0,0)" height="3px" opacity="0.992156862745" width="3px" x="96px" y="63px" /><rect fill="rgb(0,0,0)" height="3px" opacity="0.992156862745" width="3px" x="18px" y="66px" /><rect fill="rgb(0,0,0)" height="3px" opacity="0.992156862745" width="3px" x="21px" y="66px" /><rect fill="rgb(0,0,0)" height="3px" opacity="0.992156862745" width="3px" x="27px" y="66px" /><rect fill="rgb(0,0,0)" height="3px" opacity="0.992156862745" width="3px" x="42px" y="66px" /><rect fill="rgb(0,0,0)" height="3px" opacity="1.0" width="3px" x="45px" y="66px" /><rect fill="rgb(0,0,0)" height="3px" opacity="1.0" width="3px" x="48px" y="66px" /><rect fill="rgb(0,0,0)" height="3px" opacity="1.0" width="3px" x="51px" y="66px" /><rect fill="rgb(0,0,0)" height="3px" opacity="1.0" width="3px" x="54px" y="66px" /><rect fill="rgb(0,0,0)" height="3px" opacity="1.0" width="3px" x="57px" y="66px" /><rect fill="rgb(0,0,0)" height="3px" opacity="0.992156862745" width="3px" x="60px" y="66px" /><rect fill="rgb(0,0,0)" height="3px" opacity="0.992156862745" width="3px" x="66px" y="66px" /><rect fill="rgb(0,0,0)" height="3px" opacity="1.0" width="3px" x="69px" y="66px" /><rect fill="rgb(0,0,0)" height="3px" opacity="1.0" width="3px" x="72px" y="66px" /><rect fill="rgb(0,0,0)" height="3px" opacity="0.992156862745" width="3px" x="75px" y="66px" /><rect fill="rgb(0,0,0)" height="3px" opacity="0.992156862745" width="3px" x="90px" y="66px" /><rect fill="rgb(0,0,0)" height="3px" opacity="0.992156862745" width="3px" x="93px" y="66px" /><rect fill="rgb(0,0,0)" height="3px" opacity="0.992156862745" width="3px" x="96px" y="66px" /><rect fill="rgb(0,0,0)" height="3px" opacity="0.992156862745" width="3px" x="18px" y="69px" /><rect fill="rgb(0,0,0)" height="3px" opacity="0.992156862745" width="3px" x="27px" y="69px" /><rect fill="rgb(0,0,0)" height="3px" opacity="0.992156862745" width="3px" x="33px" y="69px" /><rect fill="rgb(0,0,0)" height="3px" opacity="0.992156862745" width="3px" x="42px" y="69px" /><rect fill="rgb(0,0,0)" height="3px" opacity="1.0" width="3px" x="45px" y="69px" /><rect fill="rgb(0,0,0)" height="3px" opacity="1.0" width="3px" x="48px" y="69px" /><rect fill="rgb(0,0,0)" height="3px" opacity="1.0" width="3px" x="51px" y="69px" /><rect fill="rgb(0,0,0)" height="3px" opacity="1.0" width="3px" x="54px" y="69px" /><rect fill="rgb(0,0,0)" height="3px" opacity="1.0" width="3px" x="57px" y="69px" /><rect fill="rgb(0,0,0)" height="3px" opacity="1.0" width="3px" x="60px" y="69px" /><rect fill="rgb(0,0,0)" height="3px" opacity="0.992156862745" width="3px" x="63px" y="69px" /><rect fill="rgb(0,0,0)" height="3px" opacity="0.992156862745" width="3px" x="69px" y="69px" /><rect fill="rgb(0,0,0)" height="3px" opacity="1.0" width="3px" x="72px" y="69px" /><rect fill="rgb(0,0,0)" height="3px" opacity="1.0" width="3px" x="75px" y="69px" /><rect fill="rgb(0,0,0)" height="3px" opacity="0.992156862745" width="3px" x="78px" y="69px" /><rect fill="rgb(0,0,0)" height="3px" opacity="0.992156862745" width="3px" x="90px" y="69px" /><rect fill="rgb(0,0,0)" height="3px" opacity="0.992156862745" width="3px" x="93px" y="69px" /><rect fill="rgb(0,0,0)" height="3px" opacity="0.992156862745" width="3px" x="96px" y="69px" /><rect fill="rgb(0,0,0)" height="3px" opacity="0.992156862745" width="3px" x="99px" y="69px" /><rect fill="rgb(0,0,0)" height="3px" opacity="0.992156862745" width="3px" x="36px" y="72px" /><rect fill="rgb(0,0,0)" height="3px" opacity="0.992156862745" width="3px" x="42px" y="72px" /><rect fill="rgb(0,0,0)" height="3px" opacity="1.0" width="3px" x="45px" y="72px" /><rect fill="rgb(0,0,0)" height="3px" opacity="1.0" width="3px" x="48px" y="72px" /><rect fill="rgb(0,0,0)" height="3px" opacity="1.0" width="3px" x="51px" y="72px" /><rect fill="rgb(0,0,0)" height="3px" opacity="0.992156862745" width="3px" x="54px" y="72px" /><rect fill="rgb(0,0,0)" height="3px" opacity="0.992156862745" width="3px" x="57px" y="72px" /><rect fill="rgb(0,0,0)" height="3px" opacity="0.992156862745" width="3px" x="60px" y="72px" /><rect fill="rgb(0,0,0)" height="3px" opacity="0.992156862745" width="3px" x="66px" y="72px" /><rect fill="rgb(0,0,0)" height="3px" opacity="1.0" width="3px" x="69px" y="72px" /><rect fill="rgb(0,0,0)" height="3px" opacity="1.0" width="3px" x="72px" y="72px" /><rect fill="rgb(0,0,0)" height="3px" opacity="1.0" width="3px" x="75px" y="72px" /><rect fill="rgb(0,0,0)" height="3px" opacity="0.992156862745" width="3px" x="78px" y="72px" /><rect fill="rgb(0,0,0)" height="3px" opacity="0.992156862745" width="3px" x="90px" y="72px" /><rect fill="rgb(0,0,0)" height="3px" opacity="0.992156862745" width="3px" x="93px" y="72px" /><rect fill="rgb(0,0,0)" height="3px" opacity="0.992156862745" width="3px" x="96px" y="72px" /><rect fill="rgb(0,0,0)" height="3px" opacity="0.992156862745" width="3px" x="27px" y="75px" /><rect fill="rgb(0,0,0)" height="3px" opacity="0.992156862745" width="3px" x="30px" y="75px" /><rect fill="rgb(0,0,0)" height="3px" opacity="0.992156862745" width="3px" x="36px" y="75px" /><rect fill="rgb(0,0,0)" height="3px" opacity="0.992156862745" width="3px" x="45px" y="75px" /><rect fill="rgb(0,0,0)" height="3px" opacity="1.0" width="3px" x="48px" y="75px" /><rect fill="rgb(0,0,0)" height="3px" opacity="1.0" width="3px" x="51px" y="75px" /><rect fill="rgb(0,0,0)" height="3px" opacity="0.992156862745" width="3px" x="54px" y="75px" /><rect fill="rgb(0,0,0)" height="3px" opacity="0.992156862745" width="3px" x="63px" y="75px" /><rect fill="rgb(0,0,0)" height="3px" opacity="1.0" width="3px" x="66px" y="75px" /><rect fill="rgb(0,0,0)" height="3px" opacity="1.0" width="3px" x="69px" y="75px" /><rect fill="rgb(0,0,0)" height="3px" opacity="1.0" width="3px" x="72px" y="75px" /><rect fill="rgb(0,0,0)" height="3px" opacity="0.992156862745" width="3px" x="75px" y="75px" /><rect fill="rgb(0,0,0)" height="3px" opacity="0.992156862745" width="3px" x="78px" y="75px" /><rect fill="rgb(0,0,0)" height="3px" opacity="0.992156862745" width="3px" x="96px" y="75px" /><rect fill="rgb(0,0,0)" height="3px" opacity="0.992156862745" width="3px" x="33px" y="78px" /><rect fill="rgb(0,0,0)" height="3px" opacity="0.992156862745" width="3px" x="36px" y="78px" /><rect fill="rgb(0,0,0)" height="3px" opacity="0.992156862745" width="3px" x="39px" y="78px" /><rect fill="rgb(0,0,0)" height="3px" opacity="0.992156862745" width="3px" x="45px" y="78px" /><rect fill="rgb(0,0,0)" height="3px" opacity="1.0" width="3px" x="48px" y="78px" /><rect fill="rgb(0,0,0)" height="3px" opacity="0.992156862745" width="3px" x="51px" y="78px" /><rect fill="rgb(0,0,0)" height="3px" opacity="0.992156862745" width="3px" x="60px" y="78px" /><rect fill="rgb(0,0,0)" height="3px" opacity="1.0" width="3px" x="63px" y="78px" /><rect fill="rgb(0,0,0)" height="3px" opacity="1.0" width="3px" x="66px" y="78px" /><rect fill="rgb(0,0,0)" height="3px" opacity="1.0" width="3px" x="69px" y="78px" /><rect fill="rgb(0,0,0)" height="3px" opacity="0.992156862745" width="3px" x="72px" y="78px" /><rect fill="rgb(0,0,0)" height="3px" opacity="0.992156862745" width="3px" x="75px" y="78px" /><rect fill="rgb(0,0,0)" height="3px" opacity="0.992156862745" width="3px" x="78px" y="78px" /><rect fill="rgb(0,0,0)" height="3px" opacity="0.992156862745" width="3px" x="96px" y="78px" /><rect fill="rgb(0,0,0)" height="3px" opacity="0.992156862745" width="3px" x="33px" y="81px" /><rect fill="rgb(0,0,0)" height="3px" opacity="0.992156862745" width="3px" x="36px" y="81px" /><rect fill="rgb(0,0,0)" height="3px" opacity="0.992156862745" width="3px" x="39px" y="81px" /><rect fill="rgb(0,0,0)" height="3px" opacity="0.992156862745" width="3px" x="42px" y="81px" /><rect fill="rgb(0,0,0)" height="3px" opacity="1.0" width="3px" x="45px" y="81px" /><rect fill="rgb(0,0,0)" height="3px" opacity="1.0" width="3px" x="48px" y="81px" /><rect fill="rgb(0,0,0)" height="3px" opacity="0.992156862745" width="3px" x="51px" y="81px" /><rect fill="rgb(0,0,0)" height="3px" opacity="0.992156862745" width="3px" x="60px" y="81px" /><rect fill="rgb(0,0,0)" height="3px" opacity="1.0" width="3px" x="63px" y="81px" /><rect fill="rgb(0,0,0)" height="3px" opacity="1.0" width="3px" x="66px" y="81px" /><rect fill="rgb(0,0,0)" height="3px" opacity="0.992156862745" width="3px" x="69px" y="81px" /><rect fill="rgb(0,0,0)" height="3px" opacity="0.992156862745" width="3px" x="75px" y="81px" /><rect fill="rgb(0,0,0)" height="3px" opacity="0.992156862745" width="3px" x="78px" y="81px" /><rect fill="rgb(0,0,0)" height="3px" opacity="0.992156862745" width="3px" x="96px" y="81px" /><rect fill="rgb(0,0,0)" height="3px" opacity="0.992156862745" width="3px" x="30px" y="84px" /><rect fill="rgb(0,0,0)" height="3px" opacity="0.992156862745" width="3px" x="39px" y="84px" /><rect fill="rgb(0,0,0)" height="3px" opacity="0.992156862745" width="3px" x="45px" y="84px" /><rect fill="rgb(0,0,0)" height="3px" opacity="1.0" width="3px" x="48px" y="84px" /><rect fill="rgb(0,0,0)" height="3px" opacity="0.992156862745" width="3px" x="51px" y="84px" /><rect fill="rgb(0,0,0)" height="3px" opacity="0.992156862745" width="3px" x="60px" y="84px" /><rect fill="rgb(0,0,0)" height="3px" opacity="1.0" width="3px" x="63px" y="84px" /><rect fill="rgb(0,0,0)" height="3px" opacity="1.0" width="3px" x="66px" y="84px" /><rect fill="rgb(0,0,0)" height="3px" opacity="0.992156862745" width="3px" x="69px" y="84px" /><rect fill="rgb(0,0,0)" height="3px" opacity="0.992156862745" width="3px" x="78px" y="84px" /><rect fill="rgb(0,0,0)" height="3px" opacity="0.992156862745" width="3px" x="96px" y="84px" /><rect fill="rgb(0,0,0)" height="3px" opacity="0.992156862745" width="3px" x="30px" y="87px" /><rect fill="rgb(0,0,0)" height="3px" opacity="0.992156862745" width="3px" x="42px" y="87px" /><rect fill="rgb(0,0,0)" height="3px" opacity="0.992156862745" width="3px" x="48px" y="87px" /><rect fill="rgb(0,0,0)" height="3px" opacity="0.992156862745" width="3px" x="51px" y="87px" /><rect fill="rgb(0,0,0)" height="3px" opacity="0.992156862745" width="3px" x="54px" y="87px" /><rect fill="rgb(0,0,0)" height="3px" opacity="0.992156862745" width="3px" x="63px" y="87px" /><rect fill="rgb(0,0,0)" height="3px" opacity="1.0" width="3px" x="66px" y="87px" /><rect fill="rgb(0,0,0)" height="3px" opacity="1.0" width="3px" x="69px" y="87px" /><rect fill="rgb(0,0,0)" height="3px" opacity="0.992156862745" width="3px" x="78px" y="87px" /><rect fill="rgb(0,0,0)" height="3px" opacity="0.992156862745" width="3px" x="96px" y="87px" /><rect fill="rgb(0,0,0)" height="3px" opacity="0.992156862745" width="3px" x="39px" y="90px" /><rect fill="rgb(0,0,0)" height="3px" opacity="0.992156862745" width="3px" x="63px" y="90px" /><rect fill="rgb(0,0,0)" height="3px" opacity="1.0" width="3px" x="66px" y="90px" /><rect fill="rgb(0,0,0)" height="3px" opacity="1.0" width="3px" x="69px" y="90px" /><rect fill="rgb(0,0,0)" height="3px" opacity="0.992156862745" width="3px" x="72px" y="90px" /><rect fill="rgb(0,0,0)" height="3px" opacity="0.992156862745" width="3px" x="78px" y="90px" /><rect fill="rgb(0,0,0)" height="3px" opacity="0.992156862745" width="3px" x="81px" y="90px" /><rect fill="rgb(0,0,0)" height="3px" opacity="0.992156862745" width="3px" x="93px" y="90px" /><rect fill="rgb(0,0,0)" height="3px" opacity="0.992156862745" width="3px" x="96px" y="90px" /><rect fill="rgb(0,0,0)" height="3px" opacity="0.992156862745" width="3px" x="66px" y="93px" /><rect fill="rgb(0,0,0)" height="3px" opacity="1.0" width="3px" x="69px" y="93px" /><rect fill="rgb(0,0,0)" height="3px" opacity="0.992156862745" width="3px" x="72px" y="93px" /><rect fill="rgb(0,0,0)" height="3px" opacity="0.992156862745" width="3px" x="75px" y="93px" /><rect fill="rgb(0,0,0)" height="3px" opacity="0.992156862745" width="3px" x="81px" y="93px" /><rect fill="rgb(0,0,0)" height="3px" opacity="0.992156862745" width="3px" x="84px" y="93px" /><rect fill="rgb(0,0,0)" height="3px" opacity="0.992156862745" width="3px" x="90px" y="93px" /><rect fill="rgb(0,0,0)" height="3px" opacity="0.992156862745" width="3px" x="93px" y="93px" /><rect fill="rgb(0,0,0)" height="3px" opacity="0.992156862745" width="3px" x="63px" y="96px" /><rect fill="rgb(0,0,0)" height="3px" opacity="0.992156862745" width="3px" x="66px" y="96px" /><rect fill="rgb(0,0,0)" height="3px" opacity="0.992156862745" width="3px" x="69px" y="96px" /><rect fill="rgb(0,0,0)" height="3px" opacity="0.992156862745" width="3px" x="84px" y="96px" /><rect fill="rgb(0,0,0)" height="3px" opacity="0.992156862745" width="3px" x="87px" y="96px" /><rect fill="rgb(0,0,0)" height="3px" opacity="0.992156862745" width="3px" x="90px" y="96px" /><rect fill="rgb(0,0,0)" height="3px" opacity="0.992156862745" width="3px" x="48px" y="99px" /><rect fill="rgb(0,0,0)" height="3px" opacity="0.992156862745" width="3px" x="60px" y="99px" /><rect fill="rgb(0,0,0)" height="3px" opacity="0.992156862745" width="3px" x="63px" y="99px" /><rect fill="rgb(0,0,0)" height="3px" opacity="0.992156862745" width="3px" x="66px" y="99px" /><rect fill="rgb(0,0,0)" height="3px" opacity="0.992156862745" width="3px" x="45px" y="102px" /><rect fill="rgb(0,0,0)" height="3px" opacity="0.992156862745" width="3px" x="51px" y="102px" /><rect fill="rgb(0,0,0)" height="3px" opacity="0.992156862745" width="3px" x="54px" y="102px" /><rect fill="rgb(0,0,0)" height="3px" opacity="0.992156862745" width="3px" x="57px" y="102px" /><rect fill="rgb(0,0,0)" height="3px" opacity="0.992156862745" width="3px" x="60px" y="102px" /><rect fill="rgb(0,0,0)" height="3px" opacity="0.992156862745" width="3px" x="48px" y="105px" /><rect fill="rgb(0,0,0)" height="3px" opacity="0.992156862745" width="3px" x="51px" y="105px" /><rect fill="rgb(0,0,0)" height="3px" opacity="0.992156862745" width="3px" x="54px" y="105px" /><rect fill="rgb(0,0,0)" height="3px" opacity="0.992156862745" width="3px" x="57px" y="105px" /><rect fill="rgb(0,0,0)" height="3px" opacity="0.992156862745" width="3px" x="60px" y="105px" /><rect fill="rgb(0,0,0)" height="3px" opacity="0.992156862745" width="3px" x="63px" y="105px" /><rect fill="rgb(0,0,0)" height="3px" opacity="0.992156862745" width="3px" x="66px" y="105px" /><rect fill="rgb(0,0,0)" height="3px" opacity="0.992156862745" width="3px" x="45px" y="108px" /><rect fill="rgb(0,0,0)" height="3px" opacity="0.992156862745" width="3px" x="54px" y="108px" /><rect fill="rgb(0,0,0)" height="3px" opacity="0.992156862745" width="3px" x="57px" y="108px" /><rect fill="rgb(0,0,0)" height="3px" opacity="0.992156862745" width="3px" x="54px" y="111px" /></svg>