<?xml version="1.0" encoding="UTF-8" standalone="no"?>
<svg
   xmlns:dc="http://purl.org/dc/elements/1.1/"
   xmlns:cc="http://creativecommons.org/ns#"
   xmlns:rdf="http://www.w3.org/1999/02/22-rdf-syntax-ns#"
   xmlns:svg="http://www.w3.org/2000/svg"
   xmlns="http://www.w3.org/2000/svg"
   xmlns:sodipodi="http://sodipodi.sourceforge.net/DTD/sodipodi-0.dtd"
   xmlns:inkscape="http://www.inkscape.org/namespaces/inkscape"
   height="117px"
   version="1.1"
   width="117px"
   id="svg2"
   inkscape:version="0.91 r13725"
   sodipodi:docname="fox.svg" shape-rendering="crispEdges">
  <metadata
     id="metadata732">
    <rdf:RDF>
      <cc:Work
         rdf:about="">
        <dc:format>image/svg+xml</dc:format>
        <dc:type
           rdf:resource="http://purl.org/dc/dcmitype/StillImage" />
      </cc:Work>
    </rdf:RDF>
  </metadata>
  <sodipodi:namedview
     pagecolor="#ffffff"
     bordercolor="#666666"
     borderopacity="1"
     objecttolerance="10"
     gridtolerance="10"
     guidetolerance="10"
     inkscape:pageopacity="0"
     inkscape:pageshadow="2"
     inkscape:window-width="739"
     inkscape:window-height="480"
     id="namedview730"
     showgrid="false"
     inkscape:zoom="4.034188"
     inkscape:cx="24.036961"
     inkscape:cy="76.959568"
     inkscape:window-x="2387"
     inkscape:window-y="83"
     inkscape:window-maximized="0"
     inkscape:current-layer="svg2" />
  <defs
     id="defs4" />
  <path
     id="rect728"
     style="fill:#000000"
     d="m 78,96 3,0 0,3 -3,0 z m -3,0 3,0 0,3 -3,0 z m -45,0 3,0 0,3 -3,0 z m -3,0 3,0 0,3 -3,0 z m 54,-3 3,0 0,3 -3,0 z m -3,0 3,0 0,3 -3,0 z m -3,0 3,0 0,3 -3,0 z m -6,0 3,0 0,3 -3,0 z m -3,0 3,0 0,3 -3,0 z m -33,0 3,0 0,3 -3,0 z m -3,0 3,0 0,3 -3,0 z m -3,0 3,0 0,3 -3,0 z m -6,0 3,0 0,3 -3,0 z m -3,0 3,0 0,3 -3,0 z m 63,-3 3,0 0,3 -3,0 z m -3,0 3,0 0,3 -3,0 z m -6,0 3,0 0,3 -3,0 z m -3,0 3,0 0,3 -3,0 z m -3,0 3,0 0,3 -3,0 z m -30,0 3,0 0,3 -3,0 z m -3,0 3,0 0,3 -3,0 z m -3,0 3,0 0,3 -3,0 z m -6,0 3,0 0,3 -3,0 z m -3,0 3,0 0,3 -3,0 z m -3,0 3,0 0,3 -3,0 z m 63,-3 3,0 0,3 -3,0 z m -9,0 3,0 0,3 -3,0 z m -3,0 3,0 0,3 -3,0 z m -33,0 3,0 0,3 -3,0 z m -3,0 3,0 0,3 -3,0 z m -6,0 3,0 0,3 -3,0 z m -3,0 3,0 0,3 -3,0 z m -3,0 3,0 0,3 -3,0 z m 93,-3 3,0 0,3 -3,0 z m -3,0 3,0 0,3 -3,0 z m -27,0 3,0 0,3 -3,0 z m -3,0 3,0 0,3 -3,0 z m -9,0 3,0 0,3 -3,0 z m -3,0 3,0 0,3 -3,0 z m -33,0 3,0 0,3 -3,0 z m -3,0 3,0 0,3 -3,0 z m -6,0 3,0 0,3 -3,0 z m -3,0 3,0 0,3 -3,0 z m 90,-3 3,0 0,3 -3,0 z m -3,0 3,0 0,3 -3,0 z m -3,0 3,0 0,3 -3,0 z m -3,0 3,0 0,3 -3,0 z m -21,0 3,0 0,3 -3,0 z m -3,0 3,0 0,3 -3,0 z m -6,0 3,0 0,3 -3,0 z m -3,0 3,0 0,3 -3,0 z m -33,0 3,0 0,3 -3,0 z m -3,0 3,0 0,3 -3,0 z m -3,0 3,0 0,3 -3,0 z m -6,0 3,0 0,3 -3,0 z m -3,0 3,0 0,3 -3,0 z m 87,-3 3,0 0,3 -3,0 z m -3,0 3,0 0,3 -3,0 z m -3,0 3,0 0,3 -3,0 z m -3,0 3,0 0,3 -3,0 z m -3,0 3,0 0,3 -3,0 z m -15,0 3,0 0,3 -3,0 z m -3,0 3,0 0,3 -3,0 z m -9,0 3,0 0,3 -3,0 z m -3,0 3,0 0,3 -3,0 z m -30,0 3,0 0,3 -3,0 z m -3,0 3,0 0,3 -3,0 z m -6,0 3,0 0,3 -3,0 z m -3,0 3,0 0,3 -3,0 z m -3,0 3,0 0,3 -3,0 z m 84,-3 3,0 0,3 -3,0 z m -3,0 3,0 0,3 -3,0 z m -3,0 3,0 0,3 -3,0 z m -3,0 3,0 0,3 -3,0 z m -3,0 3,0 0,3 -3,0 z m -12,0 3,0 0,3 -3,0 z m -3,0 3,0 0,3 -3,0 z m -3,0 3,0 0,3 -3,0 z m -3,0 3,0 0,3 -3,0 z m -9,0 3,0 0,3 -3,0 z m -27,0 3,0 0,3 -3,0 z m -3,0 3,0 0,3 -3,0 z m -6,0 3,0 0,3 -3,0 z m -3,0 3,0 0,3 -3,0 z m 78,-3 3,0 0,3 -3,0 z m -3,0 3,0 0,3 -3,0 z m -3,0 3,0 0,3 -3,0 z m -3,0 3,0 0,3 -3,0 z m -3,0 3,0 0,3 -3,0 z m -12,0 3,0 0,3 -3,0 z m -3,0 3,0 0,3 -3,0 z m -3,0 3,0 0,3 -3,0 z m -3,0 3,0 0,3 -3,0 z m -3,0 3,0 0,3 -3,0 z m -3,0 3,0 0,3 -3,0 z m -3,0 3,0 0,3 -3,0 z m -21,0 3,0 0,3 -3,0 z m -3,0 3,0 0,3 -3,0 z m -3,0 3,0 0,3 -3,0 z m -6,0 3,0 0,3 -3,0 z m -3,0 3,0 0,3 -3,0 z m 78,-3 3,0 0,3 -3,0 z m -3,0 3,0 0,3 -3,0 z m -3,0 3,0 0,3 -3,0 z m -3,0 3,0 0,3 -3,0 z m -3,0 3,0 0,3 -3,0 z m -3,0 3,0 0,3 -3,0 z m -9,0 3,0 0,3 -3,0 z m -3,0 3,0 0,3 -3,0 z m -3,0 3,0 0,3 -3,0 z m -3,0 3,0 0,3 -3,0 z m -3,0 3,0 0,3 -3,0 z m -3,0 3,0 0,3 -3,0 z m -3,0 3,0 0,3 -3,0 z m -3,0 3,0 0,3 -3,0 z m -3,0 3,0 0,3 -3,0 z m -3,0 3,0 0,3 -3,0 z m -3,0 3,0 0,3 -3,0 z m -3,0 3,0 0,3 -3,0 z m -3,0 3,0 0,3 -3,0 z m -3,0 3,0 0,3 -3,0 z m -3,0 3,0 0,3 -3,0 z m -3,0 3,0 0,3 -3,0 z m -3,0 3,0 0,3 -3,0 z m -3,0 3,0 0,3 -3,0 z m -3,0 3,0 0,3 -3,0 z m 75,-3 3,0 0,3 -3,0 z m -3,0 3,0 0,3 -3,0 z m -3,0 3,0 0,3 -3,0 z m -3,0 3,0 0,3 -3,0 z m -3,0 3,0 0,3 -3,0 z m -3,0 3,0 0,3 -3,0 z m -6,0 3,0 0,3 -3,0 z m -3,0 3,0 0,3 -3,0 z m -3,0 3,0 0,3 -3,0 z m -3,0 3,0 0,3 -3,0 z m -3,0 3,0 0,3 -3,0 z m -3,0 3,0 0,3 -3,0 z m -3,0 3,0 0,3 -3,0 z m -3,0 3,0 0,3 -3,0 z m -3,0 3,0 0,3 -3,0 z m -3,0 3,0 0,3 -3,0 z m -3,0 3,0 0,3 -3,0 z m -3,0 3,0 0,3 -3,0 z m -3,0 3,0 0,3 -3,0 z m -3,0 3,0 0,3 -3,0 z m -3,0 3,0 0,3 -3,0 z m -3,0 3,0 0,3 -3,0 z m -3,0 3,0 0,3 -3,0 z m -3,0 3,0 0,3 -3,0 z m -3,0 3,0 0,3 -3,0 z m 72,-3 3,0 0,3 -3,0 z m -3,0 3,0 0,3 -3,0 z m -3,0 3,0 0,3 -3,0 z m -3,0 3,0 0,3 -3,0 z m -3,0 3,0 0,3 -3,0 z m -6,0 3,0 0,3 -3,0 z m -3,0 3,0 0,3 -3,0 z m -3,0 3,0 0,3 -3,0 z m -3,0 3,0 0,3 -3,0 z m -3,0 3,0 0,3 -3,0 z m -3,0 3,0 0,3 -3,0 z m -3,0 3,0 0,3 -3,0 z m -3,0 3,0 0,3 -3,0 z m -3,0 3,0 0,3 -3,0 z m -3,0 3,0 0,3 -3,0 z m -3,0 3,0 0,3 -3,0 z m -3,0 3,0 0,3 -3,0 z m -3,0 3,0 0,3 -3,0 z m -3,0 3,0 0,3 -3,0 z m -3,0 3,0 0,3 -3,0 z m -3,0 3,0 0,3 -3,0 z m -3,0 3,0 0,3 -3,0 z m -3,0 3,0 0,3 -3,0 z m -3,0 3,0 0,3 -3,0 z m -3,0 3,0 0,3 -3,0 z m 72,-3 3,0 0,3 -3,0 z m -3,0 3,0 0,3 -3,0 z m -3,0 3,0 0,3 -3,0 z m -3,0 3,0 0,3 -3,0 z m -3,0 3,0 0,3 -3,0 z m -3,0 3,0 0,3 -3,0 z m -3,0 3,0 0,3 -3,0 z m -3,0 3,0 0,3 -3,0 z m -3,0 3,0 0,3 -3,0 z m -3,0 3,0 0,3 -3,0 z m -3,0 3,0 0,3 -3,0 z m -3,0 3,0 0,3 -3,0 z m -3,0 3,0 0,3 -3,0 z m -3,0 3,0 0,3 -3,0 z m -3,0 3,0 0,3 -3,0 z m -3,0 3,0 0,3 -3,0 z m -3,0 3,0 0,3 -3,0 z m -3,0 3,0 0,3 -3,0 z m -3,0 3,0 0,3 -3,0 z m -3,0 3,0 0,3 -3,0 z m -3,0 3,0 0,3 -3,0 z m -3,0 3,0 0,3 -3,0 z m -3,0 3,0 0,3 -3,0 z m -3,0 3,0 0,3 -3,0 z m -3,0 3,0 0,3 -3,0 z m 69,-3 3,0 0,3 -3,0 z m -3,0 3,0 0,3 -3,0 z m -3,0 3,0 0,3 -3,0 z m -3,0 3,0 0,3 -3,0 z m -3,0 3,0 0,3 -3,0 z m -3,0 3,0 0,3 -3,0 z m -3,0 3,0 0,3 -3,0 z m -3,0 3,0 0,3 -3,0 z m -3,0 3,0 0,3 -3,0 z m -3,0 3,0 0,3 -3,0 z m -3,0 3,0 0,3 -3,0 z m -3,0 3,0 0,3 -3,0 z m -3,0 3,0 0,3 -3,0 z m -3,0 3,0 0,3 -3,0 z m -3,0 3,0 0,3 -3,0 z m -3,0 3,0 0,3 -3,0 z m -3,0 3,0 0,3 -3,0 z m -3,0 3,0 0,3 -3,0 z m -3,0 3,0 0,3 -3,0 z m -3,0 3,0 0,3 -3,0 z m -3,0 3,0 0,3 -3,0 z m -3,0 3,0 0,3 -3,0 z m -3,0 3,0 0,3 -3,0 z m -3,0 3,0 0,3 -3,0 z m 63,-3 3,0 0,3 -3,0 z m -3,0 3,0 0,3 -3,0 z m -3,0 3,0 0,3 -3,0 z m -3,0 3,0 0,3 -3,0 z m -3,0 3,0 0,3 -3,0 z m -3,0 3,0 0,3 -3,0 z m -3,0 3,0 0,3 -3,0 z m -3,0 3,0 0,3 -3,0 z m -3,0 3,0 0,3 -3,0 z m -3,0 3,0 0,3 -3,0 z m -3,0 3,0 0,3 -3,0 z m -3,0 3,0 0,3 -3,0 z m -3,0 3,0 0,3 -3,0 z m -3,0 3,0 0,3 -3,0 z m -3,0 3,0 0,3 -3,0 z m -3,0 3,0 0,3 -3,0 z m -3,0 3,0 0,3 -3,0 z m -3,0 3,0 0,3 -3,0 z m -3,0 3,0 0,3 -3,0 z m -3,0 3,0 0,3 -3,0 z m -3,0 3,0 0,3 -3,0 z m -3,0 3,0 0,3 -3,0 z m 57,-3 3,0 0,3 -3,0 z m -3,0 3,0 0,3 -3,0 z m -3,0 3,0 0,3 -3,0 z m -3,0 3,0 0,3 -3,0 z m -3,0 3,0 0,3 -3,0 z m -3,0 3,0 0,3 -3,0 z m -3,0 3,0 0,3 -3,0 z m -3,0 3,0 0,3 -3,0 z m -3,0 3,0 0,3 -3,0 z m -3,0 3,0 0,3 -3,0 z m -3,0 3,0 0,3 -3,0 z m -3,0 3,0 0,3 -3,0 z m -3,0 3,0 0,3 -3,0 z m -3,0 3,0 0,3 -3,0 z m -3,0 3,0 0,3 -3,0 z m -3,0 3,0 0,3 -3,0 z m -3,0 3,0 0,3 -3,0 z m -3,0 3,0 0,3 -3,0 z m 45,-3 3,0 0,3 -3,0 z m -3,0 3,0 0,3 -3,0 z m -3,0 3,0 0,3 -3,0 z m -3,0 3,0 0,3 -3,0 z m -3,0 3,0 0,3 -3,0 z m -3,0 3,0 0,3 -3,0 z m -3,0 3,0 0,3 -3,0 z m -3,0 3,0 0,3 -3,0 z m -3,0 3,0 0,3 -3,0 z m -3,0 3,0 0,3 -3,0 z m -3,0 3,0 0,3 -3,0 z m -3,0 3,0 0,3 -3,0 z m -3,0 3,0 0,3 -3,0 z m -3,0 3,0 0,3 -3,0 z m -3,0 3,0 0,3 -3,0 z m 36,-3 3,0 0,3 -3,0 z m -3,0 3,0 0,3 -3,0 z m -3,0 3,0 0,3 -3,0 z m -3,0 3,0 0,3 -3,0 z m -3,0 3,0 0,3 -3,0 z m -3,0 3,0 0,3 -3,0 z m -3,0 3,0 0,3 -3,0 z m -3,0 3,0 0,3 -3,0 z m -3,0 3,0 0,3 -3,0 z m -3,0 3,0 0,3 -3,0 z m -3,0 3,0 0,3 -3,0 z m -12,3 3,0 0,3 -3,0 z m -3,0 3,0 0,3 -3,0 z m 6,-3 3,0 0,3 -3,0 z m -9,0 3,0 0,3 -3,0 z m -3,0 3,0 0,3 -3,0 z m 18,-3 3,0 0,3 -3,0 z m -3,0 3,0 0,3 -3,0 z m -3,0 3,0 0,3 -3,0 z m -3,0 3,0 0,3 -3,0 z m -3,0 3,0 0,3 -3,0 z m -3,0 3,0 0,3 -3,0 z m -3,0 3,0 0,3 -3,0 z m -3,0 3,0 0,3 -3,0 z m -3,0 3,0 0,3 -3,0 z m 27,-3 3,0 0,3 -3,0 z m -3,0 3,0 0,3 -3,0 z m -3,0 3,0 0,3 -3,0 z m -3,0 3,0 0,3 -3,0 z m -3,0 3,0 0,3 -3,0 z m -3,0 3,0 0,3 -3,0 z m -3,0 3,0 0,3 -3,0 z m -3,0 3,0 0,3 -3,0 z m -3,0 3,0 0,3 -3,0 z m -3,0 3,0 0,3 -3,0 z m -3,0 3,0 0,3 -3,0 z m 27,-3 3,0 0,3 -3,0 z m -9,0 3,0 0,3 -3,0 z m -3,0 3,0 0,3 -3,0 z m -9,0 3,0 0,3 -3,0 z m -3,0 3,0 0,3 -3,0 z m 24,-3 3,0 0,3 -3,0 z m -3,0 3,0 0,3 -3,0 z m -3,0 3,0 0,3 -3,0 z m -3,0 3,0 0,3 -3,0 z m -3,0 3,0 0,3 -3,0 z m -3,0 3,0 0,3 -3,0 z m -3,0 3,0 0,3 -3,0 z m -3,0 3,0 0,3 -3,0 z m 21,-3 3,0 0,3 -3,0 z m -3,0 3,0 0,3 -3,0 z m -3,0 3,0 0,3 -3,0 z m -3,0 3,0 0,3 -3,0 z m -3,0 3,0 0,3 -3,0 z m -3,0 3,0 0,3 -3,0 z m -3,0 3,0 0,3 -3,0 z m -3,0 3,0 0,3 -3,0 z m 21,-3 3,0 0,3 -3,0 z m -3,0 3,0 0,3 -3,0 z m -3,0 3,0 0,3 -3,0 z m -3,0 3,0 0,3 -3,0 z m -3,0 3,0 0,3 -3,0 z m -3,0 3,0 0,3 -3,0 z m -3,0 3,0 0,3 -3,0 z m -3,0 3,0 0,3 -3,0 z m -3,0 3,0 0,3 -3,0 z m 27,-3 3,0 0,3 -3,0 z m -3,0 3,0 0,3 -3,0 z m -3,0 3,0 0,3 -3,0 z m -3,0 3,0 0,3 -3,0 z m -3,0 3,0 0,3 -3,0 z m -3,0 3,0 0,3 -3,0 z m -3,0 3,0 0,3 -3,0 z m -3,0 3,0 0,3 -3,0 z m -3,0 3,0 0,3 -3,0 z m -3,0 3,0 0,3 -3,0 z m 27,-3 3,0 0,3 -3,0 z m -3,0 3,0 0,3 -3,0 z m -21,0 3,0 0,3 -3,0 z m -3,0 3,0 0,3 -3,0 z m 27,-3 3,0 0,3 -3,0 z m -27,0 3,0 0,3 -3,0 z" />
</svg>
