<?xml version="1.0" encoding="UTF-8" standalone="no"?>
<svg
   xmlns:dc="http://purl.org/dc/elements/1.1/"
   xmlns:cc="http://creativecommons.org/ns#"
   xmlns:rdf="http://www.w3.org/1999/02/22-rdf-syntax-ns#"
   xmlns:svg="http://www.w3.org/2000/svg"
   xmlns="http://www.w3.org/2000/svg"
   xmlns:sodipodi="http://sodipodi.sourceforge.net/DTD/sodipodi-0.dtd"
   xmlns:inkscape="http://www.inkscape.org/namespaces/inkscape"
   height="186px"
   version="1.1"
   width="165px"
   id="svg2"
   inkscape:version="0.91 r13725"
   sodipodi:docname="french-mediaeval-edge.svg">
  <metadata
     id="metadata352">
    <rdf:RDF>
      <cc:Work
         rdf:about="">
        <dc:format>image/svg+xml</dc:format>
        <dc:type
           rdf:resource="http://purl.org/dc/dcmitype/StillImage" />
      </cc:Work>
    </rdf:RDF>
  </metadata>
  <sodipodi:namedview
     pagecolor="#ffffff"
     bordercolor="#666666"
     borderopacity="1"
     objecttolerance="10"
     gridtolerance="10"
     guidetolerance="10"
     inkscape:pageopacity="0"
     inkscape:pageshadow="2"
     inkscape:window-width="640"
     inkscape:window-height="480"
     id="namedview350"
     showgrid="false"
     inkscape:zoom="1.2688172"
     inkscape:cx="82.5"
     inkscape:cy="93"
     inkscape:window-x="1917"
     inkscape:window-y="23"
     inkscape:window-maximized="0"
     inkscape:current-layer="svg2" />
  <defs
     id="defs4" />
  <path
     id="rect348"
     style="fill:#000000"
     d="m 81,183 3,0 0,3 -3,0 z m 3,-3 3,0 0,3 -3,0 z m -6,0 3,0 0,3 -3,0 z m 9,-3 3,0 0,3 -3,0 z m -12,0 3,0 0,3 -3,0 z m 18,-3 3,0 0,3 -3,0 z m -3,0 3,0 0,3 -3,0 z m -18,0 3,0 0,3 -3,0 z m -3,0 3,0 0,3 -3,0 z m 30,-3 3,0 0,3 -3,0 z m -3,0 3,0 0,3 -3,0 z m -30,0 3,0 0,3 -3,0 z m -3,0 3,0 0,3 -3,0 z m 39,-3 3,0 0,3 -3,0 z m -42,0 3,0 0,3 -3,0 z m 48,-3 3,0 0,3 -3,0 z m -3,0 3,0 0,3 -3,0 z m -48,0 3,0 0,3 -3,0 z m -3,0 3,0 0,3 -3,0 z m 57,-3 3,0 0,3 -3,0 z m -60,0 3,0 0,3 -3,0 z m 63,-3 3,0 0,3 -3,0 z m -66,0 3,0 0,3 -3,0 z m 69,-3 3,0 0,3 -3,0 z m -72,0 3,0 0,3 -3,0 z m 75,-3 3,0 0,3 -3,0 z m -78,0 3,0 0,3 -3,0 z m 81,-3 3,0 0,3 -3,0 z m -84,0 3,0 0,3 -3,0 z m 87,-3 3,0 0,3 -3,0 z m -90,0 3,0 0,3 -3,0 z m 93,-3 3,0 0,3 -3,0 z m -96,0 3,0 0,3 -3,0 z m 96,-3 3,0 0,3 -3,0 z m -96,0 3,0 0,3 -3,0 z m 99,-3 3,0 0,3 -3,0 z m -102,0 3,0 0,3 -3,0 z m 105,-3 3,0 0,3 -3,0 z m -108,0 3,0 0,3 -3,0 z m 108,-3 3,0 0,3 -3,0 z m -108,0 3,0 0,3 -3,0 z m 111,-3 3,0 0,3 -3,0 z m -114,0 3,0 0,3 -3,0 z m 114,-3 3,0 0,3 -3,0 z m -114,0 3,0 0,3 -3,0 z m 117,-3 3,0 0,3 -3,0 z m -120,0 3,0 0,3 -3,0 z m 120,-3 3,0 0,3 -3,0 z m -120,0 3,0 0,3 -3,0 z m 123,-3 3,0 0,3 -3,0 z m -126,0 3,0 0,3 -3,0 z m 126,-3 3,0 0,3 -3,0 z m -126,0 3,0 0,3 -3,0 z m 129,-3 3,0 0,3 -3,0 z m -132,0 3,0 0,3 -3,0 z m 132,-3 3,0 0,3 -3,0 z m -132,0 3,0 0,3 -3,0 z m 132,-3 3,0 0,3 -3,0 z m -132,0 3,0 0,3 -3,0 z m 132,-3 3,0 0,3 -3,0 z m -132,0 3,0 0,3 -3,0 z m 135,-3 3,0 0,3 -3,0 z m -138,0 3,0 0,3 -3,0 z m 138,-3 3,0 0,3 -3,0 z m -138,0 3,0 0,3 -3,0 z m 138,-3 3,0 0,3 -3,0 z m -138,0 3,0 0,3 -3,0 z m 138,-3 3,0 0,3 -3,0 z m -138,0 3,0 0,3 -3,0 z m 138,-3 3,0 0,3 -3,0 z m -138,0 3,0 0,3 -3,0 z m 141,-3 3,0 0,3 -3,0 z m -144,0 3,0 0,3 -3,0 z m 144,-3 3,0 0,3 -3,0 z m -144,0 3,0 0,3 -3,0 z m 144,-3 3,0 0,3 -3,0 z m -144,0 3,0 0,3 -3,0 z m 144,-3 3,0 0,3 -3,0 z m -144,0 3,0 0,3 -3,0 z m 144,-3 3,0 0,3 -3,0 z m -144,0 3,0 0,3 -3,0 z m 144,-3 3,0 0,3 -3,0 z m -144,0 3,0 0,3 -3,0 z m 144,-3 3,0 0,3 -3,0 z m -144,0 3,0 0,3 -3,0 z m 144,-3 3,0 0,3 -3,0 z m -144,0 3,0 0,3 -3,0 z m 144,-3 3,0 0,3 -3,0 z m -144,0 3,0 0,3 -3,0 z m 144,-3 3,0 0,3 -3,0 z m -144,0 3,0 0,3 -3,0 z m 144,-3 3,0 0,3 -3,0 z m -144,0 3,0 0,3 -3,0 z m 144,-3 3,0 0,3 -3,0 z m -144,0 3,0 0,3 -3,0 z m 144,-3 3,0 0,3 -3,0 z m -144,0 3,0 0,3 -3,0 z m 144,-3 3,0 0,3 -3,0 z m -144,0 3,0 0,3 -3,0 z m 144,-3 3,0 0,3 -3,0 z m -144,0 3,0 0,3 -3,0 z m 144,-3 3,0 0,3 -3,0 z m -144,0 3,0 0,3 -3,0 z m 144,-3 3,0 0,3 -3,0 z m -144,0 3,0 0,3 -3,0 z m 144,-3 3,0 0,3 -3,0 z m -144,0 3,0 0,3 -3,0 z m 144,-3 3,0 0,3 -3,0 z m -144,0 3,0 0,3 -3,0 z m 144,-3 3,0 0,3 -3,0 z m -144,0 3,0 0,3 -3,0 z m 144,-3 3,0 0,3 -3,0 z m -144,0 3,0 0,3 -3,0 z m 144,-3 3,0 0,3 -3,0 z m -144,0 3,0 0,3 -3,0 z m 144,-3 3,0 0,3 -3,0 z m -144,0 3,0 0,3 -3,0 z m 144,-3 3,0 0,3 -3,0 z m -144,0 3,0 0,3 -3,0 z m 144,-3 3,0 0,3 -3,0 z m -144,0 3,0 0,3 -3,0 z m 144,-3 3,0 0,3 -3,0 z M 9,9 l 3,0 0,3 -3,0 z m 144,-3 3,0 0,3 -3,0 z m -3,0 3,0 0,3 -3,0 z m -3,0 3,0 0,3 -3,0 z m -3,0 3,0 0,3 -3,0 z m -3,0 3,0 0,3 -3,0 z m -3,0 3,0 0,3 -3,0 z m -3,0 3,0 0,3 -3,0 z m -3,0 3,0 0,3 -3,0 z m -102,0 3,0 0,3 -3,0 z m -3,0 3,0 0,3 -3,0 z m -3,0 3,0 0,3 -3,0 z m -3,0 3,0 0,3 -3,0 z m -3,0 3,0 0,3 -3,0 z m -3,0 3,0 0,3 -3,0 z m -3,0 3,0 0,3 -3,0 z m -3,0 3,0 0,3 -3,0 z m 120,-3 3,0 0,3 -3,0 z m -3,0 3,0 0,3 -3,0 z m -3,0 3,0 0,3 -3,0 z m -3,0 3,0 0,3 -3,0 z m -3,0 3,0 0,3 -3,0 z m -3,0 3,0 0,3 -3,0 z m -3,0 3,0 0,3 -3,0 z m -3,0 3,0 0,3 -3,0 z m -3,0 3,0 0,3 -3,0 z m -3,0 3,0 0,3 -3,0 z m -3,0 3,0 0,3 -3,0 z m -3,0 3,0 0,3 -3,0 z m -3,0 3,0 0,3 -3,0 z m -3,0 3,0 0,3 -3,0 z m -3,0 3,0 0,3 -3,0 z m -3,0 3,0 0,3 -3,0 z m -3,0 3,0 0,3 -3,0 z m -3,0 3,0 0,3 -3,0 z m -3,0 3,0 0,3 -3,0 z m -3,0 3,0 0,3 -3,0 z m -3,0 3,0 0,3 -3,0 z m -3,0 3,0 0,3 -3,0 z m -3,0 3,0 0,3 -3,0 z m -3,0 3,0 0,3 -3,0 z m -3,0 3,0 0,3 -3,0 z m -3,0 3,0 0,3 -3,0 z m -3,0 3,0 0,3 -3,0 z m -3,0 3,0 0,3 -3,0 z m -3,0 3,0 0,3 -3,0 z m -3,0 3,0 0,3 -3,0 z m -3,0 3,0 0,3 -3,0 z m -3,0 3,0 0,3 -3,0 z m -3,0 3,0 0,3 -3,0 z" />
</svg>
