<?xml version="1.0" encoding="UTF-8" standalone="no"?>
<svg
   xmlns:dc="http://purl.org/dc/elements/1.1/"
   xmlns:cc="http://creativecommons.org/ns#"
   xmlns:rdf="http://www.w3.org/1999/02/22-rdf-syntax-ns#"
   xmlns:svg="http://www.w3.org/2000/svg"
   xmlns="http://www.w3.org/2000/svg"
   xmlns:sodipodi="http://sodipodi.sourceforge.net/DTD/sodipodi-0.dtd"
   xmlns:inkscape="http://www.inkscape.org/namespaces/inkscape"
   height="186px"
   version="1.1"
   width="165px"
   id="svg2"
   inkscape:version="0.91 r13725"
   sodipodi:docname="iberian-fill.svg">
  <metadata
     id="metadata5660">
    <rdf:RDF>
      <cc:Work
         rdf:about="">
        <dc:format>image/svg+xml</dc:format>
        <dc:type
           rdf:resource="http://purl.org/dc/dcmitype/StillImage" />
      </cc:Work>
    </rdf:RDF>
  </metadata>
  <sodipodi:namedview
     pagecolor="#ffffff"
     bordercolor="#666666"
     borderopacity="1"
     objecttolerance="10"
     gridtolerance="10"
     guidetolerance="10"
     inkscape:pageopacity="0"
     inkscape:pageshadow="2"
     inkscape:window-width="640"
     inkscape:window-height="480"
     id="namedview5658"
     showgrid="false"
     inkscape:zoom="1.2688172"
     inkscape:cx="82.5"
     inkscape:cy="93"
     inkscape:window-x="2353"
     inkscape:window-y="334"
     inkscape:window-maximized="0"
     inkscape:current-layer="svg2" />
  <defs
     id="defs4" />
  <path
     id="rect5656"
     style="fill:#000000"
     d="m 93,180 3,0 0,3 -3,0 z m -3,0 3,0 0,3 -3,0 z m -3,0 3,0 0,3 -3,0 z m -3,0 3,0 0,3 -3,0 z m -3,0 3,0 0,3 -3,0 z m -3,0 3,0 0,3 -3,0 z m -3,0 3,0 0,3 -3,0 z m -3,0 3,0 0,3 -3,0 z m -3,0 3,0 0,3 -3,0 z m 36,-3 3,0 0,3 -3,0 z m -3,0 3,0 0,3 -3,0 z m -3,0 3,0 0,3 -3,0 z m -3,0 3,0 0,3 -3,0 z m -3,0 3,0 0,3 -3,0 z m -3,0 3,0 0,3 -3,0 z m -3,0 3,0 0,3 -3,0 z m -3,0 3,0 0,3 -3,0 z m -3,0 3,0 0,3 -3,0 z m -3,0 3,0 0,3 -3,0 z m -3,0 3,0 0,3 -3,0 z m -3,0 3,0 0,3 -3,0 z m -3,0 3,0 0,3 -3,0 z m -3,0 3,0 0,3 -3,0 z m -3,0 3,0 0,3 -3,0 z m -3,0 3,0 0,3 -3,0 z m -3,0 3,0 0,3 -3,0 z m 57,-3 3,0 0,3 -3,0 z m -3,0 3,0 0,3 -3,0 z m -3,0 3,0 0,3 -3,0 z m -3,0 3,0 0,3 -3,0 z m -3,0 3,0 0,3 -3,0 z m -3,0 3,0 0,3 -3,0 z m -3,0 3,0 0,3 -3,0 z m -3,0 3,0 0,3 -3,0 z m -3,0 3,0 0,3 -3,0 z m -3,0 3,0 0,3 -3,0 z m -3,0 3,0 0,3 -3,0 z m -3,0 3,0 0,3 -3,0 z m -3,0 3,0 0,3 -3,0 z m -3,0 3,0 0,3 -3,0 z m -3,0 3,0 0,3 -3,0 z m -3,0 3,0 0,3 -3,0 z m -3,0 3,0 0,3 -3,0 z m -3,0 3,0 0,3 -3,0 z m -3,0 3,0 0,3 -3,0 z m -3,0 3,0 0,3 -3,0 z m -3,0 3,0 0,3 -3,0 z m -3,0 3,0 0,3 -3,0 z m -3,0 3,0 0,3 -3,0 z m 72,-3 3,0 0,3 -3,0 z m -3,0 3,0 0,3 -3,0 z m -3,0 3,0 0,3 -3,0 z m -3,0 3,0 0,3 -3,0 z m -3,0 3,0 0,3 -3,0 z m -3,0 3,0 0,3 -3,0 z m -3,0 3,0 0,3 -3,0 z m -3,0 3,0 0,3 -3,0 z m -3,0 3,0 0,3 -3,0 z m -3,0 3,0 0,3 -3,0 z m -3,0 3,0 0,3 -3,0 z m -3,0 3,0 0,3 -3,0 z m -3,0 3,0 0,3 -3,0 z m -3,0 3,0 0,3 -3,0 z m -3,0 3,0 0,3 -3,0 z m -3,0 3,0 0,3 -3,0 z m -3,0 3,0 0,3 -3,0 z m -3,0 3,0 0,3 -3,0 z m -3,0 3,0 0,3 -3,0 z m -3,0 3,0 0,3 -3,0 z m -3,0 3,0 0,3 -3,0 z m -3,0 3,0 0,3 -3,0 z m -3,0 3,0 0,3 -3,0 z m -3,0 3,0 0,3 -3,0 z m -3,0 3,0 0,3 -3,0 z m -3,0 3,0 0,3 -3,0 z m -3,0 3,0 0,3 -3,0 z m 84,-3 3,0 0,3 -3,0 z m -3,0 3,0 0,3 -3,0 z m -3,0 3,0 0,3 -3,0 z m -3,0 3,0 0,3 -3,0 z m -3,0 3,0 0,3 -3,0 z m -3,0 3,0 0,3 -3,0 z m -3,0 3,0 0,3 -3,0 z m -3,0 3,0 0,3 -3,0 z m -3,0 3,0 0,3 -3,0 z m -3,0 3,0 0,3 -3,0 z m -3,0 3,0 0,3 -3,0 z m -3,0 3,0 0,3 -3,0 z m -3,0 3,0 0,3 -3,0 z m -3,0 3,0 0,3 -3,0 z m -3,0 3,0 0,3 -3,0 z m -3,0 3,0 0,3 -3,0 z m -3,0 3,0 0,3 -3,0 z m -3,0 3,0 0,3 -3,0 z m -3,0 3,0 0,3 -3,0 z m -3,0 3,0 0,3 -3,0 z m -3,0 3,0 0,3 -3,0 z m -3,0 3,0 0,3 -3,0 z m -3,0 3,0 0,3 -3,0 z m -3,0 3,0 0,3 -3,0 z m -3,0 3,0 0,3 -3,0 z m -3,0 3,0 0,3 -3,0 z m -3,0 3,0 0,3 -3,0 z m -3,0 3,0 0,3 -3,0 z m -3,0 3,0 0,3 -3,0 z m -3,0 3,0 0,3 -3,0 z m -3,0 3,0 0,3 -3,0 z m 96,-3 3,0 0,3 -3,0 z m -3,0 3,0 0,3 -3,0 z m -3,0 3,0 0,3 -3,0 z m -3,0 3,0 0,3 -3,0 z m -3,0 3,0 0,3 -3,0 z m -3,0 3,0 0,3 -3,0 z m -3,0 3,0 0,3 -3,0 z m -3,0 3,0 0,3 -3,0 z m -3,0 3,0 0,3 -3,0 z m -3,0 3,0 0,3 -3,0 z m -3,0 3,0 0,3 -3,0 z m -3,0 3,0 0,3 -3,0 z m -3,0 3,0 0,3 -3,0 z m -3,0 3,0 0,3 -3,0 z m -3,0 3,0 0,3 -3,0 z m -3,0 3,0 0,3 -3,0 z m -3,0 3,0 0,3 -3,0 z m -3,0 3,0 0,3 -3,0 z m -3,0 3,0 0,3 -3,0 z m -3,0 3,0 0,3 -3,0 z m -3,0 3,0 0,3 -3,0 z m -3,0 3,0 0,3 -3,0 z m -3,0 3,0 0,3 -3,0 z m -3,0 3,0 0,3 -3,0 z m -3,0 3,0 0,3 -3,0 z m -3,0 3,0 0,3 -3,0 z m -3,0 3,0 0,3 -3,0 z m -3,0 3,0 0,3 -3,0 z m -3,0 3,0 0,3 -3,0 z m -3,0 3,0 0,3 -3,0 z m -3,0 3,0 0,3 -3,0 z m -3,0 3,0 0,3 -3,0 z m -3,0 3,0 0,3 -3,0 z m -3,0 3,0 0,3 -3,0 z m -3,0 3,0 0,3 -3,0 z m 105,-3 3,0 0,3 -3,0 z m -3,0 3,0 0,3 -3,0 z m -3,0 3,0 0,3 -3,0 z m -3,0 3,0 0,3 -3,0 z m -3,0 3,0 0,3 -3,0 z m -3,0 3,0 0,3 -3,0 z m -3,0 3,0 0,3 -3,0 z m -3,0 3,0 0,3 -3,0 z m -3,0 3,0 0,3 -3,0 z m -3,0 3,0 0,3 -3,0 z m -3,0 3,0 0,3 -3,0 z m -3,0 3,0 0,3 -3,0 z m -3,0 3,0 0,3 -3,0 z m -3,0 3,0 0,3 -3,0 z m -3,0 3,0 0,3 -3,0 z m -3,0 3,0 0,3 -3,0 z m -3,0 3,0 0,3 -3,0 z m -3,0 3,0 0,3 -3,0 z m -3,0 3,0 0,3 -3,0 z m -3,0 3,0 0,3 -3,0 z m -3,0 3,0 0,3 -3,0 z m -3,0 3,0 0,3 -3,0 z m -3,0 3,0 0,3 -3,0 z m -3,0 3,0 0,3 -3,0 z m -3,0 3,0 0,3 -3,0 z m -3,0 3,0 0,3 -3,0 z m -3,0 3,0 0,3 -3,0 z m -3,0 3,0 0,3 -3,0 z m -3,0 3,0 0,3 -3,0 z m -3,0 3,0 0,3 -3,0 z m -3,0 3,0 0,3 -3,0 z m -3,0 3,0 0,3 -3,0 z m -3,0 3,0 0,3 -3,0 z m -3,0 3,0 0,3 -3,0 z m -3,0 3,0 0,3 -3,0 z m -3,0 3,0 0,3 -3,0 z m -3,0 3,0 0,3 -3,0 z m 111,-3 3,0 0,3 -3,0 z m -3,0 3,0 0,3 -3,0 z m -3,0 3,0 0,3 -3,0 z m -3,0 3,0 0,3 -3,0 z m -3,0 3,0 0,3 -3,0 z m -3,0 3,0 0,3 -3,0 z m -3,0 3,0 0,3 -3,0 z m -3,0 3,0 0,3 -3,0 z m -3,0 3,0 0,3 -3,0 z m -3,0 3,0 0,3 -3,0 z m -3,0 3,0 0,3 -3,0 z m -3,0 3,0 0,3 -3,0 z m -3,0 3,0 0,3 -3,0 z m -3,0 3,0 0,3 -3,0 z m -3,0 3,0 0,3 -3,0 z m -3,0 3,0 0,3 -3,0 z m -3,0 3,0 0,3 -3,0 z m -3,0 3,0 0,3 -3,0 z m -3,0 3,0 0,3 -3,0 z m -3,0 3,0 0,3 -3,0 z m -3,0 3,0 0,3 -3,0 z m -3,0 3,0 0,3 -3,0 z m -3,0 3,0 0,3 -3,0 z m -3,0 3,0 0,3 -3,0 z m -3,0 3,0 0,3 -3,0 z m -3,0 3,0 0,3 -3,0 z m -3,0 3,0 0,3 -3,0 z m -3,0 3,0 0,3 -3,0 z m -3,0 3,0 0,3 -3,0 z m -3,0 3,0 0,3 -3,0 z m -3,0 3,0 0,3 -3,0 z m -3,0 3,0 0,3 -3,0 z m -3,0 3,0 0,3 -3,0 z m -3,0 3,0 0,3 -3,0 z m -3,0 3,0 0,3 -3,0 z m -3,0 3,0 0,3 -3,0 z m -3,0 3,0 0,3 -3,0 z m -3,0 3,0 0,3 -3,0 z m -3,0 3,0 0,3 -3,0 z m 117,-3 3,0 0,3 -3,0 z m -3,0 3,0 0,3 -3,0 z m -3,0 3,0 0,3 -3,0 z m -3,0 3,0 0,3 -3,0 z m -3,0 3,0 0,3 -3,0 z m -3,0 3,0 0,3 -3,0 z m -3,0 3,0 0,3 -3,0 z m -3,0 3,0 0,3 -3,0 z m -3,0 3,0 0,3 -3,0 z m -3,0 3,0 0,3 -3,0 z m -3,0 3,0 0,3 -3,0 z m -3,0 3,0 0,3 -3,0 z m -3,0 3,0 0,3 -3,0 z m -3,0 3,0 0,3 -3,0 z m -3,0 3,0 0,3 -3,0 z m -3,0 3,0 0,3 -3,0 z m -3,0 3,0 0,3 -3,0 z m -3,0 3,0 0,3 -3,0 z m -3,0 3,0 0,3 -3,0 z m -3,0 3,0 0,3 -3,0 z m -3,0 3,0 0,3 -3,0 z m -3,0 3,0 0,3 -3,0 z m -3,0 3,0 0,3 -3,0 z m -3,0 3,0 0,3 -3,0 z m -3,0 3,0 0,3 -3,0 z m -3,0 3,0 0,3 -3,0 z m -3,0 3,0 0,3 -3,0 z m -3,0 3,0 0,3 -3,0 z m -3,0 3,0 0,3 -3,0 z m -3,0 3,0 0,3 -3,0 z m -3,0 3,0 0,3 -3,0 z m -3,0 3,0 0,3 -3,0 z m -3,0 3,0 0,3 -3,0 z m -3,0 3,0 0,3 -3,0 z m -3,0 3,0 0,3 -3,0 z m -3,0 3,0 0,3 -3,0 z m -3,0 3,0 0,3 -3,0 z m -3,0 3,0 0,3 -3,0 z m -3,0 3,0 0,3 -3,0 z m -3,0 3,0 0,3 -3,0 z m -3,0 3,0 0,3 -3,0 z m 123,-3 3,0 0,3 -3,0 z m -3,0 3,0 0,3 -3,0 z m -3,0 3,0 0,3 -3,0 z m -3,0 3,0 0,3 -3,0 z m -3,0 3,0 0,3 -3,0 z m -3,0 3,0 0,3 -3,0 z m -3,0 3,0 0,3 -3,0 z m -3,0 3,0 0,3 -3,0 z m -3,0 3,0 0,3 -3,0 z m -3,0 3,0 0,3 -3,0 z m -3,0 3,0 0,3 -3,0 z m -3,0 3,0 0,3 -3,0 z m -3,0 3,0 0,3 -3,0 z m -3,0 3,0 0,3 -3,0 z m -3,0 3,0 0,3 -3,0 z m -3,0 3,0 0,3 -3,0 z m -3,0 3,0 0,3 -3,0 z m -3,0 3,0 0,3 -3,0 z m -3,0 3,0 0,3 -3,0 z m -3,0 3,0 0,3 -3,0 z m -3,0 3,0 0,3 -3,0 z m -3,0 3,0 0,3 -3,0 z m -3,0 3,0 0,3 -3,0 z m -3,0 3,0 0,3 -3,0 z m -3,0 3,0 0,3 -3,0 z m -3,0 3,0 0,3 -3,0 z m -3,0 3,0 0,3 -3,0 z m -3,0 3,0 0,3 -3,0 z m -3,0 3,0 0,3 -3,0 z m -3,0 3,0 0,3 -3,0 z m -3,0 3,0 0,3 -3,0 z m -3,0 3,0 0,3 -3,0 z m -3,0 3,0 0,3 -3,0 z m -3,0 3,0 0,3 -3,0 z m -3,0 3,0 0,3 -3,0 z m -3,0 3,0 0,3 -3,0 z m -3,0 3,0 0,3 -3,0 z m -3,0 3,0 0,3 -3,0 z m -3,0 3,0 0,3 -3,0 z m -3,0 3,0 0,3 -3,0 z m -3,0 3,0 0,3 -3,0 z m -3,0 3,0 0,3 -3,0 z m -3,0 3,0 0,3 -3,0 z m 129,-3 3,0 0,3 -3,0 z m -3,0 3,0 0,3 -3,0 z m -3,0 3,0 0,3 -3,0 z m -3,0 3,0 0,3 -3,0 z m -3,0 3,0 0,3 -3,0 z m -3,0 3,0 0,3 -3,0 z m -3,0 3,0 0,3 -3,0 z m -3,0 3,0 0,3 -3,0 z m -3,0 3,0 0,3 -3,0 z m -3,0 3,0 0,3 -3,0 z m -3,0 3,0 0,3 -3,0 z m -3,0 3,0 0,3 -3,0 z m -3,0 3,0 0,3 -3,0 z m -3,0 3,0 0,3 -3,0 z m -3,0 3,0 0,3 -3,0 z m -3,0 3,0 0,3 -3,0 z m -3,0 3,0 0,3 -3,0 z m -3,0 3,0 0,3 -3,0 z m -3,0 3,0 0,3 -3,0 z m -3,0 3,0 0,3 -3,0 z m -3,0 3,0 0,3 -3,0 z m -3,0 3,0 0,3 -3,0 z m -3,0 3,0 0,3 -3,0 z m -3,0 3,0 0,3 -3,0 z m -3,0 3,0 0,3 -3,0 z m -3,0 3,0 0,3 -3,0 z m -3,0 3,0 0,3 -3,0 z m -3,0 3,0 0,3 -3,0 z m -3,0 3,0 0,3 -3,0 z m -3,0 3,0 0,3 -3,0 z m -3,0 3,0 0,3 -3,0 z m -3,0 3,0 0,3 -3,0 z m -3,0 3,0 0,3 -3,0 z m -3,0 3,0 0,3 -3,0 z m -3,0 3,0 0,3 -3,0 z m -3,0 3,0 0,3 -3,0 z m -3,0 3,0 0,3 -3,0 z m -3,0 3,0 0,3 -3,0 z m -3,0 3,0 0,3 -3,0 z m -3,0 3,0 0,3 -3,0 z m -3,0 3,0 0,3 -3,0 z m -3,0 3,0 0,3 -3,0 z m -3,0 3,0 0,3 -3,0 z m -3,0 3,0 0,3 -3,0 z m -3,0 3,0 0,3 -3,0 z m 132,-3 3,0 0,3 -3,0 z m -3,0 3,0 0,3 -3,0 z m -3,0 3,0 0,3 -3,0 z m -3,0 3,0 0,3 -3,0 z m -3,0 3,0 0,3 -3,0 z m -3,0 3,0 0,3 -3,0 z m -3,0 3,0 0,3 -3,0 z m -3,0 3,0 0,3 -3,0 z m -3,0 3,0 0,3 -3,0 z m -3,0 3,0 0,3 -3,0 z m -3,0 3,0 0,3 -3,0 z m -3,0 3,0 0,3 -3,0 z m -3,0 3,0 0,3 -3,0 z m -3,0 3,0 0,3 -3,0 z m -3,0 3,0 0,3 -3,0 z m -3,0 3,0 0,3 -3,0 z m -3,0 3,0 0,3 -3,0 z m -3,0 3,0 0,3 -3,0 z m -3,0 3,0 0,3 -3,0 z m -3,0 3,0 0,3 -3,0 z m -3,0 3,0 0,3 -3,0 z m -3,0 3,0 0,3 -3,0 z m -3,0 3,0 0,3 -3,0 z m -3,0 3,0 0,3 -3,0 z m -3,0 3,0 0,3 -3,0 z m -3,0 3,0 0,3 -3,0 z m -3,0 3,0 0,3 -3,0 z m -3,0 3,0 0,3 -3,0 z m -3,0 3,0 0,3 -3,0 z m -3,0 3,0 0,3 -3,0 z m -3,0 3,0 0,3 -3,0 z m -3,0 3,0 0,3 -3,0 z m -3,0 3,0 0,3 -3,0 z m -3,0 3,0 0,3 -3,0 z m -3,0 3,0 0,3 -3,0 z m -3,0 3,0 0,3 -3,0 z m -3,0 3,0 0,3 -3,0 z m -3,0 3,0 0,3 -3,0 z m -3,0 3,0 0,3 -3,0 z m -3,0 3,0 0,3 -3,0 z m -3,0 3,0 0,3 -3,0 z m -3,0 3,0 0,3 -3,0 z m -3,0 3,0 0,3 -3,0 z m -3,0 3,0 0,3 -3,0 z m -3,0 3,0 0,3 -3,0 z m 135,-3 3,0 0,3 -3,0 z m -3,0 3,0 0,3 -3,0 z m -3,0 3,0 0,3 -3,0 z m -3,0 3,0 0,3 -3,0 z m -3,0 3,0 0,3 -3,0 z m -3,0 3,0 0,3 -3,0 z m -3,0 3,0 0,3 -3,0 z m -3,0 3,0 0,3 -3,0 z m -3,0 3,0 0,3 -3,0 z m -3,0 3,0 0,3 -3,0 z m -3,0 3,0 0,3 -3,0 z m -3,0 3,0 0,3 -3,0 z m -3,0 3,0 0,3 -3,0 z m -3,0 3,0 0,3 -3,0 z m -3,0 3,0 0,3 -3,0 z m -3,0 3,0 0,3 -3,0 z m -3,0 3,0 0,3 -3,0 z m -3,0 3,0 0,3 -3,0 z m -3,0 3,0 0,3 -3,0 z m -3,0 3,0 0,3 -3,0 z m -3,0 3,0 0,3 -3,0 z m -3,0 3,0 0,3 -3,0 z m -3,0 3,0 0,3 -3,0 z m -3,0 3,0 0,3 -3,0 z m -3,0 3,0 0,3 -3,0 z m -3,0 3,0 0,3 -3,0 z m -3,0 3,0 0,3 -3,0 z m -3,0 3,0 0,3 -3,0 z m -3,0 3,0 0,3 -3,0 z m -3,0 3,0 0,3 -3,0 z m -3,0 3,0 0,3 -3,0 z m -3,0 3,0 0,3 -3,0 z m -3,0 3,0 0,3 -3,0 z m -3,0 3,0 0,3 -3,0 z m -3,0 3,0 0,3 -3,0 z m -3,0 3,0 0,3 -3,0 z m -3,0 3,0 0,3 -3,0 z m -3,0 3,0 0,3 -3,0 z m -3,0 3,0 0,3 -3,0 z m -3,0 3,0 0,3 -3,0 z m -3,0 3,0 0,3 -3,0 z m -3,0 3,0 0,3 -3,0 z m -3,0 3,0 0,3 -3,0 z m -3,0 3,0 0,3 -3,0 z m -3,0 3,0 0,3 -3,0 z m -3,0 3,0 0,3 -3,0 z m -3,0 3,0 0,3 -3,0 z m 138,-3 3,0 0,3 -3,0 z m -3,0 3,0 0,3 -3,0 z m -3,0 3,0 0,3 -3,0 z m -3,0 3,0 0,3 -3,0 z m -3,0 3,0 0,3 -3,0 z m -3,0 3,0 0,3 -3,0 z m -3,0 3,0 0,3 -3,0 z m -3,0 3,0 0,3 -3,0 z m -3,0 3,0 0,3 -3,0 z m -3,0 3,0 0,3 -3,0 z m -3,0 3,0 0,3 -3,0 z m -3,0 3,0 0,3 -3,0 z m -3,0 3,0 0,3 -3,0 z m -3,0 3,0 0,3 -3,0 z m -3,0 3,0 0,3 -3,0 z m -3,0 3,0 0,3 -3,0 z m -3,0 3,0 0,3 -3,0 z m -3,0 3,0 0,3 -3,0 z m -3,0 3,0 0,3 -3,0 z m -3,0 3,0 0,3 -3,0 z m -3,0 3,0 0,3 -3,0 z m -3,0 3,0 0,3 -3,0 z m -3,0 3,0 0,3 -3,0 z m -3,0 3,0 0,3 -3,0 z m -3,0 3,0 0,3 -3,0 z m -3,0 3,0 0,3 -3,0 z m -3,0 3,0 0,3 -3,0 z m -3,0 3,0 0,3 -3,0 z m -3,0 3,0 0,3 -3,0 z m -3,0 3,0 0,3 -3,0 z m -3,0 3,0 0,3 -3,0 z m -3,0 3,0 0,3 -3,0 z m -3,0 3,0 0,3 -3,0 z m -3,0 3,0 0,3 -3,0 z m -3,0 3,0 0,3 -3,0 z m -3,0 3,0 0,3 -3,0 z m -3,0 3,0 0,3 -3,0 z m -3,0 3,0 0,3 -3,0 z m -3,0 3,0 0,3 -3,0 z m -3,0 3,0 0,3 -3,0 z m -3,0 3,0 0,3 -3,0 z m -3,0 3,0 0,3 -3,0 z m -3,0 3,0 0,3 -3,0 z m -3,0 3,0 0,3 -3,0 z m -3,0 3,0 0,3 -3,0 z m -3,0 3,0 0,3 -3,0 z m -3,0 3,0 0,3 -3,0 z m 141,-3 3,0 0,3 -3,0 z m -3,0 3,0 0,3 -3,0 z m -3,0 3,0 0,3 -3,0 z m -3,0 3,0 0,3 -3,0 z m -3,0 3,0 0,3 -3,0 z m -3,0 3,0 0,3 -3,0 z m -3,0 3,0 0,3 -3,0 z m -3,0 3,0 0,3 -3,0 z m -3,0 3,0 0,3 -3,0 z m -3,0 3,0 0,3 -3,0 z m -3,0 3,0 0,3 -3,0 z m -3,0 3,0 0,3 -3,0 z m -3,0 3,0 0,3 -3,0 z m -3,0 3,0 0,3 -3,0 z m -3,0 3,0 0,3 -3,0 z m -3,0 3,0 0,3 -3,0 z m -3,0 3,0 0,3 -3,0 z m -3,0 3,0 0,3 -3,0 z m -3,0 3,0 0,3 -3,0 z m -3,0 3,0 0,3 -3,0 z m -3,0 3,0 0,3 -3,0 z m -3,0 3,0 0,3 -3,0 z m -3,0 3,0 0,3 -3,0 z m -3,0 3,0 0,3 -3,0 z m -3,0 3,0 0,3 -3,0 z m -3,0 3,0 0,3 -3,0 z m -3,0 3,0 0,3 -3,0 z m -3,0 3,0 0,3 -3,0 z m -3,0 3,0 0,3 -3,0 z m -3,0 3,0 0,3 -3,0 z m -3,0 3,0 0,3 -3,0 z m -3,0 3,0 0,3 -3,0 z m -3,0 3,0 0,3 -3,0 z m -3,0 3,0 0,3 -3,0 z m -3,0 3,0 0,3 -3,0 z m -3,0 3,0 0,3 -3,0 z m -3,0 3,0 0,3 -3,0 z m -3,0 3,0 0,3 -3,0 z m -3,0 3,0 0,3 -3,0 z m -3,0 3,0 0,3 -3,0 z m -3,0 3,0 0,3 -3,0 z m -3,0 3,0 0,3 -3,0 z m -3,0 3,0 0,3 -3,0 z m -3,0 3,0 0,3 -3,0 z m -3,0 3,0 0,3 -3,0 z m -3,0 3,0 0,3 -3,0 z m -3,0 3,0 0,3 -3,0 z m -3,0 3,0 0,3 -3,0 z m -3,0 3,0 0,3 -3,0 z m 144,-3 3,0 0,3 -3,0 z m -3,0 3,0 0,3 -3,0 z m -3,0 3,0 0,3 -3,0 z m -3,0 3,0 0,3 -3,0 z m -3,0 3,0 0,3 -3,0 z m -3,0 3,0 0,3 -3,0 z m -3,0 3,0 0,3 -3,0 z m -3,0 3,0 0,3 -3,0 z m -3,0 3,0 0,3 -3,0 z m -3,0 3,0 0,3 -3,0 z m -3,0 3,0 0,3 -3,0 z m -3,0 3,0 0,3 -3,0 z m -3,0 3,0 0,3 -3,0 z m -3,0 3,0 0,3 -3,0 z m -3,0 3,0 0,3 -3,0 z m -3,0 3,0 0,3 -3,0 z m -3,0 3,0 0,3 -3,0 z m -3,0 3,0 0,3 -3,0 z m -3,0 3,0 0,3 -3,0 z m -3,0 3,0 0,3 -3,0 z m -3,0 3,0 0,3 -3,0 z m -3,0 3,0 0,3 -3,0 z m -3,0 3,0 0,3 -3,0 z m -3,0 3,0 0,3 -3,0 z m -3,0 3,0 0,3 -3,0 z m -3,0 3,0 0,3 -3,0 z m -3,0 3,0 0,3 -3,0 z m -3,0 3,0 0,3 -3,0 z m -3,0 3,0 0,3 -3,0 z m -3,0 3,0 0,3 -3,0 z m -3,0 3,0 0,3 -3,0 z m -3,0 3,0 0,3 -3,0 z m -3,0 3,0 0,3 -3,0 z m -3,0 3,0 0,3 -3,0 z m -3,0 3,0 0,3 -3,0 z m -3,0 3,0 0,3 -3,0 z m -3,0 3,0 0,3 -3,0 z m -3,0 3,0 0,3 -3,0 z m -3,0 3,0 0,3 -3,0 z m -3,0 3,0 0,3 -3,0 z m -3,0 3,0 0,3 -3,0 z m -3,0 3,0 0,3 -3,0 z m -3,0 3,0 0,3 -3,0 z m -3,0 3,0 0,3 -3,0 z m -3,0 3,0 0,3 -3,0 z m -3,0 3,0 0,3 -3,0 z m -3,0 3,0 0,3 -3,0 z m -3,0 3,0 0,3 -3,0 z m -3,0 3,0 0,3 -3,0 z m 144,-3 3,0 0,3 -3,0 z m -3,0 3,0 0,3 -3,0 z m -3,0 3,0 0,3 -3,0 z m -3,0 3,0 0,3 -3,0 z m -3,0 3,0 0,3 -3,0 z m -3,0 3,0 0,3 -3,0 z m -3,0 3,0 0,3 -3,0 z m -3,0 3,0 0,3 -3,0 z m -3,0 3,0 0,3 -3,0 z m -3,0 3,0 0,3 -3,0 z m -3,0 3,0 0,3 -3,0 z m -3,0 3,0 0,3 -3,0 z m -3,0 3,0 0,3 -3,0 z m -3,0 3,0 0,3 -3,0 z m -3,0 3,0 0,3 -3,0 z m -3,0 3,0 0,3 -3,0 z m -3,0 3,0 0,3 -3,0 z m -3,0 3,0 0,3 -3,0 z m -3,0 3,0 0,3 -3,0 z m -3,0 3,0 0,3 -3,0 z m -3,0 3,0 0,3 -3,0 z m -3,0 3,0 0,3 -3,0 z m -3,0 3,0 0,3 -3,0 z m -3,0 3,0 0,3 -3,0 z m -3,0 3,0 0,3 -3,0 z m -3,0 3,0 0,3 -3,0 z m -3,0 3,0 0,3 -3,0 z m -3,0 3,0 0,3 -3,0 z m -3,0 3,0 0,3 -3,0 z m -3,0 3,0 0,3 -3,0 z m -3,0 3,0 0,3 -3,0 z m -3,0 3,0 0,3 -3,0 z m -3,0 3,0 0,3 -3,0 z m -3,0 3,0 0,3 -3,0 z m -3,0 3,0 0,3 -3,0 z m -3,0 3,0 0,3 -3,0 z m -3,0 3,0 0,3 -3,0 z m -3,0 3,0 0,3 -3,0 z m -3,0 3,0 0,3 -3,0 z m -3,0 3,0 0,3 -3,0 z m -3,0 3,0 0,3 -3,0 z m -3,0 3,0 0,3 -3,0 z m -3,0 3,0 0,3 -3,0 z m -3,0 3,0 0,3 -3,0 z m -3,0 3,0 0,3 -3,0 z m -3,0 3,0 0,3 -3,0 z m -3,0 3,0 0,3 -3,0 z m -3,0 3,0 0,3 -3,0 z m -3,0 3,0 0,3 -3,0 z m 147,-3 3,0 0,3 -3,0 z m -3,0 3,0 0,3 -3,0 z m -3,0 3,0 0,3 -3,0 z m -3,0 3,0 0,3 -3,0 z m -3,0 3,0 0,3 -3,0 z m -3,0 3,0 0,3 -3,0 z m -3,0 3,0 0,3 -3,0 z m -3,0 3,0 0,3 -3,0 z m -3,0 3,0 0,3 -3,0 z m -3,0 3,0 0,3 -3,0 z m -3,0 3,0 0,3 -3,0 z m -3,0 3,0 0,3 -3,0 z m -3,0 3,0 0,3 -3,0 z m -3,0 3,0 0,3 -3,0 z m -3,0 3,0 0,3 -3,0 z m -3,0 3,0 0,3 -3,0 z m -3,0 3,0 0,3 -3,0 z m -3,0 3,0 0,3 -3,0 z m -3,0 3,0 0,3 -3,0 z m -3,0 3,0 0,3 -3,0 z m -3,0 3,0 0,3 -3,0 z m -3,0 3,0 0,3 -3,0 z m -3,0 3,0 0,3 -3,0 z m -3,0 3,0 0,3 -3,0 z m -3,0 3,0 0,3 -3,0 z m -3,0 3,0 0,3 -3,0 z m -3,0 3,0 0,3 -3,0 z m -3,0 3,0 0,3 -3,0 z m -3,0 3,0 0,3 -3,0 z m -3,0 3,0 0,3 -3,0 z m -3,0 3,0 0,3 -3,0 z m -3,0 3,0 0,3 -3,0 z m -3,0 3,0 0,3 -3,0 z m -3,0 3,0 0,3 -3,0 z m -3,0 3,0 0,3 -3,0 z m -3,0 3,0 0,3 -3,0 z m -3,0 3,0 0,3 -3,0 z m -3,0 3,0 0,3 -3,0 z m -3,0 3,0 0,3 -3,0 z m -3,0 3,0 0,3 -3,0 z m -3,0 3,0 0,3 -3,0 z m -3,0 3,0 0,3 -3,0 z m -3,0 3,0 0,3 -3,0 z m -3,0 3,0 0,3 -3,0 z m -3,0 3,0 0,3 -3,0 z m -3,0 3,0 0,3 -3,0 z m -3,0 3,0 0,3 -3,0 z m -3,0 3,0 0,3 -3,0 z m -3,0 3,0 0,3 -3,0 z m -3,0 3,0 0,3 -3,0 z m -3,0 3,0 0,3 -3,0 z m 150,-3 3,0 0,3 -3,0 z m -3,0 3,0 0,3 -3,0 z m -3,0 3,0 0,3 -3,0 z m -3,0 3,0 0,3 -3,0 z m -3,0 3,0 0,3 -3,0 z m -3,0 3,0 0,3 -3,0 z m -3,0 3,0 0,3 -3,0 z m -3,0 3,0 0,3 -3,0 z m -3,0 3,0 0,3 -3,0 z m -3,0 3,0 0,3 -3,0 z m -3,0 3,0 0,3 -3,0 z m -3,0 3,0 0,3 -3,0 z m -3,0 3,0 0,3 -3,0 z m -3,0 3,0 0,3 -3,0 z m -3,0 3,0 0,3 -3,0 z m -3,0 3,0 0,3 -3,0 z m -3,0 3,0 0,3 -3,0 z m -3,0 3,0 0,3 -3,0 z m -3,0 3,0 0,3 -3,0 z m -3,0 3,0 0,3 -3,0 z m -3,0 3,0 0,3 -3,0 z m -3,0 3,0 0,3 -3,0 z m -3,0 3,0 0,3 -3,0 z m -3,0 3,0 0,3 -3,0 z m -3,0 3,0 0,3 -3,0 z m -3,0 3,0 0,3 -3,0 z m -3,0 3,0 0,3 -3,0 z m -3,0 3,0 0,3 -3,0 z m -3,0 3,0 0,3 -3,0 z m -3,0 3,0 0,3 -3,0 z m -3,0 3,0 0,3 -3,0 z m -3,0 3,0 0,3 -3,0 z m -3,0 3,0 0,3 -3,0 z m -3,0 3,0 0,3 -3,0 z m -3,0 3,0 0,3 -3,0 z m -3,0 3,0 0,3 -3,0 z m -3,0 3,0 0,3 -3,0 z m -3,0 3,0 0,3 -3,0 z m -3,0 3,0 0,3 -3,0 z m -3,0 3,0 0,3 -3,0 z m -3,0 3,0 0,3 -3,0 z m -3,0 3,0 0,3 -3,0 z m -3,0 3,0 0,3 -3,0 z m -3,0 3,0 0,3 -3,0 z m -3,0 3,0 0,3 -3,0 z m -3,0 3,0 0,3 -3,0 z m -3,0 3,0 0,3 -3,0 z m -3,0 3,0 0,3 -3,0 z m -3,0 3,0 0,3 -3,0 z m -3,0 3,0 0,3 -3,0 z m -3,0 3,0 0,3 -3,0 z m 150,-3 3,0 0,3 -3,0 z m -3,0 3,0 0,3 -3,0 z m -3,0 3,0 0,3 -3,0 z m -3,0 3,0 0,3 -3,0 z m -3,0 3,0 0,3 -3,0 z m -3,0 3,0 0,3 -3,0 z m -3,0 3,0 0,3 -3,0 z m -3,0 3,0 0,3 -3,0 z m -3,0 3,0 0,3 -3,0 z m -3,0 3,0 0,3 -3,0 z m -3,0 3,0 0,3 -3,0 z m -3,0 3,0 0,3 -3,0 z m -3,0 3,0 0,3 -3,0 z m -3,0 3,0 0,3 -3,0 z m -3,0 3,0 0,3 -3,0 z m -3,0 3,0 0,3 -3,0 z m -3,0 3,0 0,3 -3,0 z m -3,0 3,0 0,3 -3,0 z m -3,0 3,0 0,3 -3,0 z m -3,0 3,0 0,3 -3,0 z m -3,0 3,0 0,3 -3,0 z m -3,0 3,0 0,3 -3,0 z m -3,0 3,0 0,3 -3,0 z m -3,0 3,0 0,3 -3,0 z m -3,0 3,0 0,3 -3,0 z m -3,0 3,0 0,3 -3,0 z m -3,0 3,0 0,3 -3,0 z m -3,0 3,0 0,3 -3,0 z m -3,0 3,0 0,3 -3,0 z m -3,0 3,0 0,3 -3,0 z m -3,0 3,0 0,3 -3,0 z m -3,0 3,0 0,3 -3,0 z m -3,0 3,0 0,3 -3,0 z m -3,0 3,0 0,3 -3,0 z m -3,0 3,0 0,3 -3,0 z m -3,0 3,0 0,3 -3,0 z m -3,0 3,0 0,3 -3,0 z m -3,0 3,0 0,3 -3,0 z m -3,0 3,0 0,3 -3,0 z m -3,0 3,0 0,3 -3,0 z m -3,0 3,0 0,3 -3,0 z m -3,0 3,0 0,3 -3,0 z m -3,0 3,0 0,3 -3,0 z m -3,0 3,0 0,3 -3,0 z m -3,0 3,0 0,3 -3,0 z m -3,0 3,0 0,3 -3,0 z m -3,0 3,0 0,3 -3,0 z m -3,0 3,0 0,3 -3,0 z m -3,0 3,0 0,3 -3,0 z m -3,0 3,0 0,3 -3,0 z m -3,0 3,0 0,3 -3,0 z m 150,-3 3,0 0,3 -3,0 z m -3,0 3,0 0,3 -3,0 z m -3,0 3,0 0,3 -3,0 z m -3,0 3,0 0,3 -3,0 z m -3,0 3,0 0,3 -3,0 z m -3,0 3,0 0,3 -3,0 z m -3,0 3,0 0,3 -3,0 z m -3,0 3,0 0,3 -3,0 z m -3,0 3,0 0,3 -3,0 z m -3,0 3,0 0,3 -3,0 z m -3,0 3,0 0,3 -3,0 z m -3,0 3,0 0,3 -3,0 z m -3,0 3,0 0,3 -3,0 z m -3,0 3,0 0,3 -3,0 z m -3,0 3,0 0,3 -3,0 z m -3,0 3,0 0,3 -3,0 z m -3,0 3,0 0,3 -3,0 z m -3,0 3,0 0,3 -3,0 z m -3,0 3,0 0,3 -3,0 z m -3,0 3,0 0,3 -3,0 z m -3,0 3,0 0,3 -3,0 z m -3,0 3,0 0,3 -3,0 z m -3,0 3,0 0,3 -3,0 z m -3,0 3,0 0,3 -3,0 z m -3,0 3,0 0,3 -3,0 z m -3,0 3,0 0,3 -3,0 z m -3,0 3,0 0,3 -3,0 z m -3,0 3,0 0,3 -3,0 z m -3,0 3,0 0,3 -3,0 z m -3,0 3,0 0,3 -3,0 z m -3,0 3,0 0,3 -3,0 z m -3,0 3,0 0,3 -3,0 z m -3,0 3,0 0,3 -3,0 z m -3,0 3,0 0,3 -3,0 z m -3,0 3,0 0,3 -3,0 z m -3,0 3,0 0,3 -3,0 z m -3,0 3,0 0,3 -3,0 z m -3,0 3,0 0,3 -3,0 z m -3,0 3,0 0,3 -3,0 z m -3,0 3,0 0,3 -3,0 z m -3,0 3,0 0,3 -3,0 z m -3,0 3,0 0,3 -3,0 z m -3,0 3,0 0,3 -3,0 z m -3,0 3,0 0,3 -3,0 z m -3,0 3,0 0,3 -3,0 z m -3,0 3,0 0,3 -3,0 z m -3,0 3,0 0,3 -3,0 z m -3,0 3,0 0,3 -3,0 z m -3,0 3,0 0,3 -3,0 z m -3,0 3,0 0,3 -3,0 z m -3,0 3,0 0,3 -3,0 z m 150,-3 3,0 0,3 -3,0 z m -3,0 3,0 0,3 -3,0 z m -3,0 3,0 0,3 -3,0 z m -3,0 3,0 0,3 -3,0 z m -3,0 3,0 0,3 -3,0 z m -3,0 3,0 0,3 -3,0 z m -3,0 3,0 0,3 -3,0 z m -3,0 3,0 0,3 -3,0 z m -3,0 3,0 0,3 -3,0 z m -3,0 3,0 0,3 -3,0 z m -3,0 3,0 0,3 -3,0 z m -3,0 3,0 0,3 -3,0 z m -3,0 3,0 0,3 -3,0 z m -3,0 3,0 0,3 -3,0 z m -3,0 3,0 0,3 -3,0 z m -3,0 3,0 0,3 -3,0 z m -3,0 3,0 0,3 -3,0 z m -3,0 3,0 0,3 -3,0 z m -3,0 3,0 0,3 -3,0 z m -3,0 3,0 0,3 -3,0 z m -3,0 3,0 0,3 -3,0 z m -3,0 3,0 0,3 -3,0 z m -3,0 3,0 0,3 -3,0 z m -3,0 3,0 0,3 -3,0 z m -3,0 3,0 0,3 -3,0 z m -3,0 3,0 0,3 -3,0 z m -3,0 3,0 0,3 -3,0 z m -3,0 3,0 0,3 -3,0 z m -3,0 3,0 0,3 -3,0 z m -3,0 3,0 0,3 -3,0 z m -3,0 3,0 0,3 -3,0 z m -3,0 3,0 0,3 -3,0 z m -3,0 3,0 0,3 -3,0 z m -3,0 3,0 0,3 -3,0 z m -3,0 3,0 0,3 -3,0 z m -3,0 3,0 0,3 -3,0 z m -3,0 3,0 0,3 -3,0 z m -3,0 3,0 0,3 -3,0 z m -3,0 3,0 0,3 -3,0 z m -3,0 3,0 0,3 -3,0 z m -3,0 3,0 0,3 -3,0 z m -3,0 3,0 0,3 -3,0 z m -3,0 3,0 0,3 -3,0 z m -3,0 3,0 0,3 -3,0 z m -3,0 3,0 0,3 -3,0 z m -3,0 3,0 0,3 -3,0 z m -3,0 3,0 0,3 -3,0 z m -3,0 3,0 0,3 -3,0 z m -3,0 3,0 0,3 -3,0 z m -3,0 3,0 0,3 -3,0 z m -3,0 3,0 0,3 -3,0 z m 150,-3 3,0 0,3 -3,0 z m -3,0 3,0 0,3 -3,0 z m -3,0 3,0 0,3 -3,0 z m -3,0 3,0 0,3 -3,0 z m -3,0 3,0 0,3 -3,0 z m -3,0 3,0 0,3 -3,0 z m -3,0 3,0 0,3 -3,0 z m -3,0 3,0 0,3 -3,0 z m -3,0 3,0 0,3 -3,0 z m -3,0 3,0 0,3 -3,0 z m -3,0 3,0 0,3 -3,0 z m -3,0 3,0 0,3 -3,0 z m -3,0 3,0 0,3 -3,0 z m -3,0 3,0 0,3 -3,0 z m -3,0 3,0 0,3 -3,0 z m -3,0 3,0 0,3 -3,0 z m -3,0 3,0 0,3 -3,0 z m -3,0 3,0 0,3 -3,0 z m -3,0 3,0 0,3 -3,0 z m -3,0 3,0 0,3 -3,0 z m -3,0 3,0 0,3 -3,0 z m -3,0 3,0 0,3 -3,0 z m -3,0 3,0 0,3 -3,0 z m -3,0 3,0 0,3 -3,0 z m -3,0 3,0 0,3 -3,0 z m -3,0 3,0 0,3 -3,0 z m -3,0 3,0 0,3 -3,0 z m -3,0 3,0 0,3 -3,0 z m -3,0 3,0 0,3 -3,0 z m -3,0 3,0 0,3 -3,0 z m -3,0 3,0 0,3 -3,0 z m -3,0 3,0 0,3 -3,0 z m -3,0 3,0 0,3 -3,0 z m -3,0 3,0 0,3 -3,0 z m -3,0 3,0 0,3 -3,0 z m -3,0 3,0 0,3 -3,0 z m -3,0 3,0 0,3 -3,0 z m -3,0 3,0 0,3 -3,0 z m -3,0 3,0 0,3 -3,0 z m -3,0 3,0 0,3 -3,0 z m -3,0 3,0 0,3 -3,0 z m -3,0 3,0 0,3 -3,0 z m -3,0 3,0 0,3 -3,0 z m -3,0 3,0 0,3 -3,0 z m -3,0 3,0 0,3 -3,0 z m -3,0 3,0 0,3 -3,0 z m -3,0 3,0 0,3 -3,0 z m -3,0 3,0 0,3 -3,0 z m -3,0 3,0 0,3 -3,0 z m -3,0 3,0 0,3 -3,0 z m -3,0 3,0 0,3 -3,0 z m 150,-3 3,0 0,3 -3,0 z m -3,0 3,0 0,3 -3,0 z m -3,0 3,0 0,3 -3,0 z m -3,0 3,0 0,3 -3,0 z m -3,0 3,0 0,3 -3,0 z m -3,0 3,0 0,3 -3,0 z m -3,0 3,0 0,3 -3,0 z m -3,0 3,0 0,3 -3,0 z m -3,0 3,0 0,3 -3,0 z m -3,0 3,0 0,3 -3,0 z m -3,0 3,0 0,3 -3,0 z m -3,0 3,0 0,3 -3,0 z m -3,0 3,0 0,3 -3,0 z m -3,0 3,0 0,3 -3,0 z m -3,0 3,0 0,3 -3,0 z m -3,0 3,0 0,3 -3,0 z m -3,0 3,0 0,3 -3,0 z m -3,0 3,0 0,3 -3,0 z m -3,0 3,0 0,3 -3,0 z m -3,0 3,0 0,3 -3,0 z m -3,0 3,0 0,3 -3,0 z m -3,0 3,0 0,3 -3,0 z m -3,0 3,0 0,3 -3,0 z m -3,0 3,0 0,3 -3,0 z m -3,0 3,0 0,3 -3,0 z m -3,0 3,0 0,3 -3,0 z m -3,0 3,0 0,3 -3,0 z m -3,0 3,0 0,3 -3,0 z m -3,0 3,0 0,3 -3,0 z m -3,0 3,0 0,3 -3,0 z m -3,0 3,0 0,3 -3,0 z m -3,0 3,0 0,3 -3,0 z m -3,0 3,0 0,3 -3,0 z m -3,0 3,0 0,3 -3,0 z m -3,0 3,0 0,3 -3,0 z m -3,0 3,0 0,3 -3,0 z m -3,0 3,0 0,3 -3,0 z m -3,0 3,0 0,3 -3,0 z m -3,0 3,0 0,3 -3,0 z m -3,0 3,0 0,3 -3,0 z m -3,0 3,0 0,3 -3,0 z m -3,0 3,0 0,3 -3,0 z m -3,0 3,0 0,3 -3,0 z m -3,0 3,0 0,3 -3,0 z m -3,0 3,0 0,3 -3,0 z m -3,0 3,0 0,3 -3,0 z m -3,0 3,0 0,3 -3,0 z m -3,0 3,0 0,3 -3,0 z m -3,0 3,0 0,3 -3,0 z m -3,0 3,0 0,3 -3,0 z m -3,0 3,0 0,3 -3,0 z m 150,-3 3,0 0,3 -3,0 z m -3,0 3,0 0,3 -3,0 z m -3,0 3,0 0,3 -3,0 z m -3,0 3,0 0,3 -3,0 z m -3,0 3,0 0,3 -3,0 z m -3,0 3,0 0,3 -3,0 z m -3,0 3,0 0,3 -3,0 z m -3,0 3,0 0,3 -3,0 z m -3,0 3,0 0,3 -3,0 z m -3,0 3,0 0,3 -3,0 z m -3,0 3,0 0,3 -3,0 z m -3,0 3,0 0,3 -3,0 z m -3,0 3,0 0,3 -3,0 z m -3,0 3,0 0,3 -3,0 z m -3,0 3,0 0,3 -3,0 z m -3,0 3,0 0,3 -3,0 z m -3,0 3,0 0,3 -3,0 z m -3,0 3,0 0,3 -3,0 z m -3,0 3,0 0,3 -3,0 z m -3,0 3,0 0,3 -3,0 z m -3,0 3,0 0,3 -3,0 z m -3,0 3,0 0,3 -3,0 z m -3,0 3,0 0,3 -3,0 z m -3,0 3,0 0,3 -3,0 z m -3,0 3,0 0,3 -3,0 z m -3,0 3,0 0,3 -3,0 z m -3,0 3,0 0,3 -3,0 z m -3,0 3,0 0,3 -3,0 z m -3,0 3,0 0,3 -3,0 z m -3,0 3,0 0,3 -3,0 z m -3,0 3,0 0,3 -3,0 z m -3,0 3,0 0,3 -3,0 z m -3,0 3,0 0,3 -3,0 z m -3,0 3,0 0,3 -3,0 z m -3,0 3,0 0,3 -3,0 z m -3,0 3,0 0,3 -3,0 z m -3,0 3,0 0,3 -3,0 z m -3,0 3,0 0,3 -3,0 z m -3,0 3,0 0,3 -3,0 z m -3,0 3,0 0,3 -3,0 z m -3,0 3,0 0,3 -3,0 z m -3,0 3,0 0,3 -3,0 z m -3,0 3,0 0,3 -3,0 z m -3,0 3,0 0,3 -3,0 z m -3,0 3,0 0,3 -3,0 z m -3,0 3,0 0,3 -3,0 z m -3,0 3,0 0,3 -3,0 z m -3,0 3,0 0,3 -3,0 z m -3,0 3,0 0,3 -3,0 z m -3,0 3,0 0,3 -3,0 z m -3,0 3,0 0,3 -3,0 z m 150,-3 3,0 0,3 -3,0 z m -3,0 3,0 0,3 -3,0 z m -3,0 3,0 0,3 -3,0 z m -3,0 3,0 0,3 -3,0 z m -3,0 3,0 0,3 -3,0 z m -3,0 3,0 0,3 -3,0 z m -3,0 3,0 0,3 -3,0 z m -3,0 3,0 0,3 -3,0 z m -3,0 3,0 0,3 -3,0 z m -3,0 3,0 0,3 -3,0 z m -3,0 3,0 0,3 -3,0 z m -3,0 3,0 0,3 -3,0 z m -3,0 3,0 0,3 -3,0 z m -3,0 3,0 0,3 -3,0 z m -3,0 3,0 0,3 -3,0 z m -3,0 3,0 0,3 -3,0 z m -3,0 3,0 0,3 -3,0 z m -3,0 3,0 0,3 -3,0 z m -3,0 3,0 0,3 -3,0 z m -3,0 3,0 0,3 -3,0 z m -3,0 3,0 0,3 -3,0 z m -3,0 3,0 0,3 -3,0 z m -3,0 3,0 0,3 -3,0 z m -3,0 3,0 0,3 -3,0 z m -3,0 3,0 0,3 -3,0 z m -3,0 3,0 0,3 -3,0 z m -3,0 3,0 0,3 -3,0 z m -3,0 3,0 0,3 -3,0 z m -3,0 3,0 0,3 -3,0 z m -3,0 3,0 0,3 -3,0 z m -3,0 3,0 0,3 -3,0 z m -3,0 3,0 0,3 -3,0 z m -3,0 3,0 0,3 -3,0 z m -3,0 3,0 0,3 -3,0 z m -3,0 3,0 0,3 -3,0 z m -3,0 3,0 0,3 -3,0 z m -3,0 3,0 0,3 -3,0 z m -3,0 3,0 0,3 -3,0 z m -3,0 3,0 0,3 -3,0 z m -3,0 3,0 0,3 -3,0 z m -3,0 3,0 0,3 -3,0 z m -3,0 3,0 0,3 -3,0 z m -3,0 3,0 0,3 -3,0 z m -3,0 3,0 0,3 -3,0 z m -3,0 3,0 0,3 -3,0 z m -3,0 3,0 0,3 -3,0 z m -3,0 3,0 0,3 -3,0 z m -3,0 3,0 0,3 -3,0 z m -3,0 3,0 0,3 -3,0 z m -3,0 3,0 0,3 -3,0 z m -3,0 3,0 0,3 -3,0 z m 150,-3 3,0 0,3 -3,0 z m -3,0 3,0 0,3 -3,0 z m -3,0 3,0 0,3 -3,0 z m -3,0 3,0 0,3 -3,0 z m -3,0 3,0 0,3 -3,0 z m -3,0 3,0 0,3 -3,0 z m -3,0 3,0 0,3 -3,0 z m -3,0 3,0 0,3 -3,0 z m -3,0 3,0 0,3 -3,0 z m -3,0 3,0 0,3 -3,0 z m -3,0 3,0 0,3 -3,0 z m -3,0 3,0 0,3 -3,0 z m -3,0 3,0 0,3 -3,0 z m -3,0 3,0 0,3 -3,0 z m -3,0 3,0 0,3 -3,0 z m -3,0 3,0 0,3 -3,0 z m -3,0 3,0 0,3 -3,0 z m -3,0 3,0 0,3 -3,0 z m -3,0 3,0 0,3 -3,0 z m -3,0 3,0 0,3 -3,0 z m -3,0 3,0 0,3 -3,0 z m -3,0 3,0 0,3 -3,0 z m -3,0 3,0 0,3 -3,0 z m -3,0 3,0 0,3 -3,0 z m -3,0 3,0 0,3 -3,0 z m -3,0 3,0 0,3 -3,0 z m -3,0 3,0 0,3 -3,0 z m -3,0 3,0 0,3 -3,0 z m -3,0 3,0 0,3 -3,0 z m -3,0 3,0 0,3 -3,0 z m -3,0 3,0 0,3 -3,0 z m -3,0 3,0 0,3 -3,0 z m -3,0 3,0 0,3 -3,0 z m -3,0 3,0 0,3 -3,0 z m -3,0 3,0 0,3 -3,0 z m -3,0 3,0 0,3 -3,0 z m -3,0 3,0 0,3 -3,0 z m -3,0 3,0 0,3 -3,0 z m -3,0 3,0 0,3 -3,0 z m -3,0 3,0 0,3 -3,0 z m -3,0 3,0 0,3 -3,0 z m -3,0 3,0 0,3 -3,0 z m -3,0 3,0 0,3 -3,0 z m -3,0 3,0 0,3 -3,0 z m -3,0 3,0 0,3 -3,0 z m -3,0 3,0 0,3 -3,0 z m -3,0 3,0 0,3 -3,0 z m -3,0 3,0 0,3 -3,0 z m -3,0 3,0 0,3 -3,0 z m -3,0 3,0 0,3 -3,0 z m -3,0 3,0 0,3 -3,0 z m 150,-3 3,0 0,3 -3,0 z m -3,0 3,0 0,3 -3,0 z m -3,0 3,0 0,3 -3,0 z m -3,0 3,0 0,3 -3,0 z m -3,0 3,0 0,3 -3,0 z m -3,0 3,0 0,3 -3,0 z m -3,0 3,0 0,3 -3,0 z m -3,0 3,0 0,3 -3,0 z m -3,0 3,0 0,3 -3,0 z m -3,0 3,0 0,3 -3,0 z m -3,0 3,0 0,3 -3,0 z m -3,0 3,0 0,3 -3,0 z m -3,0 3,0 0,3 -3,0 z m -3,0 3,0 0,3 -3,0 z m -3,0 3,0 0,3 -3,0 z m -3,0 3,0 0,3 -3,0 z m -3,0 3,0 0,3 -3,0 z m -3,0 3,0 0,3 -3,0 z m -3,0 3,0 0,3 -3,0 z m -3,0 3,0 0,3 -3,0 z m -3,0 3,0 0,3 -3,0 z m -3,0 3,0 0,3 -3,0 z m -3,0 3,0 0,3 -3,0 z m -3,0 3,0 0,3 -3,0 z m -3,0 3,0 0,3 -3,0 z m -3,0 3,0 0,3 -3,0 z m -3,0 3,0 0,3 -3,0 z m -3,0 3,0 0,3 -3,0 z m -3,0 3,0 0,3 -3,0 z m -3,0 3,0 0,3 -3,0 z m -3,0 3,0 0,3 -3,0 z m -3,0 3,0 0,3 -3,0 z m -3,0 3,0 0,3 -3,0 z m -3,0 3,0 0,3 -3,0 z m -3,0 3,0 0,3 -3,0 z m -3,0 3,0 0,3 -3,0 z m -3,0 3,0 0,3 -3,0 z m -3,0 3,0 0,3 -3,0 z m -3,0 3,0 0,3 -3,0 z m -3,0 3,0 0,3 -3,0 z m -3,0 3,0 0,3 -3,0 z m -3,0 3,0 0,3 -3,0 z m -3,0 3,0 0,3 -3,0 z m -3,0 3,0 0,3 -3,0 z m -3,0 3,0 0,3 -3,0 z m -3,0 3,0 0,3 -3,0 z m -3,0 3,0 0,3 -3,0 z m -3,0 3,0 0,3 -3,0 z m -3,0 3,0 0,3 -3,0 z m -3,0 3,0 0,3 -3,0 z m -3,0 3,0 0,3 -3,0 z m 150,-3 3,0 0,3 -3,0 z m -3,0 3,0 0,3 -3,0 z m -3,0 3,0 0,3 -3,0 z m -3,0 3,0 0,3 -3,0 z m -3,0 3,0 0,3 -3,0 z m -3,0 3,0 0,3 -3,0 z m -3,0 3,0 0,3 -3,0 z m -3,0 3,0 0,3 -3,0 z m -3,0 3,0 0,3 -3,0 z m -3,0 3,0 0,3 -3,0 z m -3,0 3,0 0,3 -3,0 z m -3,0 3,0 0,3 -3,0 z m -3,0 3,0 0,3 -3,0 z m -3,0 3,0 0,3 -3,0 z m -3,0 3,0 0,3 -3,0 z m -3,0 3,0 0,3 -3,0 z m -3,0 3,0 0,3 -3,0 z m -3,0 3,0 0,3 -3,0 z m -3,0 3,0 0,3 -3,0 z m -3,0 3,0 0,3 -3,0 z m -3,0 3,0 0,3 -3,0 z m -3,0 3,0 0,3 -3,0 z m -3,0 3,0 0,3 -3,0 z m -3,0 3,0 0,3 -3,0 z m -3,0 3,0 0,3 -3,0 z m -3,0 3,0 0,3 -3,0 z m -3,0 3,0 0,3 -3,0 z m -3,0 3,0 0,3 -3,0 z m -3,0 3,0 0,3 -3,0 z m -3,0 3,0 0,3 -3,0 z m -3,0 3,0 0,3 -3,0 z m -3,0 3,0 0,3 -3,0 z m -3,0 3,0 0,3 -3,0 z m -3,0 3,0 0,3 -3,0 z m -3,0 3,0 0,3 -3,0 z m -3,0 3,0 0,3 -3,0 z m -3,0 3,0 0,3 -3,0 z m -3,0 3,0 0,3 -3,0 z m -3,0 3,0 0,3 -3,0 z m -3,0 3,0 0,3 -3,0 z m -3,0 3,0 0,3 -3,0 z m -3,0 3,0 0,3 -3,0 z m -3,0 3,0 0,3 -3,0 z m -3,0 3,0 0,3 -3,0 z m -3,0 3,0 0,3 -3,0 z m -3,0 3,0 0,3 -3,0 z m -3,0 3,0 0,3 -3,0 z m -3,0 3,0 0,3 -3,0 z m -3,0 3,0 0,3 -3,0 z m -3,0 3,0 0,3 -3,0 z m -3,0 3,0 0,3 -3,0 z m 150,-3 3,0 0,3 -3,0 z m -3,0 3,0 0,3 -3,0 z m -3,0 3,0 0,3 -3,0 z m -3,0 3,0 0,3 -3,0 z m -3,0 3,0 0,3 -3,0 z m -3,0 3,0 0,3 -3,0 z m -3,0 3,0 0,3 -3,0 z m -3,0 3,0 0,3 -3,0 z m -3,0 3,0 0,3 -3,0 z m -3,0 3,0 0,3 -3,0 z m -3,0 3,0 0,3 -3,0 z m -3,0 3,0 0,3 -3,0 z m -3,0 3,0 0,3 -3,0 z m -3,0 3,0 0,3 -3,0 z m -3,0 3,0 0,3 -3,0 z m -3,0 3,0 0,3 -3,0 z m -3,0 3,0 0,3 -3,0 z m -3,0 3,0 0,3 -3,0 z m -3,0 3,0 0,3 -3,0 z m -3,0 3,0 0,3 -3,0 z m -3,0 3,0 0,3 -3,0 z m -3,0 3,0 0,3 -3,0 z m -3,0 3,0 0,3 -3,0 z m -3,0 3,0 0,3 -3,0 z m -3,0 3,0 0,3 -3,0 z m -3,0 3,0 0,3 -3,0 z m -3,0 3,0 0,3 -3,0 z m -3,0 3,0 0,3 -3,0 z m -3,0 3,0 0,3 -3,0 z m -3,0 3,0 0,3 -3,0 z m -3,0 3,0 0,3 -3,0 z m -3,0 3,0 0,3 -3,0 z m -3,0 3,0 0,3 -3,0 z m -3,0 3,0 0,3 -3,0 z m -3,0 3,0 0,3 -3,0 z m -3,0 3,0 0,3 -3,0 z m -3,0 3,0 0,3 -3,0 z m -3,0 3,0 0,3 -3,0 z m -3,0 3,0 0,3 -3,0 z m -3,0 3,0 0,3 -3,0 z m -3,0 3,0 0,3 -3,0 z m -3,0 3,0 0,3 -3,0 z m -3,0 3,0 0,3 -3,0 z m -3,0 3,0 0,3 -3,0 z m -3,0 3,0 0,3 -3,0 z m -3,0 3,0 0,3 -3,0 z m -3,0 3,0 0,3 -3,0 z m -3,0 3,0 0,3 -3,0 z m -3,0 3,0 0,3 -3,0 z m -3,0 3,0 0,3 -3,0 z m -3,0 3,0 0,3 -3,0 z m 150,-3 3,0 0,3 -3,0 z m -3,0 3,0 0,3 -3,0 z m -3,0 3,0 0,3 -3,0 z m -3,0 3,0 0,3 -3,0 z m -3,0 3,0 0,3 -3,0 z m -3,0 3,0 0,3 -3,0 z m -3,0 3,0 0,3 -3,0 z m -3,0 3,0 0,3 -3,0 z m -3,0 3,0 0,3 -3,0 z m -3,0 3,0 0,3 -3,0 z m -3,0 3,0 0,3 -3,0 z m -3,0 3,0 0,3 -3,0 z m -3,0 3,0 0,3 -3,0 z m -3,0 3,0 0,3 -3,0 z m -3,0 3,0 0,3 -3,0 z m -3,0 3,0 0,3 -3,0 z m -3,0 3,0 0,3 -3,0 z m -3,0 3,0 0,3 -3,0 z m -3,0 3,0 0,3 -3,0 z m -3,0 3,0 0,3 -3,0 z m -3,0 3,0 0,3 -3,0 z m -3,0 3,0 0,3 -3,0 z m -3,0 3,0 0,3 -3,0 z m -3,0 3,0 0,3 -3,0 z m -3,0 3,0 0,3 -3,0 z m -3,0 3,0 0,3 -3,0 z m -3,0 3,0 0,3 -3,0 z m -3,0 3,0 0,3 -3,0 z m -3,0 3,0 0,3 -3,0 z m -3,0 3,0 0,3 -3,0 z m -3,0 3,0 0,3 -3,0 z m -3,0 3,0 0,3 -3,0 z m -3,0 3,0 0,3 -3,0 z m -3,0 3,0 0,3 -3,0 z m -3,0 3,0 0,3 -3,0 z m -3,0 3,0 0,3 -3,0 z m -3,0 3,0 0,3 -3,0 z m -3,0 3,0 0,3 -3,0 z m -3,0 3,0 0,3 -3,0 z m -3,0 3,0 0,3 -3,0 z m -3,0 3,0 0,3 -3,0 z m -3,0 3,0 0,3 -3,0 z m -3,0 3,0 0,3 -3,0 z m -3,0 3,0 0,3 -3,0 z m -3,0 3,0 0,3 -3,0 z m -3,0 3,0 0,3 -3,0 z m -3,0 3,0 0,3 -3,0 z m -3,0 3,0 0,3 -3,0 z m -3,0 3,0 0,3 -3,0 z m -3,0 3,0 0,3 -3,0 z m -3,0 3,0 0,3 -3,0 z m 150,-3 3,0 0,3 -3,0 z m -3,0 3,0 0,3 -3,0 z m -3,0 3,0 0,3 -3,0 z m -3,0 3,0 0,3 -3,0 z m -3,0 3,0 0,3 -3,0 z m -3,0 3,0 0,3 -3,0 z m -3,0 3,0 0,3 -3,0 z m -3,0 3,0 0,3 -3,0 z m -3,0 3,0 0,3 -3,0 z m -3,0 3,0 0,3 -3,0 z m -3,0 3,0 0,3 -3,0 z m -3,0 3,0 0,3 -3,0 z m -3,0 3,0 0,3 -3,0 z m -3,0 3,0 0,3 -3,0 z m -3,0 3,0 0,3 -3,0 z m -3,0 3,0 0,3 -3,0 z m -3,0 3,0 0,3 -3,0 z m -3,0 3,0 0,3 -3,0 z m -3,0 3,0 0,3 -3,0 z m -3,0 3,0 0,3 -3,0 z m -3,0 3,0 0,3 -3,0 z m -3,0 3,0 0,3 -3,0 z m -3,0 3,0 0,3 -3,0 z m -3,0 3,0 0,3 -3,0 z m -3,0 3,0 0,3 -3,0 z m -3,0 3,0 0,3 -3,0 z m -3,0 3,0 0,3 -3,0 z m -3,0 3,0 0,3 -3,0 z m -3,0 3,0 0,3 -3,0 z m -3,0 3,0 0,3 -3,0 z m -3,0 3,0 0,3 -3,0 z m -3,0 3,0 0,3 -3,0 z m -3,0 3,0 0,3 -3,0 z m -3,0 3,0 0,3 -3,0 z m -3,0 3,0 0,3 -3,0 z m -3,0 3,0 0,3 -3,0 z m -3,0 3,0 0,3 -3,0 z m -3,0 3,0 0,3 -3,0 z m -3,0 3,0 0,3 -3,0 z m -3,0 3,0 0,3 -3,0 z m -3,0 3,0 0,3 -3,0 z m -3,0 3,0 0,3 -3,0 z m -3,0 3,0 0,3 -3,0 z m -3,0 3,0 0,3 -3,0 z m -3,0 3,0 0,3 -3,0 z m -3,0 3,0 0,3 -3,0 z m -3,0 3,0 0,3 -3,0 z m -3,0 3,0 0,3 -3,0 z m -3,0 3,0 0,3 -3,0 z m -3,0 3,0 0,3 -3,0 z m -3,0 3,0 0,3 -3,0 z m 150,-3 3,0 0,3 -3,0 z m -3,0 3,0 0,3 -3,0 z m -3,0 3,0 0,3 -3,0 z m -3,0 3,0 0,3 -3,0 z m -3,0 3,0 0,3 -3,0 z m -3,0 3,0 0,3 -3,0 z m -3,0 3,0 0,3 -3,0 z m -3,0 3,0 0,3 -3,0 z m -3,0 3,0 0,3 -3,0 z m -3,0 3,0 0,3 -3,0 z m -3,0 3,0 0,3 -3,0 z m -3,0 3,0 0,3 -3,0 z m -3,0 3,0 0,3 -3,0 z m -3,0 3,0 0,3 -3,0 z m -3,0 3,0 0,3 -3,0 z m -3,0 3,0 0,3 -3,0 z m -3,0 3,0 0,3 -3,0 z m -3,0 3,0 0,3 -3,0 z m -3,0 3,0 0,3 -3,0 z m -3,0 3,0 0,3 -3,0 z m -3,0 3,0 0,3 -3,0 z m -3,0 3,0 0,3 -3,0 z m -3,0 3,0 0,3 -3,0 z m -3,0 3,0 0,3 -3,0 z m -3,0 3,0 0,3 -3,0 z m -3,0 3,0 0,3 -3,0 z m -3,0 3,0 0,3 -3,0 z m -3,0 3,0 0,3 -3,0 z m -3,0 3,0 0,3 -3,0 z m -3,0 3,0 0,3 -3,0 z m -3,0 3,0 0,3 -3,0 z m -3,0 3,0 0,3 -3,0 z m -3,0 3,0 0,3 -3,0 z m -3,0 3,0 0,3 -3,0 z m -3,0 3,0 0,3 -3,0 z m -3,0 3,0 0,3 -3,0 z m -3,0 3,0 0,3 -3,0 z m -3,0 3,0 0,3 -3,0 z m -3,0 3,0 0,3 -3,0 z m -3,0 3,0 0,3 -3,0 z m -3,0 3,0 0,3 -3,0 z m -3,0 3,0 0,3 -3,0 z m -3,0 3,0 0,3 -3,0 z m -3,0 3,0 0,3 -3,0 z m -3,0 3,0 0,3 -3,0 z m -3,0 3,0 0,3 -3,0 z m -3,0 3,0 0,3 -3,0 z m -3,0 3,0 0,3 -3,0 z m -3,0 3,0 0,3 -3,0 z m -3,0 3,0 0,3 -3,0 z m -3,0 3,0 0,3 -3,0 z m 150,-3 3,0 0,3 -3,0 z m -3,0 3,0 0,3 -3,0 z m -3,0 3,0 0,3 -3,0 z m -3,0 3,0 0,3 -3,0 z m -3,0 3,0 0,3 -3,0 z m -3,0 3,0 0,3 -3,0 z m -3,0 3,0 0,3 -3,0 z m -3,0 3,0 0,3 -3,0 z m -3,0 3,0 0,3 -3,0 z m -3,0 3,0 0,3 -3,0 z m -3,0 3,0 0,3 -3,0 z m -3,0 3,0 0,3 -3,0 z m -3,0 3,0 0,3 -3,0 z m -3,0 3,0 0,3 -3,0 z m -3,0 3,0 0,3 -3,0 z m -3,0 3,0 0,3 -3,0 z m -3,0 3,0 0,3 -3,0 z m -3,0 3,0 0,3 -3,0 z m -3,0 3,0 0,3 -3,0 z m -3,0 3,0 0,3 -3,0 z m -3,0 3,0 0,3 -3,0 z m -3,0 3,0 0,3 -3,0 z m -3,0 3,0 0,3 -3,0 z m -3,0 3,0 0,3 -3,0 z m -3,0 3,0 0,3 -3,0 z m -3,0 3,0 0,3 -3,0 z m -3,0 3,0 0,3 -3,0 z m -3,0 3,0 0,3 -3,0 z m -3,0 3,0 0,3 -3,0 z m -3,0 3,0 0,3 -3,0 z m -3,0 3,0 0,3 -3,0 z m -3,0 3,0 0,3 -3,0 z m -3,0 3,0 0,3 -3,0 z m -3,0 3,0 0,3 -3,0 z m -3,0 3,0 0,3 -3,0 z m -3,0 3,0 0,3 -3,0 z m -3,0 3,0 0,3 -3,0 z m -3,0 3,0 0,3 -3,0 z m -3,0 3,0 0,3 -3,0 z m -3,0 3,0 0,3 -3,0 z m -3,0 3,0 0,3 -3,0 z m -3,0 3,0 0,3 -3,0 z m -3,0 3,0 0,3 -3,0 z m -3,0 3,0 0,3 -3,0 z m -3,0 3,0 0,3 -3,0 z m -3,0 3,0 0,3 -3,0 z m -3,0 3,0 0,3 -3,0 z m -3,0 3,0 0,3 -3,0 z m -3,0 3,0 0,3 -3,0 z m -3,0 3,0 0,3 -3,0 z m -3,0 3,0 0,3 -3,0 z m 150,-3 3,0 0,3 -3,0 z m -3,0 3,0 0,3 -3,0 z m -3,0 3,0 0,3 -3,0 z m -3,0 3,0 0,3 -3,0 z m -3,0 3,0 0,3 -3,0 z m -3,0 3,0 0,3 -3,0 z m -3,0 3,0 0,3 -3,0 z m -3,0 3,0 0,3 -3,0 z m -3,0 3,0 0,3 -3,0 z m -3,0 3,0 0,3 -3,0 z m -3,0 3,0 0,3 -3,0 z m -3,0 3,0 0,3 -3,0 z m -3,0 3,0 0,3 -3,0 z m -3,0 3,0 0,3 -3,0 z m -3,0 3,0 0,3 -3,0 z m -3,0 3,0 0,3 -3,0 z m -3,0 3,0 0,3 -3,0 z m -3,0 3,0 0,3 -3,0 z m -3,0 3,0 0,3 -3,0 z m -3,0 3,0 0,3 -3,0 z m -3,0 3,0 0,3 -3,0 z m -3,0 3,0 0,3 -3,0 z m -3,0 3,0 0,3 -3,0 z m -3,0 3,0 0,3 -3,0 z m -3,0 3,0 0,3 -3,0 z m -3,0 3,0 0,3 -3,0 z m -3,0 3,0 0,3 -3,0 z m -3,0 3,0 0,3 -3,0 z m -3,0 3,0 0,3 -3,0 z m -3,0 3,0 0,3 -3,0 z m -3,0 3,0 0,3 -3,0 z m -3,0 3,0 0,3 -3,0 z m -3,0 3,0 0,3 -3,0 z m -3,0 3,0 0,3 -3,0 z m -3,0 3,0 0,3 -3,0 z m -3,0 3,0 0,3 -3,0 z m -3,0 3,0 0,3 -3,0 z m -3,0 3,0 0,3 -3,0 z m -3,0 3,0 0,3 -3,0 z m -3,0 3,0 0,3 -3,0 z m -3,0 3,0 0,3 -3,0 z m -3,0 3,0 0,3 -3,0 z m -3,0 3,0 0,3 -3,0 z m -3,0 3,0 0,3 -3,0 z m -3,0 3,0 0,3 -3,0 z m -3,0 3,0 0,3 -3,0 z m -3,0 3,0 0,3 -3,0 z m -3,0 3,0 0,3 -3,0 z m -3,0 3,0 0,3 -3,0 z m -3,0 3,0 0,3 -3,0 z m -3,0 3,0 0,3 -3,0 z m 150,-3 3,0 0,3 -3,0 z m -3,0 3,0 0,3 -3,0 z m -3,0 3,0 0,3 -3,0 z m -3,0 3,0 0,3 -3,0 z m -3,0 3,0 0,3 -3,0 z m -3,0 3,0 0,3 -3,0 z m -3,0 3,0 0,3 -3,0 z m -3,0 3,0 0,3 -3,0 z m -3,0 3,0 0,3 -3,0 z m -3,0 3,0 0,3 -3,0 z m -3,0 3,0 0,3 -3,0 z m -3,0 3,0 0,3 -3,0 z m -3,0 3,0 0,3 -3,0 z m -3,0 3,0 0,3 -3,0 z m -3,0 3,0 0,3 -3,0 z m -3,0 3,0 0,3 -3,0 z m -3,0 3,0 0,3 -3,0 z m -3,0 3,0 0,3 -3,0 z m -3,0 3,0 0,3 -3,0 z m -3,0 3,0 0,3 -3,0 z m -3,0 3,0 0,3 -3,0 z m -3,0 3,0 0,3 -3,0 z m -3,0 3,0 0,3 -3,0 z m -3,0 3,0 0,3 -3,0 z m -3,0 3,0 0,3 -3,0 z m -3,0 3,0 0,3 -3,0 z m -3,0 3,0 0,3 -3,0 z m -3,0 3,0 0,3 -3,0 z m -3,0 3,0 0,3 -3,0 z m -3,0 3,0 0,3 -3,0 z m -3,0 3,0 0,3 -3,0 z m -3,0 3,0 0,3 -3,0 z m -3,0 3,0 0,3 -3,0 z m -3,0 3,0 0,3 -3,0 z m -3,0 3,0 0,3 -3,0 z m -3,0 3,0 0,3 -3,0 z m -3,0 3,0 0,3 -3,0 z m -3,0 3,0 0,3 -3,0 z m -3,0 3,0 0,3 -3,0 z m -3,0 3,0 0,3 -3,0 z m -3,0 3,0 0,3 -3,0 z m -3,0 3,0 0,3 -3,0 z m -3,0 3,0 0,3 -3,0 z m -3,0 3,0 0,3 -3,0 z m -3,0 3,0 0,3 -3,0 z m -3,0 3,0 0,3 -3,0 z m -3,0 3,0 0,3 -3,0 z m -3,0 3,0 0,3 -3,0 z m -3,0 3,0 0,3 -3,0 z m -3,0 3,0 0,3 -3,0 z m -3,0 3,0 0,3 -3,0 z m 150,-3 3,0 0,3 -3,0 z m -3,0 3,0 0,3 -3,0 z m -3,0 3,0 0,3 -3,0 z m -3,0 3,0 0,3 -3,0 z m -3,0 3,0 0,3 -3,0 z m -3,0 3,0 0,3 -3,0 z m -3,0 3,0 0,3 -3,0 z m -3,0 3,0 0,3 -3,0 z m -3,0 3,0 0,3 -3,0 z m -3,0 3,0 0,3 -3,0 z m -3,0 3,0 0,3 -3,0 z m -3,0 3,0 0,3 -3,0 z m -3,0 3,0 0,3 -3,0 z m -3,0 3,0 0,3 -3,0 z m -3,0 3,0 0,3 -3,0 z m -3,0 3,0 0,3 -3,0 z m -3,0 3,0 0,3 -3,0 z m -3,0 3,0 0,3 -3,0 z m -3,0 3,0 0,3 -3,0 z m -3,0 3,0 0,3 -3,0 z m -3,0 3,0 0,3 -3,0 z m -3,0 3,0 0,3 -3,0 z m -3,0 3,0 0,3 -3,0 z m -3,0 3,0 0,3 -3,0 z m -3,0 3,0 0,3 -3,0 z m -3,0 3,0 0,3 -3,0 z m -3,0 3,0 0,3 -3,0 z m -3,0 3,0 0,3 -3,0 z m -3,0 3,0 0,3 -3,0 z m -3,0 3,0 0,3 -3,0 z m -3,0 3,0 0,3 -3,0 z m -3,0 3,0 0,3 -3,0 z m -3,0 3,0 0,3 -3,0 z m -3,0 3,0 0,3 -3,0 z m -3,0 3,0 0,3 -3,0 z m -3,0 3,0 0,3 -3,0 z m -3,0 3,0 0,3 -3,0 z m -3,0 3,0 0,3 -3,0 z m -3,0 3,0 0,3 -3,0 z m -3,0 3,0 0,3 -3,0 z m -3,0 3,0 0,3 -3,0 z m -3,0 3,0 0,3 -3,0 z m -3,0 3,0 0,3 -3,0 z m -3,0 3,0 0,3 -3,0 z m -3,0 3,0 0,3 -3,0 z m -3,0 3,0 0,3 -3,0 z m -3,0 3,0 0,3 -3,0 z m -3,0 3,0 0,3 -3,0 z m -3,0 3,0 0,3 -3,0 z m -3,0 3,0 0,3 -3,0 z m -3,0 3,0 0,3 -3,0 z m 150,-3 3,0 0,3 -3,0 z m -3,0 3,0 0,3 -3,0 z m -3,0 3,0 0,3 -3,0 z m -3,0 3,0 0,3 -3,0 z m -3,0 3,0 0,3 -3,0 z m -3,0 3,0 0,3 -3,0 z m -3,0 3,0 0,3 -3,0 z m -3,0 3,0 0,3 -3,0 z m -3,0 3,0 0,3 -3,0 z m -3,0 3,0 0,3 -3,0 z m -3,0 3,0 0,3 -3,0 z m -3,0 3,0 0,3 -3,0 z m -3,0 3,0 0,3 -3,0 z m -3,0 3,0 0,3 -3,0 z m -3,0 3,0 0,3 -3,0 z m -3,0 3,0 0,3 -3,0 z m -3,0 3,0 0,3 -3,0 z m -3,0 3,0 0,3 -3,0 z m -3,0 3,0 0,3 -3,0 z m -3,0 3,0 0,3 -3,0 z m -3,0 3,0 0,3 -3,0 z m -3,0 3,0 0,3 -3,0 z m -3,0 3,0 0,3 -3,0 z m -3,0 3,0 0,3 -3,0 z m -3,0 3,0 0,3 -3,0 z m -3,0 3,0 0,3 -3,0 z m -3,0 3,0 0,3 -3,0 z m -3,0 3,0 0,3 -3,0 z m -3,0 3,0 0,3 -3,0 z m -3,0 3,0 0,3 -3,0 z m -3,0 3,0 0,3 -3,0 z m -3,0 3,0 0,3 -3,0 z m -3,0 3,0 0,3 -3,0 z m -3,0 3,0 0,3 -3,0 z m -3,0 3,0 0,3 -3,0 z m -3,0 3,0 0,3 -3,0 z m -3,0 3,0 0,3 -3,0 z m -3,0 3,0 0,3 -3,0 z m -3,0 3,0 0,3 -3,0 z m -3,0 3,0 0,3 -3,0 z m -3,0 3,0 0,3 -3,0 z m -3,0 3,0 0,3 -3,0 z m -3,0 3,0 0,3 -3,0 z m -3,0 3,0 0,3 -3,0 z m -3,0 3,0 0,3 -3,0 z m -3,0 3,0 0,3 -3,0 z m -3,0 3,0 0,3 -3,0 z m -3,0 3,0 0,3 -3,0 z m -3,0 3,0 0,3 -3,0 z m -3,0 3,0 0,3 -3,0 z m -3,0 3,0 0,3 -3,0 z m 150,-3 3,0 0,3 -3,0 z m -3,0 3,0 0,3 -3,0 z m -3,0 3,0 0,3 -3,0 z m -3,0 3,0 0,3 -3,0 z m -3,0 3,0 0,3 -3,0 z m -3,0 3,0 0,3 -3,0 z m -3,0 3,0 0,3 -3,0 z m -3,0 3,0 0,3 -3,0 z m -3,0 3,0 0,3 -3,0 z m -3,0 3,0 0,3 -3,0 z m -3,0 3,0 0,3 -3,0 z m -3,0 3,0 0,3 -3,0 z m -3,0 3,0 0,3 -3,0 z m -3,0 3,0 0,3 -3,0 z m -3,0 3,0 0,3 -3,0 z m -3,0 3,0 0,3 -3,0 z m -3,0 3,0 0,3 -3,0 z m -3,0 3,0 0,3 -3,0 z m -3,0 3,0 0,3 -3,0 z m -3,0 3,0 0,3 -3,0 z m -3,0 3,0 0,3 -3,0 z m -3,0 3,0 0,3 -3,0 z m -3,0 3,0 0,3 -3,0 z m -3,0 3,0 0,3 -3,0 z m -3,0 3,0 0,3 -3,0 z m -3,0 3,0 0,3 -3,0 z m -3,0 3,0 0,3 -3,0 z m -3,0 3,0 0,3 -3,0 z m -3,0 3,0 0,3 -3,0 z m -3,0 3,0 0,3 -3,0 z m -3,0 3,0 0,3 -3,0 z m -3,0 3,0 0,3 -3,0 z m -3,0 3,0 0,3 -3,0 z m -3,0 3,0 0,3 -3,0 z m -3,0 3,0 0,3 -3,0 z m -3,0 3,0 0,3 -3,0 z m -3,0 3,0 0,3 -3,0 z m -3,0 3,0 0,3 -3,0 z m -3,0 3,0 0,3 -3,0 z m -3,0 3,0 0,3 -3,0 z m -3,0 3,0 0,3 -3,0 z m -3,0 3,0 0,3 -3,0 z m -3,0 3,0 0,3 -3,0 z m -3,0 3,0 0,3 -3,0 z m -3,0 3,0 0,3 -3,0 z m -3,0 3,0 0,3 -3,0 z m -3,0 3,0 0,3 -3,0 z m -3,0 3,0 0,3 -3,0 z m -3,0 3,0 0,3 -3,0 z m -3,0 3,0 0,3 -3,0 z m -3,0 3,0 0,3 -3,0 z m 150,-3 3,0 0,3 -3,0 z m -3,0 3,0 0,3 -3,0 z m -3,0 3,0 0,3 -3,0 z m -3,0 3,0 0,3 -3,0 z m -3,0 3,0 0,3 -3,0 z m -3,0 3,0 0,3 -3,0 z m -3,0 3,0 0,3 -3,0 z m -3,0 3,0 0,3 -3,0 z m -3,0 3,0 0,3 -3,0 z m -3,0 3,0 0,3 -3,0 z m -3,0 3,0 0,3 -3,0 z m -3,0 3,0 0,3 -3,0 z m -3,0 3,0 0,3 -3,0 z m -3,0 3,0 0,3 -3,0 z m -3,0 3,0 0,3 -3,0 z m -3,0 3,0 0,3 -3,0 z m -3,0 3,0 0,3 -3,0 z m -3,0 3,0 0,3 -3,0 z m -3,0 3,0 0,3 -3,0 z m -3,0 3,0 0,3 -3,0 z m -3,0 3,0 0,3 -3,0 z m -3,0 3,0 0,3 -3,0 z m -3,0 3,0 0,3 -3,0 z m -3,0 3,0 0,3 -3,0 z m -3,0 3,0 0,3 -3,0 z m -3,0 3,0 0,3 -3,0 z m -3,0 3,0 0,3 -3,0 z m -3,0 3,0 0,3 -3,0 z m -3,0 3,0 0,3 -3,0 z m -3,0 3,0 0,3 -3,0 z m -3,0 3,0 0,3 -3,0 z m -3,0 3,0 0,3 -3,0 z m -3,0 3,0 0,3 -3,0 z m -3,0 3,0 0,3 -3,0 z m -3,0 3,0 0,3 -3,0 z m -3,0 3,0 0,3 -3,0 z m -3,0 3,0 0,3 -3,0 z m -3,0 3,0 0,3 -3,0 z m -3,0 3,0 0,3 -3,0 z m -3,0 3,0 0,3 -3,0 z m -3,0 3,0 0,3 -3,0 z m -3,0 3,0 0,3 -3,0 z m -3,0 3,0 0,3 -3,0 z m -3,0 3,0 0,3 -3,0 z m -3,0 3,0 0,3 -3,0 z m -3,0 3,0 0,3 -3,0 z m -3,0 3,0 0,3 -3,0 z m -3,0 3,0 0,3 -3,0 z m -3,0 3,0 0,3 -3,0 z m -3,0 3,0 0,3 -3,0 z m -3,0 3,0 0,3 -3,0 z m 150,-3 3,0 0,3 -3,0 z m -3,0 3,0 0,3 -3,0 z m -3,0 3,0 0,3 -3,0 z m -3,0 3,0 0,3 -3,0 z m -3,0 3,0 0,3 -3,0 z m -3,0 3,0 0,3 -3,0 z m -3,0 3,0 0,3 -3,0 z m -3,0 3,0 0,3 -3,0 z m -3,0 3,0 0,3 -3,0 z m -3,0 3,0 0,3 -3,0 z m -3,0 3,0 0,3 -3,0 z m -3,0 3,0 0,3 -3,0 z m -3,0 3,0 0,3 -3,0 z m -3,0 3,0 0,3 -3,0 z m -3,0 3,0 0,3 -3,0 z m -3,0 3,0 0,3 -3,0 z m -3,0 3,0 0,3 -3,0 z m -3,0 3,0 0,3 -3,0 z m -3,0 3,0 0,3 -3,0 z m -3,0 3,0 0,3 -3,0 z m -3,0 3,0 0,3 -3,0 z m -3,0 3,0 0,3 -3,0 z m -3,0 3,0 0,3 -3,0 z m -3,0 3,0 0,3 -3,0 z m -3,0 3,0 0,3 -3,0 z m -3,0 3,0 0,3 -3,0 z m -3,0 3,0 0,3 -3,0 z m -3,0 3,0 0,3 -3,0 z m -3,0 3,0 0,3 -3,0 z m -3,0 3,0 0,3 -3,0 z m -3,0 3,0 0,3 -3,0 z m -3,0 3,0 0,3 -3,0 z m -3,0 3,0 0,3 -3,0 z m -3,0 3,0 0,3 -3,0 z m -3,0 3,0 0,3 -3,0 z m -3,0 3,0 0,3 -3,0 z m -3,0 3,0 0,3 -3,0 z m -3,0 3,0 0,3 -3,0 z m -3,0 3,0 0,3 -3,0 z m -3,0 3,0 0,3 -3,0 z m -3,0 3,0 0,3 -3,0 z m -3,0 3,0 0,3 -3,0 z m -3,0 3,0 0,3 -3,0 z m -3,0 3,0 0,3 -3,0 z m -3,0 3,0 0,3 -3,0 z m -3,0 3,0 0,3 -3,0 z m -3,0 3,0 0,3 -3,0 z m -3,0 3,0 0,3 -3,0 z m -3,0 3,0 0,3 -3,0 z m -3,0 3,0 0,3 -3,0 z m -3,0 3,0 0,3 -3,0 z m 150,-3 3,0 0,3 -3,0 z m -3,0 3,0 0,3 -3,0 z m -3,0 3,0 0,3 -3,0 z m -3,0 3,0 0,3 -3,0 z m -3,0 3,0 0,3 -3,0 z m -3,0 3,0 0,3 -3,0 z m -3,0 3,0 0,3 -3,0 z m -3,0 3,0 0,3 -3,0 z m -3,0 3,0 0,3 -3,0 z m -3,0 3,0 0,3 -3,0 z m -3,0 3,0 0,3 -3,0 z m -3,0 3,0 0,3 -3,0 z m -3,0 3,0 0,3 -3,0 z m -3,0 3,0 0,3 -3,0 z m -3,0 3,0 0,3 -3,0 z m -3,0 3,0 0,3 -3,0 z m -3,0 3,0 0,3 -3,0 z m -3,0 3,0 0,3 -3,0 z m -3,0 3,0 0,3 -3,0 z m -3,0 3,0 0,3 -3,0 z m -3,0 3,0 0,3 -3,0 z m -3,0 3,0 0,3 -3,0 z m -3,0 3,0 0,3 -3,0 z m -3,0 3,0 0,3 -3,0 z m -3,0 3,0 0,3 -3,0 z m -3,0 3,0 0,3 -3,0 z m -3,0 3,0 0,3 -3,0 z m -3,0 3,0 0,3 -3,0 z m -3,0 3,0 0,3 -3,0 z m -3,0 3,0 0,3 -3,0 z m -3,0 3,0 0,3 -3,0 z m -3,0 3,0 0,3 -3,0 z m -3,0 3,0 0,3 -3,0 z m -3,0 3,0 0,3 -3,0 z m -3,0 3,0 0,3 -3,0 z m -3,0 3,0 0,3 -3,0 z m -3,0 3,0 0,3 -3,0 z m -3,0 3,0 0,3 -3,0 z m -3,0 3,0 0,3 -3,0 z m -3,0 3,0 0,3 -3,0 z m -3,0 3,0 0,3 -3,0 z m -3,0 3,0 0,3 -3,0 z m -3,0 3,0 0,3 -3,0 z m -3,0 3,0 0,3 -3,0 z m -3,0 3,0 0,3 -3,0 z m -3,0 3,0 0,3 -3,0 z m -3,0 3,0 0,3 -3,0 z m -3,0 3,0 0,3 -3,0 z m -3,0 3,0 0,3 -3,0 z m -3,0 3,0 0,3 -3,0 z m -3,0 3,0 0,3 -3,0 z m 150,-3 3,0 0,3 -3,0 z m -3,0 3,0 0,3 -3,0 z m -3,0 3,0 0,3 -3,0 z m -3,0 3,0 0,3 -3,0 z m -3,0 3,0 0,3 -3,0 z m -3,0 3,0 0,3 -3,0 z m -3,0 3,0 0,3 -3,0 z m -3,0 3,0 0,3 -3,0 z m -3,0 3,0 0,3 -3,0 z m -3,0 3,0 0,3 -3,0 z m -3,0 3,0 0,3 -3,0 z m -3,0 3,0 0,3 -3,0 z m -3,0 3,0 0,3 -3,0 z m -3,0 3,0 0,3 -3,0 z m -3,0 3,0 0,3 -3,0 z m -3,0 3,0 0,3 -3,0 z m -3,0 3,0 0,3 -3,0 z m -3,0 3,0 0,3 -3,0 z m -3,0 3,0 0,3 -3,0 z m -3,0 3,0 0,3 -3,0 z m -3,0 3,0 0,3 -3,0 z m -3,0 3,0 0,3 -3,0 z m -3,0 3,0 0,3 -3,0 z m -3,0 3,0 0,3 -3,0 z m -3,0 3,0 0,3 -3,0 z m -3,0 3,0 0,3 -3,0 z m -3,0 3,0 0,3 -3,0 z m -3,0 3,0 0,3 -3,0 z m -3,0 3,0 0,3 -3,0 z m -3,0 3,0 0,3 -3,0 z m -3,0 3,0 0,3 -3,0 z m -3,0 3,0 0,3 -3,0 z m -3,0 3,0 0,3 -3,0 z m -3,0 3,0 0,3 -3,0 z m -3,0 3,0 0,3 -3,0 z m -3,0 3,0 0,3 -3,0 z m -3,0 3,0 0,3 -3,0 z m -3,0 3,0 0,3 -3,0 z m -3,0 3,0 0,3 -3,0 z m -3,0 3,0 0,3 -3,0 z m -3,0 3,0 0,3 -3,0 z m -3,0 3,0 0,3 -3,0 z m -3,0 3,0 0,3 -3,0 z m -3,0 3,0 0,3 -3,0 z m -3,0 3,0 0,3 -3,0 z m -3,0 3,0 0,3 -3,0 z m -3,0 3,0 0,3 -3,0 z m -3,0 3,0 0,3 -3,0 z m -3,0 3,0 0,3 -3,0 z m -3,0 3,0 0,3 -3,0 z m -3,0 3,0 0,3 -3,0 z m 150,-3 3,0 0,3 -3,0 z m -3,0 3,0 0,3 -3,0 z m -3,0 3,0 0,3 -3,0 z m -3,0 3,0 0,3 -3,0 z m -3,0 3,0 0,3 -3,0 z m -3,0 3,0 0,3 -3,0 z m -3,0 3,0 0,3 -3,0 z m -3,0 3,0 0,3 -3,0 z m -3,0 3,0 0,3 -3,0 z m -3,0 3,0 0,3 -3,0 z m -3,0 3,0 0,3 -3,0 z m -3,0 3,0 0,3 -3,0 z m -3,0 3,0 0,3 -3,0 z m -3,0 3,0 0,3 -3,0 z m -3,0 3,0 0,3 -3,0 z m -3,0 3,0 0,3 -3,0 z m -3,0 3,0 0,3 -3,0 z m -3,0 3,0 0,3 -3,0 z m -3,0 3,0 0,3 -3,0 z m -3,0 3,0 0,3 -3,0 z m -3,0 3,0 0,3 -3,0 z m -3,0 3,0 0,3 -3,0 z m -3,0 3,0 0,3 -3,0 z m -3,0 3,0 0,3 -3,0 z m -3,0 3,0 0,3 -3,0 z m -3,0 3,0 0,3 -3,0 z m -3,0 3,0 0,3 -3,0 z m -3,0 3,0 0,3 -3,0 z m -3,0 3,0 0,3 -3,0 z m -3,0 3,0 0,3 -3,0 z m -3,0 3,0 0,3 -3,0 z m -3,0 3,0 0,3 -3,0 z m -3,0 3,0 0,3 -3,0 z m -3,0 3,0 0,3 -3,0 z m -3,0 3,0 0,3 -3,0 z m -3,0 3,0 0,3 -3,0 z m -3,0 3,0 0,3 -3,0 z m -3,0 3,0 0,3 -3,0 z m -3,0 3,0 0,3 -3,0 z m -3,0 3,0 0,3 -3,0 z m -3,0 3,0 0,3 -3,0 z m -3,0 3,0 0,3 -3,0 z m -3,0 3,0 0,3 -3,0 z m -3,0 3,0 0,3 -3,0 z m -3,0 3,0 0,3 -3,0 z m -3,0 3,0 0,3 -3,0 z m -3,0 3,0 0,3 -3,0 z m -3,0 3,0 0,3 -3,0 z m -3,0 3,0 0,3 -3,0 z m -3,0 3,0 0,3 -3,0 z m -3,0 3,0 0,3 -3,0 z m 150,-3 3,0 0,3 -3,0 z m -3,0 3,0 0,3 -3,0 z m -3,0 3,0 0,3 -3,0 z m -3,0 3,0 0,3 -3,0 z m -3,0 3,0 0,3 -3,0 z m -3,0 3,0 0,3 -3,0 z m -3,0 3,0 0,3 -3,0 z m -3,0 3,0 0,3 -3,0 z m -3,0 3,0 0,3 -3,0 z m -3,0 3,0 0,3 -3,0 z m -3,0 3,0 0,3 -3,0 z m -3,0 3,0 0,3 -3,0 z m -3,0 3,0 0,3 -3,0 z m -3,0 3,0 0,3 -3,0 z m -3,0 3,0 0,3 -3,0 z m -3,0 3,0 0,3 -3,0 z m -3,0 3,0 0,3 -3,0 z m -3,0 3,0 0,3 -3,0 z m -3,0 3,0 0,3 -3,0 z m -3,0 3,0 0,3 -3,0 z m -3,0 3,0 0,3 -3,0 z m -3,0 3,0 0,3 -3,0 z m -3,0 3,0 0,3 -3,0 z m -3,0 3,0 0,3 -3,0 z m -3,0 3,0 0,3 -3,0 z m -3,0 3,0 0,3 -3,0 z m -3,0 3,0 0,3 -3,0 z m -3,0 3,0 0,3 -3,0 z m -3,0 3,0 0,3 -3,0 z m -3,0 3,0 0,3 -3,0 z m -3,0 3,0 0,3 -3,0 z m -3,0 3,0 0,3 -3,0 z m -3,0 3,0 0,3 -3,0 z m -3,0 3,0 0,3 -3,0 z m -3,0 3,0 0,3 -3,0 z m -3,0 3,0 0,3 -3,0 z m -3,0 3,0 0,3 -3,0 z m -3,0 3,0 0,3 -3,0 z m -3,0 3,0 0,3 -3,0 z m -3,0 3,0 0,3 -3,0 z m -3,0 3,0 0,3 -3,0 z m -3,0 3,0 0,3 -3,0 z m -3,0 3,0 0,3 -3,0 z m -3,0 3,0 0,3 -3,0 z m -3,0 3,0 0,3 -3,0 z m -3,0 3,0 0,3 -3,0 z m -3,0 3,0 0,3 -3,0 z m -3,0 3,0 0,3 -3,0 z m -3,0 3,0 0,3 -3,0 z m -3,0 3,0 0,3 -3,0 z m -3,0 3,0 0,3 -3,0 z m 150,-3 3,0 0,3 -3,0 z m -3,0 3,0 0,3 -3,0 z m -3,0 3,0 0,3 -3,0 z m -3,0 3,0 0,3 -3,0 z m -3,0 3,0 0,3 -3,0 z m -3,0 3,0 0,3 -3,0 z m -3,0 3,0 0,3 -3,0 z m -3,0 3,0 0,3 -3,0 z m -3,0 3,0 0,3 -3,0 z m -3,0 3,0 0,3 -3,0 z m -3,0 3,0 0,3 -3,0 z m -3,0 3,0 0,3 -3,0 z m -3,0 3,0 0,3 -3,0 z m -3,0 3,0 0,3 -3,0 z m -3,0 3,0 0,3 -3,0 z m -3,0 3,0 0,3 -3,0 z m -3,0 3,0 0,3 -3,0 z m -3,0 3,0 0,3 -3,0 z m -3,0 3,0 0,3 -3,0 z m -3,0 3,0 0,3 -3,0 z m -3,0 3,0 0,3 -3,0 z m -3,0 3,0 0,3 -3,0 z m -3,0 3,0 0,3 -3,0 z m -3,0 3,0 0,3 -3,0 z m -3,0 3,0 0,3 -3,0 z m -3,0 3,0 0,3 -3,0 z m -3,0 3,0 0,3 -3,0 z m -3,0 3,0 0,3 -3,0 z m -3,0 3,0 0,3 -3,0 z m -3,0 3,0 0,3 -3,0 z m -3,0 3,0 0,3 -3,0 z m -3,0 3,0 0,3 -3,0 z m -3,0 3,0 0,3 -3,0 z m -3,0 3,0 0,3 -3,0 z m -3,0 3,0 0,3 -3,0 z m -3,0 3,0 0,3 -3,0 z m -3,0 3,0 0,3 -3,0 z m -3,0 3,0 0,3 -3,0 z m -3,0 3,0 0,3 -3,0 z m -3,0 3,0 0,3 -3,0 z m -3,0 3,0 0,3 -3,0 z m -3,0 3,0 0,3 -3,0 z m -3,0 3,0 0,3 -3,0 z m -3,0 3,0 0,3 -3,0 z m -3,0 3,0 0,3 -3,0 z m -3,0 3,0 0,3 -3,0 z m -3,0 3,0 0,3 -3,0 z m -3,0 3,0 0,3 -3,0 z m -3,0 3,0 0,3 -3,0 z m -3,0 3,0 0,3 -3,0 z m -3,0 3,0 0,3 -3,0 z m 150,-3 3,0 0,3 -3,0 z m -3,0 3,0 0,3 -3,0 z m -3,0 3,0 0,3 -3,0 z m -3,0 3,0 0,3 -3,0 z m -3,0 3,0 0,3 -3,0 z m -3,0 3,0 0,3 -3,0 z m -3,0 3,0 0,3 -3,0 z m -3,0 3,0 0,3 -3,0 z m -3,0 3,0 0,3 -3,0 z m -3,0 3,0 0,3 -3,0 z m -3,0 3,0 0,3 -3,0 z m -3,0 3,0 0,3 -3,0 z m -3,0 3,0 0,3 -3,0 z m -3,0 3,0 0,3 -3,0 z m -3,0 3,0 0,3 -3,0 z m -3,0 3,0 0,3 -3,0 z m -3,0 3,0 0,3 -3,0 z m -3,0 3,0 0,3 -3,0 z m -3,0 3,0 0,3 -3,0 z m -3,0 3,0 0,3 -3,0 z m -3,0 3,0 0,3 -3,0 z m -3,0 3,0 0,3 -3,0 z m -3,0 3,0 0,3 -3,0 z m -3,0 3,0 0,3 -3,0 z m -3,0 3,0 0,3 -3,0 z m -3,0 3,0 0,3 -3,0 z m -3,0 3,0 0,3 -3,0 z m -3,0 3,0 0,3 -3,0 z m -3,0 3,0 0,3 -3,0 z m -3,0 3,0 0,3 -3,0 z m -3,0 3,0 0,3 -3,0 z m -3,0 3,0 0,3 -3,0 z m -3,0 3,0 0,3 -3,0 z m -3,0 3,0 0,3 -3,0 z m -3,0 3,0 0,3 -3,0 z m -3,0 3,0 0,3 -3,0 z m -3,0 3,0 0,3 -3,0 z m -3,0 3,0 0,3 -3,0 z m -3,0 3,0 0,3 -3,0 z m -3,0 3,0 0,3 -3,0 z m -3,0 3,0 0,3 -3,0 z m -3,0 3,0 0,3 -3,0 z m -3,0 3,0 0,3 -3,0 z m -3,0 3,0 0,3 -3,0 z m -3,0 3,0 0,3 -3,0 z m -3,0 3,0 0,3 -3,0 z m -3,0 3,0 0,3 -3,0 z m -3,0 3,0 0,3 -3,0 z m -3,0 3,0 0,3 -3,0 z m -3,0 3,0 0,3 -3,0 z m -3,0 3,0 0,3 -3,0 z m 150,-3 3,0 0,3 -3,0 z m -3,0 3,0 0,3 -3,0 z m -3,0 3,0 0,3 -3,0 z m -3,0 3,0 0,3 -3,0 z m -3,0 3,0 0,3 -3,0 z m -3,0 3,0 0,3 -3,0 z m -3,0 3,0 0,3 -3,0 z m -3,0 3,0 0,3 -3,0 z m -3,0 3,0 0,3 -3,0 z m -3,0 3,0 0,3 -3,0 z m -3,0 3,0 0,3 -3,0 z m -3,0 3,0 0,3 -3,0 z m -3,0 3,0 0,3 -3,0 z m -3,0 3,0 0,3 -3,0 z m -3,0 3,0 0,3 -3,0 z m -3,0 3,0 0,3 -3,0 z m -3,0 3,0 0,3 -3,0 z m -3,0 3,0 0,3 -3,0 z m -3,0 3,0 0,3 -3,0 z m -3,0 3,0 0,3 -3,0 z m -3,0 3,0 0,3 -3,0 z m -3,0 3,0 0,3 -3,0 z m -3,0 3,0 0,3 -3,0 z m -3,0 3,0 0,3 -3,0 z m -3,0 3,0 0,3 -3,0 z m -3,0 3,0 0,3 -3,0 z m -3,0 3,0 0,3 -3,0 z m -3,0 3,0 0,3 -3,0 z m -3,0 3,0 0,3 -3,0 z m -3,0 3,0 0,3 -3,0 z m -3,0 3,0 0,3 -3,0 z m -3,0 3,0 0,3 -3,0 z m -3,0 3,0 0,3 -3,0 z m -3,0 3,0 0,3 -3,0 z m -3,0 3,0 0,3 -3,0 z m -3,0 3,0 0,3 -3,0 z m -3,0 3,0 0,3 -3,0 z m -3,0 3,0 0,3 -3,0 z m -3,0 3,0 0,3 -3,0 z m -3,0 3,0 0,3 -3,0 z m -3,0 3,0 0,3 -3,0 z m -3,0 3,0 0,3 -3,0 z m -3,0 3,0 0,3 -3,0 z m -3,0 3,0 0,3 -3,0 z m -3,0 3,0 0,3 -3,0 z m -3,0 3,0 0,3 -3,0 z m -3,0 3,0 0,3 -3,0 z m -3,0 3,0 0,3 -3,0 z m -3,0 3,0 0,3 -3,0 z m -3,0 3,0 0,3 -3,0 z m -3,0 3,0 0,3 -3,0 z m 150,-3 3,0 0,3 -3,0 z m -3,0 3,0 0,3 -3,0 z m -3,0 3,0 0,3 -3,0 z m -3,0 3,0 0,3 -3,0 z m -3,0 3,0 0,3 -3,0 z m -3,0 3,0 0,3 -3,0 z m -3,0 3,0 0,3 -3,0 z m -3,0 3,0 0,3 -3,0 z m -3,0 3,0 0,3 -3,0 z m -3,0 3,0 0,3 -3,0 z m -3,0 3,0 0,3 -3,0 z m -3,0 3,0 0,3 -3,0 z m -3,0 3,0 0,3 -3,0 z m -3,0 3,0 0,3 -3,0 z m -3,0 3,0 0,3 -3,0 z m -3,0 3,0 0,3 -3,0 z m -3,0 3,0 0,3 -3,0 z m -3,0 3,0 0,3 -3,0 z m -3,0 3,0 0,3 -3,0 z m -3,0 3,0 0,3 -3,0 z m -3,0 3,0 0,3 -3,0 z m -3,0 3,0 0,3 -3,0 z m -3,0 3,0 0,3 -3,0 z m -3,0 3,0 0,3 -3,0 z m -3,0 3,0 0,3 -3,0 z m -3,0 3,0 0,3 -3,0 z m -3,0 3,0 0,3 -3,0 z m -3,0 3,0 0,3 -3,0 z m -3,0 3,0 0,3 -3,0 z m -3,0 3,0 0,3 -3,0 z m -3,0 3,0 0,3 -3,0 z m -3,0 3,0 0,3 -3,0 z m -3,0 3,0 0,3 -3,0 z m -3,0 3,0 0,3 -3,0 z m -3,0 3,0 0,3 -3,0 z m -3,0 3,0 0,3 -3,0 z m -3,0 3,0 0,3 -3,0 z m -3,0 3,0 0,3 -3,0 z m -3,0 3,0 0,3 -3,0 z m -3,0 3,0 0,3 -3,0 z m -3,0 3,0 0,3 -3,0 z m -3,0 3,0 0,3 -3,0 z m -3,0 3,0 0,3 -3,0 z m -3,0 3,0 0,3 -3,0 z m -3,0 3,0 0,3 -3,0 z m -3,0 3,0 0,3 -3,0 z m -3,0 3,0 0,3 -3,0 z m -3,0 3,0 0,3 -3,0 z m -3,0 3,0 0,3 -3,0 z m -3,0 3,0 0,3 -3,0 z m -3,0 3,0 0,3 -3,0 z m 150,-3 3,0 0,3 -3,0 z m -3,0 3,0 0,3 -3,0 z m -3,0 3,0 0,3 -3,0 z m -3,0 3,0 0,3 -3,0 z m -3,0 3,0 0,3 -3,0 z m -3,0 3,0 0,3 -3,0 z m -3,0 3,0 0,3 -3,0 z m -3,0 3,0 0,3 -3,0 z m -3,0 3,0 0,3 -3,0 z m -3,0 3,0 0,3 -3,0 z m -3,0 3,0 0,3 -3,0 z m -3,0 3,0 0,3 -3,0 z m -3,0 3,0 0,3 -3,0 z m -3,0 3,0 0,3 -3,0 z m -3,0 3,0 0,3 -3,0 z m -3,0 3,0 0,3 -3,0 z m -3,0 3,0 0,3 -3,0 z m -3,0 3,0 0,3 -3,0 z m -3,0 3,0 0,3 -3,0 z m -3,0 3,0 0,3 -3,0 z m -3,0 3,0 0,3 -3,0 z m -3,0 3,0 0,3 -3,0 z m -3,0 3,0 0,3 -3,0 z m -3,0 3,0 0,3 -3,0 z m -3,0 3,0 0,3 -3,0 z m -3,0 3,0 0,3 -3,0 z m -3,0 3,0 0,3 -3,0 z m -3,0 3,0 0,3 -3,0 z m -3,0 3,0 0,3 -3,0 z m -3,0 3,0 0,3 -3,0 z m -3,0 3,0 0,3 -3,0 z m -3,0 3,0 0,3 -3,0 z m -3,0 3,0 0,3 -3,0 z m -3,0 3,0 0,3 -3,0 z m -3,0 3,0 0,3 -3,0 z m -3,0 3,0 0,3 -3,0 z m -3,0 3,0 0,3 -3,0 z m -3,0 3,0 0,3 -3,0 z m -3,0 3,0 0,3 -3,0 z m -3,0 3,0 0,3 -3,0 z m -3,0 3,0 0,3 -3,0 z m -3,0 3,0 0,3 -3,0 z m -3,0 3,0 0,3 -3,0 z m -3,0 3,0 0,3 -3,0 z m -3,0 3,0 0,3 -3,0 z m -3,0 3,0 0,3 -3,0 z m -3,0 3,0 0,3 -3,0 z m -3,0 3,0 0,3 -3,0 z m -3,0 3,0 0,3 -3,0 z m -3,0 3,0 0,3 -3,0 z m -3,0 3,0 0,3 -3,0 z m 150,-3 3,0 0,3 -3,0 z m -3,0 3,0 0,3 -3,0 z m -3,0 3,0 0,3 -3,0 z m -3,0 3,0 0,3 -3,0 z m -3,0 3,0 0,3 -3,0 z m -3,0 3,0 0,3 -3,0 z m -3,0 3,0 0,3 -3,0 z m -3,0 3,0 0,3 -3,0 z m -3,0 3,0 0,3 -3,0 z m -3,0 3,0 0,3 -3,0 z m -3,0 3,0 0,3 -3,0 z m -3,0 3,0 0,3 -3,0 z m -3,0 3,0 0,3 -3,0 z m -3,0 3,0 0,3 -3,0 z m -3,0 3,0 0,3 -3,0 z m -3,0 3,0 0,3 -3,0 z m -3,0 3,0 0,3 -3,0 z m -3,0 3,0 0,3 -3,0 z m -3,0 3,0 0,3 -3,0 z m -3,0 3,0 0,3 -3,0 z m -3,0 3,0 0,3 -3,0 z m -3,0 3,0 0,3 -3,0 z m -3,0 3,0 0,3 -3,0 z m -3,0 3,0 0,3 -3,0 z m -3,0 3,0 0,3 -3,0 z m -3,0 3,0 0,3 -3,0 z m -3,0 3,0 0,3 -3,0 z m -3,0 3,0 0,3 -3,0 z m -3,0 3,0 0,3 -3,0 z m -3,0 3,0 0,3 -3,0 z m -3,0 3,0 0,3 -3,0 z m -3,0 3,0 0,3 -3,0 z m -3,0 3,0 0,3 -3,0 z m -3,0 3,0 0,3 -3,0 z m -3,0 3,0 0,3 -3,0 z m -3,0 3,0 0,3 -3,0 z m -3,0 3,0 0,3 -3,0 z m -3,0 3,0 0,3 -3,0 z m -3,0 3,0 0,3 -3,0 z m -3,0 3,0 0,3 -3,0 z m -3,0 3,0 0,3 -3,0 z m -3,0 3,0 0,3 -3,0 z m -3,0 3,0 0,3 -3,0 z m -3,0 3,0 0,3 -3,0 z m -3,0 3,0 0,3 -3,0 z m -3,0 3,0 0,3 -3,0 z m -3,0 3,0 0,3 -3,0 z m -3,0 3,0 0,3 -3,0 z m -3,0 3,0 0,3 -3,0 z m -3,0 3,0 0,3 -3,0 z m -3,0 3,0 0,3 -3,0 z m 150,-3 3,0 0,3 -3,0 z m -3,0 3,0 0,3 -3,0 z m -3,0 3,0 0,3 -3,0 z m -3,0 3,0 0,3 -3,0 z m -3,0 3,0 0,3 -3,0 z m -3,0 3,0 0,3 -3,0 z m -3,0 3,0 0,3 -3,0 z m -3,0 3,0 0,3 -3,0 z m -3,0 3,0 0,3 -3,0 z m -3,0 3,0 0,3 -3,0 z m -3,0 3,0 0,3 -3,0 z m -3,0 3,0 0,3 -3,0 z m -3,0 3,0 0,3 -3,0 z m -3,0 3,0 0,3 -3,0 z m -3,0 3,0 0,3 -3,0 z m -3,0 3,0 0,3 -3,0 z m -3,0 3,0 0,3 -3,0 z m -3,0 3,0 0,3 -3,0 z m -3,0 3,0 0,3 -3,0 z m -3,0 3,0 0,3 -3,0 z m -3,0 3,0 0,3 -3,0 z m -3,0 3,0 0,3 -3,0 z m -3,0 3,0 0,3 -3,0 z m -3,0 3,0 0,3 -3,0 z m -3,0 3,0 0,3 -3,0 z m -3,0 3,0 0,3 -3,0 z m -3,0 3,0 0,3 -3,0 z m -3,0 3,0 0,3 -3,0 z m -3,0 3,0 0,3 -3,0 z m -3,0 3,0 0,3 -3,0 z m -3,0 3,0 0,3 -3,0 z m -3,0 3,0 0,3 -3,0 z m -3,0 3,0 0,3 -3,0 z m -3,0 3,0 0,3 -3,0 z m -3,0 3,0 0,3 -3,0 z m -3,0 3,0 0,3 -3,0 z m -3,0 3,0 0,3 -3,0 z m -3,0 3,0 0,3 -3,0 z m -3,0 3,0 0,3 -3,0 z m -3,0 3,0 0,3 -3,0 z m -3,0 3,0 0,3 -3,0 z m -3,0 3,0 0,3 -3,0 z m -3,0 3,0 0,3 -3,0 z m -3,0 3,0 0,3 -3,0 z m -3,0 3,0 0,3 -3,0 z m -3,0 3,0 0,3 -3,0 z m -3,0 3,0 0,3 -3,0 z m -3,0 3,0 0,3 -3,0 z m -3,0 3,0 0,3 -3,0 z m -3,0 3,0 0,3 -3,0 z m -3,0 3,0 0,3 -3,0 z m 150,-3 3,0 0,3 -3,0 z m -3,0 3,0 0,3 -3,0 z m -3,0 3,0 0,3 -3,0 z m -3,0 3,0 0,3 -3,0 z m -3,0 3,0 0,3 -3,0 z m -3,0 3,0 0,3 -3,0 z m -3,0 3,0 0,3 -3,0 z m -3,0 3,0 0,3 -3,0 z m -3,0 3,0 0,3 -3,0 z m -3,0 3,0 0,3 -3,0 z m -3,0 3,0 0,3 -3,0 z m -3,0 3,0 0,3 -3,0 z m -3,0 3,0 0,3 -3,0 z m -3,0 3,0 0,3 -3,0 z m -3,0 3,0 0,3 -3,0 z m -3,0 3,0 0,3 -3,0 z m -3,0 3,0 0,3 -3,0 z m -3,0 3,0 0,3 -3,0 z m -3,0 3,0 0,3 -3,0 z m -3,0 3,0 0,3 -3,0 z m -3,0 3,0 0,3 -3,0 z m -3,0 3,0 0,3 -3,0 z m -3,0 3,0 0,3 -3,0 z m -3,0 3,0 0,3 -3,0 z m -3,0 3,0 0,3 -3,0 z m -3,0 3,0 0,3 -3,0 z m -3,0 3,0 0,3 -3,0 z m -3,0 3,0 0,3 -3,0 z m -3,0 3,0 0,3 -3,0 z m -3,0 3,0 0,3 -3,0 z m -3,0 3,0 0,3 -3,0 z m -3,0 3,0 0,3 -3,0 z m -3,0 3,0 0,3 -3,0 z m -3,0 3,0 0,3 -3,0 z m -3,0 3,0 0,3 -3,0 z m -3,0 3,0 0,3 -3,0 z m -3,0 3,0 0,3 -3,0 z m -3,0 3,0 0,3 -3,0 z m -3,0 3,0 0,3 -3,0 z m -3,0 3,0 0,3 -3,0 z m -3,0 3,0 0,3 -3,0 z m -3,0 3,0 0,3 -3,0 z m -3,0 3,0 0,3 -3,0 z m -3,0 3,0 0,3 -3,0 z m -3,0 3,0 0,3 -3,0 z m -3,0 3,0 0,3 -3,0 z m -3,0 3,0 0,3 -3,0 z m -3,0 3,0 0,3 -3,0 z m -3,0 3,0 0,3 -3,0 z m -3,0 3,0 0,3 -3,0 z m -3,0 3,0 0,3 -3,0 z m 150,-3 3,0 0,3 -3,0 z m -3,0 3,0 0,3 -3,0 z m -3,0 3,0 0,3 -3,0 z m -3,0 3,0 0,3 -3,0 z m -3,0 3,0 0,3 -3,0 z m -3,0 3,0 0,3 -3,0 z m -3,0 3,0 0,3 -3,0 z m -3,0 3,0 0,3 -3,0 z m -3,0 3,0 0,3 -3,0 z m -3,0 3,0 0,3 -3,0 z m -3,0 3,0 0,3 -3,0 z m -3,0 3,0 0,3 -3,0 z m -3,0 3,0 0,3 -3,0 z m -3,0 3,0 0,3 -3,0 z m -3,0 3,0 0,3 -3,0 z m -3,0 3,0 0,3 -3,0 z m -3,0 3,0 0,3 -3,0 z m -3,0 3,0 0,3 -3,0 z m -3,0 3,0 0,3 -3,0 z m -3,0 3,0 0,3 -3,0 z m -3,0 3,0 0,3 -3,0 z m -3,0 3,0 0,3 -3,0 z m -3,0 3,0 0,3 -3,0 z m -3,0 3,0 0,3 -3,0 z m -3,0 3,0 0,3 -3,0 z m -3,0 3,0 0,3 -3,0 z m -3,0 3,0 0,3 -3,0 z m -3,0 3,0 0,3 -3,0 z m -3,0 3,0 0,3 -3,0 z m -3,0 3,0 0,3 -3,0 z m -3,0 3,0 0,3 -3,0 z m -3,0 3,0 0,3 -3,0 z m -3,0 3,0 0,3 -3,0 z m -3,0 3,0 0,3 -3,0 z m -3,0 3,0 0,3 -3,0 z m -3,0 3,0 0,3 -3,0 z m -3,0 3,0 0,3 -3,0 z m -3,0 3,0 0,3 -3,0 z m -3,0 3,0 0,3 -3,0 z m -3,0 3,0 0,3 -3,0 z m -3,0 3,0 0,3 -3,0 z m -3,0 3,0 0,3 -3,0 z m -3,0 3,0 0,3 -3,0 z m -3,0 3,0 0,3 -3,0 z m -3,0 3,0 0,3 -3,0 z m -3,0 3,0 0,3 -3,0 z m -3,0 3,0 0,3 -3,0 z m -3,0 3,0 0,3 -3,0 z m -3,0 3,0 0,3 -3,0 z m -3,0 3,0 0,3 -3,0 z m -3,0 3,0 0,3 -3,0 z m 150,-3 3,0 0,3 -3,0 z m -3,0 3,0 0,3 -3,0 z m -3,0 3,0 0,3 -3,0 z m -3,0 3,0 0,3 -3,0 z m -3,0 3,0 0,3 -3,0 z m -3,0 3,0 0,3 -3,0 z m -3,0 3,0 0,3 -3,0 z m -3,0 3,0 0,3 -3,0 z m -3,0 3,0 0,3 -3,0 z m -3,0 3,0 0,3 -3,0 z m -3,0 3,0 0,3 -3,0 z m -3,0 3,0 0,3 -3,0 z m -3,0 3,0 0,3 -3,0 z m -3,0 3,0 0,3 -3,0 z m -3,0 3,0 0,3 -3,0 z m -3,0 3,0 0,3 -3,0 z m -3,0 3,0 0,3 -3,0 z m -3,0 3,0 0,3 -3,0 z m -3,0 3,0 0,3 -3,0 z m -3,0 3,0 0,3 -3,0 z m -3,0 3,0 0,3 -3,0 z m -3,0 3,0 0,3 -3,0 z m -3,0 3,0 0,3 -3,0 z m -3,0 3,0 0,3 -3,0 z m -3,0 3,0 0,3 -3,0 z m -3,0 3,0 0,3 -3,0 z m -3,0 3,0 0,3 -3,0 z m -3,0 3,0 0,3 -3,0 z m -3,0 3,0 0,3 -3,0 z m -3,0 3,0 0,3 -3,0 z m -3,0 3,0 0,3 -3,0 z m -3,0 3,0 0,3 -3,0 z m -3,0 3,0 0,3 -3,0 z m -3,0 3,0 0,3 -3,0 z m -3,0 3,0 0,3 -3,0 z m -3,0 3,0 0,3 -3,0 z m -3,0 3,0 0,3 -3,0 z m -3,0 3,0 0,3 -3,0 z m -3,0 3,0 0,3 -3,0 z m -3,0 3,0 0,3 -3,0 z m -3,0 3,0 0,3 -3,0 z m -3,0 3,0 0,3 -3,0 z m -3,0 3,0 0,3 -3,0 z m -3,0 3,0 0,3 -3,0 z m -3,0 3,0 0,3 -3,0 z m -3,0 3,0 0,3 -3,0 z m -3,0 3,0 0,3 -3,0 z m -3,0 3,0 0,3 -3,0 z m -3,0 3,0 0,3 -3,0 z m -3,0 3,0 0,3 -3,0 z m -3,0 3,0 0,3 -3,0 z m 150,-3 3,0 0,3 -3,0 z m -3,0 3,0 0,3 -3,0 z m -3,0 3,0 0,3 -3,0 z m -3,0 3,0 0,3 -3,0 z m -3,0 3,0 0,3 -3,0 z m -3,0 3,0 0,3 -3,0 z m -3,0 3,0 0,3 -3,0 z m -3,0 3,0 0,3 -3,0 z m -3,0 3,0 0,3 -3,0 z m -3,0 3,0 0,3 -3,0 z m -3,0 3,0 0,3 -3,0 z m -3,0 3,0 0,3 -3,0 z m -3,0 3,0 0,3 -3,0 z m -3,0 3,0 0,3 -3,0 z m -3,0 3,0 0,3 -3,0 z m -3,0 3,0 0,3 -3,0 z m -3,0 3,0 0,3 -3,0 z m -3,0 3,0 0,3 -3,0 z m -3,0 3,0 0,3 -3,0 z m -3,0 3,0 0,3 -3,0 z m -3,0 3,0 0,3 -3,0 z m -3,0 3,0 0,3 -3,0 z m -3,0 3,0 0,3 -3,0 z m -3,0 3,0 0,3 -3,0 z m -3,0 3,0 0,3 -3,0 z m -3,0 3,0 0,3 -3,0 z m -3,0 3,0 0,3 -3,0 z m -3,0 3,0 0,3 -3,0 z m -3,0 3,0 0,3 -3,0 z m -3,0 3,0 0,3 -3,0 z m -3,0 3,0 0,3 -3,0 z m -3,0 3,0 0,3 -3,0 z m -3,0 3,0 0,3 -3,0 z m -3,0 3,0 0,3 -3,0 z m -3,0 3,0 0,3 -3,0 z m -3,0 3,0 0,3 -3,0 z m -3,0 3,0 0,3 -3,0 z m -3,0 3,0 0,3 -3,0 z m -3,0 3,0 0,3 -3,0 z m -3,0 3,0 0,3 -3,0 z m -3,0 3,0 0,3 -3,0 z m -3,0 3,0 0,3 -3,0 z m -3,0 3,0 0,3 -3,0 z m -3,0 3,0 0,3 -3,0 z m -3,0 3,0 0,3 -3,0 z m -3,0 3,0 0,3 -3,0 z m -3,0 3,0 0,3 -3,0 z m -3,0 3,0 0,3 -3,0 z m -3,0 3,0 0,3 -3,0 z m -3,0 3,0 0,3 -3,0 z m -3,0 3,0 0,3 -3,0 z m 150,-3 3,0 0,3 -3,0 z m -3,0 3,0 0,3 -3,0 z m -3,0 3,0 0,3 -3,0 z m -3,0 3,0 0,3 -3,0 z m -3,0 3,0 0,3 -3,0 z m -3,0 3,0 0,3 -3,0 z m -3,0 3,0 0,3 -3,0 z m -3,0 3,0 0,3 -3,0 z m -3,0 3,0 0,3 -3,0 z m -3,0 3,0 0,3 -3,0 z m -3,0 3,0 0,3 -3,0 z m -3,0 3,0 0,3 -3,0 z m -3,0 3,0 0,3 -3,0 z m -3,0 3,0 0,3 -3,0 z m -3,0 3,0 0,3 -3,0 z m -3,0 3,0 0,3 -3,0 z m -3,0 3,0 0,3 -3,0 z m -3,0 3,0 0,3 -3,0 z m -3,0 3,0 0,3 -3,0 z m -3,0 3,0 0,3 -3,0 z m -3,0 3,0 0,3 -3,0 z m -3,0 3,0 0,3 -3,0 z m -3,0 3,0 0,3 -3,0 z m -3,0 3,0 0,3 -3,0 z m -3,0 3,0 0,3 -3,0 z m -3,0 3,0 0,3 -3,0 z m -3,0 3,0 0,3 -3,0 z m -3,0 3,0 0,3 -3,0 z m -3,0 3,0 0,3 -3,0 z m -3,0 3,0 0,3 -3,0 z m -3,0 3,0 0,3 -3,0 z m -3,0 3,0 0,3 -3,0 z m -3,0 3,0 0,3 -3,0 z m -3,0 3,0 0,3 -3,0 z m -3,0 3,0 0,3 -3,0 z m -3,0 3,0 0,3 -3,0 z m -3,0 3,0 0,3 -3,0 z m -3,0 3,0 0,3 -3,0 z m -3,0 3,0 0,3 -3,0 z m -3,0 3,0 0,3 -3,0 z m -3,0 3,0 0,3 -3,0 z m -3,0 3,0 0,3 -3,0 z m -3,0 3,0 0,3 -3,0 z m -3,0 3,0 0,3 -3,0 z m -3,0 3,0 0,3 -3,0 z m -3,0 3,0 0,3 -3,0 z m -3,0 3,0 0,3 -3,0 z m -3,0 3,0 0,3 -3,0 z m -3,0 3,0 0,3 -3,0 z m -3,0 3,0 0,3 -3,0 z m -3,0 3,0 0,3 -3,0 z m 150,-3 3,0 0,3 -3,0 z m -3,0 3,0 0,3 -3,0 z m -3,0 3,0 0,3 -3,0 z m -3,0 3,0 0,3 -3,0 z m -3,0 3,0 0,3 -3,0 z m -3,0 3,0 0,3 -3,0 z m -3,0 3,0 0,3 -3,0 z m -3,0 3,0 0,3 -3,0 z m -3,0 3,0 0,3 -3,0 z m -3,0 3,0 0,3 -3,0 z m -3,0 3,0 0,3 -3,0 z m -3,0 3,0 0,3 -3,0 z m -3,0 3,0 0,3 -3,0 z m -3,0 3,0 0,3 -3,0 z m -3,0 3,0 0,3 -3,0 z m -3,0 3,0 0,3 -3,0 z m -3,0 3,0 0,3 -3,0 z m -3,0 3,0 0,3 -3,0 z m -3,0 3,0 0,3 -3,0 z m -3,0 3,0 0,3 -3,0 z m -3,0 3,0 0,3 -3,0 z m -3,0 3,0 0,3 -3,0 z m -3,0 3,0 0,3 -3,0 z m -3,0 3,0 0,3 -3,0 z m -3,0 3,0 0,3 -3,0 z m -3,0 3,0 0,3 -3,0 z m -3,0 3,0 0,3 -3,0 z m -3,0 3,0 0,3 -3,0 z m -3,0 3,0 0,3 -3,0 z m -3,0 3,0 0,3 -3,0 z m -3,0 3,0 0,3 -3,0 z m -3,0 3,0 0,3 -3,0 z m -3,0 3,0 0,3 -3,0 z m -3,0 3,0 0,3 -3,0 z m -3,0 3,0 0,3 -3,0 z m -3,0 3,0 0,3 -3,0 z m -3,0 3,0 0,3 -3,0 z m -3,0 3,0 0,3 -3,0 z m -3,0 3,0 0,3 -3,0 z m -3,0 3,0 0,3 -3,0 z m -3,0 3,0 0,3 -3,0 z m -3,0 3,0 0,3 -3,0 z m -3,0 3,0 0,3 -3,0 z m -3,0 3,0 0,3 -3,0 z m -3,0 3,0 0,3 -3,0 z m -3,0 3,0 0,3 -3,0 z m -3,0 3,0 0,3 -3,0 z m -3,0 3,0 0,3 -3,0 z m -3,0 3,0 0,3 -3,0 z m -3,0 3,0 0,3 -3,0 z m -3,0 3,0 0,3 -3,0 z m 150,-3 3,0 0,3 -3,0 z m -3,0 3,0 0,3 -3,0 z m -3,0 3,0 0,3 -3,0 z m -3,0 3,0 0,3 -3,0 z m -3,0 3,0 0,3 -3,0 z m -3,0 3,0 0,3 -3,0 z m -3,0 3,0 0,3 -3,0 z m -3,0 3,0 0,3 -3,0 z m -3,0 3,0 0,3 -3,0 z m -3,0 3,0 0,3 -3,0 z m -3,0 3,0 0,3 -3,0 z m -3,0 3,0 0,3 -3,0 z m -3,0 3,0 0,3 -3,0 z m -3,0 3,0 0,3 -3,0 z m -3,0 3,0 0,3 -3,0 z m -3,0 3,0 0,3 -3,0 z m -3,0 3,0 0,3 -3,0 z m -3,0 3,0 0,3 -3,0 z m -3,0 3,0 0,3 -3,0 z m -3,0 3,0 0,3 -3,0 z m -3,0 3,0 0,3 -3,0 z m -3,0 3,0 0,3 -3,0 z m -3,0 3,0 0,3 -3,0 z m -3,0 3,0 0,3 -3,0 z m -3,0 3,0 0,3 -3,0 z m -3,0 3,0 0,3 -3,0 z m -3,0 3,0 0,3 -3,0 z m -3,0 3,0 0,3 -3,0 z m -3,0 3,0 0,3 -3,0 z m -3,0 3,0 0,3 -3,0 z m -3,0 3,0 0,3 -3,0 z m -3,0 3,0 0,3 -3,0 z m -3,0 3,0 0,3 -3,0 z m -3,0 3,0 0,3 -3,0 z m -3,0 3,0 0,3 -3,0 z m -3,0 3,0 0,3 -3,0 z m -3,0 3,0 0,3 -3,0 z m -3,0 3,0 0,3 -3,0 z m -3,0 3,0 0,3 -3,0 z m -3,0 3,0 0,3 -3,0 z m -3,0 3,0 0,3 -3,0 z m -3,0 3,0 0,3 -3,0 z m -3,0 3,0 0,3 -3,0 z m -3,0 3,0 0,3 -3,0 z m -3,0 3,0 0,3 -3,0 z m -3,0 3,0 0,3 -3,0 z m -3,0 3,0 0,3 -3,0 z m -3,0 3,0 0,3 -3,0 z m -3,0 3,0 0,3 -3,0 z M 9,6 12,6 12,9 9,9 Z M 6,6 9,6 9,9 6,9 Z m 150,-3 3,0 0,3 -3,0 z m -3,0 3,0 0,3 -3,0 z m -3,0 3,0 0,3 -3,0 z m -3,0 3,0 0,3 -3,0 z m -3,0 3,0 0,3 -3,0 z m -3,0 3,0 0,3 -3,0 z m -3,0 3,0 0,3 -3,0 z m -3,0 3,0 0,3 -3,0 z m -3,0 3,0 0,3 -3,0 z m -3,0 3,0 0,3 -3,0 z m -3,0 3,0 0,3 -3,0 z m -3,0 3,0 0,3 -3,0 z m -3,0 3,0 0,3 -3,0 z m -3,0 3,0 0,3 -3,0 z m -3,0 3,0 0,3 -3,0 z m -3,0 3,0 0,3 -3,0 z m -3,0 3,0 0,3 -3,0 z m -3,0 3,0 0,3 -3,0 z m -3,0 3,0 0,3 -3,0 z m -3,0 3,0 0,3 -3,0 z m -3,0 3,0 0,3 -3,0 z m -3,0 3,0 0,3 -3,0 z m -3,0 3,0 0,3 -3,0 z m -3,0 3,0 0,3 -3,0 z m -3,0 3,0 0,3 -3,0 z m -3,0 3,0 0,3 -3,0 z m -3,0 3,0 0,3 -3,0 z m -3,0 3,0 0,3 -3,0 z m -3,0 3,0 0,3 -3,0 z m -3,0 3,0 0,3 -3,0 z m -3,0 3,0 0,3 -3,0 z m -3,0 3,0 0,3 -3,0 z m -3,0 3,0 0,3 -3,0 z m -3,0 3,0 0,3 -3,0 z m -3,0 3,0 0,3 -3,0 z m -3,0 3,0 0,3 -3,0 z m -3,0 3,0 0,3 -3,0 z m -3,0 3,0 0,3 -3,0 z m -3,0 3,0 0,3 -3,0 z m -3,0 3,0 0,3 -3,0 z m -3,0 3,0 0,3 -3,0 z m -3,0 3,0 0,3 -3,0 z m -3,0 3,0 0,3 -3,0 z m -3,0 3,0 0,3 -3,0 z m -3,0 3,0 0,3 -3,0 z m -3,0 3,0 0,3 -3,0 z m -3,0 3,0 0,3 -3,0 z m -3,0 3,0 0,3 -3,0 z m -3,0 3,0 0,3 -3,0 z M 9,3 12,3 12,6 9,6 Z M 6,3 9,3 9,6 6,6 Z" />
</svg>
