<?xml version="1.0" encoding="utf-8" ?>
<svg baseProfile="full" height="186px" version="1.1" width="165px" xmlns="http://www.w3.org/2000/svg" xmlns:ev="http://www.w3.org/2001/xml-events" xmlns:xlink="http://www.w3.org/1999/xlink"><defs /><rect fill="rgb(0,0,0)" height="3px" width="3px" x="21px" y="0px" /><rect fill="rgb(0,0,0)" height="3px" width="3px" x="24px" y="0px" /><rect fill="rgb(0,0,0)" height="3px" width="3px" x="27px" y="0px" /><rect fill="rgb(0,0,0)" height="3px" width="3px" x="30px" y="0px" /><rect fill="rgb(0,0,0)" height="3px" width="3px" x="33px" y="0px" /><rect fill="rgb(0,0,0)" height="3px" width="3px" x="36px" y="0px" /><rect fill="rgb(0,0,0)" height="3px" width="3px" x="39px" y="0px" /><rect fill="rgb(0,0,0)" height="3px" width="3px" x="42px" y="0px" /><rect fill="rgb(0,0,0)" height="3px" width="3px" x="45px" y="0px" /><rect fill="rgb(0,0,0)" height="3px" width="3px" x="48px" y="0px" /><rect fill="rgb(0,0,0)" height="3px" width="3px" x="51px" y="0px" /><rect fill="rgb(0,0,0)" height="3px" width="3px" x="54px" y="0px" /><rect fill="rgb(0,0,0)" height="3px" width="3px" x="57px" y="0px" /><rect fill="rgb(0,0,0)" height="3px" width="3px" x="60px" y="0px" /><rect fill="rgb(0,0,0)" height="3px" width="3px" x="63px" y="0px" /><rect fill="rgb(0,0,0)" height="3px" width="3px" x="66px" y="0px" /><rect fill="rgb(0,0,0)" height="3px" width="3px" x="69px" y="0px" /><rect fill="rgb(0,0,0)" height="3px" width="3px" x="72px" y="0px" /><rect fill="rgb(0,0,0)" height="3px" width="3px" x="75px" y="0px" /><rect fill="rgb(0,0,0)" height="3px" width="3px" x="78px" y="0px" /><rect fill="rgb(0,0,0)" height="3px" width="3px" x="81px" y="0px" /><rect fill="rgb(0,0,0)" height="3px" width="3px" x="84px" y="0px" /><rect fill="rgb(0,0,0)" height="3px" width="3px" x="87px" y="0px" /><rect fill="rgb(0,0,0)" height="3px" width="3px" x="90px" y="0px" /><rect fill="rgb(0,0,0)" height="3px" width="3px" x="93px" y="0px" /><rect fill="rgb(0,0,0)" height="3px" width="3px" x="96px" y="0px" /><rect fill="rgb(0,0,0)" height="3px" width="3px" x="99px" y="0px" /><rect fill="rgb(0,0,0)" height="3px" width="3px" x="102px" y="0px" /><rect fill="rgb(0,0,0)" height="3px" width="3px" x="105px" y="0px" /><rect fill="rgb(0,0,0)" height="3px" width="3px" x="108px" y="0px" /><rect fill="rgb(0,0,0)" height="3px" width="3px" x="111px" y="0px" /><rect fill="rgb(0,0,0)" height="3px" width="3px" x="114px" y="0px" /><rect fill="rgb(0,0,0)" height="3px" width="3px" x="117px" y="0px" /><rect fill="rgb(0,0,0)" height="3px" width="3px" x="120px" y="0px" /><rect fill="rgb(0,0,0)" height="3px" width="3px" x="123px" y="0px" /><rect fill="rgb(0,0,0)" height="3px" width="3px" x="126px" y="0px" /><rect fill="rgb(0,0,0)" height="3px" width="3px" x="129px" y="0px" /><rect fill="rgb(0,0,0)" height="3px" width="3px" x="132px" y="0px" /><rect fill="rgb(0,0,0)" height="3px" width="3px" x="135px" y="0px" /><rect fill="rgb(0,0,0)" height="3px" width="3px" x="138px" y="0px" /><rect fill="rgb(0,0,0)" height="3px" width="3px" x="141px" y="0px" /><rect fill="rgb(0,0,0)" height="3px" width="3px" x="18px" y="3px" /><rect fill="rgb(0,0,0)" height="3px" width="3px" x="144px" y="3px" /><rect fill="rgb(0,0,0)" height="3px" width="3px" x="15px" y="6px" /><rect fill="rgb(0,0,0)" height="3px" width="3px" x="147px" y="6px" /><rect fill="rgb(0,0,0)" height="3px" width="3px" x="12px" y="9px" /><rect fill="rgb(0,0,0)" height="3px" width="3px" x="150px" y="9px" /><rect fill="rgb(0,0,0)" height="3px" width="3px" x="9px" y="12px" /><rect fill="rgb(0,0,0)" height="3px" width="3px" x="153px" y="12px" /><rect fill="rgb(0,0,0)" height="3px" width="3px" x="6px" y="15px" /><rect fill="rgb(0,0,0)" height="3px" width="3px" x="156px" y="15px" /><rect fill="rgb(0,0,0)" height="3px" width="3px" x="3px" y="18px" /><rect fill="rgb(0,0,0)" height="3px" width="3px" x="159px" y="18px" /><rect fill="rgb(0,0,0)" height="3px" width="3px" x="0px" y="21px" /><rect fill="rgb(0,0,0)" height="3px" width="3px" x="162px" y="21px" /><rect fill="rgb(0,0,0)" height="3px" width="3px" x="0px" y="24px" /><rect fill="rgb(0,0,0)" height="3px" width="3px" x="162px" y="24px" /><rect fill="rgb(0,0,0)" height="3px" width="3px" x="3px" y="27px" /><rect fill="rgb(0,0,0)" height="3px" width="3px" x="159px" y="27px" /><rect fill="rgb(0,0,0)" height="3px" width="3px" x="3px" y="30px" /><rect fill="rgb(0,0,0)" height="3px" width="3px" x="159px" y="30px" /><rect fill="rgb(0,0,0)" height="3px" width="3px" x="6px" y="33px" /><rect fill="rgb(0,0,0)" height="3px" width="3px" x="156px" y="33px" /><rect fill="rgb(0,0,0)" height="3px" width="3px" x="6px" y="36px" /><rect fill="rgb(0,0,0)" height="3px" width="3px" x="156px" y="36px" /><rect fill="rgb(0,0,0)" height="3px" width="3px" x="6px" y="39px" /><rect fill="rgb(0,0,0)" height="3px" width="3px" x="156px" y="39px" /><rect fill="rgb(0,0,0)" height="3px" width="3px" x="9px" y="42px" /><rect fill="rgb(0,0,0)" height="3px" width="3px" x="153px" y="42px" /><rect fill="rgb(0,0,0)" height="3px" width="3px" x="9px" y="45px" /><rect fill="rgb(0,0,0)" height="3px" width="3px" x="153px" y="45px" /><rect fill="rgb(0,0,0)" height="3px" width="3px" x="9px" y="48px" /><rect fill="rgb(0,0,0)" height="3px" width="3px" x="153px" y="48px" /><rect fill="rgb(0,0,0)" height="3px" width="3px" x="9px" y="51px" /><rect fill="rgb(0,0,0)" height="3px" width="3px" x="153px" y="51px" /><rect fill="rgb(0,0,0)" height="3px" width="3px" x="9px" y="54px" /><rect fill="rgb(0,0,0)" height="3px" width="3px" x="153px" y="54px" /><rect fill="rgb(0,0,0)" height="3px" width="3px" x="12px" y="57px" /><rect fill="rgb(0,0,0)" height="3px" width="3px" x="150px" y="57px" /><rect fill="rgb(0,0,0)" height="3px" width="3px" x="12px" y="60px" /><rect fill="rgb(0,0,0)" height="3px" width="3px" x="150px" y="60px" /><rect fill="rgb(0,0,0)" height="3px" width="3px" x="12px" y="63px" /><rect fill="rgb(0,0,0)" height="3px" width="3px" x="150px" y="63px" /><rect fill="rgb(0,0,0)" height="3px" width="3px" x="12px" y="66px" /><rect fill="rgb(0,0,0)" height="3px" width="3px" x="150px" y="66px" /><rect fill="rgb(0,0,0)" height="3px" width="3px" x="12px" y="69px" /><rect fill="rgb(0,0,0)" height="3px" width="3px" x="150px" y="69px" /><rect fill="rgb(0,0,0)" height="3px" width="3px" x="12px" y="72px" /><rect fill="rgb(0,0,0)" height="3px" width="3px" x="150px" y="72px" /><rect fill="rgb(0,0,0)" height="3px" width="3px" x="12px" y="75px" /><rect fill="rgb(0,0,0)" height="3px" width="3px" x="150px" y="75px" /><rect fill="rgb(0,0,0)" height="3px" width="3px" x="12px" y="78px" /><rect fill="rgb(0,0,0)" height="3px" width="3px" x="150px" y="78px" /><rect fill="rgb(0,0,0)" height="3px" width="3px" x="9px" y="81px" /><rect fill="rgb(0,0,0)" height="3px" width="3px" x="153px" y="81px" /><rect fill="rgb(0,0,0)" height="3px" width="3px" x="9px" y="84px" /><rect fill="rgb(0,0,0)" height="3px" width="3px" x="153px" y="84px" /><rect fill="rgb(0,0,0)" height="3px" width="3px" x="9px" y="87px" /><rect fill="rgb(0,0,0)" height="3px" width="3px" x="153px" y="87px" /><rect fill="rgb(0,0,0)" height="3px" width="3px" x="9px" y="90px" /><rect fill="rgb(0,0,0)" height="3px" width="3px" x="153px" y="90px" /><rect fill="rgb(0,0,0)" height="3px" width="3px" x="9px" y="93px" /><rect fill="rgb(0,0,0)" height="3px" width="3px" x="153px" y="93px" /><rect fill="rgb(0,0,0)" height="3px" width="3px" x="9px" y="96px" /><rect fill="rgb(0,0,0)" height="3px" width="3px" x="153px" y="96px" /><rect fill="rgb(0,0,0)" height="3px" width="3px" x="6px" y="99px" /><rect fill="rgb(0,0,0)" height="3px" width="3px" x="156px" y="99px" /><rect fill="rgb(0,0,0)" height="3px" width="3px" x="6px" y="102px" /><rect fill="rgb(0,0,0)" height="3px" width="3px" x="156px" y="102px" /><rect fill="rgb(0,0,0)" height="3px" width="3px" x="6px" y="105px" /><rect fill="rgb(0,0,0)" height="3px" width="3px" x="156px" y="105px" /><rect fill="rgb(0,0,0)" height="3px" width="3px" x="6px" y="108px" /><rect fill="rgb(0,0,0)" height="3px" width="3px" x="156px" y="108px" /><rect fill="rgb(0,0,0)" height="3px" width="3px" x="6px" y="111px" /><rect fill="rgb(0,0,0)" height="3px" width="3px" x="156px" y="111px" /><rect fill="rgb(0,0,0)" height="3px" width="3px" x="3px" y="114px" /><rect fill="rgb(0,0,0)" height="3px" width="3px" x="159px" y="114px" /><rect fill="rgb(0,0,0)" height="3px" width="3px" x="3px" y="117px" /><rect fill="rgb(0,0,0)" height="3px" width="3px" x="159px" y="117px" /><rect fill="rgb(0,0,0)" height="3px" width="3px" x="3px" y="120px" /><rect fill="rgb(0,0,0)" height="3px" width="3px" x="159px" y="120px" /><rect fill="rgb(0,0,0)" height="3px" width="3px" x="3px" y="123px" /><rect fill="rgb(0,0,0)" height="3px" width="3px" x="159px" y="123px" /><rect fill="rgb(0,0,0)" height="3px" width="3px" x="3px" y="126px" /><rect fill="rgb(0,0,0)" height="3px" width="3px" x="159px" y="126px" /><rect fill="rgb(0,0,0)" height="3px" width="3px" x="6px" y="129px" /><rect fill="rgb(0,0,0)" height="3px" width="3px" x="156px" y="129px" /><rect fill="rgb(0,0,0)" height="3px" width="3px" x="6px" y="132px" /><rect fill="rgb(0,0,0)" height="3px" width="3px" x="156px" y="132px" /><rect fill="rgb(0,0,0)" height="3px" width="3px" x="6px" y="135px" /><rect fill="rgb(0,0,0)" height="3px" width="3px" x="156px" y="135px" /><rect fill="rgb(0,0,0)" height="3px" width="3px" x="9px" y="138px" /><rect fill="rgb(0,0,0)" height="3px" width="3px" x="153px" y="138px" /><rect fill="rgb(0,0,0)" height="3px" width="3px" x="9px" y="141px" /><rect fill="rgb(0,0,0)" height="3px" width="3px" x="153px" y="141px" /><rect fill="rgb(0,0,0)" height="3px" width="3px" x="12px" y="144px" /><rect fill="rgb(0,0,0)" height="3px" width="3px" x="150px" y="144px" /><rect fill="rgb(0,0,0)" height="3px" width="3px" x="15px" y="147px" /><rect fill="rgb(0,0,0)" height="3px" width="3px" x="147px" y="147px" /><rect fill="rgb(0,0,0)" height="3px" width="3px" x="18px" y="150px" /><rect fill="rgb(0,0,0)" height="3px" width="3px" x="144px" y="150px" /><rect fill="rgb(0,0,0)" height="3px" width="3px" x="21px" y="153px" /><rect fill="rgb(0,0,0)" height="3px" width="3px" x="24px" y="153px" /><rect fill="rgb(0,0,0)" height="3px" width="3px" x="138px" y="153px" /><rect fill="rgb(0,0,0)" height="3px" width="3px" x="141px" y="153px" /><rect fill="rgb(0,0,0)" height="3px" width="3px" x="27px" y="156px" /><rect fill="rgb(0,0,0)" height="3px" width="3px" x="30px" y="156px" /><rect fill="rgb(0,0,0)" height="3px" width="3px" x="132px" y="156px" /><rect fill="rgb(0,0,0)" height="3px" width="3px" x="135px" y="156px" /><rect fill="rgb(0,0,0)" height="3px" width="3px" x="33px" y="159px" /><rect fill="rgb(0,0,0)" height="3px" width="3px" x="36px" y="159px" /><rect fill="rgb(0,0,0)" height="3px" width="3px" x="126px" y="159px" /><rect fill="rgb(0,0,0)" height="3px" width="3px" x="129px" y="159px" /><rect fill="rgb(0,0,0)" height="3px" width="3px" x="39px" y="162px" /><rect fill="rgb(0,0,0)" height="3px" width="3px" x="42px" y="162px" /><rect fill="rgb(0,0,0)" height="3px" width="3px" x="120px" y="162px" /><rect fill="rgb(0,0,0)" height="3px" width="3px" x="123px" y="162px" /><rect fill="rgb(0,0,0)" height="3px" width="3px" x="45px" y="165px" /><rect fill="rgb(0,0,0)" height="3px" width="3px" x="48px" y="165px" /><rect fill="rgb(0,0,0)" height="3px" width="3px" x="51px" y="165px" /><rect fill="rgb(0,0,0)" height="3px" width="3px" x="111px" y="165px" /><rect fill="rgb(0,0,0)" height="3px" width="3px" x="114px" y="165px" /><rect fill="rgb(0,0,0)" height="3px" width="3px" x="117px" y="165px" /><rect fill="rgb(0,0,0)" height="3px" width="3px" x="54px" y="168px" /><rect fill="rgb(0,0,0)" height="3px" width="3px" x="57px" y="168px" /><rect fill="rgb(0,0,0)" height="3px" width="3px" x="105px" y="168px" /><rect fill="rgb(0,0,0)" height="3px" width="3px" x="108px" y="168px" /><rect fill="rgb(0,0,0)" height="3px" width="3px" x="60px" y="171px" /><rect fill="rgb(0,0,0)" height="3px" width="3px" x="63px" y="171px" /><rect fill="rgb(0,0,0)" height="3px" width="3px" x="99px" y="171px" /><rect fill="rgb(0,0,0)" height="3px" width="3px" x="102px" y="171px" /><rect fill="rgb(0,0,0)" height="3px" width="3px" x="66px" y="174px" /><rect fill="rgb(0,0,0)" height="3px" width="3px" x="69px" y="174px" /><rect fill="rgb(0,0,0)" height="3px" width="3px" x="93px" y="174px" /><rect fill="rgb(0,0,0)" height="3px" width="3px" x="96px" y="174px" /><rect fill="rgb(0,0,0)" height="3px" width="3px" x="72px" y="177px" /><rect fill="rgb(0,0,0)" height="3px" width="3px" x="75px" y="177px" /><rect fill="rgb(0,0,0)" height="3px" width="3px" x="87px" y="177px" /><rect fill="rgb(0,0,0)" height="3px" width="3px" x="90px" y="177px" /><rect fill="rgb(0,0,0)" height="3px" width="3px" x="78px" y="180px" /><rect fill="rgb(0,0,0)" height="3px" width="3px" x="84px" y="180px" /><rect fill="rgb(0,0,0)" height="3px" width="3px" x="81px" y="183px" /></svg>