<?xml version="1.0" encoding="UTF-8" standalone="no"?>
<svg
   xmlns:dc="http://purl.org/dc/elements/1.1/"
   xmlns:cc="http://creativecommons.org/ns#"
   xmlns:rdf="http://www.w3.org/1999/02/22-rdf-syntax-ns#"
   xmlns:svg="http://www.w3.org/2000/svg"
   xmlns="http://www.w3.org/2000/svg"
   xmlns:sodipodi="http://sodipodi.sourceforge.net/DTD/sodipodi-0.dtd"
   xmlns:inkscape="http://www.inkscape.org/namespaces/inkscape"
   height="186px"
   version="1.1"
   width="165px"
   id="svg2"
   inkscape:version="0.91 r13725"
   sodipodi:docname="linear.svg" shape-rendering="crispEdges">
  <metadata
     id="metadata4472">
    <rdf:RDF>
      <cc:Work
         rdf:about="">
        <dc:format>image/svg+xml</dc:format>
        <dc:type
           rdf:resource="http://purl.org/dc/dcmitype/StillImage" />
        <dc:title></dc:title>
      </cc:Work>
    </rdf:RDF>
  </metadata>
  <sodipodi:namedview
     pagecolor="#000000"
     bordercolor="#666666"
     borderopacity="1"
     objecttolerance="10"
     gridtolerance="10"
     guidetolerance="10"
     inkscape:pageopacity="0"
     inkscape:pageshadow="2"
     inkscape:window-width="1920"
     inkscape:window-height="1028"
     id="namedview4470"
     showgrid="false"
     inkscape:zoom="3.588757"
     inkscape:cx="94.258319"
     inkscape:cy="80.21569"
     inkscape:window-x="1912"
     inkscape:window-y="-8"
     inkscape:window-maximized="1"
     inkscape:current-layer="svg2" />
  <defs
     id="defs4" />
  <path
     id="rect4398"
     style="opacity:0.01176471;fill:#ffffff"
     d="m 54,183 3,0 0,3 -3,0 z m 0,-3 3,0 0,3 -3,0 z m 0,-3 3,0 0,3 -3,0 z m 0,-3 3,0 0,3 -3,0 z m 0,-3 3,0 0,3 -3,0 z m 0,-3 3,0 0,3 -3,0 z m 0,-3 3,0 0,3 -3,0 z m 0,-3 3,0 0,3 -3,0 z m 0,-3 3,0 0,3 -3,0 z m 0,-3 3,0 0,3 -3,0 z m 0,-3 3,0 0,3 -3,0 z m 0,-3 3,0 0,3 -3,0 z m 0,-3 3,0 0,3 -3,0 z m 0,-3 3,0 0,3 -3,0 z m 0,-3 3,0 0,3 -3,0 z m 0,-3 3,0 0,3 -3,0 z m 0,-3 3,0 0,3 -3,0 z m 0,-3 3,0 0,3 -3,0 z m 0,-3 3,0 0,3 -3,0 z m 0,-3 3,0 0,3 -3,0 z m 0,-3 3,0 0,3 -3,0 z m 0,-3 3,0 0,3 -3,0 z m 0,-3 3,0 0,3 -3,0 z m 0,-3 3,0 0,3 -3,0 z m 0,-3 3,0 0,3 -3,0 z m 0,-3 3,0 0,3 -3,0 z m 0,-3 3,0 0,3 -3,0 z m 0,-3 3,0 0,3 -3,0 z m 0,-3 3,0 0,3 -3,0 z m 0,-3 3,0 0,3 -3,0 z m 0,-3 3,0 0,3 -3,0 z m 0,-3 3,0 0,3 -3,0 z m 0,-3 3,0 0,3 -3,0 z m 0,-3 3,0 0,3 -3,0 z m 0,-3 3,0 0,3 -3,0 z m 0,-3 3,0 0,3 -3,0 z m 0,-3 3,0 0,3 -3,0 z m 0,-3 3,0 0,3 -3,0 z m 0,-3 3,0 0,3 -3,0 z m 0,-3 3,0 0,3 -3,0 z m 0,-3 3,0 0,3 -3,0 z m 0,-3 3,0 0,3 -3,0 z m 0,-3 3,0 0,3 -3,0 z m 0,-3 3,0 0,3 -3,0 z m 0,-3 3,0 0,3 -3,0 z m 0,-3 3,0 0,3 -3,0 z m 0,-3 3,0 0,3 -3,0 z m 0,-3 3,0 0,3 -3,0 z m 0,-3 3,0 0,3 -3,0 z m 0,-3 3,0 0,3 -3,0 z m 0,-3 3,0 0,3 -3,0 z m 0,-3 3,0 0,3 -3,0 z m 0,-3 3,0 0,3 -3,0 z m 0,-3 3,0 0,3 -3,0 z m 0,-3 3,0 0,3 -3,0 z m 0,-3 3,0 0,3 -3,0 z m 0,-3 3,0 0,3 -3,0 z m 0,-3 3,0 0,3 -3,0 z m 0,-3 3,0 0,3 -3,0 z m 0,-3 3,0 0,3 -3,0 z m 0,-3 3,0 0,3 -3,0 z m 0,-3 3,0 0,3 -3,0 z" />
  <path
     id="rect4400"
     style="opacity:0.04313725;fill:#ffffff"
     d="m 57,183 3,0 0,3 -3,0 z m 0,-3 3,0 0,3 -3,0 z m 0,-3 3,0 0,3 -3,0 z m 0,-3 3,0 0,3 -3,0 z m 0,-3 3,0 0,3 -3,0 z m 0,-3 3,0 0,3 -3,0 z m 0,-3 3,0 0,3 -3,0 z m 0,-3 3,0 0,3 -3,0 z m 0,-3 3,0 0,3 -3,0 z m 0,-3 3,0 0,3 -3,0 z m 0,-3 3,0 0,3 -3,0 z m 0,-3 3,0 0,3 -3,0 z m 0,-3 3,0 0,3 -3,0 z m 0,-3 3,0 0,3 -3,0 z m 0,-3 3,0 0,3 -3,0 z m 0,-3 3,0 0,3 -3,0 z m 0,-3 3,0 0,3 -3,0 z m 0,-3 3,0 0,3 -3,0 z m 0,-3 3,0 0,3 -3,0 z m 0,-3 3,0 0,3 -3,0 z m 0,-3 3,0 0,3 -3,0 z m 0,-3 3,0 0,3 -3,0 z m 0,-3 3,0 0,3 -3,0 z m 0,-3 3,0 0,3 -3,0 z m 0,-3 3,0 0,3 -3,0 z m 0,-3 3,0 0,3 -3,0 z m 0,-3 3,0 0,3 -3,0 z m 0,-3 3,0 0,3 -3,0 z m 0,-3 3,0 0,3 -3,0 z m 0,-3 3,0 0,3 -3,0 z m 0,-3 3,0 0,3 -3,0 z m 0,-3 3,0 0,3 -3,0 z m 0,-3 3,0 0,3 -3,0 z m 0,-3 3,0 0,3 -3,0 z m 0,-3 3,0 0,3 -3,0 z m 0,-3 3,0 0,3 -3,0 z m 0,-3 3,0 0,3 -3,0 z m 0,-3 3,0 0,3 -3,0 z m 0,-3 3,0 0,3 -3,0 z m 0,-3 3,0 0,3 -3,0 z m 0,-3 3,0 0,3 -3,0 z m 0,-3 3,0 0,3 -3,0 z m 0,-3 3,0 0,3 -3,0 z m 0,-3 3,0 0,3 -3,0 z m 0,-3 3,0 0,3 -3,0 z m 0,-3 3,0 0,3 -3,0 z m 0,-3 3,0 0,3 -3,0 z m 0,-3 3,0 0,3 -3,0 z m 0,-3 3,0 0,3 -3,0 z m 0,-3 3,0 0,3 -3,0 z m 0,-3 3,0 0,3 -3,0 z m 0,-3 3,0 0,3 -3,0 z m 0,-3 3,0 0,3 -3,0 z m 0,-3 3,0 0,3 -3,0 z m 0,-3 3,0 0,3 -3,0 z m 0,-3 3,0 0,3 -3,0 z m 0,-3 3,0 0,3 -3,0 z m 0,-3 3,0 0,3 -3,0 z m 0,-3 3,0 0,3 -3,0 z m 0,-3 3,0 0,3 -3,0 z m 0,-3 3,0 0,3 -3,0 z m 0,-3 3,0 0,3 -3,0 z" />
  <path
     id="rect4402"
     style="opacity:0.0745098;fill:#ffffff"
     d="m 60,183 3,0 0,3 -3,0 z m 0,-3 3,0 0,3 -3,0 z m 0,-3 3,0 0,3 -3,0 z m 0,-3 3,0 0,3 -3,0 z m 0,-3 3,0 0,3 -3,0 z m 0,-3 3,0 0,3 -3,0 z m 0,-3 3,0 0,3 -3,0 z m 0,-3 3,0 0,3 -3,0 z m 0,-3 3,0 0,3 -3,0 z m 0,-3 3,0 0,3 -3,0 z m 0,-3 3,0 0,3 -3,0 z m 0,-3 3,0 0,3 -3,0 z m 0,-3 3,0 0,3 -3,0 z m 0,-3 3,0 0,3 -3,0 z m 0,-3 3,0 0,3 -3,0 z m 0,-3 3,0 0,3 -3,0 z m 0,-3 3,0 0,3 -3,0 z m 0,-3 3,0 0,3 -3,0 z m 0,-3 3,0 0,3 -3,0 z m 0,-3 3,0 0,3 -3,0 z m 0,-3 3,0 0,3 -3,0 z m 0,-3 3,0 0,3 -3,0 z m 0,-3 3,0 0,3 -3,0 z m 0,-3 3,0 0,3 -3,0 z m 0,-3 3,0 0,3 -3,0 z m 0,-3 3,0 0,3 -3,0 z m 0,-3 3,0 0,3 -3,0 z m 0,-3 3,0 0,3 -3,0 z m 0,-3 3,0 0,3 -3,0 z m 0,-3 3,0 0,3 -3,0 z m 0,-3 3,0 0,3 -3,0 z m 0,-3 3,0 0,3 -3,0 z m 0,-3 3,0 0,3 -3,0 z m 0,-3 3,0 0,3 -3,0 z m 0,-3 3,0 0,3 -3,0 z m 0,-3 3,0 0,3 -3,0 z m 0,-3 3,0 0,3 -3,0 z m 0,-3 3,0 0,3 -3,0 z m 0,-3 3,0 0,3 -3,0 z m 0,-3 3,0 0,3 -3,0 z m 0,-3 3,0 0,3 -3,0 z m 0,-3 3,0 0,3 -3,0 z m 0,-3 3,0 0,3 -3,0 z m 0,-3 3,0 0,3 -3,0 z m 0,-3 3,0 0,3 -3,0 z m 0,-3 3,0 0,3 -3,0 z m 0,-3 3,0 0,3 -3,0 z m 0,-3 3,0 0,3 -3,0 z m 0,-3 3,0 0,3 -3,0 z m 0,-3 3,0 0,3 -3,0 z m 0,-3 3,0 0,3 -3,0 z m 0,-3 3,0 0,3 -3,0 z m 0,-3 3,0 0,3 -3,0 z m 0,-3 3,0 0,3 -3,0 z m 0,-3 3,0 0,3 -3,0 z m 0,-3 3,0 0,3 -3,0 z m 0,-3 3,0 0,3 -3,0 z m 0,-3 3,0 0,3 -3,0 z m 0,-3 3,0 0,3 -3,0 z m 0,-3 3,0 0,3 -3,0 z m 0,-3 3,0 0,3 -3,0 z m 0,-3 3,0 0,3 -3,0 z" />
  <path
     id="rect4404"
     style="opacity:0.13333333;fill:#ffffff"
     d="m 63,183 3,0 0,3 -3,0 z m 0,-3 3,0 0,3 -3,0 z m 0,-3 3,0 0,3 -3,0 z m 0,-3 3,0 0,3 -3,0 z m 0,-3 3,0 0,3 -3,0 z m 0,-3 3,0 0,3 -3,0 z m 0,-3 3,0 0,3 -3,0 z m 0,-3 3,0 0,3 -3,0 z m 0,-3 3,0 0,3 -3,0 z m 0,-3 3,0 0,3 -3,0 z m 0,-3 3,0 0,3 -3,0 z m 0,-3 3,0 0,3 -3,0 z m 0,-3 3,0 0,3 -3,0 z m 0,-3 3,0 0,3 -3,0 z m 0,-3 3,0 0,3 -3,0 z m 0,-3 3,0 0,3 -3,0 z m 0,-3 3,0 0,3 -3,0 z m 0,-3 3,0 0,3 -3,0 z m 0,-3 3,0 0,3 -3,0 z m 0,-3 3,0 0,3 -3,0 z m 0,-3 3,0 0,3 -3,0 z m 0,-3 3,0 0,3 -3,0 z m 0,-3 3,0 0,3 -3,0 z m 0,-3 3,0 0,3 -3,0 z m 0,-3 3,0 0,3 -3,0 z m 0,-3 3,0 0,3 -3,0 z m 0,-3 3,0 0,3 -3,0 z m 0,-3 3,0 0,3 -3,0 z m 0,-3 3,0 0,3 -3,0 z m 0,-3 3,0 0,3 -3,0 z m 0,-3 3,0 0,3 -3,0 z m 0,-3 3,0 0,3 -3,0 z m 0,-3 3,0 0,3 -3,0 z m 0,-3 3,0 0,3 -3,0 z m 0,-3 3,0 0,3 -3,0 z m 0,-3 3,0 0,3 -3,0 z m 0,-3 3,0 0,3 -3,0 z m 0,-3 3,0 0,3 -3,0 z m 0,-3 3,0 0,3 -3,0 z m 0,-3 3,0 0,3 -3,0 z m 0,-3 3,0 0,3 -3,0 z m 0,-3 3,0 0,3 -3,0 z m 0,-3 3,0 0,3 -3,0 z m 0,-3 3,0 0,3 -3,0 z m 0,-3 3,0 0,3 -3,0 z m 0,-3 3,0 0,3 -3,0 z m 0,-3 3,0 0,3 -3,0 z m 0,-3 3,0 0,3 -3,0 z m 0,-3 3,0 0,3 -3,0 z m 0,-3 3,0 0,3 -3,0 z m 0,-3 3,0 0,3 -3,0 z m 0,-3 3,0 0,3 -3,0 z m 0,-3 3,0 0,3 -3,0 z m 0,-3 3,0 0,3 -3,0 z m 0,-3 3,0 0,3 -3,0 z m 0,-3 3,0 0,3 -3,0 z m 0,-3 3,0 0,3 -3,0 z m 0,-3 3,0 0,3 -3,0 z m 0,-3 3,0 0,3 -3,0 z m 0,-3 3,0 0,3 -3,0 z m 0,-3 3,0 0,3 -3,0 z m 0,-3 3,0 0,3 -3,0 z" />
  <path
     id="rect4406"
     style="opacity:0.18039216;fill:#ffffff"
     d="m 66,183 3,0 0,3 -3,0 z m 0,-3 3,0 0,3 -3,0 z m 0,-3 3,0 0,3 -3,0 z m 0,-3 3,0 0,3 -3,0 z m 0,-3 3,0 0,3 -3,0 z m 0,-3 3,0 0,3 -3,0 z m 0,-3 3,0 0,3 -3,0 z m 0,-3 3,0 0,3 -3,0 z m 0,-3 3,0 0,3 -3,0 z m 0,-3 3,0 0,3 -3,0 z m 0,-3 3,0 0,3 -3,0 z m 0,-3 3,0 0,3 -3,0 z m 0,-3 3,0 0,3 -3,0 z m 0,-3 3,0 0,3 -3,0 z m 0,-3 3,0 0,3 -3,0 z m 0,-3 3,0 0,3 -3,0 z m 0,-3 3,0 0,3 -3,0 z m 0,-3 3,0 0,3 -3,0 z m 0,-3 3,0 0,3 -3,0 z m 0,-3 3,0 0,3 -3,0 z m 0,-3 3,0 0,3 -3,0 z m 0,-3 3,0 0,3 -3,0 z m 0,-3 3,0 0,3 -3,0 z m 0,-3 3,0 0,3 -3,0 z m 0,-3 3,0 0,3 -3,0 z m 0,-3 3,0 0,3 -3,0 z m 0,-3 3,0 0,3 -3,0 z m 0,-3 3,0 0,3 -3,0 z m 0,-3 3,0 0,3 -3,0 z m 0,-3 3,0 0,3 -3,0 z m 0,-3 3,0 0,3 -3,0 z m 0,-3 3,0 0,3 -3,0 z m 0,-3 3,0 0,3 -3,0 z m 0,-3 3,0 0,3 -3,0 z m 0,-3 3,0 0,3 -3,0 z m 0,-3 3,0 0,3 -3,0 z m 0,-3 3,0 0,3 -3,0 z m 0,-3 3,0 0,3 -3,0 z m 0,-3 3,0 0,3 -3,0 z m 0,-3 3,0 0,3 -3,0 z m 0,-3 3,0 0,3 -3,0 z m 0,-3 3,0 0,3 -3,0 z m 0,-3 3,0 0,3 -3,0 z m 0,-3 3,0 0,3 -3,0 z m 0,-3 3,0 0,3 -3,0 z m 0,-3 3,0 0,3 -3,0 z m 0,-3 3,0 0,3 -3,0 z m 0,-3 3,0 0,3 -3,0 z m 0,-3 3,0 0,3 -3,0 z m 0,-3 3,0 0,3 -3,0 z m 0,-3 3,0 0,3 -3,0 z m 0,-3 3,0 0,3 -3,0 z m 0,-3 3,0 0,3 -3,0 z m 0,-3 3,0 0,3 -3,0 z m 0,-3 3,0 0,3 -3,0 z m 0,-3 3,0 0,3 -3,0 z m 0,-3 3,0 0,3 -3,0 z m 0,-3 3,0 0,3 -3,0 z m 0,-3 3,0 0,3 -3,0 z m 0,-3 3,0 0,3 -3,0 z m 0,-3 3,0 0,3 -3,0 z m 0,-3 3,0 0,3 -3,0 z" />
  <path
     id="rect4408"
     style="opacity:0.22745098;fill:#ffffff"
     d="m 69,183 3,0 0,3 -3,0 z m 0,-3 3,0 0,3 -3,0 z m 0,-3 3,0 0,3 -3,0 z m 0,-3 3,0 0,3 -3,0 z m 0,-3 3,0 0,3 -3,0 z m 0,-3 3,0 0,3 -3,0 z m 0,-3 3,0 0,3 -3,0 z m 0,-3 3,0 0,3 -3,0 z m 0,-3 3,0 0,3 -3,0 z m 0,-3 3,0 0,3 -3,0 z m 0,-3 3,0 0,3 -3,0 z m 0,-3 3,0 0,3 -3,0 z m 0,-3 3,0 0,3 -3,0 z m 0,-3 3,0 0,3 -3,0 z m 0,-3 3,0 0,3 -3,0 z m 0,-3 3,0 0,3 -3,0 z m 0,-3 3,0 0,3 -3,0 z m 0,-3 3,0 0,3 -3,0 z m 0,-3 3,0 0,3 -3,0 z m 0,-3 3,0 0,3 -3,0 z m 0,-3 3,0 0,3 -3,0 z m 0,-3 3,0 0,3 -3,0 z m 0,-3 3,0 0,3 -3,0 z m 0,-3 3,0 0,3 -3,0 z m 0,-3 3,0 0,3 -3,0 z m 0,-3 3,0 0,3 -3,0 z m 0,-3 3,0 0,3 -3,0 z m 0,-3 3,0 0,3 -3,0 z m 0,-3 3,0 0,3 -3,0 z m 0,-3 3,0 0,3 -3,0 z m 0,-3 3,0 0,3 -3,0 z m 0,-3 3,0 0,3 -3,0 z m 0,-3 3,0 0,3 -3,0 z m 0,-3 3,0 0,3 -3,0 z m 0,-3 3,0 0,3 -3,0 z m 0,-3 3,0 0,3 -3,0 z m 0,-3 3,0 0,3 -3,0 z m 0,-3 3,0 0,3 -3,0 z m 0,-3 3,0 0,3 -3,0 z m 0,-3 3,0 0,3 -3,0 z m 0,-3 3,0 0,3 -3,0 z m 0,-3 3,0 0,3 -3,0 z m 0,-3 3,0 0,3 -3,0 z m 0,-3 3,0 0,3 -3,0 z m 0,-3 3,0 0,3 -3,0 z m 0,-3 3,0 0,3 -3,0 z m 0,-3 3,0 0,3 -3,0 z m 0,-3 3,0 0,3 -3,0 z m 0,-3 3,0 0,3 -3,0 z m 0,-3 3,0 0,3 -3,0 z m 0,-3 3,0 0,3 -3,0 z m 0,-3 3,0 0,3 -3,0 z m 0,-3 3,0 0,3 -3,0 z m 0,-3 3,0 0,3 -3,0 z m 0,-3 3,0 0,3 -3,0 z m 0,-3 3,0 0,3 -3,0 z m 0,-3 3,0 0,3 -3,0 z m 0,-3 3,0 0,3 -3,0 z m 0,-3 3,0 0,3 -3,0 z m 0,-3 3,0 0,3 -3,0 z m 0,-3 3,0 0,3 -3,0 z m 0,-3 3,0 0,3 -3,0 z" />
  <path
     id="rect4410"
     style="opacity:0.26666667;fill:#ffffff"
     d="m 72,183 3,0 0,3 -3,0 z m 0,-3 3,0 0,3 -3,0 z m 0,-3 3,0 0,3 -3,0 z m 0,-3 3,0 0,3 -3,0 z m 0,-3 3,0 0,3 -3,0 z m 0,-3 3,0 0,3 -3,0 z m 0,-3 3,0 0,3 -3,0 z m 0,-3 3,0 0,3 -3,0 z m 0,-3 3,0 0,3 -3,0 z m 0,-3 3,0 0,3 -3,0 z m 0,-3 3,0 0,3 -3,0 z m 0,-3 3,0 0,3 -3,0 z m 0,-3 3,0 0,3 -3,0 z m 0,-3 3,0 0,3 -3,0 z m 0,-3 3,0 0,3 -3,0 z m 0,-3 3,0 0,3 -3,0 z m 0,-3 3,0 0,3 -3,0 z m 0,-3 3,0 0,3 -3,0 z m 0,-3 3,0 0,3 -3,0 z m 0,-3 3,0 0,3 -3,0 z m 0,-3 3,0 0,3 -3,0 z m 0,-3 3,0 0,3 -3,0 z m 0,-3 3,0 0,3 -3,0 z m 0,-3 3,0 0,3 -3,0 z m 0,-3 3,0 0,3 -3,0 z m 0,-3 3,0 0,3 -3,0 z m 0,-3 3,0 0,3 -3,0 z m 0,-3 3,0 0,3 -3,0 z m 0,-3 3,0 0,3 -3,0 z m 0,-3 3,0 0,3 -3,0 z m 0,-3 3,0 0,3 -3,0 z m 0,-3 3,0 0,3 -3,0 z m 0,-3 3,0 0,3 -3,0 z m 0,-3 3,0 0,3 -3,0 z m 0,-3 3,0 0,3 -3,0 z m 0,-3 3,0 0,3 -3,0 z m 0,-3 3,0 0,3 -3,0 z m 0,-3 3,0 0,3 -3,0 z m 0,-3 3,0 0,3 -3,0 z m 0,-3 3,0 0,3 -3,0 z m 0,-3 3,0 0,3 -3,0 z m 0,-3 3,0 0,3 -3,0 z m 0,-3 3,0 0,3 -3,0 z m 0,-3 3,0 0,3 -3,0 z m 0,-3 3,0 0,3 -3,0 z m 0,-3 3,0 0,3 -3,0 z m 0,-3 3,0 0,3 -3,0 z m 0,-3 3,0 0,3 -3,0 z m 0,-3 3,0 0,3 -3,0 z m 0,-3 3,0 0,3 -3,0 z m 0,-3 3,0 0,3 -3,0 z m 0,-3 3,0 0,3 -3,0 z m 0,-3 3,0 0,3 -3,0 z m 0,-3 3,0 0,3 -3,0 z m 0,-3 3,0 0,3 -3,0 z m 0,-3 3,0 0,3 -3,0 z m 0,-3 3,0 0,3 -3,0 z m 0,-3 3,0 0,3 -3,0 z m 0,-3 3,0 0,3 -3,0 z m 0,-3 3,0 0,3 -3,0 z m 0,-3 3,0 0,3 -3,0 z m 0,-3 3,0 0,3 -3,0 z" />
  <path
     id="rect4412"
     style="opacity:0.28627451;fill:#ffffff"
     d="m 75,183 3,0 0,3 -3,0 z m 0,-3 3,0 0,3 -3,0 z m 0,-3 3,0 0,3 -3,0 z m 0,-3 3,0 0,3 -3,0 z m 0,-3 3,0 0,3 -3,0 z m 0,-3 3,0 0,3 -3,0 z m 0,-3 3,0 0,3 -3,0 z m 0,-3 3,0 0,3 -3,0 z m 0,-3 3,0 0,3 -3,0 z m 0,-3 3,0 0,3 -3,0 z m 0,-3 3,0 0,3 -3,0 z m 0,-3 3,0 0,3 -3,0 z m 0,-3 3,0 0,3 -3,0 z m 0,-3 3,0 0,3 -3,0 z m 0,-3 3,0 0,3 -3,0 z m 0,-3 3,0 0,3 -3,0 z m 0,-3 3,0 0,3 -3,0 z m 0,-3 3,0 0,3 -3,0 z m 0,-3 3,0 0,3 -3,0 z m 0,-3 3,0 0,3 -3,0 z m 0,-3 3,0 0,3 -3,0 z m 0,-3 3,0 0,3 -3,0 z m 0,-3 3,0 0,3 -3,0 z m 0,-3 3,0 0,3 -3,0 z m 0,-3 3,0 0,3 -3,0 z m 0,-3 3,0 0,3 -3,0 z m 0,-3 3,0 0,3 -3,0 z m 0,-3 3,0 0,3 -3,0 z m 0,-3 3,0 0,3 -3,0 z m 0,-3 3,0 0,3 -3,0 z m 0,-3 3,0 0,3 -3,0 z m 0,-3 3,0 0,3 -3,0 z m 0,-3 3,0 0,3 -3,0 z m 0,-3 3,0 0,3 -3,0 z m 0,-3 3,0 0,3 -3,0 z m 0,-3 3,0 0,3 -3,0 z m 0,-3 3,0 0,3 -3,0 z m 0,-3 3,0 0,3 -3,0 z m 0,-3 3,0 0,3 -3,0 z m 0,-3 3,0 0,3 -3,0 z m 0,-3 3,0 0,3 -3,0 z m 0,-3 3,0 0,3 -3,0 z m 0,-3 3,0 0,3 -3,0 z m 0,-3 3,0 0,3 -3,0 z m 0,-3 3,0 0,3 -3,0 z m 0,-3 3,0 0,3 -3,0 z m 0,-3 3,0 0,3 -3,0 z m 0,-3 3,0 0,3 -3,0 z m 0,-3 3,0 0,3 -3,0 z m 0,-3 3,0 0,3 -3,0 z m 0,-3 3,0 0,3 -3,0 z m 0,-3 3,0 0,3 -3,0 z m 0,-3 3,0 0,3 -3,0 z m 0,-3 3,0 0,3 -3,0 z m 0,-3 3,0 0,3 -3,0 z m 0,-3 3,0 0,3 -3,0 z m 0,-3 3,0 0,3 -3,0 z m 0,-3 3,0 0,3 -3,0 z m 0,-3 3,0 0,3 -3,0 z m 0,-3 3,0 0,3 -3,0 z m 0,-3 3,0 0,3 -3,0 z m 0,-3 3,0 0,3 -3,0 z" />
  <path
     id="rect4414"
     style="opacity:0.29411765;fill:#ffffff"
     d="m 78,183 3,0 0,3 -3,0 z m 0,-3 3,0 0,3 -3,0 z m 0,-3 3,0 0,3 -3,0 z m 0,-3 3,0 0,3 -3,0 z m 0,-3 3,0 0,3 -3,0 z m 0,-3 3,0 0,3 -3,0 z m 0,-3 3,0 0,3 -3,0 z m 0,-3 3,0 0,3 -3,0 z m 0,-3 3,0 0,3 -3,0 z m 0,-3 3,0 0,3 -3,0 z m 0,-3 3,0 0,3 -3,0 z m 0,-3 3,0 0,3 -3,0 z m 0,-3 3,0 0,3 -3,0 z m 0,-3 3,0 0,3 -3,0 z m 0,-3 3,0 0,3 -3,0 z m 0,-3 3,0 0,3 -3,0 z m 0,-3 3,0 0,3 -3,0 z m 0,-3 3,0 0,3 -3,0 z m 0,-3 3,0 0,3 -3,0 z m 0,-3 3,0 0,3 -3,0 z m 0,-3 3,0 0,3 -3,0 z m 0,-3 3,0 0,3 -3,0 z m 0,-3 3,0 0,3 -3,0 z m 0,-3 3,0 0,3 -3,0 z m 0,-3 3,0 0,3 -3,0 z m 0,-3 3,0 0,3 -3,0 z m 0,-3 3,0 0,3 -3,0 z m 0,-3 3,0 0,3 -3,0 z m 0,-3 3,0 0,3 -3,0 z m 0,-3 3,0 0,3 -3,0 z m 0,-3 3,0 0,3 -3,0 z m 0,-3 3,0 0,3 -3,0 z m 0,-3 3,0 0,3 -3,0 z m 0,-3 3,0 0,3 -3,0 z m 0,-3 3,0 0,3 -3,0 z m 0,-3 3,0 0,3 -3,0 z m 0,-3 3,0 0,3 -3,0 z m 0,-3 3,0 0,3 -3,0 z m 0,-3 3,0 0,3 -3,0 z m 0,-3 3,0 0,3 -3,0 z m 0,-3 3,0 0,3 -3,0 z m 0,-3 3,0 0,3 -3,0 z m 0,-3 3,0 0,3 -3,0 z m 0,-3 3,0 0,3 -3,0 z m 0,-3 3,0 0,3 -3,0 z m 0,-3 3,0 0,3 -3,0 z m 0,-3 3,0 0,3 -3,0 z m 0,-3 3,0 0,3 -3,0 z m 0,-3 3,0 0,3 -3,0 z m 0,-3 3,0 0,3 -3,0 z m 0,-3 3,0 0,3 -3,0 z m 0,-3 3,0 0,3 -3,0 z m 0,-3 3,0 0,3 -3,0 z m 0,-3 3,0 0,3 -3,0 z m 0,-3 3,0 0,3 -3,0 z m 0,-3 3,0 0,3 -3,0 z m 0,-3 3,0 0,3 -3,0 z m 0,-3 3,0 0,3 -3,0 z m 0,-3 3,0 0,3 -3,0 z m 0,-3 3,0 0,3 -3,0 z m 0,-3 3,0 0,3 -3,0 z m 0,-3 3,0 0,3 -3,0 z" />
  <path
     id="rect4416"
     style="opacity:0.29803922;fill:#ffffff"
     d="m 81,183 3,0 0,3 -3,0 z m 0,-3 3,0 0,3 -3,0 z m 0,-3 3,0 0,3 -3,0 z m 0,-3 3,0 0,3 -3,0 z m 0,-3 3,0 0,3 -3,0 z m 0,-3 3,0 0,3 -3,0 z m 0,-3 3,0 0,3 -3,0 z m 0,-3 3,0 0,3 -3,0 z m 0,-3 3,0 0,3 -3,0 z m 0,-3 3,0 0,3 -3,0 z m 0,-3 3,0 0,3 -3,0 z m 0,-3 3,0 0,3 -3,0 z m 0,-3 3,0 0,3 -3,0 z m 0,-3 3,0 0,3 -3,0 z m 0,-3 3,0 0,3 -3,0 z m 0,-3 3,0 0,3 -3,0 z m 0,-3 3,0 0,3 -3,0 z m 0,-3 3,0 0,3 -3,0 z m 0,-3 3,0 0,3 -3,0 z m 0,-3 3,0 0,3 -3,0 z m 0,-3 3,0 0,3 -3,0 z m 0,-3 3,0 0,3 -3,0 z m 0,-3 3,0 0,3 -3,0 z m 0,-3 3,0 0,3 -3,0 z m 0,-3 3,0 0,3 -3,0 z m 0,-3 3,0 0,3 -3,0 z m 0,-3 3,0 0,3 -3,0 z m 0,-3 3,0 0,3 -3,0 z m 0,-3 3,0 0,3 -3,0 z m 0,-3 3,0 0,3 -3,0 z m 0,-3 3,0 0,3 -3,0 z m 0,-3 3,0 0,3 -3,0 z m 0,-3 3,0 0,3 -3,0 z m 0,-3 3,0 0,3 -3,0 z m 0,-3 3,0 0,3 -3,0 z m 0,-3 3,0 0,3 -3,0 z m 0,-3 3,0 0,3 -3,0 z m 0,-3 3,0 0,3 -3,0 z m 0,-3 3,0 0,3 -3,0 z m 0,-3 3,0 0,3 -3,0 z m 0,-3 3,0 0,3 -3,0 z m 0,-3 3,0 0,3 -3,0 z m 0,-3 3,0 0,3 -3,0 z m 0,-3 3,0 0,3 -3,0 z m 0,-3 3,0 0,3 -3,0 z m 0,-3 3,0 0,3 -3,0 z m 0,-3 3,0 0,3 -3,0 z m 0,-3 3,0 0,3 -3,0 z m 0,-3 3,0 0,3 -3,0 z m 0,-3 3,0 0,3 -3,0 z m 0,-3 3,0 0,3 -3,0 z m 0,-3 3,0 0,3 -3,0 z m 0,-3 3,0 0,3 -3,0 z m 0,-3 3,0 0,3 -3,0 z m 0,-3 3,0 0,3 -3,0 z m 0,-3 3,0 0,3 -3,0 z m 0,-3 3,0 0,3 -3,0 z m 0,-3 3,0 0,3 -3,0 z m 0,-3 3,0 0,3 -3,0 z m 0,-3 3,0 0,3 -3,0 z m 0,-3 3,0 0,3 -3,0 z m 0,-3 3,0 0,3 -3,0 z" />
  <path
     id="rect4418"
     style="opacity:0.29803922;fill:#ffffff"
     d="m 84,183 3,0 0,3 -3,0 z m 0,-3 3,0 0,3 -3,0 z m 0,-3 3,0 0,3 -3,0 z m 0,-3 3,0 0,3 -3,0 z m 0,-3 3,0 0,3 -3,0 z m 0,-3 3,0 0,3 -3,0 z m 0,-3 3,0 0,3 -3,0 z m 0,-3 3,0 0,3 -3,0 z m 0,-3 3,0 0,3 -3,0 z m 0,-3 3,0 0,3 -3,0 z m 0,-3 3,0 0,3 -3,0 z m 0,-3 3,0 0,3 -3,0 z m 0,-3 3,0 0,3 -3,0 z m 0,-3 3,0 0,3 -3,0 z m 0,-3 3,0 0,3 -3,0 z m 0,-3 3,0 0,3 -3,0 z m 0,-3 3,0 0,3 -3,0 z m 0,-3 3,0 0,3 -3,0 z m 0,-3 3,0 0,3 -3,0 z m 0,-3 3,0 0,3 -3,0 z m 0,-3 3,0 0,3 -3,0 z m 0,-3 3,0 0,3 -3,0 z m 0,-3 3,0 0,3 -3,0 z m 0,-3 3,0 0,3 -3,0 z m 0,-3 3,0 0,3 -3,0 z m 0,-3 3,0 0,3 -3,0 z m 0,-3 3,0 0,3 -3,0 z m 0,-3 3,0 0,3 -3,0 z m 0,-3 3,0 0,3 -3,0 z m 0,-3 3,0 0,3 -3,0 z m 0,-3 3,0 0,3 -3,0 z m 0,-3 3,0 0,3 -3,0 z m 0,-3 3,0 0,3 -3,0 z m 0,-3 3,0 0,3 -3,0 z m 0,-3 3,0 0,3 -3,0 z m 0,-3 3,0 0,3 -3,0 z m 0,-3 3,0 0,3 -3,0 z m 0,-3 3,0 0,3 -3,0 z m 0,-3 3,0 0,3 -3,0 z m 0,-3 3,0 0,3 -3,0 z m 0,-3 3,0 0,3 -3,0 z m 0,-3 3,0 0,3 -3,0 z m 0,-3 3,0 0,3 -3,0 z m 0,-3 3,0 0,3 -3,0 z m 0,-3 3,0 0,3 -3,0 z m 0,-3 3,0 0,3 -3,0 z m 0,-3 3,0 0,3 -3,0 z m 0,-3 3,0 0,3 -3,0 z m 0,-3 3,0 0,3 -3,0 z m 0,-3 3,0 0,3 -3,0 z m 0,-3 3,0 0,3 -3,0 z m 0,-3 3,0 0,3 -3,0 z m 0,-3 3,0 0,3 -3,0 z m 0,-3 3,0 0,3 -3,0 z m 0,-3 3,0 0,3 -3,0 z m 0,-3 3,0 0,3 -3,0 z m 0,-3 3,0 0,3 -3,0 z m 0,-3 3,0 0,3 -3,0 z m 0,-3 3,0 0,3 -3,0 z m 0,-3 3,0 0,3 -3,0 z m 0,-3 3,0 0,3 -3,0 z m 0,-3 3,0 0,3 -3,0 z" />
  <path
     id="rect4420"
     style="opacity:0.29803922;fill:#ffffff"
     d="m 87,183 3,0 0,3 -3,0 z m 0,-3 3,0 0,3 -3,0 z m 0,-3 3,0 0,3 -3,0 z m 0,-3 3,0 0,3 -3,0 z m 0,-3 3,0 0,3 -3,0 z m 0,-3 3,0 0,3 -3,0 z m 0,-3 3,0 0,3 -3,0 z m 0,-3 3,0 0,3 -3,0 z m 0,-3 3,0 0,3 -3,0 z m 0,-3 3,0 0,3 -3,0 z m 0,-3 3,0 0,3 -3,0 z m 0,-3 3,0 0,3 -3,0 z m 0,-3 3,0 0,3 -3,0 z m 0,-3 3,0 0,3 -3,0 z m 0,-3 3,0 0,3 -3,0 z m 0,-3 3,0 0,3 -3,0 z m 0,-3 3,0 0,3 -3,0 z m 0,-3 3,0 0,3 -3,0 z m 0,-3 3,0 0,3 -3,0 z m 0,-3 3,0 0,3 -3,0 z m 0,-3 3,0 0,3 -3,0 z m 0,-3 3,0 0,3 -3,0 z m 0,-3 3,0 0,3 -3,0 z m 0,-3 3,0 0,3 -3,0 z m 0,-3 3,0 0,3 -3,0 z m 0,-3 3,0 0,3 -3,0 z m 0,-3 3,0 0,3 -3,0 z m 0,-3 3,0 0,3 -3,0 z m 0,-3 3,0 0,3 -3,0 z m 0,-3 3,0 0,3 -3,0 z m 0,-3 3,0 0,3 -3,0 z m 0,-3 3,0 0,3 -3,0 z m 0,-3 3,0 0,3 -3,0 z m 0,-3 3,0 0,3 -3,0 z m 0,-3 3,0 0,3 -3,0 z m 0,-3 3,0 0,3 -3,0 z m 0,-3 3,0 0,3 -3,0 z m 0,-3 3,0 0,3 -3,0 z m 0,-3 3,0 0,3 -3,0 z m 0,-3 3,0 0,3 -3,0 z m 0,-3 3,0 0,3 -3,0 z m 0,-3 3,0 0,3 -3,0 z m 0,-3 3,0 0,3 -3,0 z m 0,-3 3,0 0,3 -3,0 z m 0,-3 3,0 0,3 -3,0 z m 0,-3 3,0 0,3 -3,0 z m 0,-3 3,0 0,3 -3,0 z m 0,-3 3,0 0,3 -3,0 z m 0,-3 3,0 0,3 -3,0 z m 0,-3 3,0 0,3 -3,0 z m 0,-3 3,0 0,3 -3,0 z m 0,-3 3,0 0,3 -3,0 z m 0,-3 3,0 0,3 -3,0 z m 0,-3 3,0 0,3 -3,0 z m 0,-3 3,0 0,3 -3,0 z m 0,-3 3,0 0,3 -3,0 z m 0,-3 3,0 0,3 -3,0 z m 0,-3 3,0 0,3 -3,0 z m 0,-3 3,0 0,3 -3,0 z m 0,-3 3,0 0,3 -3,0 z m 0,-3 3,0 0,3 -3,0 z m 0,-3 3,0 0,3 -3,0 z" />
  <path
     id="rect4422"
     style="opacity:0.29411765;fill:#ffffff"
     d="m 90,183 3,0 0,3 -3,0 z m 0,-3 3,0 0,3 -3,0 z m 0,-3 3,0 0,3 -3,0 z m 0,-3 3,0 0,3 -3,0 z m 0,-3 3,0 0,3 -3,0 z m 0,-3 3,0 0,3 -3,0 z m 0,-3 3,0 0,3 -3,0 z m 0,-3 3,0 0,3 -3,0 z m 0,-3 3,0 0,3 -3,0 z m 0,-3 3,0 0,3 -3,0 z m 0,-3 3,0 0,3 -3,0 z m 0,-3 3,0 0,3 -3,0 z m 0,-3 3,0 0,3 -3,0 z m 0,-3 3,0 0,3 -3,0 z m 0,-3 3,0 0,3 -3,0 z m 0,-3 3,0 0,3 -3,0 z m 0,-3 3,0 0,3 -3,0 z m 0,-3 3,0 0,3 -3,0 z m 0,-3 3,0 0,3 -3,0 z m 0,-3 3,0 0,3 -3,0 z m 0,-3 3,0 0,3 -3,0 z m 0,-3 3,0 0,3 -3,0 z m 0,-3 3,0 0,3 -3,0 z m 0,-3 3,0 0,3 -3,0 z m 0,-3 3,0 0,3 -3,0 z m 0,-3 3,0 0,3 -3,0 z m 0,-3 3,0 0,3 -3,0 z m 0,-3 3,0 0,3 -3,0 z m 0,-3 3,0 0,3 -3,0 z m 0,-3 3,0 0,3 -3,0 z m 0,-3 3,0 0,3 -3,0 z m 0,-3 3,0 0,3 -3,0 z m 0,-3 3,0 0,3 -3,0 z m 0,-3 3,0 0,3 -3,0 z m 0,-3 3,0 0,3 -3,0 z m 0,-3 3,0 0,3 -3,0 z m 0,-3 3,0 0,3 -3,0 z m 0,-3 3,0 0,3 -3,0 z m 0,-3 3,0 0,3 -3,0 z m 0,-3 3,0 0,3 -3,0 z m 0,-3 3,0 0,3 -3,0 z m 0,-3 3,0 0,3 -3,0 z m 0,-3 3,0 0,3 -3,0 z m 0,-3 3,0 0,3 -3,0 z m 0,-3 3,0 0,3 -3,0 z m 0,-3 3,0 0,3 -3,0 z m 0,-3 3,0 0,3 -3,0 z m 0,-3 3,0 0,3 -3,0 z m 0,-3 3,0 0,3 -3,0 z m 0,-3 3,0 0,3 -3,0 z m 0,-3 3,0 0,3 -3,0 z m 0,-3 3,0 0,3 -3,0 z m 0,-3 3,0 0,3 -3,0 z m 0,-3 3,0 0,3 -3,0 z m 0,-3 3,0 0,3 -3,0 z m 0,-3 3,0 0,3 -3,0 z m 0,-3 3,0 0,3 -3,0 z m 0,-3 3,0 0,3 -3,0 z m 0,-3 3,0 0,3 -3,0 z m 0,-3 3,0 0,3 -3,0 z m 0,-3 3,0 0,3 -3,0 z m 0,-3 3,0 0,3 -3,0 z" />
  <path
     id="rect4424"
     style="opacity:0.29019608;fill:#ffffff"
     d="m 93,183 3,0 0,3 -3,0 z m 0,-3 3,0 0,3 -3,0 z m 0,-3 3,0 0,3 -3,0 z m 0,-3 3,0 0,3 -3,0 z m 0,-3 3,0 0,3 -3,0 z m 0,-3 3,0 0,3 -3,0 z m 0,-3 3,0 0,3 -3,0 z m 0,-3 3,0 0,3 -3,0 z m 0,-3 3,0 0,3 -3,0 z m 0,-3 3,0 0,3 -3,0 z m 0,-3 3,0 0,3 -3,0 z m 0,-3 3,0 0,3 -3,0 z m 0,-3 3,0 0,3 -3,0 z m 0,-3 3,0 0,3 -3,0 z m 0,-3 3,0 0,3 -3,0 z m 0,-3 3,0 0,3 -3,0 z m 0,-3 3,0 0,3 -3,0 z m 0,-3 3,0 0,3 -3,0 z m 0,-3 3,0 0,3 -3,0 z m 0,-3 3,0 0,3 -3,0 z m 0,-3 3,0 0,3 -3,0 z m 0,-3 3,0 0,3 -3,0 z m 0,-3 3,0 0,3 -3,0 z m 0,-3 3,0 0,3 -3,0 z m 0,-3 3,0 0,3 -3,0 z m 0,-3 3,0 0,3 -3,0 z m 0,-3 3,0 0,3 -3,0 z m 0,-3 3,0 0,3 -3,0 z m 0,-3 3,0 0,3 -3,0 z m 0,-3 3,0 0,3 -3,0 z m 0,-3 3,0 0,3 -3,0 z m 0,-3 3,0 0,3 -3,0 z m 0,-3 3,0 0,3 -3,0 z m 0,-3 3,0 0,3 -3,0 z m 0,-3 3,0 0,3 -3,0 z m 0,-3 3,0 0,3 -3,0 z m 0,-3 3,0 0,3 -3,0 z m 0,-3 3,0 0,3 -3,0 z m 0,-3 3,0 0,3 -3,0 z m 0,-3 3,0 0,3 -3,0 z m 0,-3 3,0 0,3 -3,0 z m 0,-3 3,0 0,3 -3,0 z m 0,-3 3,0 0,3 -3,0 z m 0,-3 3,0 0,3 -3,0 z m 0,-3 3,0 0,3 -3,0 z m 0,-3 3,0 0,3 -3,0 z m 0,-3 3,0 0,3 -3,0 z m 0,-3 3,0 0,3 -3,0 z m 0,-3 3,0 0,3 -3,0 z m 0,-3 3,0 0,3 -3,0 z m 0,-3 3,0 0,3 -3,0 z m 0,-3 3,0 0,3 -3,0 z m 0,-3 3,0 0,3 -3,0 z m 0,-3 3,0 0,3 -3,0 z m 0,-3 3,0 0,3 -3,0 z m 0,-3 3,0 0,3 -3,0 z m 0,-3 3,0 0,3 -3,0 z m 0,-3 3,0 0,3 -3,0 z m 0,-3 3,0 0,3 -3,0 z m 0,-3 3,0 0,3 -3,0 z m 0,-3 3,0 0,3 -3,0 z m 0,-3 3,0 0,3 -3,0 z" />
  <path
     id="rect4426"
     style="opacity:0.28627451;fill:#ffffff"
     d="m 96,183 3,0 0,3 -3,0 z m 0,-3 3,0 0,3 -3,0 z m 0,-3 3,0 0,3 -3,0 z m 0,-3 3,0 0,3 -3,0 z m 0,-3 3,0 0,3 -3,0 z m 0,-3 3,0 0,3 -3,0 z m 0,-3 3,0 0,3 -3,0 z m 0,-3 3,0 0,3 -3,0 z m 0,-3 3,0 0,3 -3,0 z m 0,-3 3,0 0,3 -3,0 z m 0,-3 3,0 0,3 -3,0 z m 0,-3 3,0 0,3 -3,0 z m 0,-3 3,0 0,3 -3,0 z m 0,-3 3,0 0,3 -3,0 z m 0,-3 3,0 0,3 -3,0 z m 0,-3 3,0 0,3 -3,0 z m 0,-3 3,0 0,3 -3,0 z m 0,-3 3,0 0,3 -3,0 z m 0,-3 3,0 0,3 -3,0 z m 0,-3 3,0 0,3 -3,0 z m 0,-3 3,0 0,3 -3,0 z m 0,-3 3,0 0,3 -3,0 z m 0,-3 3,0 0,3 -3,0 z m 0,-3 3,0 0,3 -3,0 z m 0,-3 3,0 0,3 -3,0 z m 0,-3 3,0 0,3 -3,0 z m 0,-3 3,0 0,3 -3,0 z m 0,-3 3,0 0,3 -3,0 z m 0,-3 3,0 0,3 -3,0 z m 0,-3 3,0 0,3 -3,0 z m 0,-3 3,0 0,3 -3,0 z m 0,-3 3,0 0,3 -3,0 z m 0,-3 3,0 0,3 -3,0 z m 0,-3 3,0 0,3 -3,0 z m 0,-3 3,0 0,3 -3,0 z m 0,-3 3,0 0,3 -3,0 z m 0,-3 3,0 0,3 -3,0 z m 0,-3 3,0 0,3 -3,0 z m 0,-3 3,0 0,3 -3,0 z m 0,-3 3,0 0,3 -3,0 z m 0,-3 3,0 0,3 -3,0 z m 0,-3 3,0 0,3 -3,0 z m 0,-3 3,0 0,3 -3,0 z m 0,-3 3,0 0,3 -3,0 z m 0,-3 3,0 0,3 -3,0 z m 0,-3 3,0 0,3 -3,0 z m 0,-3 3,0 0,3 -3,0 z m 0,-3 3,0 0,3 -3,0 z m 0,-3 3,0 0,3 -3,0 z m 0,-3 3,0 0,3 -3,0 z m 0,-3 3,0 0,3 -3,0 z m 0,-3 3,0 0,3 -3,0 z m 0,-3 3,0 0,3 -3,0 z m 0,-3 3,0 0,3 -3,0 z m 0,-3 3,0 0,3 -3,0 z m 0,-3 3,0 0,3 -3,0 z m 0,-3 3,0 0,3 -3,0 z m 0,-3 3,0 0,3 -3,0 z m 0,-3 3,0 0,3 -3,0 z m 0,-3 3,0 0,3 -3,0 z m 0,-3 3,0 0,3 -3,0 z m 0,-3 3,0 0,3 -3,0 z" />
  <path
     id="rect4428"
     style="opacity:0.28235294;fill:#ffffff"
     d="m 99,183 3,0 0,3 -3,0 z m 0,-3 3,0 0,3 -3,0 z m 0,-3 3,0 0,3 -3,0 z m 0,-3 3,0 0,3 -3,0 z m 0,-3 3,0 0,3 -3,0 z m 0,-3 3,0 0,3 -3,0 z m 0,-3 3,0 0,3 -3,0 z m 0,-3 3,0 0,3 -3,0 z m 0,-3 3,0 0,3 -3,0 z m 0,-3 3,0 0,3 -3,0 z m 0,-3 3,0 0,3 -3,0 z m 0,-3 3,0 0,3 -3,0 z m 0,-3 3,0 0,3 -3,0 z m 0,-3 3,0 0,3 -3,0 z m 0,-3 3,0 0,3 -3,0 z m 0,-3 3,0 0,3 -3,0 z m 0,-3 3,0 0,3 -3,0 z m 0,-3 3,0 0,3 -3,0 z m 0,-3 3,0 0,3 -3,0 z m 0,-3 3,0 0,3 -3,0 z m 0,-3 3,0 0,3 -3,0 z m 0,-3 3,0 0,3 -3,0 z m 0,-3 3,0 0,3 -3,0 z m 0,-3 3,0 0,3 -3,0 z m 0,-3 3,0 0,3 -3,0 z m 0,-3 3,0 0,3 -3,0 z m 0,-3 3,0 0,3 -3,0 z m 0,-3 3,0 0,3 -3,0 z m 0,-3 3,0 0,3 -3,0 z m 0,-3 3,0 0,3 -3,0 z m 0,-3 3,0 0,3 -3,0 z m 0,-3 3,0 0,3 -3,0 z m 0,-3 3,0 0,3 -3,0 z m 0,-3 3,0 0,3 -3,0 z m 0,-3 3,0 0,3 -3,0 z m 0,-3 3,0 0,3 -3,0 z m 0,-3 3,0 0,3 -3,0 z m 0,-3 3,0 0,3 -3,0 z m 0,-3 3,0 0,3 -3,0 z m 0,-3 3,0 0,3 -3,0 z m 0,-3 3,0 0,3 -3,0 z m 0,-3 3,0 0,3 -3,0 z m 0,-3 3,0 0,3 -3,0 z m 0,-3 3,0 0,3 -3,0 z m 0,-3 3,0 0,3 -3,0 z m 0,-3 3,0 0,3 -3,0 z m 0,-3 3,0 0,3 -3,0 z m 0,-3 3,0 0,3 -3,0 z m 0,-3 3,0 0,3 -3,0 z m 0,-3 3,0 0,3 -3,0 z m 0,-3 3,0 0,3 -3,0 z m 0,-3 3,0 0,3 -3,0 z m 0,-3 3,0 0,3 -3,0 z m 0,-3 3,0 0,3 -3,0 z m 0,-3 3,0 0,3 -3,0 z m 0,-3 3,0 0,3 -3,0 z m 0,-3 3,0 0,3 -3,0 z m 0,-3 3,0 0,3 -3,0 z m 0,-3 3,0 0,3 -3,0 z m 0,-3 3,0 0,3 -3,0 z m 0,-3 3,0 0,3 -3,0 z m 0,-3 3,0 0,3 -3,0 z" />
  <path
     id="rect4430"
     style="opacity:0.2745098;fill:#ffffff"
     d="m 102,183 3,0 0,3 -3,0 z m 0,-3 3,0 0,3 -3,0 z m 0,-3 3,0 0,3 -3,0 z m 0,-3 3,0 0,3 -3,0 z m 0,-3 3,0 0,3 -3,0 z m 0,-3 3,0 0,3 -3,0 z m 0,-3 3,0 0,3 -3,0 z m 0,-3 3,0 0,3 -3,0 z m 0,-3 3,0 0,3 -3,0 z m 0,-3 3,0 0,3 -3,0 z m 0,-3 3,0 0,3 -3,0 z m 0,-3 3,0 0,3 -3,0 z m 0,-3 3,0 0,3 -3,0 z m 0,-3 3,0 0,3 -3,0 z m 0,-3 3,0 0,3 -3,0 z m 0,-3 3,0 0,3 -3,0 z m 0,-3 3,0 0,3 -3,0 z m 0,-3 3,0 0,3 -3,0 z m 0,-3 3,0 0,3 -3,0 z m 0,-3 3,0 0,3 -3,0 z m 0,-3 3,0 0,3 -3,0 z m 0,-3 3,0 0,3 -3,0 z m 0,-3 3,0 0,3 -3,0 z m 0,-3 3,0 0,3 -3,0 z m 0,-3 3,0 0,3 -3,0 z m 0,-3 3,0 0,3 -3,0 z m 0,-3 3,0 0,3 -3,0 z m 0,-3 3,0 0,3 -3,0 z m 0,-3 3,0 0,3 -3,0 z m 0,-3 3,0 0,3 -3,0 z m 0,-3 3,0 0,3 -3,0 z m 0,-3 3,0 0,3 -3,0 z m 0,-3 3,0 0,3 -3,0 z m 0,-3 3,0 0,3 -3,0 z m 0,-3 3,0 0,3 -3,0 z m 0,-3 3,0 0,3 -3,0 z m 0,-3 3,0 0,3 -3,0 z m 0,-3 3,0 0,3 -3,0 z m 0,-3 3,0 0,3 -3,0 z m 0,-3 3,0 0,3 -3,0 z m 0,-3 3,0 0,3 -3,0 z m 0,-3 3,0 0,3 -3,0 z m 0,-3 3,0 0,3 -3,0 z m 0,-3 3,0 0,3 -3,0 z m 0,-3 3,0 0,3 -3,0 z m 0,-3 3,0 0,3 -3,0 z m 0,-3 3,0 0,3 -3,0 z m 0,-3 3,0 0,3 -3,0 z m 0,-3 3,0 0,3 -3,0 z m 0,-3 3,0 0,3 -3,0 z m 0,-3 3,0 0,3 -3,0 z m 0,-3 3,0 0,3 -3,0 z m 0,-3 3,0 0,3 -3,0 z m 0,-3 3,0 0,3 -3,0 z m 0,-3 3,0 0,3 -3,0 z m 0,-3 3,0 0,3 -3,0 z m 0,-3 3,0 0,3 -3,0 z m 0,-3 3,0 0,3 -3,0 z m 0,-3 3,0 0,3 -3,0 z m 0,-3 3,0 0,3 -3,0 z m 0,-3 3,0 0,3 -3,0 z m 0,-3 3,0 0,3 -3,0 z" />
  <path
     id="rect4432"
     style="opacity:0.26666667;fill:#ffffff"
     d="m 105,183 3,0 0,3 -3,0 z m 0,-3 3,0 0,3 -3,0 z m 0,-3 3,0 0,3 -3,0 z m 0,-3 3,0 0,3 -3,0 z m 0,-3 3,0 0,3 -3,0 z m 0,-3 3,0 0,3 -3,0 z m 0,-3 3,0 0,3 -3,0 z m 0,-3 3,0 0,3 -3,0 z m 0,-3 3,0 0,3 -3,0 z m 0,-3 3,0 0,3 -3,0 z m 0,-3 3,0 0,3 -3,0 z m 0,-3 3,0 0,3 -3,0 z m 0,-3 3,0 0,3 -3,0 z m 0,-3 3,0 0,3 -3,0 z m 0,-3 3,0 0,3 -3,0 z m 0,-3 3,0 0,3 -3,0 z m 0,-3 3,0 0,3 -3,0 z m 0,-3 3,0 0,3 -3,0 z m 0,-3 3,0 0,3 -3,0 z m 0,-3 3,0 0,3 -3,0 z m 0,-3 3,0 0,3 -3,0 z m 0,-3 3,0 0,3 -3,0 z m 0,-3 3,0 0,3 -3,0 z m 0,-3 3,0 0,3 -3,0 z m 0,-3 3,0 0,3 -3,0 z m 0,-3 3,0 0,3 -3,0 z m 0,-3 3,0 0,3 -3,0 z m 0,-3 3,0 0,3 -3,0 z m 0,-3 3,0 0,3 -3,0 z m 0,-3 3,0 0,3 -3,0 z m 0,-3 3,0 0,3 -3,0 z m 0,-3 3,0 0,3 -3,0 z m 0,-3 3,0 0,3 -3,0 z m 0,-3 3,0 0,3 -3,0 z m 0,-3 3,0 0,3 -3,0 z m 0,-3 3,0 0,3 -3,0 z m 0,-3 3,0 0,3 -3,0 z m 0,-3 3,0 0,3 -3,0 z m 0,-3 3,0 0,3 -3,0 z m 0,-3 3,0 0,3 -3,0 z m 0,-3 3,0 0,3 -3,0 z m 0,-3 3,0 0,3 -3,0 z m 0,-3 3,0 0,3 -3,0 z m 0,-3 3,0 0,3 -3,0 z m 0,-3 3,0 0,3 -3,0 z m 0,-3 3,0 0,3 -3,0 z m 0,-3 3,0 0,3 -3,0 z m 0,-3 3,0 0,3 -3,0 z m 0,-3 3,0 0,3 -3,0 z m 0,-3 3,0 0,3 -3,0 z m 0,-3 3,0 0,3 -3,0 z m 0,-3 3,0 0,3 -3,0 z m 0,-3 3,0 0,3 -3,0 z m 0,-3 3,0 0,3 -3,0 z m 0,-3 3,0 0,3 -3,0 z m 0,-3 3,0 0,3 -3,0 z m 0,-3 3,0 0,3 -3,0 z m 0,-3 3,0 0,3 -3,0 z m 0,-3 3,0 0,3 -3,0 z m 0,-3 3,0 0,3 -3,0 z m 0,-3 3,0 0,3 -3,0 z m 0,-3 3,0 0,3 -3,0 z" />
  <path
     id="rect4434"
     style="opacity:0.25490196;fill:#ffffff"
     d="m 108,183 3,0 0,3 -3,0 z m 0,-3 3,0 0,3 -3,0 z m 0,-3 3,0 0,3 -3,0 z m 0,-3 3,0 0,3 -3,0 z m 0,-3 3,0 0,3 -3,0 z m 0,-3 3,0 0,3 -3,0 z m 0,-3 3,0 0,3 -3,0 z m 0,-3 3,0 0,3 -3,0 z m 0,-3 3,0 0,3 -3,0 z m 0,-3 3,0 0,3 -3,0 z m 0,-3 3,0 0,3 -3,0 z m 0,-3 3,0 0,3 -3,0 z m 0,-3 3,0 0,3 -3,0 z m 0,-3 3,0 0,3 -3,0 z m 0,-3 3,0 0,3 -3,0 z m 0,-3 3,0 0,3 -3,0 z m 0,-3 3,0 0,3 -3,0 z m 0,-3 3,0 0,3 -3,0 z m 0,-3 3,0 0,3 -3,0 z m 0,-3 3,0 0,3 -3,0 z m 0,-3 3,0 0,3 -3,0 z m 0,-3 3,0 0,3 -3,0 z m 0,-3 3,0 0,3 -3,0 z m 0,-3 3,0 0,3 -3,0 z m 0,-3 3,0 0,3 -3,0 z m 0,-3 3,0 0,3 -3,0 z m 0,-3 3,0 0,3 -3,0 z m 0,-3 3,0 0,3 -3,0 z m 0,-3 3,0 0,3 -3,0 z m 0,-3 3,0 0,3 -3,0 z m 0,-3 3,0 0,3 -3,0 z m 0,-3 3,0 0,3 -3,0 z m 0,-3 3,0 0,3 -3,0 z m 0,-3 3,0 0,3 -3,0 z m 0,-3 3,0 0,3 -3,0 z m 0,-3 3,0 0,3 -3,0 z m 0,-3 3,0 0,3 -3,0 z m 0,-3 3,0 0,3 -3,0 z m 0,-3 3,0 0,3 -3,0 z m 0,-3 3,0 0,3 -3,0 z m 0,-3 3,0 0,3 -3,0 z m 0,-3 3,0 0,3 -3,0 z m 0,-3 3,0 0,3 -3,0 z m 0,-3 3,0 0,3 -3,0 z m 0,-3 3,0 0,3 -3,0 z m 0,-3 3,0 0,3 -3,0 z m 0,-3 3,0 0,3 -3,0 z m 0,-3 3,0 0,3 -3,0 z m 0,-3 3,0 0,3 -3,0 z m 0,-3 3,0 0,3 -3,0 z m 0,-3 3,0 0,3 -3,0 z m 0,-3 3,0 0,3 -3,0 z m 0,-3 3,0 0,3 -3,0 z m 0,-3 3,0 0,3 -3,0 z m 0,-3 3,0 0,3 -3,0 z m 0,-3 3,0 0,3 -3,0 z m 0,-3 3,0 0,3 -3,0 z m 0,-3 3,0 0,3 -3,0 z m 0,-3 3,0 0,3 -3,0 z m 0,-3 3,0 0,3 -3,0 z m 0,-3 3,0 0,3 -3,0 z m 0,-3 3,0 0,3 -3,0 z" />
  <path
     id="rect4436"
     style="opacity:0.24705882;fill:#ffffff"
     d="m 111,183 3,0 0,3 -3,0 z m 0,-3 3,0 0,3 -3,0 z m 0,-3 3,0 0,3 -3,0 z m 0,-3 3,0 0,3 -3,0 z m 0,-3 3,0 0,3 -3,0 z m 0,-3 3,0 0,3 -3,0 z m 0,-3 3,0 0,3 -3,0 z m 0,-3 3,0 0,3 -3,0 z m 0,-3 3,0 0,3 -3,0 z m 0,-3 3,0 0,3 -3,0 z m 0,-3 3,0 0,3 -3,0 z m 0,-3 3,0 0,3 -3,0 z m 0,-3 3,0 0,3 -3,0 z m 0,-3 3,0 0,3 -3,0 z m 0,-3 3,0 0,3 -3,0 z m 0,-3 3,0 0,3 -3,0 z m 0,-3 3,0 0,3 -3,0 z m 0,-3 3,0 0,3 -3,0 z m 0,-3 3,0 0,3 -3,0 z m 0,-3 3,0 0,3 -3,0 z m 0,-3 3,0 0,3 -3,0 z m 0,-3 3,0 0,3 -3,0 z m 0,-3 3,0 0,3 -3,0 z m 0,-3 3,0 0,3 -3,0 z m 0,-3 3,0 0,3 -3,0 z m 0,-3 3,0 0,3 -3,0 z m 0,-3 3,0 0,3 -3,0 z m 0,-3 3,0 0,3 -3,0 z m 0,-3 3,0 0,3 -3,0 z m 0,-3 3,0 0,3 -3,0 z m 0,-3 3,0 0,3 -3,0 z m 0,-3 3,0 0,3 -3,0 z m 0,-3 3,0 0,3 -3,0 z m 0,-3 3,0 0,3 -3,0 z m 0,-3 3,0 0,3 -3,0 z m 0,-3 3,0 0,3 -3,0 z m 0,-3 3,0 0,3 -3,0 z m 0,-3 3,0 0,3 -3,0 z m 0,-3 3,0 0,3 -3,0 z m 0,-3 3,0 0,3 -3,0 z m 0,-3 3,0 0,3 -3,0 z m 0,-3 3,0 0,3 -3,0 z m 0,-3 3,0 0,3 -3,0 z m 0,-3 3,0 0,3 -3,0 z m 0,-3 3,0 0,3 -3,0 z m 0,-3 3,0 0,3 -3,0 z m 0,-3 3,0 0,3 -3,0 z m 0,-3 3,0 0,3 -3,0 z m 0,-3 3,0 0,3 -3,0 z m 0,-3 3,0 0,3 -3,0 z m 0,-3 3,0 0,3 -3,0 z m 0,-3 3,0 0,3 -3,0 z m 0,-3 3,0 0,3 -3,0 z m 0,-3 3,0 0,3 -3,0 z m 0,-3 3,0 0,3 -3,0 z m 0,-3 3,0 0,3 -3,0 z m 0,-3 3,0 0,3 -3,0 z m 0,-3 3,0 0,3 -3,0 z m 0,-3 3,0 0,3 -3,0 z m 0,-3 3,0 0,3 -3,0 z m 0,-3 3,0 0,3 -3,0 z m 0,-3 3,0 0,3 -3,0 z" />
  <path
     id="rect4438"
     style="opacity:0.23529412;fill:#ffffff"
     d="m 114,183 3,0 0,3 -3,0 z m 0,-3 3,0 0,3 -3,0 z m 0,-3 3,0 0,3 -3,0 z m 0,-3 3,0 0,3 -3,0 z m 0,-3 3,0 0,3 -3,0 z m 0,-3 3,0 0,3 -3,0 z m 0,-3 3,0 0,3 -3,0 z m 0,-3 3,0 0,3 -3,0 z m 0,-3 3,0 0,3 -3,0 z m 0,-3 3,0 0,3 -3,0 z m 0,-3 3,0 0,3 -3,0 z m 0,-3 3,0 0,3 -3,0 z m 0,-3 3,0 0,3 -3,0 z m 0,-3 3,0 0,3 -3,0 z m 0,-3 3,0 0,3 -3,0 z m 0,-3 3,0 0,3 -3,0 z m 0,-3 3,0 0,3 -3,0 z m 0,-3 3,0 0,3 -3,0 z m 0,-3 3,0 0,3 -3,0 z m 0,-3 3,0 0,3 -3,0 z m 0,-3 3,0 0,3 -3,0 z m 0,-3 3,0 0,3 -3,0 z m 0,-3 3,0 0,3 -3,0 z m 0,-3 3,0 0,3 -3,0 z m 0,-3 3,0 0,3 -3,0 z m 0,-3 3,0 0,3 -3,0 z m 0,-3 3,0 0,3 -3,0 z m 0,-3 3,0 0,3 -3,0 z m 0,-3 3,0 0,3 -3,0 z m 0,-3 3,0 0,3 -3,0 z m 0,-3 3,0 0,3 -3,0 z m 0,-3 3,0 0,3 -3,0 z m 0,-3 3,0 0,3 -3,0 z m 0,-3 3,0 0,3 -3,0 z m 0,-3 3,0 0,3 -3,0 z m 0,-3 3,0 0,3 -3,0 z m 0,-3 3,0 0,3 -3,0 z m 0,-3 3,0 0,3 -3,0 z m 0,-3 3,0 0,3 -3,0 z m 0,-3 3,0 0,3 -3,0 z m 0,-3 3,0 0,3 -3,0 z m 0,-3 3,0 0,3 -3,0 z m 0,-3 3,0 0,3 -3,0 z m 0,-3 3,0 0,3 -3,0 z m 0,-3 3,0 0,3 -3,0 z m 0,-3 3,0 0,3 -3,0 z m 0,-3 3,0 0,3 -3,0 z m 0,-3 3,0 0,3 -3,0 z m 0,-3 3,0 0,3 -3,0 z m 0,-3 3,0 0,3 -3,0 z m 0,-3 3,0 0,3 -3,0 z m 0,-3 3,0 0,3 -3,0 z m 0,-3 3,0 0,3 -3,0 z m 0,-3 3,0 0,3 -3,0 z m 0,-3 3,0 0,3 -3,0 z m 0,-3 3,0 0,3 -3,0 z m 0,-3 3,0 0,3 -3,0 z m 0,-3 3,0 0,3 -3,0 z m 0,-3 3,0 0,3 -3,0 z m 0,-3 3,0 0,3 -3,0 z m 0,-3 3,0 0,3 -3,0 z m 0,-3 3,0 0,3 -3,0 z" />
  <path
     id="rect4440"
     style="opacity:0.22352941;fill:#ffffff"
     d="m 117,183 3,0 0,3 -3,0 z m 0,-3 3,0 0,3 -3,0 z m 0,-3 3,0 0,3 -3,0 z m 0,-3 3,0 0,3 -3,0 z m 0,-3 3,0 0,3 -3,0 z m 0,-3 3,0 0,3 -3,0 z m 0,-3 3,0 0,3 -3,0 z m 0,-3 3,0 0,3 -3,0 z m 0,-3 3,0 0,3 -3,0 z m 0,-3 3,0 0,3 -3,0 z m 0,-3 3,0 0,3 -3,0 z m 0,-3 3,0 0,3 -3,0 z m 0,-3 3,0 0,3 -3,0 z m 0,-3 3,0 0,3 -3,0 z m 0,-3 3,0 0,3 -3,0 z m 0,-3 3,0 0,3 -3,0 z m 0,-3 3,0 0,3 -3,0 z m 0,-3 3,0 0,3 -3,0 z m 0,-3 3,0 0,3 -3,0 z m 0,-3 3,0 0,3 -3,0 z m 0,-3 3,0 0,3 -3,0 z m 0,-3 3,0 0,3 -3,0 z m 0,-3 3,0 0,3 -3,0 z m 0,-3 3,0 0,3 -3,0 z m 0,-3 3,0 0,3 -3,0 z m 0,-3 3,0 0,3 -3,0 z m 0,-3 3,0 0,3 -3,0 z m 0,-3 3,0 0,3 -3,0 z m 0,-3 3,0 0,3 -3,0 z m 0,-3 3,0 0,3 -3,0 z m 0,-3 3,0 0,3 -3,0 z m 0,-3 3,0 0,3 -3,0 z m 0,-3 3,0 0,3 -3,0 z m 0,-3 3,0 0,3 -3,0 z m 0,-3 3,0 0,3 -3,0 z m 0,-3 3,0 0,3 -3,0 z m 0,-3 3,0 0,3 -3,0 z m 0,-3 3,0 0,3 -3,0 z m 0,-3 3,0 0,3 -3,0 z m 0,-3 3,0 0,3 -3,0 z m 0,-3 3,0 0,3 -3,0 z m 0,-3 3,0 0,3 -3,0 z m 0,-3 3,0 0,3 -3,0 z m 0,-3 3,0 0,3 -3,0 z m 0,-3 3,0 0,3 -3,0 z m 0,-3 3,0 0,3 -3,0 z m 0,-3 3,0 0,3 -3,0 z m 0,-3 3,0 0,3 -3,0 z m 0,-3 3,0 0,3 -3,0 z m 0,-3 3,0 0,3 -3,0 z m 0,-3 3,0 0,3 -3,0 z m 0,-3 3,0 0,3 -3,0 z m 0,-3 3,0 0,3 -3,0 z m 0,-3 3,0 0,3 -3,0 z m 0,-3 3,0 0,3 -3,0 z m 0,-3 3,0 0,3 -3,0 z m 0,-3 3,0 0,3 -3,0 z m 0,-3 3,0 0,3 -3,0 z m 0,-3 3,0 0,3 -3,0 z m 0,-3 3,0 0,3 -3,0 z m 0,-3 3,0 0,3 -3,0 z m 0,-3 3,0 0,3 -3,0 z" />
  <path
     id="rect4442"
     style="opacity:0.20784314;fill:#ffffff"
     d="m 120,183 3,0 0,3 -3,0 z m 0,-3 3,0 0,3 -3,0 z m 0,-3 3,0 0,3 -3,0 z m 0,-3 3,0 0,3 -3,0 z m 0,-3 3,0 0,3 -3,0 z m 0,-3 3,0 0,3 -3,0 z m 0,-3 3,0 0,3 -3,0 z m 0,-3 3,0 0,3 -3,0 z m 0,-3 3,0 0,3 -3,0 z m 0,-3 3,0 0,3 -3,0 z m 0,-3 3,0 0,3 -3,0 z m 0,-3 3,0 0,3 -3,0 z m 0,-3 3,0 0,3 -3,0 z m 0,-3 3,0 0,3 -3,0 z m 0,-3 3,0 0,3 -3,0 z m 0,-3 3,0 0,3 -3,0 z m 0,-3 3,0 0,3 -3,0 z m 0,-3 3,0 0,3 -3,0 z m 0,-3 3,0 0,3 -3,0 z m 0,-3 3,0 0,3 -3,0 z m 0,-3 3,0 0,3 -3,0 z m 0,-3 3,0 0,3 -3,0 z m 0,-3 3,0 0,3 -3,0 z m 0,-3 3,0 0,3 -3,0 z m 0,-3 3,0 0,3 -3,0 z m 0,-3 3,0 0,3 -3,0 z m 0,-3 3,0 0,3 -3,0 z m 0,-3 3,0 0,3 -3,0 z m 0,-3 3,0 0,3 -3,0 z m 0,-3 3,0 0,3 -3,0 z m 0,-3 3,0 0,3 -3,0 z m 0,-3 3,0 0,3 -3,0 z m 0,-3 3,0 0,3 -3,0 z m 0,-3 3,0 0,3 -3,0 z m 0,-3 3,0 0,3 -3,0 z m 0,-3 3,0 0,3 -3,0 z m 0,-3 3,0 0,3 -3,0 z m 0,-3 3,0 0,3 -3,0 z m 0,-3 3,0 0,3 -3,0 z m 0,-3 3,0 0,3 -3,0 z m 0,-3 3,0 0,3 -3,0 z m 0,-3 3,0 0,3 -3,0 z m 0,-3 3,0 0,3 -3,0 z m 0,-3 3,0 0,3 -3,0 z m 0,-3 3,0 0,3 -3,0 z m 0,-3 3,0 0,3 -3,0 z m 0,-3 3,0 0,3 -3,0 z m 0,-3 3,0 0,3 -3,0 z m 0,-3 3,0 0,3 -3,0 z m 0,-3 3,0 0,3 -3,0 z m 0,-3 3,0 0,3 -3,0 z m 0,-3 3,0 0,3 -3,0 z m 0,-3 3,0 0,3 -3,0 z m 0,-3 3,0 0,3 -3,0 z m 0,-3 3,0 0,3 -3,0 z m 0,-3 3,0 0,3 -3,0 z m 0,-3 3,0 0,3 -3,0 z m 0,-3 3,0 0,3 -3,0 z m 0,-3 3,0 0,3 -3,0 z m 0,-3 3,0 0,3 -3,0 z m 0,-3 3,0 0,3 -3,0 z m 0,-3 3,0 0,3 -3,0 z" />
  <path
     id="rect4444"
     style="opacity:0.19215686;fill:#ffffff"
     d="m 123,183 3,0 0,3 -3,0 z m 0,-3 3,0 0,3 -3,0 z m 0,-3 3,0 0,3 -3,0 z m 0,-3 3,0 0,3 -3,0 z m 0,-3 3,0 0,3 -3,0 z m 0,-3 3,0 0,3 -3,0 z m 0,-3 3,0 0,3 -3,0 z m 0,-3 3,0 0,3 -3,0 z m 0,-3 3,0 0,3 -3,0 z m 0,-3 3,0 0,3 -3,0 z m 0,-3 3,0 0,3 -3,0 z m 0,-3 3,0 0,3 -3,0 z m 0,-3 3,0 0,3 -3,0 z m 0,-3 3,0 0,3 -3,0 z m 0,-3 3,0 0,3 -3,0 z m 0,-3 3,0 0,3 -3,0 z m 0,-3 3,0 0,3 -3,0 z m 0,-3 3,0 0,3 -3,0 z m 0,-3 3,0 0,3 -3,0 z m 0,-3 3,0 0,3 -3,0 z m 0,-3 3,0 0,3 -3,0 z m 0,-3 3,0 0,3 -3,0 z m 0,-3 3,0 0,3 -3,0 z m 0,-3 3,0 0,3 -3,0 z m 0,-3 3,0 0,3 -3,0 z m 0,-3 3,0 0,3 -3,0 z m 0,-3 3,0 0,3 -3,0 z m 0,-3 3,0 0,3 -3,0 z m 0,-3 3,0 0,3 -3,0 z m 0,-3 3,0 0,3 -3,0 z m 0,-3 3,0 0,3 -3,0 z m 0,-3 3,0 0,3 -3,0 z m 0,-3 3,0 0,3 -3,0 z m 0,-3 3,0 0,3 -3,0 z m 0,-3 3,0 0,3 -3,0 z m 0,-3 3,0 0,3 -3,0 z m 0,-3 3,0 0,3 -3,0 z m 0,-3 3,0 0,3 -3,0 z m 0,-3 3,0 0,3 -3,0 z m 0,-3 3,0 0,3 -3,0 z m 0,-3 3,0 0,3 -3,0 z m 0,-3 3,0 0,3 -3,0 z m 0,-3 3,0 0,3 -3,0 z m 0,-3 3,0 0,3 -3,0 z m 0,-3 3,0 0,3 -3,0 z m 0,-3 3,0 0,3 -3,0 z m 0,-3 3,0 0,3 -3,0 z m 0,-3 3,0 0,3 -3,0 z m 0,-3 3,0 0,3 -3,0 z m 0,-3 3,0 0,3 -3,0 z m 0,-3 3,0 0,3 -3,0 z m 0,-3 3,0 0,3 -3,0 z m 0,-3 3,0 0,3 -3,0 z m 0,-3 3,0 0,3 -3,0 z m 0,-3 3,0 0,3 -3,0 z m 0,-3 3,0 0,3 -3,0 z m 0,-3 3,0 0,3 -3,0 z m 0,-3 3,0 0,3 -3,0 z m 0,-3 3,0 0,3 -3,0 z m 0,-3 3,0 0,3 -3,0 z m 0,-3 3,0 0,3 -3,0 z m 0,-3 3,0 0,3 -3,0 z" />
  <path
     id="rect4446"
     style="opacity:0.18039216;fill:#ffffff"
     d="m 126,183 3,0 0,3 -3,0 z m 0,-3 3,0 0,3 -3,0 z m 0,-3 3,0 0,3 -3,0 z m 0,-3 3,0 0,3 -3,0 z m 0,-3 3,0 0,3 -3,0 z m 0,-3 3,0 0,3 -3,0 z m 0,-3 3,0 0,3 -3,0 z m 0,-3 3,0 0,3 -3,0 z m 0,-3 3,0 0,3 -3,0 z m 0,-3 3,0 0,3 -3,0 z m 0,-3 3,0 0,3 -3,0 z m 0,-3 3,0 0,3 -3,0 z m 0,-3 3,0 0,3 -3,0 z m 0,-3 3,0 0,3 -3,0 z m 0,-3 3,0 0,3 -3,0 z m 0,-3 3,0 0,3 -3,0 z m 0,-3 3,0 0,3 -3,0 z m 0,-3 3,0 0,3 -3,0 z m 0,-3 3,0 0,3 -3,0 z m 0,-3 3,0 0,3 -3,0 z m 0,-3 3,0 0,3 -3,0 z m 0,-3 3,0 0,3 -3,0 z m 0,-3 3,0 0,3 -3,0 z m 0,-3 3,0 0,3 -3,0 z m 0,-3 3,0 0,3 -3,0 z m 0,-3 3,0 0,3 -3,0 z m 0,-3 3,0 0,3 -3,0 z m 0,-3 3,0 0,3 -3,0 z m 0,-3 3,0 0,3 -3,0 z m 0,-3 3,0 0,3 -3,0 z m 0,-3 3,0 0,3 -3,0 z m 0,-3 3,0 0,3 -3,0 z m 0,-3 3,0 0,3 -3,0 z m 0,-3 3,0 0,3 -3,0 z m 0,-3 3,0 0,3 -3,0 z m 0,-3 3,0 0,3 -3,0 z m 0,-3 3,0 0,3 -3,0 z m 0,-3 3,0 0,3 -3,0 z m 0,-3 3,0 0,3 -3,0 z m 0,-3 3,0 0,3 -3,0 z m 0,-3 3,0 0,3 -3,0 z m 0,-3 3,0 0,3 -3,0 z m 0,-3 3,0 0,3 -3,0 z m 0,-3 3,0 0,3 -3,0 z m 0,-3 3,0 0,3 -3,0 z m 0,-3 3,0 0,3 -3,0 z m 0,-3 3,0 0,3 -3,0 z m 0,-3 3,0 0,3 -3,0 z m 0,-3 3,0 0,3 -3,0 z m 0,-3 3,0 0,3 -3,0 z m 0,-3 3,0 0,3 -3,0 z m 0,-3 3,0 0,3 -3,0 z m 0,-3 3,0 0,3 -3,0 z m 0,-3 3,0 0,3 -3,0 z m 0,-3 3,0 0,3 -3,0 z m 0,-3 3,0 0,3 -3,0 z m 0,-3 3,0 0,3 -3,0 z m 0,-3 3,0 0,3 -3,0 z m 0,-3 3,0 0,3 -3,0 z m 0,-3 3,0 0,3 -3,0 z m 0,-3 3,0 0,3 -3,0 z m 0,-3 3,0 0,3 -3,0 z" />
  <path
     id="rect4448"
     style="opacity:0.16078431;fill:#ffffff"
     d="m 129,183 3,0 0,3 -3,0 z m 0,-3 3,0 0,3 -3,0 z m 0,-3 3,0 0,3 -3,0 z m 0,-3 3,0 0,3 -3,0 z m 0,-3 3,0 0,3 -3,0 z m 0,-3 3,0 0,3 -3,0 z m 0,-3 3,0 0,3 -3,0 z m 0,-3 3,0 0,3 -3,0 z m 0,-3 3,0 0,3 -3,0 z m 0,-3 3,0 0,3 -3,0 z m 0,-3 3,0 0,3 -3,0 z m 0,-3 3,0 0,3 -3,0 z m 0,-3 3,0 0,3 -3,0 z m 0,-3 3,0 0,3 -3,0 z m 0,-3 3,0 0,3 -3,0 z m 0,-3 3,0 0,3 -3,0 z m 0,-3 3,0 0,3 -3,0 z m 0,-3 3,0 0,3 -3,0 z m 0,-3 3,0 0,3 -3,0 z m 0,-3 3,0 0,3 -3,0 z m 0,-3 3,0 0,3 -3,0 z m 0,-3 3,0 0,3 -3,0 z m 0,-3 3,0 0,3 -3,0 z m 0,-3 3,0 0,3 -3,0 z m 0,-3 3,0 0,3 -3,0 z m 0,-3 3,0 0,3 -3,0 z m 0,-3 3,0 0,3 -3,0 z m 0,-3 3,0 0,3 -3,0 z m 0,-3 3,0 0,3 -3,0 z m 0,-3 3,0 0,3 -3,0 z m 0,-3 3,0 0,3 -3,0 z m 0,-3 3,0 0,3 -3,0 z m 0,-3 3,0 0,3 -3,0 z m 0,-3 3,0 0,3 -3,0 z m 0,-3 3,0 0,3 -3,0 z m 0,-3 3,0 0,3 -3,0 z m 0,-3 3,0 0,3 -3,0 z m 0,-3 3,0 0,3 -3,0 z m 0,-3 3,0 0,3 -3,0 z m 0,-3 3,0 0,3 -3,0 z m 0,-3 3,0 0,3 -3,0 z m 0,-3 3,0 0,3 -3,0 z m 0,-3 3,0 0,3 -3,0 z m 0,-3 3,0 0,3 -3,0 z m 0,-3 3,0 0,3 -3,0 z m 0,-3 3,0 0,3 -3,0 z m 0,-3 3,0 0,3 -3,0 z m 0,-3 3,0 0,3 -3,0 z m 0,-3 3,0 0,3 -3,0 z m 0,-3 3,0 0,3 -3,0 z m 0,-3 3,0 0,3 -3,0 z m 0,-3 3,0 0,3 -3,0 z m 0,-3 3,0 0,3 -3,0 z m 0,-3 3,0 0,3 -3,0 z m 0,-3 3,0 0,3 -3,0 z m 0,-3 3,0 0,3 -3,0 z m 0,-3 3,0 0,3 -3,0 z m 0,-3 3,0 0,3 -3,0 z m 0,-3 3,0 0,3 -3,0 z m 0,-3 3,0 0,3 -3,0 z m 0,-3 3,0 0,3 -3,0 z m 0,-3 3,0 0,3 -3,0 z" />
  <path
     id="rect4450"
     style="opacity:0.14509804;fill:#ffffff"
     d="m 132,183 3,0 0,3 -3,0 z m 0,-3 3,0 0,3 -3,0 z m 0,-3 3,0 0,3 -3,0 z m 0,-3 3,0 0,3 -3,0 z m 0,-3 3,0 0,3 -3,0 z m 0,-3 3,0 0,3 -3,0 z m 0,-3 3,0 0,3 -3,0 z m 0,-3 3,0 0,3 -3,0 z m 0,-3 3,0 0,3 -3,0 z m 0,-3 3,0 0,3 -3,0 z m 0,-3 3,0 0,3 -3,0 z m 0,-3 3,0 0,3 -3,0 z m 0,-3 3,0 0,3 -3,0 z m 0,-3 3,0 0,3 -3,0 z m 0,-3 3,0 0,3 -3,0 z m 0,-3 3,0 0,3 -3,0 z m 0,-3 3,0 0,3 -3,0 z m 0,-3 3,0 0,3 -3,0 z m 0,-3 3,0 0,3 -3,0 z m 0,-3 3,0 0,3 -3,0 z m 0,-3 3,0 0,3 -3,0 z m 0,-3 3,0 0,3 -3,0 z m 0,-3 3,0 0,3 -3,0 z m 0,-3 3,0 0,3 -3,0 z m 0,-3 3,0 0,3 -3,0 z m 0,-3 3,0 0,3 -3,0 z m 0,-3 3,0 0,3 -3,0 z m 0,-3 3,0 0,3 -3,0 z m 0,-3 3,0 0,3 -3,0 z m 0,-3 3,0 0,3 -3,0 z m 0,-3 3,0 0,3 -3,0 z m 0,-3 3,0 0,3 -3,0 z m 0,-3 3,0 0,3 -3,0 z m 0,-3 3,0 0,3 -3,0 z m 0,-3 3,0 0,3 -3,0 z m 0,-3 3,0 0,3 -3,0 z m 0,-3 3,0 0,3 -3,0 z m 0,-3 3,0 0,3 -3,0 z m 0,-3 3,0 0,3 -3,0 z m 0,-3 3,0 0,3 -3,0 z m 0,-3 3,0 0,3 -3,0 z m 0,-3 3,0 0,3 -3,0 z m 0,-3 3,0 0,3 -3,0 z m 0,-3 3,0 0,3 -3,0 z m 0,-3 3,0 0,3 -3,0 z m 0,-3 3,0 0,3 -3,0 z m 0,-3 3,0 0,3 -3,0 z m 0,-3 3,0 0,3 -3,0 z m 0,-3 3,0 0,3 -3,0 z m 0,-3 3,0 0,3 -3,0 z m 0,-3 3,0 0,3 -3,0 z m 0,-3 3,0 0,3 -3,0 z m 0,-3 3,0 0,3 -3,0 z m 0,-3 3,0 0,3 -3,0 z m 0,-3 3,0 0,3 -3,0 z m 0,-3 3,0 0,3 -3,0 z m 0,-3 3,0 0,3 -3,0 z m 0,-3 3,0 0,3 -3,0 z m 0,-3 3,0 0,3 -3,0 z m 0,-3 3,0 0,3 -3,0 z m 0,-3 3,0 0,3 -3,0 z m 0,-3 3,0 0,3 -3,0 z" />
  <path
     id="rect4452"
     style="opacity:0.1254902;fill:#ffffff"
     d="m 135,183 3,0 0,3 -3,0 z m 0,-3 3,0 0,3 -3,0 z m 0,-3 3,0 0,3 -3,0 z m 0,-3 3,0 0,3 -3,0 z m 0,-3 3,0 0,3 -3,0 z m 0,-3 3,0 0,3 -3,0 z m 0,-3 3,0 0,3 -3,0 z m 0,-3 3,0 0,3 -3,0 z m 0,-3 3,0 0,3 -3,0 z m 0,-3 3,0 0,3 -3,0 z m 0,-3 3,0 0,3 -3,0 z m 0,-3 3,0 0,3 -3,0 z m 0,-3 3,0 0,3 -3,0 z m 0,-3 3,0 0,3 -3,0 z m 0,-3 3,0 0,3 -3,0 z m 0,-3 3,0 0,3 -3,0 z m 0,-3 3,0 0,3 -3,0 z m 0,-3 3,0 0,3 -3,0 z m 0,-3 3,0 0,3 -3,0 z m 0,-3 3,0 0,3 -3,0 z m 0,-3 3,0 0,3 -3,0 z m 0,-3 3,0 0,3 -3,0 z m 0,-3 3,0 0,3 -3,0 z m 0,-3 3,0 0,3 -3,0 z m 0,-3 3,0 0,3 -3,0 z m 0,-3 3,0 0,3 -3,0 z m 0,-3 3,0 0,3 -3,0 z m 0,-3 3,0 0,3 -3,0 z m 0,-3 3,0 0,3 -3,0 z m 0,-3 3,0 0,3 -3,0 z m 0,-3 3,0 0,3 -3,0 z m 0,-3 3,0 0,3 -3,0 z m 0,-3 3,0 0,3 -3,0 z m 0,-3 3,0 0,3 -3,0 z m 0,-3 3,0 0,3 -3,0 z m 0,-3 3,0 0,3 -3,0 z m 0,-3 3,0 0,3 -3,0 z m 0,-3 3,0 0,3 -3,0 z m 0,-3 3,0 0,3 -3,0 z m 0,-3 3,0 0,3 -3,0 z m 0,-3 3,0 0,3 -3,0 z m 0,-3 3,0 0,3 -3,0 z m 0,-3 3,0 0,3 -3,0 z m 0,-3 3,0 0,3 -3,0 z m 0,-3 3,0 0,3 -3,0 z m 0,-3 3,0 0,3 -3,0 z m 0,-3 3,0 0,3 -3,0 z m 0,-3 3,0 0,3 -3,0 z m 0,-3 3,0 0,3 -3,0 z m 0,-3 3,0 0,3 -3,0 z m 0,-3 3,0 0,3 -3,0 z m 0,-3 3,0 0,3 -3,0 z m 0,-3 3,0 0,3 -3,0 z m 0,-3 3,0 0,3 -3,0 z m 0,-3 3,0 0,3 -3,0 z m 0,-3 3,0 0,3 -3,0 z m 0,-3 3,0 0,3 -3,0 z m 0,-3 3,0 0,3 -3,0 z m 0,-3 3,0 0,3 -3,0 z m 0,-3 3,0 0,3 -3,0 z m 0,-3 3,0 0,3 -3,0 z m 0,-3 3,0 0,3 -3,0 z" />
  <path
     id="rect4454"
     style="opacity:0.10196078;fill:#ffffff"
     d="m 138,183 3,0 0,3 -3,0 z m 0,-3 3,0 0,3 -3,0 z m 0,-3 3,0 0,3 -3,0 z m 0,-3 3,0 0,3 -3,0 z m 0,-3 3,0 0,3 -3,0 z m 0,-3 3,0 0,3 -3,0 z m 0,-3 3,0 0,3 -3,0 z m 0,-3 3,0 0,3 -3,0 z m 0,-3 3,0 0,3 -3,0 z m 0,-3 3,0 0,3 -3,0 z m 0,-3 3,0 0,3 -3,0 z m 0,-3 3,0 0,3 -3,0 z m 0,-3 3,0 0,3 -3,0 z m 0,-3 3,0 0,3 -3,0 z m 0,-3 3,0 0,3 -3,0 z m 0,-3 3,0 0,3 -3,0 z m 0,-3 3,0 0,3 -3,0 z m 0,-3 3,0 0,3 -3,0 z m 0,-3 3,0 0,3 -3,0 z m 0,-3 3,0 0,3 -3,0 z m 0,-3 3,0 0,3 -3,0 z m 0,-3 3,0 0,3 -3,0 z m 0,-3 3,0 0,3 -3,0 z m 0,-3 3,0 0,3 -3,0 z m 0,-3 3,0 0,3 -3,0 z m 0,-3 3,0 0,3 -3,0 z m 0,-3 3,0 0,3 -3,0 z m 0,-3 3,0 0,3 -3,0 z m 0,-3 3,0 0,3 -3,0 z m 0,-3 3,0 0,3 -3,0 z m 0,-3 3,0 0,3 -3,0 z m 0,-3 3,0 0,3 -3,0 z m 0,-3 3,0 0,3 -3,0 z m 0,-3 3,0 0,3 -3,0 z m 0,-3 3,0 0,3 -3,0 z m 0,-3 3,0 0,3 -3,0 z m 0,-3 3,0 0,3 -3,0 z m 0,-3 3,0 0,3 -3,0 z m 0,-3 3,0 0,3 -3,0 z m 0,-3 3,0 0,3 -3,0 z m 0,-3 3,0 0,3 -3,0 z m 0,-3 3,0 0,3 -3,0 z m 0,-3 3,0 0,3 -3,0 z m 0,-3 3,0 0,3 -3,0 z m 0,-3 3,0 0,3 -3,0 z m 0,-3 3,0 0,3 -3,0 z m 0,-3 3,0 0,3 -3,0 z m 0,-3 3,0 0,3 -3,0 z m 0,-3 3,0 0,3 -3,0 z m 0,-3 3,0 0,3 -3,0 z m 0,-3 3,0 0,3 -3,0 z m 0,-3 3,0 0,3 -3,0 z m 0,-3 3,0 0,3 -3,0 z m 0,-3 3,0 0,3 -3,0 z m 0,-3 3,0 0,3 -3,0 z m 0,-3 3,0 0,3 -3,0 z m 0,-3 3,0 0,3 -3,0 z m 0,-3 3,0 0,3 -3,0 z m 0,-3 3,0 0,3 -3,0 z m 0,-3 3,0 0,3 -3,0 z m 0,-3 3,0 0,3 -3,0 z m 0,-3 3,0 0,3 -3,0 z" />
  <path
     id="rect4456"
     style="opacity:0.08235294;fill:#ffffff"
     d="m 141,183 3,0 0,3 -3,0 z m 0,-3 3,0 0,3 -3,0 z m 0,-3 3,0 0,3 -3,0 z m 0,-3 3,0 0,3 -3,0 z m 0,-3 3,0 0,3 -3,0 z m 0,-3 3,0 0,3 -3,0 z m 0,-3 3,0 0,3 -3,0 z m 0,-3 3,0 0,3 -3,0 z m 0,-3 3,0 0,3 -3,0 z m 0,-3 3,0 0,3 -3,0 z m 0,-3 3,0 0,3 -3,0 z m 0,-3 3,0 0,3 -3,0 z m 0,-3 3,0 0,3 -3,0 z m 0,-3 3,0 0,3 -3,0 z m 0,-3 3,0 0,3 -3,0 z m 0,-3 3,0 0,3 -3,0 z m 0,-3 3,0 0,3 -3,0 z m 0,-3 3,0 0,3 -3,0 z m 0,-3 3,0 0,3 -3,0 z m 0,-3 3,0 0,3 -3,0 z m 0,-3 3,0 0,3 -3,0 z m 0,-3 3,0 0,3 -3,0 z m 0,-3 3,0 0,3 -3,0 z m 0,-3 3,0 0,3 -3,0 z m 0,-3 3,0 0,3 -3,0 z m 0,-3 3,0 0,3 -3,0 z m 0,-3 3,0 0,3 -3,0 z m 0,-3 3,0 0,3 -3,0 z m 0,-3 3,0 0,3 -3,0 z m 0,-3 3,0 0,3 -3,0 z m 0,-3 3,0 0,3 -3,0 z m 0,-3 3,0 0,3 -3,0 z m 0,-3 3,0 0,3 -3,0 z m 0,-3 3,0 0,3 -3,0 z m 0,-3 3,0 0,3 -3,0 z m 0,-3 3,0 0,3 -3,0 z m 0,-3 3,0 0,3 -3,0 z m 0,-3 3,0 0,3 -3,0 z m 0,-3 3,0 0,3 -3,0 z m 0,-3 3,0 0,3 -3,0 z m 0,-3 3,0 0,3 -3,0 z m 0,-3 3,0 0,3 -3,0 z m 0,-3 3,0 0,3 -3,0 z m 0,-3 3,0 0,3 -3,0 z m 0,-3 3,0 0,3 -3,0 z m 0,-3 3,0 0,3 -3,0 z m 0,-3 3,0 0,3 -3,0 z m 0,-3 3,0 0,3 -3,0 z m 0,-3 3,0 0,3 -3,0 z m 0,-3 3,0 0,3 -3,0 z m 0,-3 3,0 0,3 -3,0 z m 0,-3 3,0 0,3 -3,0 z m 0,-3 3,0 0,3 -3,0 z m 0,-3 3,0 0,3 -3,0 z m 0,-3 3,0 0,3 -3,0 z m 0,-3 3,0 0,3 -3,0 z m 0,-3 3,0 0,3 -3,0 z m 0,-3 3,0 0,3 -3,0 z m 0,-3 3,0 0,3 -3,0 z m 0,-3 3,0 0,3 -3,0 z m 0,-3 3,0 0,3 -3,0 z m 0,-3 3,0 0,3 -3,0 z" />
  <path
     id="rect4458"
     style="opacity:0.0627451;fill:#ffffff"
     d="m 144,183 3,0 0,3 -3,0 z m 0,-3 3,0 0,3 -3,0 z m 0,-3 3,0 0,3 -3,0 z m 0,-3 3,0 0,3 -3,0 z m 0,-3 3,0 0,3 -3,0 z m 0,-3 3,0 0,3 -3,0 z m 0,-3 3,0 0,3 -3,0 z m 0,-3 3,0 0,3 -3,0 z m 0,-3 3,0 0,3 -3,0 z m 0,-3 3,0 0,3 -3,0 z m 0,-3 3,0 0,3 -3,0 z m 0,-3 3,0 0,3 -3,0 z m 0,-3 3,0 0,3 -3,0 z m 0,-3 3,0 0,3 -3,0 z m 0,-3 3,0 0,3 -3,0 z m 0,-3 3,0 0,3 -3,0 z m 0,-3 3,0 0,3 -3,0 z m 0,-3 3,0 0,3 -3,0 z m 0,-3 3,0 0,3 -3,0 z m 0,-3 3,0 0,3 -3,0 z m 0,-3 3,0 0,3 -3,0 z m 0,-3 3,0 0,3 -3,0 z m 0,-3 3,0 0,3 -3,0 z m 0,-3 3,0 0,3 -3,0 z m 0,-3 3,0 0,3 -3,0 z m 0,-3 3,0 0,3 -3,0 z m 0,-3 3,0 0,3 -3,0 z m 0,-3 3,0 0,3 -3,0 z m 0,-3 3,0 0,3 -3,0 z m 0,-3 3,0 0,3 -3,0 z m 0,-3 3,0 0,3 -3,0 z m 0,-3 3,0 0,3 -3,0 z m 0,-3 3,0 0,3 -3,0 z m 0,-3 3,0 0,3 -3,0 z m 0,-3 3,0 0,3 -3,0 z m 0,-3 3,0 0,3 -3,0 z m 0,-3 3,0 0,3 -3,0 z m 0,-3 3,0 0,3 -3,0 z m 0,-3 3,0 0,3 -3,0 z m 0,-3 3,0 0,3 -3,0 z m 0,-3 3,0 0,3 -3,0 z m 0,-3 3,0 0,3 -3,0 z m 0,-3 3,0 0,3 -3,0 z m 0,-3 3,0 0,3 -3,0 z m 0,-3 3,0 0,3 -3,0 z m 0,-3 3,0 0,3 -3,0 z m 0,-3 3,0 0,3 -3,0 z m 0,-3 3,0 0,3 -3,0 z m 0,-3 3,0 0,3 -3,0 z m 0,-3 3,0 0,3 -3,0 z m 0,-3 3,0 0,3 -3,0 z m 0,-3 3,0 0,3 -3,0 z m 0,-3 3,0 0,3 -3,0 z m 0,-3 3,0 0,3 -3,0 z m 0,-3 3,0 0,3 -3,0 z m 0,-3 3,0 0,3 -3,0 z m 0,-3 3,0 0,3 -3,0 z m 0,-3 3,0 0,3 -3,0 z m 0,-3 3,0 0,3 -3,0 z m 0,-3 3,0 0,3 -3,0 z m 0,-3 3,0 0,3 -3,0 z m 0,-3 3,0 0,3 -3,0 z" />
  <path
     id="rect4460"
     style="opacity:0.05098039;fill:#ffffff"
     d="m 147,183 3,0 0,3 -3,0 z m 0,-3 3,0 0,3 -3,0 z m 0,-3 3,0 0,3 -3,0 z m 0,-3 3,0 0,3 -3,0 z m 0,-3 3,0 0,3 -3,0 z m 0,-3 3,0 0,3 -3,0 z m 0,-3 3,0 0,3 -3,0 z m 0,-3 3,0 0,3 -3,0 z m 0,-3 3,0 0,3 -3,0 z m 0,-3 3,0 0,3 -3,0 z m 0,-3 3,0 0,3 -3,0 z m 0,-3 3,0 0,3 -3,0 z m 0,-3 3,0 0,3 -3,0 z m 0,-3 3,0 0,3 -3,0 z m 0,-3 3,0 0,3 -3,0 z m 0,-3 3,0 0,3 -3,0 z m 0,-3 3,0 0,3 -3,0 z m 0,-3 3,0 0,3 -3,0 z m 0,-3 3,0 0,3 -3,0 z m 0,-3 3,0 0,3 -3,0 z m 0,-3 3,0 0,3 -3,0 z m 0,-3 3,0 0,3 -3,0 z m 0,-3 3,0 0,3 -3,0 z m 0,-3 3,0 0,3 -3,0 z m 0,-3 3,0 0,3 -3,0 z m 0,-3 3,0 0,3 -3,0 z m 0,-3 3,0 0,3 -3,0 z m 0,-3 3,0 0,3 -3,0 z m 0,-3 3,0 0,3 -3,0 z m 0,-3 3,0 0,3 -3,0 z m 0,-3 3,0 0,3 -3,0 z m 0,-3 3,0 0,3 -3,0 z m 0,-3 3,0 0,3 -3,0 z m 0,-3 3,0 0,3 -3,0 z m 0,-3 3,0 0,3 -3,0 z m 0,-3 3,0 0,3 -3,0 z m 0,-3 3,0 0,3 -3,0 z m 0,-3 3,0 0,3 -3,0 z m 0,-3 3,0 0,3 -3,0 z m 0,-3 3,0 0,3 -3,0 z m 0,-3 3,0 0,3 -3,0 z m 0,-3 3,0 0,3 -3,0 z m 0,-3 3,0 0,3 -3,0 z m 0,-3 3,0 0,3 -3,0 z m 0,-3 3,0 0,3 -3,0 z m 0,-3 3,0 0,3 -3,0 z m 0,-3 3,0 0,3 -3,0 z m 0,-3 3,0 0,3 -3,0 z m 0,-3 3,0 0,3 -3,0 z m 0,-3 3,0 0,3 -3,0 z m 0,-3 3,0 0,3 -3,0 z m 0,-3 3,0 0,3 -3,0 z m 0,-3 3,0 0,3 -3,0 z m 0,-3 3,0 0,3 -3,0 z m 0,-3 3,0 0,3 -3,0 z m 0,-3 3,0 0,3 -3,0 z m 0,-3 3,0 0,3 -3,0 z m 0,-3 3,0 0,3 -3,0 z m 0,-3 3,0 0,3 -3,0 z m 0,-3 3,0 0,3 -3,0 z m 0,-3 3,0 0,3 -3,0 z m 0,-3 3,0 0,3 -3,0 z" />
  <path
     id="rect4462"
     style="opacity:0.03921569;fill:#ffffff"
     d="m 150,183 3,0 0,3 -3,0 z m 0,-3 3,0 0,3 -3,0 z m 0,-3 3,0 0,3 -3,0 z m 0,-3 3,0 0,3 -3,0 z m 0,-3 3,0 0,3 -3,0 z m 0,-3 3,0 0,3 -3,0 z m 0,-3 3,0 0,3 -3,0 z m 0,-3 3,0 0,3 -3,0 z m 0,-3 3,0 0,3 -3,0 z m 0,-3 3,0 0,3 -3,0 z m 0,-3 3,0 0,3 -3,0 z m 0,-3 3,0 0,3 -3,0 z m 0,-3 3,0 0,3 -3,0 z m 0,-3 3,0 0,3 -3,0 z m 0,-3 3,0 0,3 -3,0 z m 0,-3 3,0 0,3 -3,0 z m 0,-3 3,0 0,3 -3,0 z m 0,-3 3,0 0,3 -3,0 z m 0,-3 3,0 0,3 -3,0 z m 0,-3 3,0 0,3 -3,0 z m 0,-3 3,0 0,3 -3,0 z m 0,-3 3,0 0,3 -3,0 z m 0,-3 3,0 0,3 -3,0 z m 0,-3 3,0 0,3 -3,0 z m 0,-3 3,0 0,3 -3,0 z m 0,-3 3,0 0,3 -3,0 z m 0,-3 3,0 0,3 -3,0 z m 0,-3 3,0 0,3 -3,0 z m 0,-3 3,0 0,3 -3,0 z m 0,-3 3,0 0,3 -3,0 z m 0,-3 3,0 0,3 -3,0 z m 0,-3 3,0 0,3 -3,0 z m 0,-3 3,0 0,3 -3,0 z m 0,-3 3,0 0,3 -3,0 z m 0,-3 3,0 0,3 -3,0 z m 0,-3 3,0 0,3 -3,0 z m 0,-3 3,0 0,3 -3,0 z m 0,-3 3,0 0,3 -3,0 z m 0,-3 3,0 0,3 -3,0 z m 0,-3 3,0 0,3 -3,0 z m 0,-3 3,0 0,3 -3,0 z m 0,-3 3,0 0,3 -3,0 z m 0,-3 3,0 0,3 -3,0 z m 0,-3 3,0 0,3 -3,0 z m 0,-3 3,0 0,3 -3,0 z m 0,-3 3,0 0,3 -3,0 z m 0,-3 3,0 0,3 -3,0 z m 0,-3 3,0 0,3 -3,0 z m 0,-3 3,0 0,3 -3,0 z m 0,-3 3,0 0,3 -3,0 z m 0,-3 3,0 0,3 -3,0 z m 0,-3 3,0 0,3 -3,0 z m 0,-3 3,0 0,3 -3,0 z m 0,-3 3,0 0,3 -3,0 z m 0,-3 3,0 0,3 -3,0 z m 0,-3 3,0 0,3 -3,0 z m 0,-3 3,0 0,3 -3,0 z m 0,-3 3,0 0,3 -3,0 z m 0,-3 3,0 0,3 -3,0 z m 0,-3 3,0 0,3 -3,0 z m 0,-3 3,0 0,3 -3,0 z m 0,-3 3,0 0,3 -3,0 z" />
  <path
     id="rect4464"
     style="opacity:0.02745098;fill:#ffffff"
     d="m 153,183 3,0 0,3 -3,0 z m 0,-3 3,0 0,3 -3,0 z m 0,-3 3,0 0,3 -3,0 z m 0,-3 3,0 0,3 -3,0 z m 0,-3 3,0 0,3 -3,0 z m 0,-3 3,0 0,3 -3,0 z m 0,-3 3,0 0,3 -3,0 z m 0,-3 3,0 0,3 -3,0 z m 0,-3 3,0 0,3 -3,0 z m 0,-3 3,0 0,3 -3,0 z m 0,-3 3,0 0,3 -3,0 z m 0,-3 3,0 0,3 -3,0 z m 0,-3 3,0 0,3 -3,0 z m 0,-3 3,0 0,3 -3,0 z m 0,-3 3,0 0,3 -3,0 z m 0,-3 3,0 0,3 -3,0 z m 0,-3 3,0 0,3 -3,0 z m 0,-3 3,0 0,3 -3,0 z m 0,-3 3,0 0,3 -3,0 z m 0,-3 3,0 0,3 -3,0 z m 0,-3 3,0 0,3 -3,0 z m 0,-3 3,0 0,3 -3,0 z m 0,-3 3,0 0,3 -3,0 z m 0,-3 3,0 0,3 -3,0 z m 0,-3 3,0 0,3 -3,0 z m 0,-3 3,0 0,3 -3,0 z m 0,-3 3,0 0,3 -3,0 z m 0,-3 3,0 0,3 -3,0 z m 0,-3 3,0 0,3 -3,0 z m 0,-3 3,0 0,3 -3,0 z m 0,-3 3,0 0,3 -3,0 z m 0,-3 3,0 0,3 -3,0 z m 0,-3 3,0 0,3 -3,0 z m 0,-3 3,0 0,3 -3,0 z m 0,-3 3,0 0,3 -3,0 z m 0,-3 3,0 0,3 -3,0 z m 0,-3 3,0 0,3 -3,0 z m 0,-3 3,0 0,3 -3,0 z m 0,-3 3,0 0,3 -3,0 z m 0,-3 3,0 0,3 -3,0 z m 0,-3 3,0 0,3 -3,0 z m 0,-3 3,0 0,3 -3,0 z m 0,-3 3,0 0,3 -3,0 z m 0,-3 3,0 0,3 -3,0 z m 0,-3 3,0 0,3 -3,0 z m 0,-3 3,0 0,3 -3,0 z m 0,-3 3,0 0,3 -3,0 z m 0,-3 3,0 0,3 -3,0 z m 0,-3 3,0 0,3 -3,0 z m 0,-3 3,0 0,3 -3,0 z m 0,-3 3,0 0,3 -3,0 z m 0,-3 3,0 0,3 -3,0 z m 0,-3 3,0 0,3 -3,0 z m 0,-3 3,0 0,3 -3,0 z m 0,-3 3,0 0,3 -3,0 z m 0,-3 3,0 0,3 -3,0 z m 0,-3 3,0 0,3 -3,0 z m 0,-3 3,0 0,3 -3,0 z m 0,-3 3,0 0,3 -3,0 z m 0,-3 3,0 0,3 -3,0 z m 0,-3 3,0 0,3 -3,0 z m 0,-3 3,0 0,3 -3,0 z" />
  <path
     id="rect4466"
     style="opacity:0.01568627;fill:#ffffff"
     d="m 156,183 3,0 0,3 -3,0 z m 0,-3 3,0 0,3 -3,0 z m 0,-3 3,0 0,3 -3,0 z m 0,-3 3,0 0,3 -3,0 z m 0,-3 3,0 0,3 -3,0 z m 0,-3 3,0 0,3 -3,0 z m 0,-3 3,0 0,3 -3,0 z m 0,-3 3,0 0,3 -3,0 z m 0,-3 3,0 0,3 -3,0 z m 0,-3 3,0 0,3 -3,0 z m 0,-3 3,0 0,3 -3,0 z m 0,-3 3,0 0,3 -3,0 z m 0,-3 3,0 0,3 -3,0 z m 0,-3 3,0 0,3 -3,0 z m 0,-3 3,0 0,3 -3,0 z m 0,-3 3,0 0,3 -3,0 z m 0,-3 3,0 0,3 -3,0 z m 0,-3 3,0 0,3 -3,0 z m 0,-3 3,0 0,3 -3,0 z m 0,-3 3,0 0,3 -3,0 z m 0,-3 3,0 0,3 -3,0 z m 0,-3 3,0 0,3 -3,0 z m 0,-3 3,0 0,3 -3,0 z m 0,-3 3,0 0,3 -3,0 z m 0,-3 3,0 0,3 -3,0 z m 0,-3 3,0 0,3 -3,0 z m 0,-3 3,0 0,3 -3,0 z m 0,-3 3,0 0,3 -3,0 z m 0,-3 3,0 0,3 -3,0 z m 0,-3 3,0 0,3 -3,0 z m 0,-3 3,0 0,3 -3,0 z m 0,-3 3,0 0,3 -3,0 z m 0,-3 3,0 0,3 -3,0 z m 0,-3 3,0 0,3 -3,0 z m 0,-3 3,0 0,3 -3,0 z m 0,-3 3,0 0,3 -3,0 z m 0,-3 3,0 0,3 -3,0 z m 0,-3 3,0 0,3 -3,0 z m 0,-3 3,0 0,3 -3,0 z m 0,-3 3,0 0,3 -3,0 z m 0,-3 3,0 0,3 -3,0 z m 0,-3 3,0 0,3 -3,0 z m 0,-3 3,0 0,3 -3,0 z m 0,-3 3,0 0,3 -3,0 z m 0,-3 3,0 0,3 -3,0 z m 0,-3 3,0 0,3 -3,0 z m 0,-3 3,0 0,3 -3,0 z m 0,-3 3,0 0,3 -3,0 z m 0,-3 3,0 0,3 -3,0 z m 0,-3 3,0 0,3 -3,0 z m 0,-3 3,0 0,3 -3,0 z m 0,-3 3,0 0,3 -3,0 z m 0,-3 3,0 0,3 -3,0 z m 0,-3 3,0 0,3 -3,0 z m 0,-3 3,0 0,3 -3,0 z m 0,-3 3,0 0,3 -3,0 z m 0,-3 3,0 0,3 -3,0 z m 0,-3 3,0 0,3 -3,0 z m 0,-3 3,0 0,3 -3,0 z m 0,-3 3,0 0,3 -3,0 z m 0,-3 3,0 0,3 -3,0 z m 0,-3 3,0 0,3 -3,0 z" />
  <path
     id="rect4468"
     style="opacity:0.00392157;fill:#ffffff"
     d="m 159,183 3,0 0,3 -3,0 z m 0,-3 3,0 0,3 -3,0 z m 0,-3 3,0 0,3 -3,0 z m 0,-3 3,0 0,3 -3,0 z m 0,-3 3,0 0,3 -3,0 z m 0,-3 3,0 0,3 -3,0 z m 0,-3 3,0 0,3 -3,0 z m 0,-3 3,0 0,3 -3,0 z m 0,-3 3,0 0,3 -3,0 z m 0,-3 3,0 0,3 -3,0 z m 0,-3 3,0 0,3 -3,0 z m 0,-3 3,0 0,3 -3,0 z m 0,-3 3,0 0,3 -3,0 z m 0,-3 3,0 0,3 -3,0 z m 0,-3 3,0 0,3 -3,0 z m 0,-3 3,0 0,3 -3,0 z m 0,-3 3,0 0,3 -3,0 z m 0,-3 3,0 0,3 -3,0 z m 0,-3 3,0 0,3 -3,0 z m 0,-3 3,0 0,3 -3,0 z m 0,-3 3,0 0,3 -3,0 z m 0,-3 3,0 0,3 -3,0 z m 0,-3 3,0 0,3 -3,0 z m 0,-3 3,0 0,3 -3,0 z m 0,-3 3,0 0,3 -3,0 z m 0,-3 3,0 0,3 -3,0 z m 0,-3 3,0 0,3 -3,0 z m 0,-3 3,0 0,3 -3,0 z m 0,-3 3,0 0,3 -3,0 z m 0,-3 3,0 0,3 -3,0 z m 0,-3 3,0 0,3 -3,0 z m 0,-3 3,0 0,3 -3,0 z m 0,-3 3,0 0,3 -3,0 z m 0,-3 3,0 0,3 -3,0 z m 0,-3 3,0 0,3 -3,0 z m 0,-3 3,0 0,3 -3,0 z m 0,-3 3,0 0,3 -3,0 z m 0,-3 3,0 0,3 -3,0 z m 0,-3 3,0 0,3 -3,0 z m 0,-3 3,0 0,3 -3,0 z m 0,-3 3,0 0,3 -3,0 z m 0,-3 3,0 0,3 -3,0 z m 0,-3 3,0 0,3 -3,0 z m 0,-3 3,0 0,3 -3,0 z m 0,-3 3,0 0,3 -3,0 z m 0,-3 3,0 0,3 -3,0 z m 0,-3 3,0 0,3 -3,0 z m 0,-3 3,0 0,3 -3,0 z m 0,-3 3,0 0,3 -3,0 z m 0,-3 3,0 0,3 -3,0 z m 0,-3 3,0 0,3 -3,0 z m 0,-3 3,0 0,3 -3,0 z m 0,-3 3,0 0,3 -3,0 z m 0,-3 3,0 0,3 -3,0 z m 0,-3 3,0 0,3 -3,0 z m 0,-3 3,0 0,3 -3,0 z m 0,-3 3,0 0,3 -3,0 z m 0,-3 3,0 0,3 -3,0 z m 0,-3 3,0 0,3 -3,0 z m 0,-3 3,0 0,3 -3,0 z m 0,-3 3,0 0,3 -3,0 z m 0,-3 3,0 0,3 -3,0 z" />
</svg>
