<?xml version="1.0" encoding="UTF-8" standalone="no"?>
<svg
   xmlns:dc="http://purl.org/dc/elements/1.1/"
   xmlns:cc="http://creativecommons.org/ns#"
   xmlns:rdf="http://www.w3.org/1999/02/22-rdf-syntax-ns#"
   xmlns:svg="http://www.w3.org/2000/svg"
   xmlns="http://www.w3.org/2000/svg"
   xmlns:sodipodi="http://sodipodi.sourceforge.net/DTD/sodipodi-0.dtd"
   xmlns:inkscape="http://www.inkscape.org/namespaces/inkscape"
   height="186px"
   version="1.1"
   width="165px"
   id="svg2"
   inkscape:version="0.91 r13725"
   sodipodi:docname="inner.svg">
  <metadata
     id="metadata1812">
    <rdf:RDF>
      <cc:Work
         rdf:about="">
        <dc:format>image/svg+xml</dc:format>
        <dc:type
           rdf:resource="http://purl.org/dc/dcmitype/StillImage" />
      </cc:Work>
    </rdf:RDF>
  </metadata>
  <sodipodi:namedview
     pagecolor="#ffffff"
     bordercolor="#666666"
     borderopacity="1"
     objecttolerance="10"
     gridtolerance="10"
     guidetolerance="10"
     inkscape:pageopacity="0"
     inkscape:pageshadow="2"
     inkscape:window-width="640"
     inkscape:window-height="480"
     id="namedview1810"
     showgrid="false"
     inkscape:zoom="1.2688172"
     inkscape:cx="82.5"
     inkscape:cy="93"
     inkscape:window-x="2305"
     inkscape:window-y="51"
     inkscape:window-maximized="0"
     inkscape:current-layer="svg2" />
  <defs
     id="defs4" />
  <path
     id="rect1430"
     style="fill:#000000"
     d="m 126,114 3,0 0,3 -3,0 z m -3,0 3,0 0,3 -3,0 z m -3,0 3,0 0,3 -3,0 z m -3,0 3,0 0,3 -3,0 z m -3,0 3,0 0,3 -3,0 z m -3,0 3,0 0,3 -3,0 z m -3,0 3,0 0,3 -3,0 z m -3,0 3,0 0,3 -3,0 z m -3,0 3,0 0,3 -3,0 z m -3,0 3,0 0,3 -3,0 z m -3,0 3,0 0,3 -3,0 z m -3,0 3,0 0,3 -3,0 z m -3,0 3,0 0,3 -3,0 z m -3,0 3,0 0,3 -3,0 z m -3,0 3,0 0,3 -3,0 z m -3,0 3,0 0,3 -3,0 z m -3,0 3,0 0,3 -3,0 z m -3,0 3,0 0,3 -3,0 z m -3,0 3,0 0,3 -3,0 z m -3,0 3,0 0,3 -3,0 z m -3,0 3,0 0,3 -3,0 z m -3,0 3,0 0,3 -3,0 z m -3,0 3,0 0,3 -3,0 z m -3,0 3,0 0,3 -3,0 z m -3,0 3,0 0,3 -3,0 z m -3,0 3,0 0,3 -3,0 z m -3,0 3,0 0,3 -3,0 z m -3,0 3,0 0,3 -3,0 z m -3,0 3,0 0,3 -3,0 z m -3,0 3,0 0,3 -3,0 z m -3,0 3,0 0,3 -3,0 z m 90,-3 3,0 0,3 -3,0 z m -3,0 3,0 0,3 -3,0 z m -3,0 3,0 0,3 -3,0 z m -3,0 3,0 0,3 -3,0 z m -3,0 3,0 0,3 -3,0 z m -3,0 3,0 0,3 -3,0 z m -3,0 3,0 0,3 -3,0 z m -3,0 3,0 0,3 -3,0 z m -3,0 3,0 0,3 -3,0 z m -3,0 3,0 0,3 -3,0 z m -3,0 3,0 0,3 -3,0 z m -3,0 3,0 0,3 -3,0 z m -3,0 3,0 0,3 -3,0 z m -3,0 3,0 0,3 -3,0 z m -3,0 3,0 0,3 -3,0 z m -3,0 3,0 0,3 -3,0 z m -3,0 3,0 0,3 -3,0 z m -3,0 3,0 0,3 -3,0 z m -3,0 3,0 0,3 -3,0 z m -3,0 3,0 0,3 -3,0 z m -3,0 3,0 0,3 -3,0 z m -3,0 3,0 0,3 -3,0 z m -3,0 3,0 0,3 -3,0 z m -3,0 3,0 0,3 -3,0 z m -3,0 3,0 0,3 -3,0 z m -3,0 3,0 0,3 -3,0 z m -3,0 3,0 0,3 -3,0 z m -3,0 3,0 0,3 -3,0 z m -3,0 3,0 0,3 -3,0 z m -3,0 3,0 0,3 -3,0 z m -3,0 3,0 0,3 -3,0 z m 90,-3 3,0 0,3 -3,0 z m -3,0 3,0 0,3 -3,0 z m -3,0 3,0 0,3 -3,0 z m -3,0 3,0 0,3 -3,0 z m -3,0 3,0 0,3 -3,0 z m -3,0 3,0 0,3 -3,0 z m -3,0 3,0 0,3 -3,0 z m -3,0 3,0 0,3 -3,0 z m -3,0 3,0 0,3 -3,0 z m -3,0 3,0 0,3 -3,0 z m -3,0 3,0 0,3 -3,0 z m -3,0 3,0 0,3 -3,0 z m -3,0 3,0 0,3 -3,0 z m -3,0 3,0 0,3 -3,0 z m -3,0 3,0 0,3 -3,0 z m -3,0 3,0 0,3 -3,0 z m -3,0 3,0 0,3 -3,0 z m -3,0 3,0 0,3 -3,0 z m -3,0 3,0 0,3 -3,0 z m -3,0 3,0 0,3 -3,0 z m -3,0 3,0 0,3 -3,0 z m -3,0 3,0 0,3 -3,0 z m -3,0 3,0 0,3 -3,0 z m -3,0 3,0 0,3 -3,0 z m -3,0 3,0 0,3 -3,0 z m -3,0 3,0 0,3 -3,0 z m -3,0 3,0 0,3 -3,0 z m -3,0 3,0 0,3 -3,0 z m -3,0 3,0 0,3 -3,0 z m -3,0 3,0 0,3 -3,0 z m -3,0 3,0 0,3 -3,0 z m 90,-3 3,0 0,3 -3,0 z m -3,0 3,0 0,3 -3,0 z m -3,0 3,0 0,3 -3,0 z m -3,0 3,0 0,3 -3,0 z m -3,0 3,0 0,3 -3,0 z m -3,0 3,0 0,3 -3,0 z m -3,0 3,0 0,3 -3,0 z m -3,0 3,0 0,3 -3,0 z m -3,0 3,0 0,3 -3,0 z m -3,0 3,0 0,3 -3,0 z m -3,0 3,0 0,3 -3,0 z m -3,0 3,0 0,3 -3,0 z m -3,0 3,0 0,3 -3,0 z m -3,0 3,0 0,3 -3,0 z m -3,0 3,0 0,3 -3,0 z m -3,0 3,0 0,3 -3,0 z m -3,0 3,0 0,3 -3,0 z m -3,0 3,0 0,3 -3,0 z m -3,0 3,0 0,3 -3,0 z m -3,0 3,0 0,3 -3,0 z m -3,0 3,0 0,3 -3,0 z m -3,0 3,0 0,3 -3,0 z m -3,0 3,0 0,3 -3,0 z m -3,0 3,0 0,3 -3,0 z m -3,0 3,0 0,3 -3,0 z m -3,0 3,0 0,3 -3,0 z m -3,0 3,0 0,3 -3,0 z m -3,0 3,0 0,3 -3,0 z m -3,0 3,0 0,3 -3,0 z m -3,0 3,0 0,3 -3,0 z m -3,0 3,0 0,3 -3,0 z m 90,-3 3,0 0,3 -3,0 z m -3,0 3,0 0,3 -3,0 z m -3,0 3,0 0,3 -3,0 z m -3,0 3,0 0,3 -3,0 z m -3,0 3,0 0,3 -3,0 z m -3,0 3,0 0,3 -3,0 z m -3,0 3,0 0,3 -3,0 z m -3,0 3,0 0,3 -3,0 z m -3,0 3,0 0,3 -3,0 z m -3,0 3,0 0,3 -3,0 z m -3,0 3,0 0,3 -3,0 z m -3,0 3,0 0,3 -3,0 z m -3,0 3,0 0,3 -3,0 z m -3,0 3,0 0,3 -3,0 z m -3,0 3,0 0,3 -3,0 z m -3,0 3,0 0,3 -3,0 z m -3,0 3,0 0,3 -3,0 z m -3,0 3,0 0,3 -3,0 z m -3,0 3,0 0,3 -3,0 z m -3,0 3,0 0,3 -3,0 z m -3,0 3,0 0,3 -3,0 z m -3,0 3,0 0,3 -3,0 z m -3,0 3,0 0,3 -3,0 z m -3,0 3,0 0,3 -3,0 z m -3,0 3,0 0,3 -3,0 z m -3,0 3,0 0,3 -3,0 z m -3,0 3,0 0,3 -3,0 z m -3,0 3,0 0,3 -3,0 z m -3,0 3,0 0,3 -3,0 z m -3,0 3,0 0,3 -3,0 z m -3,0 3,0 0,3 -3,0 z m 90,-3 3,0 0,3 -3,0 z m -3,0 3,0 0,3 -3,0 z m -3,0 3,0 0,3 -3,0 z m -3,0 3,0 0,3 -3,0 z m -3,0 3,0 0,3 -3,0 z m -3,0 3,0 0,3 -3,0 z m -3,0 3,0 0,3 -3,0 z m -3,0 3,0 0,3 -3,0 z m -3,0 3,0 0,3 -3,0 z m -3,0 3,0 0,3 -3,0 z m -3,0 3,0 0,3 -3,0 z m -3,0 3,0 0,3 -3,0 z m -3,0 3,0 0,3 -3,0 z m -3,0 3,0 0,3 -3,0 z m -3,0 3,0 0,3 -3,0 z m -3,0 3,0 0,3 -3,0 z m -3,0 3,0 0,3 -3,0 z m -3,0 3,0 0,3 -3,0 z m -3,0 3,0 0,3 -3,0 z m -3,0 3,0 0,3 -3,0 z m -3,0 3,0 0,3 -3,0 z m -3,0 3,0 0,3 -3,0 z m -3,0 3,0 0,3 -3,0 z m -3,0 3,0 0,3 -3,0 z m -3,0 3,0 0,3 -3,0 z m -3,0 3,0 0,3 -3,0 z m -3,0 3,0 0,3 -3,0 z m -3,0 3,0 0,3 -3,0 z m -3,0 3,0 0,3 -3,0 z m -3,0 3,0 0,3 -3,0 z m -3,0 3,0 0,3 -3,0 z m 90,-3 3,0 0,3 -3,0 z m -3,0 3,0 0,3 -3,0 z m -3,0 3,0 0,3 -3,0 z m -3,0 3,0 0,3 -3,0 z m -3,0 3,0 0,3 -3,0 z m -3,0 3,0 0,3 -3,0 z m -3,0 3,0 0,3 -3,0 z m -3,0 3,0 0,3 -3,0 z m -3,0 3,0 0,3 -3,0 z m -3,0 3,0 0,3 -3,0 z m -3,0 3,0 0,3 -3,0 z m -3,0 3,0 0,3 -3,0 z m -3,0 3,0 0,3 -3,0 z m -3,0 3,0 0,3 -3,0 z m -3,0 3,0 0,3 -3,0 z m -3,0 3,0 0,3 -3,0 z m -3,0 3,0 0,3 -3,0 z m -3,0 3,0 0,3 -3,0 z m -3,0 3,0 0,3 -3,0 z m -3,0 3,0 0,3 -3,0 z m -3,0 3,0 0,3 -3,0 z m -3,0 3,0 0,3 -3,0 z m -3,0 3,0 0,3 -3,0 z m -3,0 3,0 0,3 -3,0 z m -3,0 3,0 0,3 -3,0 z m -3,0 3,0 0,3 -3,0 z m -3,0 3,0 0,3 -3,0 z m -3,0 3,0 0,3 -3,0 z m -3,0 3,0 0,3 -3,0 z m -3,0 3,0 0,3 -3,0 z m -3,0 3,0 0,3 -3,0 z m 90,-3 3,0 0,3 -3,0 z m -3,0 3,0 0,3 -3,0 z m -3,0 3,0 0,3 -3,0 z m -3,0 3,0 0,3 -3,0 z m -3,0 3,0 0,3 -3,0 z m -3,0 3,0 0,3 -3,0 z m -3,0 3,0 0,3 -3,0 z m -3,0 3,0 0,3 -3,0 z m -3,0 3,0 0,3 -3,0 z m -3,0 3,0 0,3 -3,0 z m -3,0 3,0 0,3 -3,0 z m -3,0 3,0 0,3 -3,0 z m -3,0 3,0 0,3 -3,0 z m -3,0 3,0 0,3 -3,0 z m -3,0 3,0 0,3 -3,0 z m -3,0 3,0 0,3 -3,0 z m -3,0 3,0 0,3 -3,0 z m -3,0 3,0 0,3 -3,0 z m -3,0 3,0 0,3 -3,0 z m -3,0 3,0 0,3 -3,0 z m -3,0 3,0 0,3 -3,0 z m -3,0 3,0 0,3 -3,0 z m -3,0 3,0 0,3 -3,0 z m -3,0 3,0 0,3 -3,0 z m -3,0 3,0 0,3 -3,0 z m -3,0 3,0 0,3 -3,0 z m -3,0 3,0 0,3 -3,0 z m -3,0 3,0 0,3 -3,0 z m -3,0 3,0 0,3 -3,0 z m -3,0 3,0 0,3 -3,0 z m -3,0 3,0 0,3 -3,0 z m 90,-3 3,0 0,3 -3,0 z m -3,0 3,0 0,3 -3,0 z m -3,0 3,0 0,3 -3,0 z m -3,0 3,0 0,3 -3,0 z m -3,0 3,0 0,3 -3,0 z m -3,0 3,0 0,3 -3,0 z m -3,0 3,0 0,3 -3,0 z m -3,0 3,0 0,3 -3,0 z m -3,0 3,0 0,3 -3,0 z m -3,0 3,0 0,3 -3,0 z m -3,0 3,0 0,3 -3,0 z m -3,0 3,0 0,3 -3,0 z m -3,0 3,0 0,3 -3,0 z m -3,0 3,0 0,3 -3,0 z m -3,0 3,0 0,3 -3,0 z m -3,0 3,0 0,3 -3,0 z m -3,0 3,0 0,3 -3,0 z m -3,0 3,0 0,3 -3,0 z m -3,0 3,0 0,3 -3,0 z m -3,0 3,0 0,3 -3,0 z m -3,0 3,0 0,3 -3,0 z m -3,0 3,0 0,3 -3,0 z m -3,0 3,0 0,3 -3,0 z m -3,0 3,0 0,3 -3,0 z m -3,0 3,0 0,3 -3,0 z m -3,0 3,0 0,3 -3,0 z m -3,0 3,0 0,3 -3,0 z m -3,0 3,0 0,3 -3,0 z m -3,0 3,0 0,3 -3,0 z m -3,0 3,0 0,3 -3,0 z m -3,0 3,0 0,3 -3,0 z m 90,-3 3,0 0,3 -3,0 z m -3,0 3,0 0,3 -3,0 z m -3,0 3,0 0,3 -3,0 z m -3,0 3,0 0,3 -3,0 z m -3,0 3,0 0,3 -3,0 z m -3,0 3,0 0,3 -3,0 z m -3,0 3,0 0,3 -3,0 z m -3,0 3,0 0,3 -3,0 z m -3,0 3,0 0,3 -3,0 z m -3,0 3,0 0,3 -3,0 z m -3,0 3,0 0,3 -3,0 z m -3,0 3,0 0,3 -3,0 z m -3,0 3,0 0,3 -3,0 z m -3,0 3,0 0,3 -3,0 z m -3,0 3,0 0,3 -3,0 z m -3,0 3,0 0,3 -3,0 z m -3,0 3,0 0,3 -3,0 z m -3,0 3,0 0,3 -3,0 z m -3,0 3,0 0,3 -3,0 z m -3,0 3,0 0,3 -3,0 z m -3,0 3,0 0,3 -3,0 z m -3,0 3,0 0,3 -3,0 z m -3,0 3,0 0,3 -3,0 z m -3,0 3,0 0,3 -3,0 z m -3,0 3,0 0,3 -3,0 z m -3,0 3,0 0,3 -3,0 z m -3,0 3,0 0,3 -3,0 z m -3,0 3,0 0,3 -3,0 z m -3,0 3,0 0,3 -3,0 z m -3,0 3,0 0,3 -3,0 z m -3,0 3,0 0,3 -3,0 z m 90,-3 3,0 0,3 -3,0 z m -3,0 3,0 0,3 -3,0 z m -3,0 3,0 0,3 -3,0 z m -3,0 3,0 0,3 -3,0 z m -3,0 3,0 0,3 -3,0 z m -3,0 3,0 0,3 -3,0 z m -3,0 3,0 0,3 -3,0 z m -3,0 3,0 0,3 -3,0 z m -3,0 3,0 0,3 -3,0 z m -3,0 3,0 0,3 -3,0 z m -3,0 3,0 0,3 -3,0 z m -3,0 3,0 0,3 -3,0 z m -3,0 3,0 0,3 -3,0 z m -3,0 3,0 0,3 -3,0 z m -3,0 3,0 0,3 -3,0 z m -3,0 3,0 0,3 -3,0 z m -3,0 3,0 0,3 -3,0 z m -3,0 3,0 0,3 -3,0 z m -3,0 3,0 0,3 -3,0 z m -3,0 3,0 0,3 -3,0 z m -3,0 3,0 0,3 -3,0 z m -3,0 3,0 0,3 -3,0 z m -3,0 3,0 0,3 -3,0 z m -3,0 3,0 0,3 -3,0 z m -3,0 3,0 0,3 -3,0 z m -3,0 3,0 0,3 -3,0 z m -3,0 3,0 0,3 -3,0 z m -3,0 3,0 0,3 -3,0 z m -3,0 3,0 0,3 -3,0 z m -3,0 3,0 0,3 -3,0 z m -3,0 3,0 0,3 -3,0 z m 90,-3 3,0 0,3 -3,0 z m -3,0 3,0 0,3 -3,0 z m -3,0 3,0 0,3 -3,0 z m -3,0 3,0 0,3 -3,0 z m -3,0 3,0 0,3 -3,0 z m -3,0 3,0 0,3 -3,0 z m -3,0 3,0 0,3 -3,0 z m -3,0 3,0 0,3 -3,0 z m -3,0 3,0 0,3 -3,0 z m -3,0 3,0 0,3 -3,0 z m -3,0 3,0 0,3 -3,0 z m -3,0 3,0 0,3 -3,0 z m -3,0 3,0 0,3 -3,0 z m -3,0 3,0 0,3 -3,0 z m -3,0 3,0 0,3 -3,0 z m -3,0 3,0 0,3 -3,0 z m -3,0 3,0 0,3 -3,0 z m -3,0 3,0 0,3 -3,0 z m -3,0 3,0 0,3 -3,0 z m -3,0 3,0 0,3 -3,0 z m -3,0 3,0 0,3 -3,0 z m -3,0 3,0 0,3 -3,0 z m -3,0 3,0 0,3 -3,0 z m -3,0 3,0 0,3 -3,0 z m -3,0 3,0 0,3 -3,0 z m -3,0 3,0 0,3 -3,0 z m -3,0 3,0 0,3 -3,0 z m -3,0 3,0 0,3 -3,0 z m -3,0 3,0 0,3 -3,0 z m -3,0 3,0 0,3 -3,0 z m -3,0 3,0 0,3 -3,0 z m 90,-3 3,0 0,3 -3,0 z m -3,0 3,0 0,3 -3,0 z m -3,0 3,0 0,3 -3,0 z m -3,0 3,0 0,3 -3,0 z m -3,0 3,0 0,3 -3,0 z m -3,0 3,0 0,3 -3,0 z m -3,0 3,0 0,3 -3,0 z m -3,0 3,0 0,3 -3,0 z m -3,0 3,0 0,3 -3,0 z m -3,0 3,0 0,3 -3,0 z m -3,0 3,0 0,3 -3,0 z m -3,0 3,0 0,3 -3,0 z m -3,0 3,0 0,3 -3,0 z m -3,0 3,0 0,3 -3,0 z m -3,0 3,0 0,3 -3,0 z m -3,0 3,0 0,3 -3,0 z m -3,0 3,0 0,3 -3,0 z m -3,0 3,0 0,3 -3,0 z m -3,0 3,0 0,3 -3,0 z m -3,0 3,0 0,3 -3,0 z m -3,0 3,0 0,3 -3,0 z m -3,0 3,0 0,3 -3,0 z m -3,0 3,0 0,3 -3,0 z m -3,0 3,0 0,3 -3,0 z m -3,0 3,0 0,3 -3,0 z m -3,0 3,0 0,3 -3,0 z m -3,0 3,0 0,3 -3,0 z m -3,0 3,0 0,3 -3,0 z m -3,0 3,0 0,3 -3,0 z m -3,0 3,0 0,3 -3,0 z m -3,0 3,0 0,3 -3,0 z m 90,-3 3,0 0,3 -3,0 z m -3,0 3,0 0,3 -3,0 z m -3,0 3,0 0,3 -3,0 z m -3,0 3,0 0,3 -3,0 z m -3,0 3,0 0,3 -3,0 z m -3,0 3,0 0,3 -3,0 z m -3,0 3,0 0,3 -3,0 z m -3,0 3,0 0,3 -3,0 z m -3,0 3,0 0,3 -3,0 z m -3,0 3,0 0,3 -3,0 z m -3,0 3,0 0,3 -3,0 z m -3,0 3,0 0,3 -3,0 z m -3,0 3,0 0,3 -3,0 z m -3,0 3,0 0,3 -3,0 z m -3,0 3,0 0,3 -3,0 z m -3,0 3,0 0,3 -3,0 z m -3,0 3,0 0,3 -3,0 z m -3,0 3,0 0,3 -3,0 z m -3,0 3,0 0,3 -3,0 z m -3,0 3,0 0,3 -3,0 z m -3,0 3,0 0,3 -3,0 z m -3,0 3,0 0,3 -3,0 z m -3,0 3,0 0,3 -3,0 z m -3,0 3,0 0,3 -3,0 z m -3,0 3,0 0,3 -3,0 z m -3,0 3,0 0,3 -3,0 z m -3,0 3,0 0,3 -3,0 z m -3,0 3,0 0,3 -3,0 z m -3,0 3,0 0,3 -3,0 z m -3,0 3,0 0,3 -3,0 z m -3,0 3,0 0,3 -3,0 z m 90,-3 3,0 0,3 -3,0 z m -3,0 3,0 0,3 -3,0 z m -3,0 3,0 0,3 -3,0 z m -3,0 3,0 0,3 -3,0 z m -3,0 3,0 0,3 -3,0 z m -3,0 3,0 0,3 -3,0 z m -3,0 3,0 0,3 -3,0 z m -3,0 3,0 0,3 -3,0 z m -3,0 3,0 0,3 -3,0 z m -3,0 3,0 0,3 -3,0 z m -3,0 3,0 0,3 -3,0 z m -3,0 3,0 0,3 -3,0 z m -3,0 3,0 0,3 -3,0 z m -3,0 3,0 0,3 -3,0 z m -3,0 3,0 0,3 -3,0 z m -3,0 3,0 0,3 -3,0 z m -3,0 3,0 0,3 -3,0 z m -3,0 3,0 0,3 -3,0 z m -3,0 3,0 0,3 -3,0 z m -3,0 3,0 0,3 -3,0 z m -3,0 3,0 0,3 -3,0 z m -3,0 3,0 0,3 -3,0 z m -3,0 3,0 0,3 -3,0 z m -3,0 3,0 0,3 -3,0 z m -3,0 3,0 0,3 -3,0 z m -3,0 3,0 0,3 -3,0 z m -3,0 3,0 0,3 -3,0 z m -3,0 3,0 0,3 -3,0 z m -3,0 3,0 0,3 -3,0 z m -3,0 3,0 0,3 -3,0 z m -3,0 3,0 0,3 -3,0 z m 90,-3 3,0 0,3 -3,0 z m -3,0 3,0 0,3 -3,0 z m -3,0 3,0 0,3 -3,0 z m -3,0 3,0 0,3 -3,0 z m -3,0 3,0 0,3 -3,0 z m -3,0 3,0 0,3 -3,0 z m -3,0 3,0 0,3 -3,0 z m -3,0 3,0 0,3 -3,0 z m -3,0 3,0 0,3 -3,0 z m -3,0 3,0 0,3 -3,0 z m -3,0 3,0 0,3 -3,0 z m -3,0 3,0 0,3 -3,0 z m -3,0 3,0 0,3 -3,0 z m -3,0 3,0 0,3 -3,0 z m -3,0 3,0 0,3 -3,0 z m -3,0 3,0 0,3 -3,0 z m -3,0 3,0 0,3 -3,0 z m -3,0 3,0 0,3 -3,0 z m -3,0 3,0 0,3 -3,0 z m -3,0 3,0 0,3 -3,0 z m -3,0 3,0 0,3 -3,0 z m -3,0 3,0 0,3 -3,0 z m -3,0 3,0 0,3 -3,0 z m -3,0 3,0 0,3 -3,0 z m -3,0 3,0 0,3 -3,0 z m -3,0 3,0 0,3 -3,0 z m -3,0 3,0 0,3 -3,0 z m -3,0 3,0 0,3 -3,0 z m -3,0 3,0 0,3 -3,0 z m -3,0 3,0 0,3 -3,0 z m -3,0 3,0 0,3 -3,0 z m 90,-3 3,0 0,3 -3,0 z m -3,0 3,0 0,3 -3,0 z m -3,0 3,0 0,3 -3,0 z m -3,0 3,0 0,3 -3,0 z m -3,0 3,0 0,3 -3,0 z m -3,0 3,0 0,3 -3,0 z m -3,0 3,0 0,3 -3,0 z m -3,0 3,0 0,3 -3,0 z m -3,0 3,0 0,3 -3,0 z m -3,0 3,0 0,3 -3,0 z m -3,0 3,0 0,3 -3,0 z m -3,0 3,0 0,3 -3,0 z m -3,0 3,0 0,3 -3,0 z m -3,0 3,0 0,3 -3,0 z m -3,0 3,0 0,3 -3,0 z m -3,0 3,0 0,3 -3,0 z m -3,0 3,0 0,3 -3,0 z m -3,0 3,0 0,3 -3,0 z m -3,0 3,0 0,3 -3,0 z m -3,0 3,0 0,3 -3,0 z m -3,0 3,0 0,3 -3,0 z m -3,0 3,0 0,3 -3,0 z m -3,0 3,0 0,3 -3,0 z m -3,0 3,0 0,3 -3,0 z m -3,0 3,0 0,3 -3,0 z m -3,0 3,0 0,3 -3,0 z m -3,0 3,0 0,3 -3,0 z m -3,0 3,0 0,3 -3,0 z m -3,0 3,0 0,3 -3,0 z m -3,0 3,0 0,3 -3,0 z m -3,0 3,0 0,3 -3,0 z m 90,-3 3,0 0,3 -3,0 z m -3,0 3,0 0,3 -3,0 z m -3,0 3,0 0,3 -3,0 z m -3,0 3,0 0,3 -3,0 z m -3,0 3,0 0,3 -3,0 z m -3,0 3,0 0,3 -3,0 z m -3,0 3,0 0,3 -3,0 z m -3,0 3,0 0,3 -3,0 z m -3,0 3,0 0,3 -3,0 z m -3,0 3,0 0,3 -3,0 z m -3,0 3,0 0,3 -3,0 z m -3,0 3,0 0,3 -3,0 z m -3,0 3,0 0,3 -3,0 z m -3,0 3,0 0,3 -3,0 z m -3,0 3,0 0,3 -3,0 z m -3,0 3,0 0,3 -3,0 z m -3,0 3,0 0,3 -3,0 z m -3,0 3,0 0,3 -3,0 z m -3,0 3,0 0,3 -3,0 z m -3,0 3,0 0,3 -3,0 z m -3,0 3,0 0,3 -3,0 z m -3,0 3,0 0,3 -3,0 z m -3,0 3,0 0,3 -3,0 z m -3,0 3,0 0,3 -3,0 z m -3,0 3,0 0,3 -3,0 z m -3,0 3,0 0,3 -3,0 z m -3,0 3,0 0,3 -3,0 z m -3,0 3,0 0,3 -3,0 z m -3,0 3,0 0,3 -3,0 z m -3,0 3,0 0,3 -3,0 z m -3,0 3,0 0,3 -3,0 z m 90,-3 3,0 0,3 -3,0 z m -3,0 3,0 0,3 -3,0 z m -3,0 3,0 0,3 -3,0 z m -3,0 3,0 0,3 -3,0 z m -3,0 3,0 0,3 -3,0 z m -3,0 3,0 0,3 -3,0 z m -3,0 3,0 0,3 -3,0 z m -3,0 3,0 0,3 -3,0 z m -3,0 3,0 0,3 -3,0 z m -3,0 3,0 0,3 -3,0 z m -3,0 3,0 0,3 -3,0 z m -3,0 3,0 0,3 -3,0 z m -3,0 3,0 0,3 -3,0 z m -3,0 3,0 0,3 -3,0 z m -3,0 3,0 0,3 -3,0 z m -3,0 3,0 0,3 -3,0 z m -3,0 3,0 0,3 -3,0 z m -3,0 3,0 0,3 -3,0 z m -3,0 3,0 0,3 -3,0 z m -3,0 3,0 0,3 -3,0 z m -3,0 3,0 0,3 -3,0 z m -3,0 3,0 0,3 -3,0 z m -3,0 3,0 0,3 -3,0 z m -3,0 3,0 0,3 -3,0 z m -3,0 3,0 0,3 -3,0 z m -3,0 3,0 0,3 -3,0 z m -3,0 3,0 0,3 -3,0 z m -3,0 3,0 0,3 -3,0 z m -3,0 3,0 0,3 -3,0 z m -3,0 3,0 0,3 -3,0 z m -3,0 3,0 0,3 -3,0 z m 90,-3 3,0 0,3 -3,0 z m -3,0 3,0 0,3 -3,0 z m -3,0 3,0 0,3 -3,0 z m -3,0 3,0 0,3 -3,0 z m -3,0 3,0 0,3 -3,0 z m -3,0 3,0 0,3 -3,0 z m -3,0 3,0 0,3 -3,0 z m -3,0 3,0 0,3 -3,0 z m -3,0 3,0 0,3 -3,0 z m -3,0 3,0 0,3 -3,0 z m -3,0 3,0 0,3 -3,0 z m -3,0 3,0 0,3 -3,0 z m -3,0 3,0 0,3 -3,0 z m -3,0 3,0 0,3 -3,0 z m -3,0 3,0 0,3 -3,0 z m -3,0 3,0 0,3 -3,0 z m -3,0 3,0 0,3 -3,0 z m -3,0 3,0 0,3 -3,0 z m -3,0 3,0 0,3 -3,0 z m -3,0 3,0 0,3 -3,0 z m -3,0 3,0 0,3 -3,0 z m -3,0 3,0 0,3 -3,0 z m -3,0 3,0 0,3 -3,0 z m -3,0 3,0 0,3 -3,0 z m -3,0 3,0 0,3 -3,0 z m -3,0 3,0 0,3 -3,0 z m -3,0 3,0 0,3 -3,0 z m -3,0 3,0 0,3 -3,0 z m -3,0 3,0 0,3 -3,0 z m -3,0 3,0 0,3 -3,0 z m -3,0 3,0 0,3 -3,0 z m 90,-3 3,0 0,3 -3,0 z m -3,0 3,0 0,3 -3,0 z m -3,0 3,0 0,3 -3,0 z m -3,0 3,0 0,3 -3,0 z m -3,0 3,0 0,3 -3,0 z m -3,0 3,0 0,3 -3,0 z m -3,0 3,0 0,3 -3,0 z m -3,0 3,0 0,3 -3,0 z m -3,0 3,0 0,3 -3,0 z m -3,0 3,0 0,3 -3,0 z m -3,0 3,0 0,3 -3,0 z m -3,0 3,0 0,3 -3,0 z m -3,0 3,0 0,3 -3,0 z m -3,0 3,0 0,3 -3,0 z m -3,0 3,0 0,3 -3,0 z m -3,0 3,0 0,3 -3,0 z m -3,0 3,0 0,3 -3,0 z m -3,0 3,0 0,3 -3,0 z m -3,0 3,0 0,3 -3,0 z m -3,0 3,0 0,3 -3,0 z m -3,0 3,0 0,3 -3,0 z m -3,0 3,0 0,3 -3,0 z m -3,0 3,0 0,3 -3,0 z m -3,0 3,0 0,3 -3,0 z m -3,0 3,0 0,3 -3,0 z m -3,0 3,0 0,3 -3,0 z m -3,0 3,0 0,3 -3,0 z m -3,0 3,0 0,3 -3,0 z m -3,0 3,0 0,3 -3,0 z m -3,0 3,0 0,3 -3,0 z m -3,0 3,0 0,3 -3,0 z m 90,-3 3,0 0,3 -3,0 z m -3,0 3,0 0,3 -3,0 z m -3,0 3,0 0,3 -3,0 z m -3,0 3,0 0,3 -3,0 z m -3,0 3,0 0,3 -3,0 z m -3,0 3,0 0,3 -3,0 z m -3,0 3,0 0,3 -3,0 z m -3,0 3,0 0,3 -3,0 z m -3,0 3,0 0,3 -3,0 z m -3,0 3,0 0,3 -3,0 z m -3,0 3,0 0,3 -3,0 z m -3,0 3,0 0,3 -3,0 z m -3,0 3,0 0,3 -3,0 z m -3,0 3,0 0,3 -3,0 z m -3,0 3,0 0,3 -3,0 z m -3,0 3,0 0,3 -3,0 z m -3,0 3,0 0,3 -3,0 z m -3,0 3,0 0,3 -3,0 z m -3,0 3,0 0,3 -3,0 z m -3,0 3,0 0,3 -3,0 z m -3,0 3,0 0,3 -3,0 z m -3,0 3,0 0,3 -3,0 z m -3,0 3,0 0,3 -3,0 z m -3,0 3,0 0,3 -3,0 z m -3,0 3,0 0,3 -3,0 z m -3,0 3,0 0,3 -3,0 z m -3,0 3,0 0,3 -3,0 z m -3,0 3,0 0,3 -3,0 z m -3,0 3,0 0,3 -3,0 z m -3,0 3,0 0,3 -3,0 z m -3,0 3,0 0,3 -3,0 z m 90,-3 3,0 0,3 -3,0 z m -3,0 3,0 0,3 -3,0 z m -3,0 3,0 0,3 -3,0 z m -3,0 3,0 0,3 -3,0 z m -3,0 3,0 0,3 -3,0 z m -3,0 3,0 0,3 -3,0 z m -3,0 3,0 0,3 -3,0 z m -3,0 3,0 0,3 -3,0 z m -3,0 3,0 0,3 -3,0 z m -3,0 3,0 0,3 -3,0 z m -3,0 3,0 0,3 -3,0 z m -3,0 3,0 0,3 -3,0 z m -3,0 3,0 0,3 -3,0 z m -3,0 3,0 0,3 -3,0 z m -3,0 3,0 0,3 -3,0 z m -3,0 3,0 0,3 -3,0 z m -3,0 3,0 0,3 -3,0 z m -3,0 3,0 0,3 -3,0 z m -3,0 3,0 0,3 -3,0 z m -3,0 3,0 0,3 -3,0 z m -3,0 3,0 0,3 -3,0 z m -3,0 3,0 0,3 -3,0 z m -3,0 3,0 0,3 -3,0 z m -3,0 3,0 0,3 -3,0 z m -3,0 3,0 0,3 -3,0 z m -3,0 3,0 0,3 -3,0 z m -3,0 3,0 0,3 -3,0 z m -3,0 3,0 0,3 -3,0 z m -3,0 3,0 0,3 -3,0 z m -3,0 3,0 0,3 -3,0 z m -3,0 3,0 0,3 -3,0 z" />
  <rect
     fill="rgb(0,0,0)"
     height="3px"
     width="3px"
     x="36px"
     y="117px"
     id="rect1432" />
  <rect
     fill="rgb(0,0,0)"
     height="3px"
     width="3px"
     x="39px"
     y="117px"
     id="rect1434" />
  <rect
     fill="rgb(0,0,0)"
     height="3px"
     width="3px"
     x="42px"
     y="117px"
     id="rect1436" />
  <rect
     fill="rgb(0,0,0)"
     height="3px"
     width="3px"
     x="45px"
     y="117px"
     id="rect1438" />
  <rect
     fill="rgb(0,0,0)"
     height="3px"
     width="3px"
     x="48px"
     y="117px"
     id="rect1440" />
  <rect
     fill="rgb(0,0,0)"
     height="3px"
     width="3px"
     x="51px"
     y="117px"
     id="rect1442" />
  <rect
     fill="rgb(0,0,0)"
     height="3px"
     width="3px"
     x="54px"
     y="117px"
     id="rect1444" />
  <rect
     fill="rgb(0,0,0)"
     height="3px"
     width="3px"
     x="57px"
     y="117px"
     id="rect1446" />
  <rect
     fill="rgb(0,0,0)"
     height="3px"
     width="3px"
     x="60px"
     y="117px"
     id="rect1448" />
  <rect
     fill="rgb(0,0,0)"
     height="3px"
     width="3px"
     x="63px"
     y="117px"
     id="rect1450" />
  <rect
     fill="rgb(0,0,0)"
     height="3px"
     width="3px"
     x="66px"
     y="117px"
     id="rect1452" />
  <rect
     fill="rgb(0,0,0)"
     height="3px"
     width="3px"
     x="69px"
     y="117px"
     id="rect1454" />
  <rect
     fill="rgb(0,0,0)"
     height="3px"
     width="3px"
     x="72px"
     y="117px"
     id="rect1456" />
  <rect
     fill="rgb(0,0,0)"
     height="3px"
     width="3px"
     x="75px"
     y="117px"
     id="rect1458" />
  <rect
     fill="rgb(0,0,0)"
     height="3px"
     width="3px"
     x="78px"
     y="117px"
     id="rect1460" />
  <rect
     fill="rgb(0,0,0)"
     height="3px"
     width="3px"
     x="81px"
     y="117px"
     id="rect1462" />
  <rect
     fill="rgb(0,0,0)"
     height="3px"
     width="3px"
     x="84px"
     y="117px"
     id="rect1464" />
  <rect
     fill="rgb(0,0,0)"
     height="3px"
     width="3px"
     x="87px"
     y="117px"
     id="rect1466" />
  <rect
     fill="rgb(0,0,0)"
     height="3px"
     width="3px"
     x="90px"
     y="117px"
     id="rect1468" />
  <rect
     fill="rgb(0,0,0)"
     height="3px"
     width="3px"
     x="93px"
     y="117px"
     id="rect1470" />
  <rect
     fill="rgb(0,0,0)"
     height="3px"
     width="3px"
     x="96px"
     y="117px"
     id="rect1472" />
  <rect
     fill="rgb(0,0,0)"
     height="3px"
     width="3px"
     x="99px"
     y="117px"
     id="rect1474" />
  <rect
     fill="rgb(0,0,0)"
     height="3px"
     width="3px"
     x="102px"
     y="117px"
     id="rect1476" />
  <rect
     fill="rgb(0,0,0)"
     height="3px"
     width="3px"
     x="105px"
     y="117px"
     id="rect1478" />
  <rect
     fill="rgb(0,0,0)"
     height="3px"
     width="3px"
     x="108px"
     y="117px"
     id="rect1480" />
  <rect
     fill="rgb(0,0,0)"
     height="3px"
     width="3px"
     x="111px"
     y="117px"
     id="rect1482" />
  <rect
     fill="rgb(0,0,0)"
     height="3px"
     width="3px"
     x="114px"
     y="117px"
     id="rect1484" />
  <rect
     fill="rgb(0,0,0)"
     height="3px"
     width="3px"
     x="117px"
     y="117px"
     id="rect1486" />
  <rect
     fill="rgb(0,0,0)"
     height="3px"
     width="3px"
     x="120px"
     y="117px"
     id="rect1488" />
  <rect
     fill="rgb(0,0,0)"
     height="3px"
     width="3px"
     x="123px"
     y="117px"
     id="rect1490" />
  <rect
     fill="rgb(0,0,0)"
     height="3px"
     width="3px"
     x="126px"
     y="117px"
     id="rect1492" />
  <rect
     fill="rgb(0,0,0)"
     height="3px"
     width="3px"
     x="36px"
     y="120px"
     id="rect1494" />
  <rect
     fill="rgb(0,0,0)"
     height="3px"
     width="3px"
     x="39px"
     y="120px"
     id="rect1496" />
  <rect
     fill="rgb(0,0,0)"
     height="3px"
     width="3px"
     x="42px"
     y="120px"
     id="rect1498" />
  <rect
     fill="rgb(0,0,0)"
     height="3px"
     width="3px"
     x="45px"
     y="120px"
     id="rect1500" />
  <rect
     fill="rgb(0,0,0)"
     height="3px"
     width="3px"
     x="48px"
     y="120px"
     id="rect1502" />
  <rect
     fill="rgb(0,0,0)"
     height="3px"
     width="3px"
     x="51px"
     y="120px"
     id="rect1504" />
  <rect
     fill="rgb(0,0,0)"
     height="3px"
     width="3px"
     x="54px"
     y="120px"
     id="rect1506" />
  <rect
     fill="rgb(0,0,0)"
     height="3px"
     width="3px"
     x="57px"
     y="120px"
     id="rect1508" />
  <rect
     fill="rgb(0,0,0)"
     height="3px"
     width="3px"
     x="60px"
     y="120px"
     id="rect1510" />
  <rect
     fill="rgb(0,0,0)"
     height="3px"
     width="3px"
     x="63px"
     y="120px"
     id="rect1512" />
  <rect
     fill="rgb(0,0,0)"
     height="3px"
     width="3px"
     x="66px"
     y="120px"
     id="rect1514" />
  <rect
     fill="rgb(0,0,0)"
     height="3px"
     width="3px"
     x="69px"
     y="120px"
     id="rect1516" />
  <rect
     fill="rgb(0,0,0)"
     height="3px"
     width="3px"
     x="72px"
     y="120px"
     id="rect1518" />
  <rect
     fill="rgb(0,0,0)"
     height="3px"
     width="3px"
     x="75px"
     y="120px"
     id="rect1520" />
  <rect
     fill="rgb(0,0,0)"
     height="3px"
     width="3px"
     x="78px"
     y="120px"
     id="rect1522" />
  <rect
     fill="rgb(0,0,0)"
     height="3px"
     width="3px"
     x="81px"
     y="120px"
     id="rect1524" />
  <rect
     fill="rgb(0,0,0)"
     height="3px"
     width="3px"
     x="84px"
     y="120px"
     id="rect1526" />
  <rect
     fill="rgb(0,0,0)"
     height="3px"
     width="3px"
     x="87px"
     y="120px"
     id="rect1528" />
  <rect
     fill="rgb(0,0,0)"
     height="3px"
     width="3px"
     x="90px"
     y="120px"
     id="rect1530" />
  <rect
     fill="rgb(0,0,0)"
     height="3px"
     width="3px"
     x="93px"
     y="120px"
     id="rect1532" />
  <rect
     fill="rgb(0,0,0)"
     height="3px"
     width="3px"
     x="96px"
     y="120px"
     id="rect1534" />
  <rect
     fill="rgb(0,0,0)"
     height="3px"
     width="3px"
     x="99px"
     y="120px"
     id="rect1536" />
  <rect
     fill="rgb(0,0,0)"
     height="3px"
     width="3px"
     x="102px"
     y="120px"
     id="rect1538" />
  <rect
     fill="rgb(0,0,0)"
     height="3px"
     width="3px"
     x="105px"
     y="120px"
     id="rect1540" />
  <rect
     fill="rgb(0,0,0)"
     height="3px"
     width="3px"
     x="108px"
     y="120px"
     id="rect1542" />
  <rect
     fill="rgb(0,0,0)"
     height="3px"
     width="3px"
     x="111px"
     y="120px"
     id="rect1544" />
  <rect
     fill="rgb(0,0,0)"
     height="3px"
     width="3px"
     x="114px"
     y="120px"
     id="rect1546" />
  <rect
     fill="rgb(0,0,0)"
     height="3px"
     width="3px"
     x="117px"
     y="120px"
     id="rect1548" />
  <rect
     fill="rgb(0,0,0)"
     height="3px"
     width="3px"
     x="120px"
     y="120px"
     id="rect1550" />
  <rect
     fill="rgb(0,0,0)"
     height="3px"
     width="3px"
     x="123px"
     y="120px"
     id="rect1552" />
  <rect
     fill="rgb(0,0,0)"
     height="3px"
     width="3px"
     x="126px"
     y="120px"
     id="rect1554" />
  <rect
     fill="rgb(0,0,0)"
     height="3px"
     opacity="0.501960784314"
     width="3px"
     x="36px"
     y="123px"
     id="rect1556" />
  <rect
     fill="rgb(0,0,0)"
     height="3px"
     width="3px"
     x="39px"
     y="123px"
     id="rect1558" />
  <rect
     fill="rgb(0,0,0)"
     height="3px"
     width="3px"
     x="42px"
     y="123px"
     id="rect1560" />
  <rect
     fill="rgb(0,0,0)"
     height="3px"
     width="3px"
     x="45px"
     y="123px"
     id="rect1562" />
  <rect
     fill="rgb(0,0,0)"
     height="3px"
     width="3px"
     x="48px"
     y="123px"
     id="rect1564" />
  <rect
     fill="rgb(0,0,0)"
     height="3px"
     width="3px"
     x="51px"
     y="123px"
     id="rect1566" />
  <rect
     fill="rgb(0,0,0)"
     height="3px"
     width="3px"
     x="54px"
     y="123px"
     id="rect1568" />
  <rect
     fill="rgb(0,0,0)"
     height="3px"
     width="3px"
     x="57px"
     y="123px"
     id="rect1570" />
  <rect
     fill="rgb(0,0,0)"
     height="3px"
     width="3px"
     x="60px"
     y="123px"
     id="rect1572" />
  <rect
     fill="rgb(0,0,0)"
     height="3px"
     width="3px"
     x="63px"
     y="123px"
     id="rect1574" />
  <rect
     fill="rgb(0,0,0)"
     height="3px"
     width="3px"
     x="66px"
     y="123px"
     id="rect1576" />
  <rect
     fill="rgb(0,0,0)"
     height="3px"
     width="3px"
     x="69px"
     y="123px"
     id="rect1578" />
  <rect
     fill="rgb(0,0,0)"
     height="3px"
     width="3px"
     x="72px"
     y="123px"
     id="rect1580" />
  <rect
     fill="rgb(0,0,0)"
     height="3px"
     width="3px"
     x="75px"
     y="123px"
     id="rect1582" />
  <rect
     fill="rgb(0,0,0)"
     height="3px"
     width="3px"
     x="78px"
     y="123px"
     id="rect1584" />
  <rect
     fill="rgb(0,0,0)"
     height="3px"
     width="3px"
     x="81px"
     y="123px"
     id="rect1586" />
  <rect
     fill="rgb(0,0,0)"
     height="3px"
     width="3px"
     x="84px"
     y="123px"
     id="rect1588" />
  <rect
     fill="rgb(0,0,0)"
     height="3px"
     width="3px"
     x="87px"
     y="123px"
     id="rect1590" />
  <rect
     fill="rgb(0,0,0)"
     height="3px"
     width="3px"
     x="90px"
     y="123px"
     id="rect1592" />
  <rect
     fill="rgb(0,0,0)"
     height="3px"
     width="3px"
     x="93px"
     y="123px"
     id="rect1594" />
  <rect
     fill="rgb(0,0,0)"
     height="3px"
     width="3px"
     x="96px"
     y="123px"
     id="rect1596" />
  <rect
     fill="rgb(0,0,0)"
     height="3px"
     width="3px"
     x="99px"
     y="123px"
     id="rect1598" />
  <rect
     fill="rgb(0,0,0)"
     height="3px"
     width="3px"
     x="102px"
     y="123px"
     id="rect1600" />
  <rect
     fill="rgb(0,0,0)"
     height="3px"
     width="3px"
     x="105px"
     y="123px"
     id="rect1602" />
  <rect
     fill="rgb(0,0,0)"
     height="3px"
     width="3px"
     x="108px"
     y="123px"
     id="rect1604" />
  <rect
     fill="rgb(0,0,0)"
     height="3px"
     width="3px"
     x="111px"
     y="123px"
     id="rect1606" />
  <rect
     fill="rgb(0,0,0)"
     height="3px"
     width="3px"
     x="114px"
     y="123px"
     id="rect1608" />
  <rect
     fill="rgb(0,0,0)"
     height="3px"
     width="3px"
     x="117px"
     y="123px"
     id="rect1610" />
  <rect
     fill="rgb(0,0,0)"
     height="3px"
     width="3px"
     x="120px"
     y="123px"
     id="rect1612" />
  <rect
     fill="rgb(0,0,0)"
     height="3px"
     width="3px"
     x="123px"
     y="123px"
     id="rect1614" />
  <rect
     fill="rgb(0,0,0)"
     height="3px"
     opacity="0.501960784314"
     width="3px"
     x="126px"
     y="123px"
     id="rect1616" />
  <rect
     fill="rgb(0,0,0)"
     height="3px"
     opacity="0.501960784314"
     width="3px"
     x="42px"
     y="126px"
     id="rect1618" />
  <rect
     fill="rgb(0,0,0)"
     height="3px"
     opacity="0.803921568627"
     width="3px"
     x="45px"
     y="126px"
     id="rect1620" />
  <rect
     fill="rgb(0,0,0)"
     height="3px"
     width="3px"
     x="48px"
     y="126px"
     id="rect1622" />
  <rect
     fill="rgb(0,0,0)"
     height="3px"
     width="3px"
     x="51px"
     y="126px"
     id="rect1624" />
  <rect
     fill="rgb(0,0,0)"
     height="3px"
     width="3px"
     x="54px"
     y="126px"
     id="rect1626" />
  <rect
     fill="rgb(0,0,0)"
     height="3px"
     width="3px"
     x="57px"
     y="126px"
     id="rect1628" />
  <rect
     fill="rgb(0,0,0)"
     height="3px"
     width="3px"
     x="60px"
     y="126px"
     id="rect1630" />
  <rect
     fill="rgb(0,0,0)"
     height="3px"
     width="3px"
     x="63px"
     y="126px"
     id="rect1632" />
  <rect
     fill="rgb(0,0,0)"
     height="3px"
     width="3px"
     x="66px"
     y="126px"
     id="rect1634" />
  <rect
     fill="rgb(0,0,0)"
     height="3px"
     width="3px"
     x="69px"
     y="126px"
     id="rect1636" />
  <rect
     fill="rgb(0,0,0)"
     height="3px"
     width="3px"
     x="72px"
     y="126px"
     id="rect1638" />
  <rect
     fill="rgb(0,0,0)"
     height="3px"
     width="3px"
     x="75px"
     y="126px"
     id="rect1640" />
  <rect
     fill="rgb(0,0,0)"
     height="3px"
     width="3px"
     x="78px"
     y="126px"
     id="rect1642" />
  <rect
     fill="rgb(0,0,0)"
     height="3px"
     width="3px"
     x="81px"
     y="126px"
     id="rect1644" />
  <rect
     fill="rgb(0,0,0)"
     height="3px"
     width="3px"
     x="84px"
     y="126px"
     id="rect1646" />
  <rect
     fill="rgb(0,0,0)"
     height="3px"
     width="3px"
     x="87px"
     y="126px"
     id="rect1648" />
  <rect
     fill="rgb(0,0,0)"
     height="3px"
     width="3px"
     x="90px"
     y="126px"
     id="rect1650" />
  <rect
     fill="rgb(0,0,0)"
     height="3px"
     width="3px"
     x="93px"
     y="126px"
     id="rect1652" />
  <rect
     fill="rgb(0,0,0)"
     height="3px"
     width="3px"
     x="96px"
     y="126px"
     id="rect1654" />
  <rect
     fill="rgb(0,0,0)"
     height="3px"
     width="3px"
     x="99px"
     y="126px"
     id="rect1656" />
  <rect
     fill="rgb(0,0,0)"
     height="3px"
     width="3px"
     x="102px"
     y="126px"
     id="rect1658" />
  <rect
     fill="rgb(0,0,0)"
     height="3px"
     width="3px"
     x="105px"
     y="126px"
     id="rect1660" />
  <rect
     fill="rgb(0,0,0)"
     height="3px"
     width="3px"
     x="108px"
     y="126px"
     id="rect1662" />
  <rect
     fill="rgb(0,0,0)"
     height="3px"
     width="3px"
     x="111px"
     y="126px"
     id="rect1664" />
  <rect
     fill="rgb(0,0,0)"
     height="3px"
     width="3px"
     x="114px"
     y="126px"
     id="rect1666" />
  <rect
     fill="rgb(0,0,0)"
     height="3px"
     opacity="0.803921568627"
     width="3px"
     x="117px"
     y="126px"
     id="rect1668" />
  <rect
     fill="rgb(0,0,0)"
     height="3px"
     opacity="0.501960784314"
     width="3px"
     x="120px"
     y="126px"
     id="rect1670" />
  <rect
     fill="rgb(0,0,0)"
     height="3px"
     opacity="0.196078431373"
     width="3px"
     x="48px"
     y="129px"
     id="rect1672" />
  <rect
     fill="rgb(0,0,0)"
     height="3px"
     opacity="0.501960784314"
     width="3px"
     x="51px"
     y="129px"
     id="rect1674" />
  <rect
     fill="rgb(0,0,0)"
     height="3px"
     width="3px"
     x="54px"
     y="129px"
     id="rect1676" />
  <rect
     fill="rgb(0,0,0)"
     height="3px"
     width="3px"
     x="57px"
     y="129px"
     id="rect1678" />
  <rect
     fill="rgb(0,0,0)"
     height="3px"
     width="3px"
     x="60px"
     y="129px"
     id="rect1680" />
  <rect
     fill="rgb(0,0,0)"
     height="3px"
     width="3px"
     x="63px"
     y="129px"
     id="rect1682" />
  <rect
     fill="rgb(0,0,0)"
     height="3px"
     width="3px"
     x="66px"
     y="129px"
     id="rect1684" />
  <rect
     fill="rgb(0,0,0)"
     height="3px"
     width="3px"
     x="69px"
     y="129px"
     id="rect1686" />
  <rect
     fill="rgb(0,0,0)"
     height="3px"
     width="3px"
     x="72px"
     y="129px"
     id="rect1688" />
  <rect
     fill="rgb(0,0,0)"
     height="3px"
     width="3px"
     x="75px"
     y="129px"
     id="rect1690" />
  <rect
     fill="rgb(0,0,0)"
     height="3px"
     width="3px"
     x="78px"
     y="129px"
     id="rect1692" />
  <rect
     fill="rgb(0,0,0)"
     height="3px"
     width="3px"
     x="81px"
     y="129px"
     id="rect1694" />
  <rect
     fill="rgb(0,0,0)"
     height="3px"
     width="3px"
     x="84px"
     y="129px"
     id="rect1696" />
  <rect
     fill="rgb(0,0,0)"
     height="3px"
     width="3px"
     x="87px"
     y="129px"
     id="rect1698" />
  <rect
     fill="rgb(0,0,0)"
     height="3px"
     width="3px"
     x="90px"
     y="129px"
     id="rect1700" />
  <rect
     fill="rgb(0,0,0)"
     height="3px"
     width="3px"
     x="93px"
     y="129px"
     id="rect1702" />
  <rect
     fill="rgb(0,0,0)"
     height="3px"
     width="3px"
     x="96px"
     y="129px"
     id="rect1704" />
  <rect
     fill="rgb(0,0,0)"
     height="3px"
     width="3px"
     x="99px"
     y="129px"
     id="rect1706" />
  <rect
     fill="rgb(0,0,0)"
     height="3px"
     width="3px"
     x="102px"
     y="129px"
     id="rect1708" />
  <rect
     fill="rgb(0,0,0)"
     height="3px"
     width="3px"
     x="105px"
     y="129px"
     id="rect1710" />
  <rect
     fill="rgb(0,0,0)"
     height="3px"
     width="3px"
     x="108px"
     y="129px"
     id="rect1712" />
  <rect
     fill="rgb(0,0,0)"
     height="3px"
     opacity="0.501960784314"
     width="3px"
     x="111px"
     y="129px"
     id="rect1714" />
  <rect
     fill="rgb(0,0,0)"
     height="3px"
     opacity="0.196078431373"
     width="3px"
     x="114px"
     y="129px"
     id="rect1716" />
  <rect
     fill="rgb(0,0,0)"
     height="3px"
     opacity="0.196078431373"
     width="3px"
     x="54px"
     y="132px"
     id="rect1718" />
  <rect
     fill="rgb(0,0,0)"
     height="3px"
     opacity="0.501960784314"
     width="3px"
     x="57px"
     y="132px"
     id="rect1720" />
  <rect
     fill="rgb(0,0,0)"
     height="3px"
     width="3px"
     x="60px"
     y="132px"
     id="rect1722" />
  <rect
     fill="rgb(0,0,0)"
     height="3px"
     width="3px"
     x="63px"
     y="132px"
     id="rect1724" />
  <rect
     fill="rgb(0,0,0)"
     height="3px"
     width="3px"
     x="66px"
     y="132px"
     id="rect1726" />
  <rect
     fill="rgb(0,0,0)"
     height="3px"
     width="3px"
     x="69px"
     y="132px"
     id="rect1728" />
  <rect
     fill="rgb(0,0,0)"
     height="3px"
     width="3px"
     x="72px"
     y="132px"
     id="rect1730" />
  <rect
     fill="rgb(0,0,0)"
     height="3px"
     width="3px"
     x="75px"
     y="132px"
     id="rect1732" />
  <rect
     fill="rgb(0,0,0)"
     height="3px"
     width="3px"
     x="78px"
     y="132px"
     id="rect1734" />
  <rect
     fill="rgb(0,0,0)"
     height="3px"
     width="3px"
     x="81px"
     y="132px"
     id="rect1736" />
  <rect
     fill="rgb(0,0,0)"
     height="3px"
     width="3px"
     x="84px"
     y="132px"
     id="rect1738" />
  <rect
     fill="rgb(0,0,0)"
     height="3px"
     width="3px"
     x="87px"
     y="132px"
     id="rect1740" />
  <rect
     fill="rgb(0,0,0)"
     height="3px"
     width="3px"
     x="90px"
     y="132px"
     id="rect1742" />
  <rect
     fill="rgb(0,0,0)"
     height="3px"
     width="3px"
     x="93px"
     y="132px"
     id="rect1744" />
  <rect
     fill="rgb(0,0,0)"
     height="3px"
     width="3px"
     x="96px"
     y="132px"
     id="rect1746" />
  <rect
     fill="rgb(0,0,0)"
     height="3px"
     width="3px"
     x="99px"
     y="132px"
     id="rect1748" />
  <rect
     fill="rgb(0,0,0)"
     height="3px"
     width="3px"
     x="102px"
     y="132px"
     id="rect1750" />
  <rect
     fill="rgb(0,0,0)"
     height="3px"
     opacity="0.501960784314"
     width="3px"
     x="105px"
     y="132px"
     id="rect1752" />
  <rect
     fill="rgb(0,0,0)"
     height="3px"
     opacity="0.196078431373"
     width="3px"
     x="108px"
     y="132px"
     id="rect1754" />
  <rect
     fill="rgb(0,0,0)"
     height="3px"
     opacity="0.501960784314"
     width="3px"
     x="63px"
     y="135px"
     id="rect1756" />
  <rect
     fill="rgb(0,0,0)"
     height="3px"
     opacity="0.803921568627"
     width="3px"
     x="66px"
     y="135px"
     id="rect1758" />
  <rect
     fill="rgb(0,0,0)"
     height="3px"
     width="3px"
     x="69px"
     y="135px"
     id="rect1760" />
  <rect
     fill="rgb(0,0,0)"
     height="3px"
     width="3px"
     x="72px"
     y="135px"
     id="rect1762" />
  <rect
     fill="rgb(0,0,0)"
     height="3px"
     width="3px"
     x="75px"
     y="135px"
     id="rect1764" />
  <rect
     fill="rgb(0,0,0)"
     height="3px"
     width="3px"
     x="78px"
     y="135px"
     id="rect1766" />
  <rect
     fill="rgb(0,0,0)"
     height="3px"
     width="3px"
     x="81px"
     y="135px"
     id="rect1768" />
  <rect
     fill="rgb(0,0,0)"
     height="3px"
     width="3px"
     x="84px"
     y="135px"
     id="rect1770" />
  <rect
     fill="rgb(0,0,0)"
     height="3px"
     width="3px"
     x="87px"
     y="135px"
     id="rect1772" />
  <rect
     fill="rgb(0,0,0)"
     height="3px"
     width="3px"
     x="90px"
     y="135px"
     id="rect1774" />
  <rect
     fill="rgb(0,0,0)"
     height="3px"
     width="3px"
     x="93px"
     y="135px"
     id="rect1776" />
  <rect
     fill="rgb(0,0,0)"
     height="3px"
     opacity="0.803921568627"
     width="3px"
     x="96px"
     y="135px"
     id="rect1778" />
  <rect
     fill="rgb(0,0,0)"
     height="3px"
     opacity="0.501960784314"
     width="3px"
     x="99px"
     y="135px"
     id="rect1780" />
  <rect
     fill="rgb(0,0,0)"
     height="3px"
     opacity="0.196078431373"
     width="3px"
     x="69px"
     y="138px"
     id="rect1782" />
  <rect
     fill="rgb(0,0,0)"
     height="3px"
     opacity="0.803921568627"
     width="3px"
     x="72px"
     y="138px"
     id="rect1784" />
  <rect
     fill="rgb(0,0,0)"
     height="3px"
     width="3px"
     x="75px"
     y="138px"
     id="rect1786" />
  <rect
     fill="rgb(0,0,0)"
     height="3px"
     width="3px"
     x="78px"
     y="138px"
     id="rect1788" />
  <rect
     fill="rgb(0,0,0)"
     height="3px"
     width="3px"
     x="81px"
     y="138px"
     id="rect1790" />
  <rect
     fill="rgb(0,0,0)"
     height="3px"
     width="3px"
     x="84px"
     y="138px"
     id="rect1792" />
  <rect
     fill="rgb(0,0,0)"
     height="3px"
     width="3px"
     x="87px"
     y="138px"
     id="rect1794" />
  <rect
     fill="rgb(0,0,0)"
     height="3px"
     opacity="0.803921568627"
     width="3px"
     x="90px"
     y="138px"
     id="rect1796" />
  <rect
     fill="rgb(0,0,0)"
     height="3px"
     opacity="0.196078431373"
     width="3px"
     x="93px"
     y="138px"
     id="rect1798" />
  <rect
     fill="rgb(0,0,0)"
     height="3px"
     opacity="0.196078431373"
     width="3px"
     x="75px"
     y="141px"
     id="rect1800" />
  <rect
     fill="rgb(0,0,0)"
     height="3px"
     opacity="0.501960784314"
     width="3px"
     x="78px"
     y="141px"
     id="rect1802" />
  <rect
     fill="rgb(0,0,0)"
     height="3px"
     width="3px"
     x="81px"
     y="141px"
     id="rect1804" />
  <rect
     fill="rgb(0,0,0)"
     height="3px"
     opacity="0.501960784314"
     width="3px"
     x="84px"
     y="141px"
     id="rect1806" />
  <rect
     fill="rgb(0,0,0)"
     height="3px"
     opacity="0.196078431373"
     width="3px"
     x="87px"
     y="141px"
     id="rect1808" />
</svg>
